G04 #@! TF.GenerationSoftware,KiCad,Pcbnew,5.1.4-e60b266~84~ubuntu18.04.1*
G04 #@! TF.CreationDate,2019-10-02T13:36:21-06:00*
G04 #@! TF.ProjectId,Star Tracker,53746172-2054-4726-9163-6b65722e6b69,rev?*
G04 #@! TF.SameCoordinates,Original*
G04 #@! TF.FileFunction,Legend,Top*
G04 #@! TF.FilePolarity,Positive*
%FSLAX46Y46*%
G04 Gerber Fmt 4.6, Leading zero omitted, Abs format (unit mm)*
G04 Created by KiCad (PCBNEW 5.1.4-e60b266~84~ubuntu18.04.1) date 2019-10-02 13:36:21*
%MOMM*%
%LPD*%
G04 APERTURE LIST*
%ADD10C,0.120000*%
%ADD11C,0.150000*%
G04 APERTURE END LIST*
D10*
X135530000Y-85692064D02*
X135530000Y-84487936D01*
X133710000Y-85692064D02*
X133710000Y-84487936D01*
X131720000Y-84487936D02*
X131720000Y-85692064D01*
X129900000Y-84487936D02*
X129900000Y-85692064D01*
X124997936Y-89810000D02*
X126202064Y-89810000D01*
X124997936Y-87990000D02*
X126202064Y-87990000D01*
X138790000Y-89567936D02*
X138790000Y-90772064D01*
X140610000Y-89567936D02*
X140610000Y-90772064D01*
X117507936Y-70760000D02*
X118712064Y-70760000D01*
X117507936Y-68940000D02*
X118712064Y-68940000D01*
X145690000Y-83347936D02*
X145690000Y-84552064D01*
X143870000Y-83347936D02*
X143870000Y-84552064D01*
X140610000Y-83341936D02*
X140610000Y-84546064D01*
X138790000Y-83341936D02*
X138790000Y-84546064D01*
X105390000Y-55840000D02*
X105390000Y-65260000D01*
X105390000Y-65260000D02*
X114010000Y-65260000D01*
X114010000Y-65260000D02*
X114010000Y-55840000D01*
X105390000Y-55840000D02*
X106900000Y-55840000D01*
X114010000Y-55840000D02*
X112500000Y-55840000D01*
X109000000Y-55840000D02*
X110400000Y-55840000D01*
X105390000Y-61950000D02*
X114010000Y-61950000D01*
X108250000Y-54550000D02*
X107950000Y-55150000D01*
X107950000Y-55150000D02*
X107650000Y-54550000D01*
X107650000Y-54550000D02*
X108250000Y-54550000D01*
X107455000Y-71695000D02*
X110985000Y-71695000D01*
X107455000Y-78165000D02*
X110985000Y-78165000D01*
X106130000Y-71760000D02*
X107455000Y-71760000D01*
X107455000Y-71695000D02*
X107455000Y-71760000D01*
X110985000Y-71695000D02*
X110985000Y-71760000D01*
X107455000Y-78100000D02*
X107455000Y-78165000D01*
X110985000Y-78100000D02*
X110985000Y-78165000D01*
X177840000Y-68560000D02*
X168420000Y-68560000D01*
X168420000Y-68560000D02*
X168420000Y-84180000D01*
X168420000Y-84180000D02*
X177840000Y-84180000D01*
X177840000Y-68560000D02*
X177840000Y-70070000D01*
X177840000Y-84180000D02*
X177840000Y-82670000D01*
X177840000Y-72170000D02*
X177840000Y-73570000D01*
X177840000Y-75670000D02*
X177840000Y-77070000D01*
X177840000Y-79170000D02*
X177840000Y-80570000D01*
X171730000Y-68560000D02*
X171730000Y-84180000D01*
X179130000Y-71420000D02*
X178530000Y-71120000D01*
X178530000Y-71120000D02*
X179130000Y-70820000D01*
X179130000Y-70820000D02*
X179130000Y-71420000D01*
X116820000Y-55840000D02*
X116820000Y-65260000D01*
X116820000Y-65260000D02*
X135940000Y-65260000D01*
X135940000Y-65260000D02*
X135940000Y-55840000D01*
X116820000Y-55840000D02*
X118330000Y-55840000D01*
X135940000Y-55840000D02*
X134430000Y-55840000D01*
X120430000Y-55840000D02*
X121830000Y-55840000D01*
X123930000Y-55840000D02*
X125330000Y-55840000D01*
X127430000Y-55840000D02*
X128830000Y-55840000D01*
X130930000Y-55840000D02*
X132330000Y-55840000D01*
X116820000Y-61950000D02*
X135940000Y-61950000D01*
X119680000Y-54550000D02*
X119380000Y-55150000D01*
X119380000Y-55150000D02*
X119080000Y-54550000D01*
X119080000Y-54550000D02*
X119680000Y-54550000D01*
X141940000Y-54550000D02*
X142540000Y-54550000D01*
X142240000Y-55150000D02*
X141940000Y-54550000D01*
X142540000Y-54550000D02*
X142240000Y-55150000D01*
X139680000Y-61950000D02*
X155300000Y-61950000D01*
X150290000Y-55840000D02*
X151690000Y-55840000D01*
X146790000Y-55840000D02*
X148190000Y-55840000D01*
X143290000Y-55840000D02*
X144690000Y-55840000D01*
X155300000Y-55840000D02*
X153790000Y-55840000D01*
X139680000Y-55840000D02*
X141190000Y-55840000D01*
X155300000Y-65260000D02*
X155300000Y-55840000D01*
X139680000Y-65260000D02*
X155300000Y-65260000D01*
X139680000Y-55840000D02*
X139680000Y-65260000D01*
X158730000Y-55840000D02*
X158730000Y-65260000D01*
X158730000Y-65260000D02*
X174350000Y-65260000D01*
X174350000Y-65260000D02*
X174350000Y-55840000D01*
X158730000Y-55840000D02*
X160240000Y-55840000D01*
X174350000Y-55840000D02*
X172840000Y-55840000D01*
X162340000Y-55840000D02*
X163740000Y-55840000D01*
X165840000Y-55840000D02*
X167240000Y-55840000D01*
X169340000Y-55840000D02*
X170740000Y-55840000D01*
X158730000Y-61950000D02*
X174350000Y-61950000D01*
X161590000Y-54550000D02*
X161290000Y-55150000D01*
X161290000Y-55150000D02*
X160990000Y-54550000D01*
X160990000Y-54550000D02*
X161590000Y-54550000D01*
D11*
X145485000Y-67786000D02*
X141085000Y-67786000D01*
X147060000Y-73311000D02*
X141085000Y-73311000D01*
X123375000Y-80265000D02*
X123600000Y-80265000D01*
X123375000Y-73015000D02*
X123700000Y-73015000D01*
X130625000Y-73015000D02*
X130300000Y-73015000D01*
X130625000Y-80265000D02*
X130300000Y-80265000D01*
X123375000Y-80265000D02*
X123375000Y-79940000D01*
X130625000Y-80265000D02*
X130625000Y-79940000D01*
X130625000Y-73015000D02*
X130625000Y-73340000D01*
X123375000Y-73015000D02*
X123375000Y-73340000D01*
X123600000Y-80265000D02*
X123600000Y-81690000D01*
D10*
X124750000Y-87020000D02*
X126550000Y-87020000D01*
X126550000Y-83800000D02*
X123600000Y-83800000D01*
X114905001Y-83610001D02*
X118965001Y-83610001D01*
X114905001Y-81340001D02*
X114905001Y-83610001D01*
X118965001Y-81340001D02*
X114905001Y-81340001D01*
X118965001Y-84730001D02*
X114905001Y-84730001D01*
X114905001Y-84730001D02*
X114905001Y-87000001D01*
X114905001Y-87000001D02*
X118965001Y-87000001D01*
X154560000Y-81160000D02*
X153060000Y-81160000D01*
X153060000Y-81160000D02*
X153060000Y-82110000D01*
X153060000Y-82110000D02*
X147935000Y-82110000D01*
X154560000Y-91560000D02*
X153060000Y-91560000D01*
X153060000Y-91560000D02*
X153060000Y-90610000D01*
X153060000Y-90610000D02*
X151960000Y-90610000D01*
D11*
X135072380Y-81068571D02*
X135072380Y-81640000D01*
X135072380Y-81354285D02*
X134072380Y-81354285D01*
X134215238Y-81449523D01*
X134310476Y-81544761D01*
X134358095Y-81640000D01*
X134405714Y-80211428D02*
X135072380Y-80211428D01*
X134405714Y-80640000D02*
X134929523Y-80640000D01*
X135024761Y-80592380D01*
X135072380Y-80497142D01*
X135072380Y-80354285D01*
X135024761Y-80259047D01*
X134977142Y-80211428D01*
X134405714Y-79878095D02*
X134405714Y-79497142D01*
X135072380Y-79735238D02*
X134215238Y-79735238D01*
X134120000Y-79687619D01*
X134072380Y-79592380D01*
X134072380Y-79497142D01*
X134167619Y-79211428D02*
X134120000Y-79163809D01*
X134072380Y-79068571D01*
X134072380Y-78830476D01*
X134120000Y-78735238D01*
X134167619Y-78687619D01*
X134262857Y-78640000D01*
X134358095Y-78640000D01*
X134500952Y-78687619D01*
X135072380Y-79259047D01*
X135072380Y-78640000D01*
X131262380Y-91098571D02*
X131262380Y-91670000D01*
X131262380Y-91384285D02*
X130262380Y-91384285D01*
X130405238Y-91479523D01*
X130500476Y-91574761D01*
X130548095Y-91670000D01*
X130595714Y-90241428D02*
X131262380Y-90241428D01*
X130595714Y-90670000D02*
X131119523Y-90670000D01*
X131214761Y-90622380D01*
X131262380Y-90527142D01*
X131262380Y-90384285D01*
X131214761Y-90289047D01*
X131167142Y-90241428D01*
X130595714Y-89908095D02*
X130595714Y-89527142D01*
X131262380Y-89765238D02*
X130405238Y-89765238D01*
X130310000Y-89717619D01*
X130262380Y-89622380D01*
X130262380Y-89527142D01*
X130262380Y-89289047D02*
X130262380Y-88670000D01*
X130643333Y-89003333D01*
X130643333Y-88860476D01*
X130690952Y-88765238D01*
X130738571Y-88717619D01*
X130833809Y-88670000D01*
X131071904Y-88670000D01*
X131167142Y-88717619D01*
X131214761Y-88765238D01*
X131262380Y-88860476D01*
X131262380Y-89146190D01*
X131214761Y-89241428D01*
X131167142Y-89289047D01*
X124801428Y-91257380D02*
X124230000Y-91257380D01*
X124515714Y-91257380D02*
X124515714Y-90257380D01*
X124420476Y-90400238D01*
X124325238Y-90495476D01*
X124230000Y-90543095D01*
X125658571Y-90590714D02*
X125658571Y-91257380D01*
X125230000Y-90590714D02*
X125230000Y-91114523D01*
X125277619Y-91209761D01*
X125372857Y-91257380D01*
X125515714Y-91257380D01*
X125610952Y-91209761D01*
X125658571Y-91162142D01*
X125991904Y-90590714D02*
X126372857Y-90590714D01*
X126134761Y-91257380D02*
X126134761Y-90400238D01*
X126182380Y-90305000D01*
X126277619Y-90257380D01*
X126372857Y-90257380D01*
X127134761Y-90590714D02*
X127134761Y-91257380D01*
X126896666Y-90209761D02*
X126658571Y-90924047D01*
X127277619Y-90924047D01*
X140972380Y-92336666D02*
X140972380Y-91717619D01*
X141353333Y-92050952D01*
X141353333Y-91908095D01*
X141400952Y-91812857D01*
X141448571Y-91765238D01*
X141543809Y-91717619D01*
X141781904Y-91717619D01*
X141877142Y-91765238D01*
X141924761Y-91812857D01*
X141972380Y-91908095D01*
X141972380Y-92193809D01*
X141924761Y-92289047D01*
X141877142Y-92336666D01*
X140972380Y-91098571D02*
X140972380Y-91003333D01*
X141020000Y-90908095D01*
X141067619Y-90860476D01*
X141162857Y-90812857D01*
X141353333Y-90765238D01*
X141591428Y-90765238D01*
X141781904Y-90812857D01*
X141877142Y-90860476D01*
X141924761Y-90908095D01*
X141972380Y-91003333D01*
X141972380Y-91098571D01*
X141924761Y-91193809D01*
X141877142Y-91241428D01*
X141781904Y-91289047D01*
X141591428Y-91336666D01*
X141353333Y-91336666D01*
X141162857Y-91289047D01*
X141067619Y-91241428D01*
X141020000Y-91193809D01*
X140972380Y-91098571D01*
X140972380Y-90146190D02*
X140972380Y-90050952D01*
X141020000Y-89955714D01*
X141067619Y-89908095D01*
X141162857Y-89860476D01*
X141353333Y-89812857D01*
X141591428Y-89812857D01*
X141781904Y-89860476D01*
X141877142Y-89908095D01*
X141924761Y-89955714D01*
X141972380Y-90050952D01*
X141972380Y-90146190D01*
X141924761Y-90241428D01*
X141877142Y-90289047D01*
X141781904Y-90336666D01*
X141591428Y-90384285D01*
X141353333Y-90384285D01*
X141162857Y-90336666D01*
X141067619Y-90289047D01*
X141020000Y-90241428D01*
X140972380Y-90146190D01*
X141972380Y-89384285D02*
X140972380Y-89384285D01*
X141591428Y-89289047D02*
X141972380Y-89003333D01*
X141305714Y-89003333D02*
X141686666Y-89384285D01*
X141972380Y-88050952D02*
X141972380Y-88622380D01*
X141972380Y-88336666D02*
X140972380Y-88336666D01*
X141115238Y-88431904D01*
X141210476Y-88527142D01*
X141258095Y-88622380D01*
X115062380Y-67815714D02*
X115062380Y-68482380D01*
X114824285Y-67434761D02*
X114586190Y-68149047D01*
X115205238Y-68149047D01*
X115586190Y-68387142D02*
X115633809Y-68434761D01*
X115586190Y-68482380D01*
X115538571Y-68434761D01*
X115586190Y-68387142D01*
X115586190Y-68482380D01*
X115967142Y-67482380D02*
X116633809Y-67482380D01*
X116205238Y-68482380D01*
X117014761Y-68482380D02*
X117014761Y-67482380D01*
X117110000Y-68101428D02*
X117395714Y-68482380D01*
X117395714Y-67815714D02*
X117014761Y-68196666D01*
X118014761Y-67482380D02*
X118205238Y-67482380D01*
X118300476Y-67530000D01*
X118395714Y-67625238D01*
X118443333Y-67815714D01*
X118443333Y-68149047D01*
X118395714Y-68339523D01*
X118300476Y-68434761D01*
X118205238Y-68482380D01*
X118014761Y-68482380D01*
X117919523Y-68434761D01*
X117824285Y-68339523D01*
X117776666Y-68149047D01*
X117776666Y-67815714D01*
X117824285Y-67625238D01*
X117919523Y-67530000D01*
X118014761Y-67482380D01*
X118871904Y-68482380D02*
X118871904Y-67482380D01*
X119300476Y-68482380D02*
X119300476Y-67958571D01*
X119252857Y-67863333D01*
X119157619Y-67815714D01*
X119014761Y-67815714D01*
X118919523Y-67863333D01*
X118871904Y-67910952D01*
X119776666Y-68482380D02*
X119776666Y-67815714D01*
X119776666Y-67910952D02*
X119824285Y-67863333D01*
X119919523Y-67815714D01*
X120062380Y-67815714D01*
X120157619Y-67863333D01*
X120205238Y-67958571D01*
X120205238Y-68482380D01*
X120205238Y-67958571D02*
X120252857Y-67863333D01*
X120348095Y-67815714D01*
X120490952Y-67815714D01*
X120586190Y-67863333D01*
X120633809Y-67958571D01*
X120633809Y-68482380D01*
X121633809Y-68482380D02*
X121062380Y-68482380D01*
X121348095Y-68482380D02*
X121348095Y-67482380D01*
X121252857Y-67625238D01*
X121157619Y-67720476D01*
X121062380Y-67768095D01*
X146052380Y-85640476D02*
X146052380Y-86116666D01*
X146528571Y-86164285D01*
X146480952Y-86116666D01*
X146433333Y-86021428D01*
X146433333Y-85783333D01*
X146480952Y-85688095D01*
X146528571Y-85640476D01*
X146623809Y-85592857D01*
X146861904Y-85592857D01*
X146957142Y-85640476D01*
X147004761Y-85688095D01*
X147052380Y-85783333D01*
X147052380Y-86021428D01*
X147004761Y-86116666D01*
X146957142Y-86164285D01*
X146957142Y-85164285D02*
X147004761Y-85116666D01*
X147052380Y-85164285D01*
X147004761Y-85211904D01*
X146957142Y-85164285D01*
X147052380Y-85164285D01*
X146052380Y-84259523D02*
X146052380Y-84450000D01*
X146100000Y-84545238D01*
X146147619Y-84592857D01*
X146290476Y-84688095D01*
X146480952Y-84735714D01*
X146861904Y-84735714D01*
X146957142Y-84688095D01*
X147004761Y-84640476D01*
X147052380Y-84545238D01*
X147052380Y-84354761D01*
X147004761Y-84259523D01*
X146957142Y-84211904D01*
X146861904Y-84164285D01*
X146623809Y-84164285D01*
X146528571Y-84211904D01*
X146480952Y-84259523D01*
X146433333Y-84354761D01*
X146433333Y-84545238D01*
X146480952Y-84640476D01*
X146528571Y-84688095D01*
X146623809Y-84735714D01*
X146385714Y-83735714D02*
X147385714Y-83735714D01*
X146433333Y-83735714D02*
X146385714Y-83640476D01*
X146385714Y-83450000D01*
X146433333Y-83354761D01*
X146480952Y-83307142D01*
X146576190Y-83259523D01*
X146861904Y-83259523D01*
X146957142Y-83307142D01*
X147004761Y-83354761D01*
X147052380Y-83450000D01*
X147052380Y-83640476D01*
X147004761Y-83735714D01*
X146385714Y-82973809D02*
X146385714Y-82592857D01*
X147052380Y-82830952D02*
X146195238Y-82830952D01*
X146100000Y-82783333D01*
X146052380Y-82688095D01*
X146052380Y-82592857D01*
X147052380Y-81735714D02*
X147052380Y-82307142D01*
X147052380Y-82021428D02*
X146052380Y-82021428D01*
X146195238Y-82116666D01*
X146290476Y-82211904D01*
X146338095Y-82307142D01*
X141972380Y-85491619D02*
X141972380Y-85301142D01*
X141924761Y-85205904D01*
X141877142Y-85158285D01*
X141734285Y-85063047D01*
X141543809Y-85015428D01*
X141162857Y-85015428D01*
X141067619Y-85063047D01*
X141020000Y-85110666D01*
X140972380Y-85205904D01*
X140972380Y-85396380D01*
X141020000Y-85491619D01*
X141067619Y-85539238D01*
X141162857Y-85586857D01*
X141400952Y-85586857D01*
X141496190Y-85539238D01*
X141543809Y-85491619D01*
X141591428Y-85396380D01*
X141591428Y-85205904D01*
X141543809Y-85110666D01*
X141496190Y-85063047D01*
X141400952Y-85015428D01*
X140972380Y-84682095D02*
X140972380Y-84063047D01*
X141353333Y-84396380D01*
X141353333Y-84253523D01*
X141400952Y-84158285D01*
X141448571Y-84110666D01*
X141543809Y-84063047D01*
X141781904Y-84063047D01*
X141877142Y-84110666D01*
X141924761Y-84158285D01*
X141972380Y-84253523D01*
X141972380Y-84539238D01*
X141924761Y-84634476D01*
X141877142Y-84682095D01*
X141972380Y-83634476D02*
X140972380Y-83634476D01*
X141591428Y-83539238D02*
X141972380Y-83253523D01*
X141305714Y-83253523D02*
X141686666Y-83634476D01*
X141972380Y-82301142D02*
X141972380Y-82872571D01*
X141972380Y-82586857D02*
X140972380Y-82586857D01*
X141115238Y-82682095D01*
X141210476Y-82777333D01*
X141258095Y-82872571D01*
X106985714Y-54602380D02*
X106985714Y-53602380D01*
X108033333Y-54602380D02*
X107700000Y-54126190D01*
X107461904Y-54602380D02*
X107461904Y-53602380D01*
X107842857Y-53602380D01*
X107938095Y-53650000D01*
X107985714Y-53697619D01*
X108033333Y-53792857D01*
X108033333Y-53935714D01*
X107985714Y-54030952D01*
X107938095Y-54078571D01*
X107842857Y-54126190D01*
X107461904Y-54126190D01*
X108223809Y-54697619D02*
X108985714Y-54697619D01*
X109700000Y-54602380D02*
X109223809Y-54602380D01*
X109223809Y-53602380D01*
X110033333Y-54078571D02*
X110366666Y-54078571D01*
X110509523Y-54602380D02*
X110033333Y-54602380D01*
X110033333Y-53602380D01*
X110509523Y-53602380D01*
X110938095Y-54602380D02*
X110938095Y-53602380D01*
X111176190Y-53602380D01*
X111319047Y-53650000D01*
X111414285Y-53745238D01*
X111461904Y-53840476D01*
X111509523Y-54030952D01*
X111509523Y-54173809D01*
X111461904Y-54364285D01*
X111414285Y-54459523D01*
X111319047Y-54554761D01*
X111176190Y-54602380D01*
X110938095Y-54602380D01*
X112461904Y-54602380D02*
X111890476Y-54602380D01*
X112176190Y-54602380D02*
X112176190Y-53602380D01*
X112080952Y-53745238D01*
X111985714Y-53840476D01*
X111890476Y-53888095D01*
X108886666Y-70147380D02*
X108886666Y-70861666D01*
X108839047Y-71004523D01*
X108743809Y-71099761D01*
X108600952Y-71147380D01*
X108505714Y-71147380D01*
X109886666Y-71147380D02*
X109315238Y-71147380D01*
X109600952Y-71147380D02*
X109600952Y-70147380D01*
X109505714Y-70290238D01*
X109410476Y-70385476D01*
X109315238Y-70433095D01*
X179982380Y-78179523D02*
X178982380Y-78179523D01*
X178982380Y-77798571D01*
X179030000Y-77703333D01*
X179077619Y-77655714D01*
X179172857Y-77608095D01*
X179315714Y-77608095D01*
X179410952Y-77655714D01*
X179458571Y-77703333D01*
X179506190Y-77798571D01*
X179506190Y-78179523D01*
X178982380Y-77274761D02*
X179982380Y-77036666D01*
X179268095Y-76846190D01*
X179982380Y-76655714D01*
X178982380Y-76417619D01*
X179982380Y-75465238D02*
X179506190Y-75798571D01*
X179982380Y-76036666D02*
X178982380Y-76036666D01*
X178982380Y-75655714D01*
X179030000Y-75560476D01*
X179077619Y-75512857D01*
X179172857Y-75465238D01*
X179315714Y-75465238D01*
X179410952Y-75512857D01*
X179458571Y-75560476D01*
X179506190Y-75655714D01*
X179506190Y-76036666D01*
X179982380Y-74512857D02*
X179982380Y-75084285D01*
X179982380Y-74798571D02*
X178982380Y-74798571D01*
X179125238Y-74893809D01*
X179220476Y-74989047D01*
X179268095Y-75084285D01*
X121356190Y-54602380D02*
X121022857Y-54126190D01*
X120784761Y-54602380D02*
X120784761Y-53602380D01*
X121165714Y-53602380D01*
X121260952Y-53650000D01*
X121308571Y-53697619D01*
X121356190Y-53792857D01*
X121356190Y-53935714D01*
X121308571Y-54030952D01*
X121260952Y-54078571D01*
X121165714Y-54126190D01*
X120784761Y-54126190D01*
X121927619Y-54602380D02*
X121832380Y-54554761D01*
X121784761Y-54507142D01*
X121737142Y-54411904D01*
X121737142Y-54126190D01*
X121784761Y-54030952D01*
X121832380Y-53983333D01*
X121927619Y-53935714D01*
X122070476Y-53935714D01*
X122165714Y-53983333D01*
X122213333Y-54030952D01*
X122260952Y-54126190D01*
X122260952Y-54411904D01*
X122213333Y-54507142D01*
X122165714Y-54554761D01*
X122070476Y-54602380D01*
X121927619Y-54602380D01*
X122546666Y-53935714D02*
X122927619Y-53935714D01*
X122689523Y-53602380D02*
X122689523Y-54459523D01*
X122737142Y-54554761D01*
X122832380Y-54602380D01*
X122927619Y-54602380D01*
X123689523Y-54602380D02*
X123689523Y-54078571D01*
X123641904Y-53983333D01*
X123546666Y-53935714D01*
X123356190Y-53935714D01*
X123260952Y-53983333D01*
X123689523Y-54554761D02*
X123594285Y-54602380D01*
X123356190Y-54602380D01*
X123260952Y-54554761D01*
X123213333Y-54459523D01*
X123213333Y-54364285D01*
X123260952Y-54269047D01*
X123356190Y-54221428D01*
X123594285Y-54221428D01*
X123689523Y-54173809D01*
X124165714Y-54602380D02*
X124165714Y-53935714D01*
X124165714Y-54126190D02*
X124213333Y-54030952D01*
X124260952Y-53983333D01*
X124356190Y-53935714D01*
X124451428Y-53935714D01*
X124689523Y-53935714D02*
X124927619Y-54602380D01*
X125165714Y-53935714D02*
X124927619Y-54602380D01*
X124832380Y-54840476D01*
X124784761Y-54888095D01*
X124689523Y-54935714D01*
X125546666Y-54078571D02*
X125880000Y-54078571D01*
X126022857Y-54602380D02*
X125546666Y-54602380D01*
X125546666Y-53602380D01*
X126022857Y-53602380D01*
X126451428Y-53935714D02*
X126451428Y-54602380D01*
X126451428Y-54030952D02*
X126499047Y-53983333D01*
X126594285Y-53935714D01*
X126737142Y-53935714D01*
X126832380Y-53983333D01*
X126880000Y-54078571D01*
X126880000Y-54602380D01*
X127784761Y-54554761D02*
X127689523Y-54602380D01*
X127499047Y-54602380D01*
X127403809Y-54554761D01*
X127356190Y-54507142D01*
X127308571Y-54411904D01*
X127308571Y-54126190D01*
X127356190Y-54030952D01*
X127403809Y-53983333D01*
X127499047Y-53935714D01*
X127689523Y-53935714D01*
X127784761Y-53983333D01*
X128356190Y-54602380D02*
X128260952Y-54554761D01*
X128213333Y-54507142D01*
X128165714Y-54411904D01*
X128165714Y-54126190D01*
X128213333Y-54030952D01*
X128260952Y-53983333D01*
X128356190Y-53935714D01*
X128499047Y-53935714D01*
X128594285Y-53983333D01*
X128641904Y-54030952D01*
X128689523Y-54126190D01*
X128689523Y-54411904D01*
X128641904Y-54507142D01*
X128594285Y-54554761D01*
X128499047Y-54602380D01*
X128356190Y-54602380D01*
X129546666Y-54602380D02*
X129546666Y-53602380D01*
X129546666Y-54554761D02*
X129451428Y-54602380D01*
X129260952Y-54602380D01*
X129165714Y-54554761D01*
X129118095Y-54507142D01*
X129070476Y-54411904D01*
X129070476Y-54126190D01*
X129118095Y-54030952D01*
X129165714Y-53983333D01*
X129260952Y-53935714D01*
X129451428Y-53935714D01*
X129546666Y-53983333D01*
X130403809Y-54554761D02*
X130308571Y-54602380D01*
X130118095Y-54602380D01*
X130022857Y-54554761D01*
X129975238Y-54459523D01*
X129975238Y-54078571D01*
X130022857Y-53983333D01*
X130118095Y-53935714D01*
X130308571Y-53935714D01*
X130403809Y-53983333D01*
X130451428Y-54078571D01*
X130451428Y-54173809D01*
X129975238Y-54269047D01*
X130880000Y-54602380D02*
X130880000Y-53935714D01*
X130880000Y-54126190D02*
X130927619Y-54030952D01*
X130975238Y-53983333D01*
X131070476Y-53935714D01*
X131165714Y-53935714D01*
X132022857Y-54602380D02*
X131451428Y-54602380D01*
X131737142Y-54602380D02*
X131737142Y-53602380D01*
X131641904Y-53745238D01*
X131546666Y-53840476D01*
X131451428Y-53888095D01*
X144680476Y-54554761D02*
X144823333Y-54602380D01*
X145061428Y-54602380D01*
X145156666Y-54554761D01*
X145204285Y-54507142D01*
X145251904Y-54411904D01*
X145251904Y-54316666D01*
X145204285Y-54221428D01*
X145156666Y-54173809D01*
X145061428Y-54126190D01*
X144870952Y-54078571D01*
X144775714Y-54030952D01*
X144728095Y-53983333D01*
X144680476Y-53888095D01*
X144680476Y-53792857D01*
X144728095Y-53697619D01*
X144775714Y-53650000D01*
X144870952Y-53602380D01*
X145109047Y-53602380D01*
X145251904Y-53650000D01*
X146109047Y-54554761D02*
X146013809Y-54602380D01*
X145823333Y-54602380D01*
X145728095Y-54554761D01*
X145680476Y-54507142D01*
X145632857Y-54411904D01*
X145632857Y-54126190D01*
X145680476Y-54030952D01*
X145728095Y-53983333D01*
X145823333Y-53935714D01*
X146013809Y-53935714D01*
X146109047Y-53983333D01*
X146537619Y-54602380D02*
X146537619Y-53935714D01*
X146537619Y-54126190D02*
X146585238Y-54030952D01*
X146632857Y-53983333D01*
X146728095Y-53935714D01*
X146823333Y-53935714D01*
X147537619Y-54554761D02*
X147442380Y-54602380D01*
X147251904Y-54602380D01*
X147156666Y-54554761D01*
X147109047Y-54459523D01*
X147109047Y-54078571D01*
X147156666Y-53983333D01*
X147251904Y-53935714D01*
X147442380Y-53935714D01*
X147537619Y-53983333D01*
X147585238Y-54078571D01*
X147585238Y-54173809D01*
X147109047Y-54269047D01*
X148394761Y-54554761D02*
X148299523Y-54602380D01*
X148109047Y-54602380D01*
X148013809Y-54554761D01*
X147966190Y-54459523D01*
X147966190Y-54078571D01*
X148013809Y-53983333D01*
X148109047Y-53935714D01*
X148299523Y-53935714D01*
X148394761Y-53983333D01*
X148442380Y-54078571D01*
X148442380Y-54173809D01*
X147966190Y-54269047D01*
X148870952Y-53935714D02*
X148870952Y-54602380D01*
X148870952Y-54030952D02*
X148918571Y-53983333D01*
X149013809Y-53935714D01*
X149156666Y-53935714D01*
X149251904Y-53983333D01*
X149299523Y-54078571D01*
X149299523Y-54602380D01*
X150299523Y-54602380D02*
X149728095Y-54602380D01*
X150013809Y-54602380D02*
X150013809Y-53602380D01*
X149918571Y-53745238D01*
X149823333Y-53840476D01*
X149728095Y-53888095D01*
X161349523Y-54554761D02*
X161492380Y-54602380D01*
X161730476Y-54602380D01*
X161825714Y-54554761D01*
X161873333Y-54507142D01*
X161920952Y-54411904D01*
X161920952Y-54316666D01*
X161873333Y-54221428D01*
X161825714Y-54173809D01*
X161730476Y-54126190D01*
X161540000Y-54078571D01*
X161444761Y-54030952D01*
X161397142Y-53983333D01*
X161349523Y-53888095D01*
X161349523Y-53792857D01*
X161397142Y-53697619D01*
X161444761Y-53650000D01*
X161540000Y-53602380D01*
X161778095Y-53602380D01*
X161920952Y-53650000D01*
X162206666Y-53935714D02*
X162587619Y-53935714D01*
X162349523Y-53602380D02*
X162349523Y-54459523D01*
X162397142Y-54554761D01*
X162492380Y-54602380D01*
X162587619Y-54602380D01*
X163301904Y-54554761D02*
X163206666Y-54602380D01*
X163016190Y-54602380D01*
X162920952Y-54554761D01*
X162873333Y-54459523D01*
X162873333Y-54078571D01*
X162920952Y-53983333D01*
X163016190Y-53935714D01*
X163206666Y-53935714D01*
X163301904Y-53983333D01*
X163349523Y-54078571D01*
X163349523Y-54173809D01*
X162873333Y-54269047D01*
X163778095Y-53935714D02*
X163778095Y-54935714D01*
X163778095Y-53983333D02*
X163873333Y-53935714D01*
X164063809Y-53935714D01*
X164159047Y-53983333D01*
X164206666Y-54030952D01*
X164254285Y-54126190D01*
X164254285Y-54411904D01*
X164206666Y-54507142D01*
X164159047Y-54554761D01*
X164063809Y-54602380D01*
X163873333Y-54602380D01*
X163778095Y-54554761D01*
X164682857Y-53935714D02*
X164682857Y-54935714D01*
X164682857Y-53983333D02*
X164778095Y-53935714D01*
X164968571Y-53935714D01*
X165063809Y-53983333D01*
X165111428Y-54030952D01*
X165159047Y-54126190D01*
X165159047Y-54411904D01*
X165111428Y-54507142D01*
X165063809Y-54554761D01*
X164968571Y-54602380D01*
X164778095Y-54602380D01*
X164682857Y-54554761D01*
X165968571Y-54554761D02*
X165873333Y-54602380D01*
X165682857Y-54602380D01*
X165587619Y-54554761D01*
X165540000Y-54459523D01*
X165540000Y-54078571D01*
X165587619Y-53983333D01*
X165682857Y-53935714D01*
X165873333Y-53935714D01*
X165968571Y-53983333D01*
X166016190Y-54078571D01*
X166016190Y-54173809D01*
X165540000Y-54269047D01*
X166444761Y-54602380D02*
X166444761Y-53935714D01*
X166444761Y-54126190D02*
X166492380Y-54030952D01*
X166540000Y-53983333D01*
X166635238Y-53935714D01*
X166730476Y-53935714D01*
X167063809Y-54602380D02*
X167063809Y-53602380D01*
X167397142Y-54316666D01*
X167730476Y-53602380D01*
X167730476Y-54602380D01*
X168349523Y-54602380D02*
X168254285Y-54554761D01*
X168206666Y-54507142D01*
X168159047Y-54411904D01*
X168159047Y-54126190D01*
X168206666Y-54030952D01*
X168254285Y-53983333D01*
X168349523Y-53935714D01*
X168492380Y-53935714D01*
X168587619Y-53983333D01*
X168635238Y-54030952D01*
X168682857Y-54126190D01*
X168682857Y-54411904D01*
X168635238Y-54507142D01*
X168587619Y-54554761D01*
X168492380Y-54602380D01*
X168349523Y-54602380D01*
X168968571Y-53935714D02*
X169349523Y-53935714D01*
X169111428Y-53602380D02*
X169111428Y-54459523D01*
X169159047Y-54554761D01*
X169254285Y-54602380D01*
X169349523Y-54602380D01*
X169825714Y-54602380D02*
X169730476Y-54554761D01*
X169682857Y-54507142D01*
X169635238Y-54411904D01*
X169635238Y-54126190D01*
X169682857Y-54030952D01*
X169730476Y-53983333D01*
X169825714Y-53935714D01*
X169968571Y-53935714D01*
X170063809Y-53983333D01*
X170111428Y-54030952D01*
X170159047Y-54126190D01*
X170159047Y-54411904D01*
X170111428Y-54507142D01*
X170063809Y-54554761D01*
X169968571Y-54602380D01*
X169825714Y-54602380D01*
X170587619Y-54602380D02*
X170587619Y-53935714D01*
X170587619Y-54126190D02*
X170635238Y-54030952D01*
X170682857Y-53983333D01*
X170778095Y-53935714D01*
X170873333Y-53935714D01*
X171730476Y-54602380D02*
X171159047Y-54602380D01*
X171444761Y-54602380D02*
X171444761Y-53602380D01*
X171349523Y-53745238D01*
X171254285Y-53840476D01*
X171159047Y-53888095D01*
X142523095Y-73513380D02*
X142523095Y-74322904D01*
X142570714Y-74418142D01*
X142618333Y-74465761D01*
X142713571Y-74513380D01*
X142904047Y-74513380D01*
X142999285Y-74465761D01*
X143046904Y-74418142D01*
X143094523Y-74322904D01*
X143094523Y-73513380D01*
X143523095Y-73608619D02*
X143570714Y-73561000D01*
X143665952Y-73513380D01*
X143904047Y-73513380D01*
X143999285Y-73561000D01*
X144046904Y-73608619D01*
X144094523Y-73703857D01*
X144094523Y-73799095D01*
X144046904Y-73941952D01*
X143475476Y-74513380D01*
X144094523Y-74513380D01*
X120402380Y-77401904D02*
X121211904Y-77401904D01*
X121307142Y-77354285D01*
X121354761Y-77306666D01*
X121402380Y-77211428D01*
X121402380Y-77020952D01*
X121354761Y-76925714D01*
X121307142Y-76878095D01*
X121211904Y-76830476D01*
X120402380Y-76830476D01*
X120402380Y-76449523D02*
X120402380Y-75830476D01*
X120783333Y-76163809D01*
X120783333Y-76020952D01*
X120830952Y-75925714D01*
X120878571Y-75878095D01*
X120973809Y-75830476D01*
X121211904Y-75830476D01*
X121307142Y-75878095D01*
X121354761Y-75925714D01*
X121402380Y-76020952D01*
X121402380Y-76306666D01*
X121354761Y-76401904D01*
X121307142Y-76449523D01*
X124888095Y-81962380D02*
X124888095Y-82771904D01*
X124935714Y-82867142D01*
X124983333Y-82914761D01*
X125078571Y-82962380D01*
X125269047Y-82962380D01*
X125364285Y-82914761D01*
X125411904Y-82867142D01*
X125459523Y-82771904D01*
X125459523Y-81962380D01*
X126364285Y-82295714D02*
X126364285Y-82962380D01*
X126126190Y-81914761D02*
X125888095Y-82629047D01*
X126507142Y-82629047D01*
X115769762Y-80821667D02*
X116245953Y-80821667D01*
X115674524Y-81107381D02*
X116007858Y-80107381D01*
X116341191Y-81107381D01*
X117245953Y-81012143D02*
X117198334Y-81059762D01*
X117055477Y-81107381D01*
X116960239Y-81107381D01*
X116817381Y-81059762D01*
X116722143Y-80964524D01*
X116674524Y-80869286D01*
X116626905Y-80678810D01*
X116626905Y-80535953D01*
X116674524Y-80345477D01*
X116722143Y-80250239D01*
X116817381Y-80155001D01*
X116960239Y-80107381D01*
X117055477Y-80107381D01*
X117198334Y-80155001D01*
X117245953Y-80202620D01*
X117531667Y-80107381D02*
X118103096Y-80107381D01*
X117817381Y-81107381D02*
X117817381Y-80107381D01*
X118960239Y-81107381D02*
X118388810Y-81107381D01*
X118674524Y-81107381D02*
X118674524Y-80107381D01*
X118579286Y-80250239D01*
X118484048Y-80345477D01*
X118388810Y-80393096D01*
X115555477Y-84497381D02*
X115555477Y-83497381D01*
X115936429Y-83497381D01*
X116031667Y-83545001D01*
X116079286Y-83592620D01*
X116126905Y-83687858D01*
X116126905Y-83830715D01*
X116079286Y-83925953D01*
X116031667Y-83973572D01*
X115936429Y-84021191D01*
X115555477Y-84021191D01*
X116460239Y-83497381D02*
X116698334Y-84497381D01*
X116888810Y-83783096D01*
X117079286Y-84497381D01*
X117317381Y-83497381D01*
X118269762Y-84497381D02*
X117936429Y-84021191D01*
X117698334Y-84497381D02*
X117698334Y-83497381D01*
X118079286Y-83497381D01*
X118174524Y-83545001D01*
X118222143Y-83592620D01*
X118269762Y-83687858D01*
X118269762Y-83830715D01*
X118222143Y-83925953D01*
X118174524Y-83973572D01*
X118079286Y-84021191D01*
X117698334Y-84021191D01*
X118650715Y-83592620D02*
X118698334Y-83545001D01*
X118793572Y-83497381D01*
X119031667Y-83497381D01*
X119126905Y-83545001D01*
X119174524Y-83592620D01*
X119222143Y-83687858D01*
X119222143Y-83783096D01*
X119174524Y-83925953D01*
X118603096Y-84497381D01*
X119222143Y-84497381D01*
X155248095Y-79162380D02*
X155248095Y-79971904D01*
X155295714Y-80067142D01*
X155343333Y-80114761D01*
X155438571Y-80162380D01*
X155629047Y-80162380D01*
X155724285Y-80114761D01*
X155771904Y-80067142D01*
X155819523Y-79971904D01*
X155819523Y-79162380D01*
X156819523Y-80162380D02*
X156248095Y-80162380D01*
X156533809Y-80162380D02*
X156533809Y-79162380D01*
X156438571Y-79305238D01*
X156343333Y-79400476D01*
X156248095Y-79448095D01*
M02*
