G04 #@! TF.GenerationSoftware,KiCad,Pcbnew,5.1.4-e60b266~84~ubuntu18.04.1*
G04 #@! TF.CreationDate,2019-10-02T13:36:21-06:00*
G04 #@! TF.ProjectId,Star Tracker,53746172-2054-4726-9163-6b65722e6b69,rev?*
G04 #@! TF.SameCoordinates,Original*
G04 #@! TF.FileFunction,Copper,L1,Top*
G04 #@! TF.FilePolarity,Positive*
%FSLAX46Y46*%
G04 Gerber Fmt 4.6, Leading zero omitted, Abs format (unit mm)*
G04 Created by KiCad (PCBNEW 5.1.4-e60b266~84~ubuntu18.04.1) date 2019-10-02 13:36:21*
%MOMM*%
%LPD*%
G04 APERTURE LIST*
%ADD10C,0.100000*%
%ADD11C,1.250000*%
%ADD12C,1.800000*%
%ADD13O,1.800000X3.600000*%
%ADD14R,2.400000X0.740000*%
%ADD15O,3.600000X1.800000*%
%ADD16R,1.500000X0.450000*%
%ADD17R,0.550000X1.600000*%
%ADD18R,1.600000X0.550000*%
%ADD19R,1.560000X0.650000*%
%ADD20C,1.425000*%
%ADD21R,4.600000X1.100000*%
%ADD22R,9.400000X10.800000*%
%ADD23C,1.200000*%
%ADD24C,0.800000*%
%ADD25C,0.375000*%
%ADD26C,0.250000*%
%ADD27C,0.600000*%
%ADD28C,0.254000*%
G04 APERTURE END LIST*
D10*
G36*
X135269504Y-83066204D02*
G01*
X135293773Y-83069804D01*
X135317571Y-83075765D01*
X135340671Y-83084030D01*
X135362849Y-83094520D01*
X135383893Y-83107133D01*
X135403598Y-83121747D01*
X135421777Y-83138223D01*
X135438253Y-83156402D01*
X135452867Y-83176107D01*
X135465480Y-83197151D01*
X135475970Y-83219329D01*
X135484235Y-83242429D01*
X135490196Y-83266227D01*
X135493796Y-83290496D01*
X135495000Y-83315000D01*
X135495000Y-84065000D01*
X135493796Y-84089504D01*
X135490196Y-84113773D01*
X135484235Y-84137571D01*
X135475970Y-84160671D01*
X135465480Y-84182849D01*
X135452867Y-84203893D01*
X135438253Y-84223598D01*
X135421777Y-84241777D01*
X135403598Y-84258253D01*
X135383893Y-84272867D01*
X135362849Y-84285480D01*
X135340671Y-84295970D01*
X135317571Y-84304235D01*
X135293773Y-84310196D01*
X135269504Y-84313796D01*
X135245000Y-84315000D01*
X133995000Y-84315000D01*
X133970496Y-84313796D01*
X133946227Y-84310196D01*
X133922429Y-84304235D01*
X133899329Y-84295970D01*
X133877151Y-84285480D01*
X133856107Y-84272867D01*
X133836402Y-84258253D01*
X133818223Y-84241777D01*
X133801747Y-84223598D01*
X133787133Y-84203893D01*
X133774520Y-84182849D01*
X133764030Y-84160671D01*
X133755765Y-84137571D01*
X133749804Y-84113773D01*
X133746204Y-84089504D01*
X133745000Y-84065000D01*
X133745000Y-83315000D01*
X133746204Y-83290496D01*
X133749804Y-83266227D01*
X133755765Y-83242429D01*
X133764030Y-83219329D01*
X133774520Y-83197151D01*
X133787133Y-83176107D01*
X133801747Y-83156402D01*
X133818223Y-83138223D01*
X133836402Y-83121747D01*
X133856107Y-83107133D01*
X133877151Y-83094520D01*
X133899329Y-83084030D01*
X133922429Y-83075765D01*
X133946227Y-83069804D01*
X133970496Y-83066204D01*
X133995000Y-83065000D01*
X135245000Y-83065000D01*
X135269504Y-83066204D01*
X135269504Y-83066204D01*
G37*
D11*
X134620000Y-83690000D03*
D10*
G36*
X135269504Y-85866204D02*
G01*
X135293773Y-85869804D01*
X135317571Y-85875765D01*
X135340671Y-85884030D01*
X135362849Y-85894520D01*
X135383893Y-85907133D01*
X135403598Y-85921747D01*
X135421777Y-85938223D01*
X135438253Y-85956402D01*
X135452867Y-85976107D01*
X135465480Y-85997151D01*
X135475970Y-86019329D01*
X135484235Y-86042429D01*
X135490196Y-86066227D01*
X135493796Y-86090496D01*
X135495000Y-86115000D01*
X135495000Y-86865000D01*
X135493796Y-86889504D01*
X135490196Y-86913773D01*
X135484235Y-86937571D01*
X135475970Y-86960671D01*
X135465480Y-86982849D01*
X135452867Y-87003893D01*
X135438253Y-87023598D01*
X135421777Y-87041777D01*
X135403598Y-87058253D01*
X135383893Y-87072867D01*
X135362849Y-87085480D01*
X135340671Y-87095970D01*
X135317571Y-87104235D01*
X135293773Y-87110196D01*
X135269504Y-87113796D01*
X135245000Y-87115000D01*
X133995000Y-87115000D01*
X133970496Y-87113796D01*
X133946227Y-87110196D01*
X133922429Y-87104235D01*
X133899329Y-87095970D01*
X133877151Y-87085480D01*
X133856107Y-87072867D01*
X133836402Y-87058253D01*
X133818223Y-87041777D01*
X133801747Y-87023598D01*
X133787133Y-87003893D01*
X133774520Y-86982849D01*
X133764030Y-86960671D01*
X133755765Y-86937571D01*
X133749804Y-86913773D01*
X133746204Y-86889504D01*
X133745000Y-86865000D01*
X133745000Y-86115000D01*
X133746204Y-86090496D01*
X133749804Y-86066227D01*
X133755765Y-86042429D01*
X133764030Y-86019329D01*
X133774520Y-85997151D01*
X133787133Y-85976107D01*
X133801747Y-85956402D01*
X133818223Y-85938223D01*
X133836402Y-85921747D01*
X133856107Y-85907133D01*
X133877151Y-85894520D01*
X133899329Y-85884030D01*
X133922429Y-85875765D01*
X133946227Y-85869804D01*
X133970496Y-85866204D01*
X133995000Y-85865000D01*
X135245000Y-85865000D01*
X135269504Y-85866204D01*
X135269504Y-85866204D01*
G37*
D11*
X134620000Y-86490000D03*
D10*
G36*
X131459504Y-83066204D02*
G01*
X131483773Y-83069804D01*
X131507571Y-83075765D01*
X131530671Y-83084030D01*
X131552849Y-83094520D01*
X131573893Y-83107133D01*
X131593598Y-83121747D01*
X131611777Y-83138223D01*
X131628253Y-83156402D01*
X131642867Y-83176107D01*
X131655480Y-83197151D01*
X131665970Y-83219329D01*
X131674235Y-83242429D01*
X131680196Y-83266227D01*
X131683796Y-83290496D01*
X131685000Y-83315000D01*
X131685000Y-84065000D01*
X131683796Y-84089504D01*
X131680196Y-84113773D01*
X131674235Y-84137571D01*
X131665970Y-84160671D01*
X131655480Y-84182849D01*
X131642867Y-84203893D01*
X131628253Y-84223598D01*
X131611777Y-84241777D01*
X131593598Y-84258253D01*
X131573893Y-84272867D01*
X131552849Y-84285480D01*
X131530671Y-84295970D01*
X131507571Y-84304235D01*
X131483773Y-84310196D01*
X131459504Y-84313796D01*
X131435000Y-84315000D01*
X130185000Y-84315000D01*
X130160496Y-84313796D01*
X130136227Y-84310196D01*
X130112429Y-84304235D01*
X130089329Y-84295970D01*
X130067151Y-84285480D01*
X130046107Y-84272867D01*
X130026402Y-84258253D01*
X130008223Y-84241777D01*
X129991747Y-84223598D01*
X129977133Y-84203893D01*
X129964520Y-84182849D01*
X129954030Y-84160671D01*
X129945765Y-84137571D01*
X129939804Y-84113773D01*
X129936204Y-84089504D01*
X129935000Y-84065000D01*
X129935000Y-83315000D01*
X129936204Y-83290496D01*
X129939804Y-83266227D01*
X129945765Y-83242429D01*
X129954030Y-83219329D01*
X129964520Y-83197151D01*
X129977133Y-83176107D01*
X129991747Y-83156402D01*
X130008223Y-83138223D01*
X130026402Y-83121747D01*
X130046107Y-83107133D01*
X130067151Y-83094520D01*
X130089329Y-83084030D01*
X130112429Y-83075765D01*
X130136227Y-83069804D01*
X130160496Y-83066204D01*
X130185000Y-83065000D01*
X131435000Y-83065000D01*
X131459504Y-83066204D01*
X131459504Y-83066204D01*
G37*
D11*
X130810000Y-83690000D03*
D10*
G36*
X131459504Y-85866204D02*
G01*
X131483773Y-85869804D01*
X131507571Y-85875765D01*
X131530671Y-85884030D01*
X131552849Y-85894520D01*
X131573893Y-85907133D01*
X131593598Y-85921747D01*
X131611777Y-85938223D01*
X131628253Y-85956402D01*
X131642867Y-85976107D01*
X131655480Y-85997151D01*
X131665970Y-86019329D01*
X131674235Y-86042429D01*
X131680196Y-86066227D01*
X131683796Y-86090496D01*
X131685000Y-86115000D01*
X131685000Y-86865000D01*
X131683796Y-86889504D01*
X131680196Y-86913773D01*
X131674235Y-86937571D01*
X131665970Y-86960671D01*
X131655480Y-86982849D01*
X131642867Y-87003893D01*
X131628253Y-87023598D01*
X131611777Y-87041777D01*
X131593598Y-87058253D01*
X131573893Y-87072867D01*
X131552849Y-87085480D01*
X131530671Y-87095970D01*
X131507571Y-87104235D01*
X131483773Y-87110196D01*
X131459504Y-87113796D01*
X131435000Y-87115000D01*
X130185000Y-87115000D01*
X130160496Y-87113796D01*
X130136227Y-87110196D01*
X130112429Y-87104235D01*
X130089329Y-87095970D01*
X130067151Y-87085480D01*
X130046107Y-87072867D01*
X130026402Y-87058253D01*
X130008223Y-87041777D01*
X129991747Y-87023598D01*
X129977133Y-87003893D01*
X129964520Y-86982849D01*
X129954030Y-86960671D01*
X129945765Y-86937571D01*
X129939804Y-86913773D01*
X129936204Y-86889504D01*
X129935000Y-86865000D01*
X129935000Y-86115000D01*
X129936204Y-86090496D01*
X129939804Y-86066227D01*
X129945765Y-86042429D01*
X129954030Y-86019329D01*
X129964520Y-85997151D01*
X129977133Y-85976107D01*
X129991747Y-85956402D01*
X130008223Y-85938223D01*
X130026402Y-85921747D01*
X130046107Y-85907133D01*
X130067151Y-85894520D01*
X130089329Y-85884030D01*
X130112429Y-85875765D01*
X130136227Y-85869804D01*
X130160496Y-85866204D01*
X130185000Y-85865000D01*
X131435000Y-85865000D01*
X131459504Y-85866204D01*
X131459504Y-85866204D01*
G37*
D11*
X130810000Y-86490000D03*
D10*
G36*
X127399504Y-88026204D02*
G01*
X127423773Y-88029804D01*
X127447571Y-88035765D01*
X127470671Y-88044030D01*
X127492849Y-88054520D01*
X127513893Y-88067133D01*
X127533598Y-88081747D01*
X127551777Y-88098223D01*
X127568253Y-88116402D01*
X127582867Y-88136107D01*
X127595480Y-88157151D01*
X127605970Y-88179329D01*
X127614235Y-88202429D01*
X127620196Y-88226227D01*
X127623796Y-88250496D01*
X127625000Y-88275000D01*
X127625000Y-89525000D01*
X127623796Y-89549504D01*
X127620196Y-89573773D01*
X127614235Y-89597571D01*
X127605970Y-89620671D01*
X127595480Y-89642849D01*
X127582867Y-89663893D01*
X127568253Y-89683598D01*
X127551777Y-89701777D01*
X127533598Y-89718253D01*
X127513893Y-89732867D01*
X127492849Y-89745480D01*
X127470671Y-89755970D01*
X127447571Y-89764235D01*
X127423773Y-89770196D01*
X127399504Y-89773796D01*
X127375000Y-89775000D01*
X126625000Y-89775000D01*
X126600496Y-89773796D01*
X126576227Y-89770196D01*
X126552429Y-89764235D01*
X126529329Y-89755970D01*
X126507151Y-89745480D01*
X126486107Y-89732867D01*
X126466402Y-89718253D01*
X126448223Y-89701777D01*
X126431747Y-89683598D01*
X126417133Y-89663893D01*
X126404520Y-89642849D01*
X126394030Y-89620671D01*
X126385765Y-89597571D01*
X126379804Y-89573773D01*
X126376204Y-89549504D01*
X126375000Y-89525000D01*
X126375000Y-88275000D01*
X126376204Y-88250496D01*
X126379804Y-88226227D01*
X126385765Y-88202429D01*
X126394030Y-88179329D01*
X126404520Y-88157151D01*
X126417133Y-88136107D01*
X126431747Y-88116402D01*
X126448223Y-88098223D01*
X126466402Y-88081747D01*
X126486107Y-88067133D01*
X126507151Y-88054520D01*
X126529329Y-88044030D01*
X126552429Y-88035765D01*
X126576227Y-88029804D01*
X126600496Y-88026204D01*
X126625000Y-88025000D01*
X127375000Y-88025000D01*
X127399504Y-88026204D01*
X127399504Y-88026204D01*
G37*
D11*
X127000000Y-88900000D03*
D10*
G36*
X124599504Y-88026204D02*
G01*
X124623773Y-88029804D01*
X124647571Y-88035765D01*
X124670671Y-88044030D01*
X124692849Y-88054520D01*
X124713893Y-88067133D01*
X124733598Y-88081747D01*
X124751777Y-88098223D01*
X124768253Y-88116402D01*
X124782867Y-88136107D01*
X124795480Y-88157151D01*
X124805970Y-88179329D01*
X124814235Y-88202429D01*
X124820196Y-88226227D01*
X124823796Y-88250496D01*
X124825000Y-88275000D01*
X124825000Y-89525000D01*
X124823796Y-89549504D01*
X124820196Y-89573773D01*
X124814235Y-89597571D01*
X124805970Y-89620671D01*
X124795480Y-89642849D01*
X124782867Y-89663893D01*
X124768253Y-89683598D01*
X124751777Y-89701777D01*
X124733598Y-89718253D01*
X124713893Y-89732867D01*
X124692849Y-89745480D01*
X124670671Y-89755970D01*
X124647571Y-89764235D01*
X124623773Y-89770196D01*
X124599504Y-89773796D01*
X124575000Y-89775000D01*
X123825000Y-89775000D01*
X123800496Y-89773796D01*
X123776227Y-89770196D01*
X123752429Y-89764235D01*
X123729329Y-89755970D01*
X123707151Y-89745480D01*
X123686107Y-89732867D01*
X123666402Y-89718253D01*
X123648223Y-89701777D01*
X123631747Y-89683598D01*
X123617133Y-89663893D01*
X123604520Y-89642849D01*
X123594030Y-89620671D01*
X123585765Y-89597571D01*
X123579804Y-89573773D01*
X123576204Y-89549504D01*
X123575000Y-89525000D01*
X123575000Y-88275000D01*
X123576204Y-88250496D01*
X123579804Y-88226227D01*
X123585765Y-88202429D01*
X123594030Y-88179329D01*
X123604520Y-88157151D01*
X123617133Y-88136107D01*
X123631747Y-88116402D01*
X123648223Y-88098223D01*
X123666402Y-88081747D01*
X123686107Y-88067133D01*
X123707151Y-88054520D01*
X123729329Y-88044030D01*
X123752429Y-88035765D01*
X123776227Y-88029804D01*
X123800496Y-88026204D01*
X123825000Y-88025000D01*
X124575000Y-88025000D01*
X124599504Y-88026204D01*
X124599504Y-88026204D01*
G37*
D11*
X124200000Y-88900000D03*
D10*
G36*
X140349504Y-90946204D02*
G01*
X140373773Y-90949804D01*
X140397571Y-90955765D01*
X140420671Y-90964030D01*
X140442849Y-90974520D01*
X140463893Y-90987133D01*
X140483598Y-91001747D01*
X140501777Y-91018223D01*
X140518253Y-91036402D01*
X140532867Y-91056107D01*
X140545480Y-91077151D01*
X140555970Y-91099329D01*
X140564235Y-91122429D01*
X140570196Y-91146227D01*
X140573796Y-91170496D01*
X140575000Y-91195000D01*
X140575000Y-91945000D01*
X140573796Y-91969504D01*
X140570196Y-91993773D01*
X140564235Y-92017571D01*
X140555970Y-92040671D01*
X140545480Y-92062849D01*
X140532867Y-92083893D01*
X140518253Y-92103598D01*
X140501777Y-92121777D01*
X140483598Y-92138253D01*
X140463893Y-92152867D01*
X140442849Y-92165480D01*
X140420671Y-92175970D01*
X140397571Y-92184235D01*
X140373773Y-92190196D01*
X140349504Y-92193796D01*
X140325000Y-92195000D01*
X139075000Y-92195000D01*
X139050496Y-92193796D01*
X139026227Y-92190196D01*
X139002429Y-92184235D01*
X138979329Y-92175970D01*
X138957151Y-92165480D01*
X138936107Y-92152867D01*
X138916402Y-92138253D01*
X138898223Y-92121777D01*
X138881747Y-92103598D01*
X138867133Y-92083893D01*
X138854520Y-92062849D01*
X138844030Y-92040671D01*
X138835765Y-92017571D01*
X138829804Y-91993773D01*
X138826204Y-91969504D01*
X138825000Y-91945000D01*
X138825000Y-91195000D01*
X138826204Y-91170496D01*
X138829804Y-91146227D01*
X138835765Y-91122429D01*
X138844030Y-91099329D01*
X138854520Y-91077151D01*
X138867133Y-91056107D01*
X138881747Y-91036402D01*
X138898223Y-91018223D01*
X138916402Y-91001747D01*
X138936107Y-90987133D01*
X138957151Y-90974520D01*
X138979329Y-90964030D01*
X139002429Y-90955765D01*
X139026227Y-90949804D01*
X139050496Y-90946204D01*
X139075000Y-90945000D01*
X140325000Y-90945000D01*
X140349504Y-90946204D01*
X140349504Y-90946204D01*
G37*
D11*
X139700000Y-91570000D03*
D10*
G36*
X140349504Y-88146204D02*
G01*
X140373773Y-88149804D01*
X140397571Y-88155765D01*
X140420671Y-88164030D01*
X140442849Y-88174520D01*
X140463893Y-88187133D01*
X140483598Y-88201747D01*
X140501777Y-88218223D01*
X140518253Y-88236402D01*
X140532867Y-88256107D01*
X140545480Y-88277151D01*
X140555970Y-88299329D01*
X140564235Y-88322429D01*
X140570196Y-88346227D01*
X140573796Y-88370496D01*
X140575000Y-88395000D01*
X140575000Y-89145000D01*
X140573796Y-89169504D01*
X140570196Y-89193773D01*
X140564235Y-89217571D01*
X140555970Y-89240671D01*
X140545480Y-89262849D01*
X140532867Y-89283893D01*
X140518253Y-89303598D01*
X140501777Y-89321777D01*
X140483598Y-89338253D01*
X140463893Y-89352867D01*
X140442849Y-89365480D01*
X140420671Y-89375970D01*
X140397571Y-89384235D01*
X140373773Y-89390196D01*
X140349504Y-89393796D01*
X140325000Y-89395000D01*
X139075000Y-89395000D01*
X139050496Y-89393796D01*
X139026227Y-89390196D01*
X139002429Y-89384235D01*
X138979329Y-89375970D01*
X138957151Y-89365480D01*
X138936107Y-89352867D01*
X138916402Y-89338253D01*
X138898223Y-89321777D01*
X138881747Y-89303598D01*
X138867133Y-89283893D01*
X138854520Y-89262849D01*
X138844030Y-89240671D01*
X138835765Y-89217571D01*
X138829804Y-89193773D01*
X138826204Y-89169504D01*
X138825000Y-89145000D01*
X138825000Y-88395000D01*
X138826204Y-88370496D01*
X138829804Y-88346227D01*
X138835765Y-88322429D01*
X138844030Y-88299329D01*
X138854520Y-88277151D01*
X138867133Y-88256107D01*
X138881747Y-88236402D01*
X138898223Y-88218223D01*
X138916402Y-88201747D01*
X138936107Y-88187133D01*
X138957151Y-88174520D01*
X138979329Y-88164030D01*
X139002429Y-88155765D01*
X139026227Y-88149804D01*
X139050496Y-88146204D01*
X139075000Y-88145000D01*
X140325000Y-88145000D01*
X140349504Y-88146204D01*
X140349504Y-88146204D01*
G37*
D11*
X139700000Y-88770000D03*
D10*
G36*
X119909504Y-68976204D02*
G01*
X119933773Y-68979804D01*
X119957571Y-68985765D01*
X119980671Y-68994030D01*
X120002849Y-69004520D01*
X120023893Y-69017133D01*
X120043598Y-69031747D01*
X120061777Y-69048223D01*
X120078253Y-69066402D01*
X120092867Y-69086107D01*
X120105480Y-69107151D01*
X120115970Y-69129329D01*
X120124235Y-69152429D01*
X120130196Y-69176227D01*
X120133796Y-69200496D01*
X120135000Y-69225000D01*
X120135000Y-70475000D01*
X120133796Y-70499504D01*
X120130196Y-70523773D01*
X120124235Y-70547571D01*
X120115970Y-70570671D01*
X120105480Y-70592849D01*
X120092867Y-70613893D01*
X120078253Y-70633598D01*
X120061777Y-70651777D01*
X120043598Y-70668253D01*
X120023893Y-70682867D01*
X120002849Y-70695480D01*
X119980671Y-70705970D01*
X119957571Y-70714235D01*
X119933773Y-70720196D01*
X119909504Y-70723796D01*
X119885000Y-70725000D01*
X119135000Y-70725000D01*
X119110496Y-70723796D01*
X119086227Y-70720196D01*
X119062429Y-70714235D01*
X119039329Y-70705970D01*
X119017151Y-70695480D01*
X118996107Y-70682867D01*
X118976402Y-70668253D01*
X118958223Y-70651777D01*
X118941747Y-70633598D01*
X118927133Y-70613893D01*
X118914520Y-70592849D01*
X118904030Y-70570671D01*
X118895765Y-70547571D01*
X118889804Y-70523773D01*
X118886204Y-70499504D01*
X118885000Y-70475000D01*
X118885000Y-69225000D01*
X118886204Y-69200496D01*
X118889804Y-69176227D01*
X118895765Y-69152429D01*
X118904030Y-69129329D01*
X118914520Y-69107151D01*
X118927133Y-69086107D01*
X118941747Y-69066402D01*
X118958223Y-69048223D01*
X118976402Y-69031747D01*
X118996107Y-69017133D01*
X119017151Y-69004520D01*
X119039329Y-68994030D01*
X119062429Y-68985765D01*
X119086227Y-68979804D01*
X119110496Y-68976204D01*
X119135000Y-68975000D01*
X119885000Y-68975000D01*
X119909504Y-68976204D01*
X119909504Y-68976204D01*
G37*
D11*
X119510000Y-69850000D03*
D10*
G36*
X117109504Y-68976204D02*
G01*
X117133773Y-68979804D01*
X117157571Y-68985765D01*
X117180671Y-68994030D01*
X117202849Y-69004520D01*
X117223893Y-69017133D01*
X117243598Y-69031747D01*
X117261777Y-69048223D01*
X117278253Y-69066402D01*
X117292867Y-69086107D01*
X117305480Y-69107151D01*
X117315970Y-69129329D01*
X117324235Y-69152429D01*
X117330196Y-69176227D01*
X117333796Y-69200496D01*
X117335000Y-69225000D01*
X117335000Y-70475000D01*
X117333796Y-70499504D01*
X117330196Y-70523773D01*
X117324235Y-70547571D01*
X117315970Y-70570671D01*
X117305480Y-70592849D01*
X117292867Y-70613893D01*
X117278253Y-70633598D01*
X117261777Y-70651777D01*
X117243598Y-70668253D01*
X117223893Y-70682867D01*
X117202849Y-70695480D01*
X117180671Y-70705970D01*
X117157571Y-70714235D01*
X117133773Y-70720196D01*
X117109504Y-70723796D01*
X117085000Y-70725000D01*
X116335000Y-70725000D01*
X116310496Y-70723796D01*
X116286227Y-70720196D01*
X116262429Y-70714235D01*
X116239329Y-70705970D01*
X116217151Y-70695480D01*
X116196107Y-70682867D01*
X116176402Y-70668253D01*
X116158223Y-70651777D01*
X116141747Y-70633598D01*
X116127133Y-70613893D01*
X116114520Y-70592849D01*
X116104030Y-70570671D01*
X116095765Y-70547571D01*
X116089804Y-70523773D01*
X116086204Y-70499504D01*
X116085000Y-70475000D01*
X116085000Y-69225000D01*
X116086204Y-69200496D01*
X116089804Y-69176227D01*
X116095765Y-69152429D01*
X116104030Y-69129329D01*
X116114520Y-69107151D01*
X116127133Y-69086107D01*
X116141747Y-69066402D01*
X116158223Y-69048223D01*
X116176402Y-69031747D01*
X116196107Y-69017133D01*
X116217151Y-69004520D01*
X116239329Y-68994030D01*
X116262429Y-68985765D01*
X116286227Y-68979804D01*
X116310496Y-68976204D01*
X116335000Y-68975000D01*
X117085000Y-68975000D01*
X117109504Y-68976204D01*
X117109504Y-68976204D01*
G37*
D11*
X116710000Y-69850000D03*
D10*
G36*
X145429504Y-81926204D02*
G01*
X145453773Y-81929804D01*
X145477571Y-81935765D01*
X145500671Y-81944030D01*
X145522849Y-81954520D01*
X145543893Y-81967133D01*
X145563598Y-81981747D01*
X145581777Y-81998223D01*
X145598253Y-82016402D01*
X145612867Y-82036107D01*
X145625480Y-82057151D01*
X145635970Y-82079329D01*
X145644235Y-82102429D01*
X145650196Y-82126227D01*
X145653796Y-82150496D01*
X145655000Y-82175000D01*
X145655000Y-82925000D01*
X145653796Y-82949504D01*
X145650196Y-82973773D01*
X145644235Y-82997571D01*
X145635970Y-83020671D01*
X145625480Y-83042849D01*
X145612867Y-83063893D01*
X145598253Y-83083598D01*
X145581777Y-83101777D01*
X145563598Y-83118253D01*
X145543893Y-83132867D01*
X145522849Y-83145480D01*
X145500671Y-83155970D01*
X145477571Y-83164235D01*
X145453773Y-83170196D01*
X145429504Y-83173796D01*
X145405000Y-83175000D01*
X144155000Y-83175000D01*
X144130496Y-83173796D01*
X144106227Y-83170196D01*
X144082429Y-83164235D01*
X144059329Y-83155970D01*
X144037151Y-83145480D01*
X144016107Y-83132867D01*
X143996402Y-83118253D01*
X143978223Y-83101777D01*
X143961747Y-83083598D01*
X143947133Y-83063893D01*
X143934520Y-83042849D01*
X143924030Y-83020671D01*
X143915765Y-82997571D01*
X143909804Y-82973773D01*
X143906204Y-82949504D01*
X143905000Y-82925000D01*
X143905000Y-82175000D01*
X143906204Y-82150496D01*
X143909804Y-82126227D01*
X143915765Y-82102429D01*
X143924030Y-82079329D01*
X143934520Y-82057151D01*
X143947133Y-82036107D01*
X143961747Y-82016402D01*
X143978223Y-81998223D01*
X143996402Y-81981747D01*
X144016107Y-81967133D01*
X144037151Y-81954520D01*
X144059329Y-81944030D01*
X144082429Y-81935765D01*
X144106227Y-81929804D01*
X144130496Y-81926204D01*
X144155000Y-81925000D01*
X145405000Y-81925000D01*
X145429504Y-81926204D01*
X145429504Y-81926204D01*
G37*
D11*
X144780000Y-82550000D03*
D10*
G36*
X145429504Y-84726204D02*
G01*
X145453773Y-84729804D01*
X145477571Y-84735765D01*
X145500671Y-84744030D01*
X145522849Y-84754520D01*
X145543893Y-84767133D01*
X145563598Y-84781747D01*
X145581777Y-84798223D01*
X145598253Y-84816402D01*
X145612867Y-84836107D01*
X145625480Y-84857151D01*
X145635970Y-84879329D01*
X145644235Y-84902429D01*
X145650196Y-84926227D01*
X145653796Y-84950496D01*
X145655000Y-84975000D01*
X145655000Y-85725000D01*
X145653796Y-85749504D01*
X145650196Y-85773773D01*
X145644235Y-85797571D01*
X145635970Y-85820671D01*
X145625480Y-85842849D01*
X145612867Y-85863893D01*
X145598253Y-85883598D01*
X145581777Y-85901777D01*
X145563598Y-85918253D01*
X145543893Y-85932867D01*
X145522849Y-85945480D01*
X145500671Y-85955970D01*
X145477571Y-85964235D01*
X145453773Y-85970196D01*
X145429504Y-85973796D01*
X145405000Y-85975000D01*
X144155000Y-85975000D01*
X144130496Y-85973796D01*
X144106227Y-85970196D01*
X144082429Y-85964235D01*
X144059329Y-85955970D01*
X144037151Y-85945480D01*
X144016107Y-85932867D01*
X143996402Y-85918253D01*
X143978223Y-85901777D01*
X143961747Y-85883598D01*
X143947133Y-85863893D01*
X143934520Y-85842849D01*
X143924030Y-85820671D01*
X143915765Y-85797571D01*
X143909804Y-85773773D01*
X143906204Y-85749504D01*
X143905000Y-85725000D01*
X143905000Y-84975000D01*
X143906204Y-84950496D01*
X143909804Y-84926227D01*
X143915765Y-84902429D01*
X143924030Y-84879329D01*
X143934520Y-84857151D01*
X143947133Y-84836107D01*
X143961747Y-84816402D01*
X143978223Y-84798223D01*
X143996402Y-84781747D01*
X144016107Y-84767133D01*
X144037151Y-84754520D01*
X144059329Y-84744030D01*
X144082429Y-84735765D01*
X144106227Y-84729804D01*
X144130496Y-84726204D01*
X144155000Y-84725000D01*
X145405000Y-84725000D01*
X145429504Y-84726204D01*
X145429504Y-84726204D01*
G37*
D11*
X144780000Y-85350000D03*
D10*
G36*
X140349504Y-81920204D02*
G01*
X140373773Y-81923804D01*
X140397571Y-81929765D01*
X140420671Y-81938030D01*
X140442849Y-81948520D01*
X140463893Y-81961133D01*
X140483598Y-81975747D01*
X140501777Y-81992223D01*
X140518253Y-82010402D01*
X140532867Y-82030107D01*
X140545480Y-82051151D01*
X140555970Y-82073329D01*
X140564235Y-82096429D01*
X140570196Y-82120227D01*
X140573796Y-82144496D01*
X140575000Y-82169000D01*
X140575000Y-82919000D01*
X140573796Y-82943504D01*
X140570196Y-82967773D01*
X140564235Y-82991571D01*
X140555970Y-83014671D01*
X140545480Y-83036849D01*
X140532867Y-83057893D01*
X140518253Y-83077598D01*
X140501777Y-83095777D01*
X140483598Y-83112253D01*
X140463893Y-83126867D01*
X140442849Y-83139480D01*
X140420671Y-83149970D01*
X140397571Y-83158235D01*
X140373773Y-83164196D01*
X140349504Y-83167796D01*
X140325000Y-83169000D01*
X139075000Y-83169000D01*
X139050496Y-83167796D01*
X139026227Y-83164196D01*
X139002429Y-83158235D01*
X138979329Y-83149970D01*
X138957151Y-83139480D01*
X138936107Y-83126867D01*
X138916402Y-83112253D01*
X138898223Y-83095777D01*
X138881747Y-83077598D01*
X138867133Y-83057893D01*
X138854520Y-83036849D01*
X138844030Y-83014671D01*
X138835765Y-82991571D01*
X138829804Y-82967773D01*
X138826204Y-82943504D01*
X138825000Y-82919000D01*
X138825000Y-82169000D01*
X138826204Y-82144496D01*
X138829804Y-82120227D01*
X138835765Y-82096429D01*
X138844030Y-82073329D01*
X138854520Y-82051151D01*
X138867133Y-82030107D01*
X138881747Y-82010402D01*
X138898223Y-81992223D01*
X138916402Y-81975747D01*
X138936107Y-81961133D01*
X138957151Y-81948520D01*
X138979329Y-81938030D01*
X139002429Y-81929765D01*
X139026227Y-81923804D01*
X139050496Y-81920204D01*
X139075000Y-81919000D01*
X140325000Y-81919000D01*
X140349504Y-81920204D01*
X140349504Y-81920204D01*
G37*
D11*
X139700000Y-82544000D03*
D10*
G36*
X140349504Y-84720204D02*
G01*
X140373773Y-84723804D01*
X140397571Y-84729765D01*
X140420671Y-84738030D01*
X140442849Y-84748520D01*
X140463893Y-84761133D01*
X140483598Y-84775747D01*
X140501777Y-84792223D01*
X140518253Y-84810402D01*
X140532867Y-84830107D01*
X140545480Y-84851151D01*
X140555970Y-84873329D01*
X140564235Y-84896429D01*
X140570196Y-84920227D01*
X140573796Y-84944496D01*
X140575000Y-84969000D01*
X140575000Y-85719000D01*
X140573796Y-85743504D01*
X140570196Y-85767773D01*
X140564235Y-85791571D01*
X140555970Y-85814671D01*
X140545480Y-85836849D01*
X140532867Y-85857893D01*
X140518253Y-85877598D01*
X140501777Y-85895777D01*
X140483598Y-85912253D01*
X140463893Y-85926867D01*
X140442849Y-85939480D01*
X140420671Y-85949970D01*
X140397571Y-85958235D01*
X140373773Y-85964196D01*
X140349504Y-85967796D01*
X140325000Y-85969000D01*
X139075000Y-85969000D01*
X139050496Y-85967796D01*
X139026227Y-85964196D01*
X139002429Y-85958235D01*
X138979329Y-85949970D01*
X138957151Y-85939480D01*
X138936107Y-85926867D01*
X138916402Y-85912253D01*
X138898223Y-85895777D01*
X138881747Y-85877598D01*
X138867133Y-85857893D01*
X138854520Y-85836849D01*
X138844030Y-85814671D01*
X138835765Y-85791571D01*
X138829804Y-85767773D01*
X138826204Y-85743504D01*
X138825000Y-85719000D01*
X138825000Y-84969000D01*
X138826204Y-84944496D01*
X138829804Y-84920227D01*
X138835765Y-84896429D01*
X138844030Y-84873329D01*
X138854520Y-84851151D01*
X138867133Y-84830107D01*
X138881747Y-84810402D01*
X138898223Y-84792223D01*
X138916402Y-84775747D01*
X138936107Y-84761133D01*
X138957151Y-84748520D01*
X138979329Y-84738030D01*
X139002429Y-84729765D01*
X139026227Y-84723804D01*
X139050496Y-84720204D01*
X139075000Y-84719000D01*
X140325000Y-84719000D01*
X140349504Y-84720204D01*
X140349504Y-84720204D01*
G37*
D11*
X139700000Y-85344000D03*
D10*
G36*
X108624504Y-55351204D02*
G01*
X108648773Y-55354804D01*
X108672571Y-55360765D01*
X108695671Y-55369030D01*
X108717849Y-55379520D01*
X108738893Y-55392133D01*
X108758598Y-55406747D01*
X108776777Y-55423223D01*
X108793253Y-55441402D01*
X108807867Y-55461107D01*
X108820480Y-55482151D01*
X108830970Y-55504329D01*
X108839235Y-55527429D01*
X108845196Y-55551227D01*
X108848796Y-55575496D01*
X108850000Y-55600000D01*
X108850000Y-58700000D01*
X108848796Y-58724504D01*
X108845196Y-58748773D01*
X108839235Y-58772571D01*
X108830970Y-58795671D01*
X108820480Y-58817849D01*
X108807867Y-58838893D01*
X108793253Y-58858598D01*
X108776777Y-58876777D01*
X108758598Y-58893253D01*
X108738893Y-58907867D01*
X108717849Y-58920480D01*
X108695671Y-58930970D01*
X108672571Y-58939235D01*
X108648773Y-58945196D01*
X108624504Y-58948796D01*
X108600000Y-58950000D01*
X107300000Y-58950000D01*
X107275496Y-58948796D01*
X107251227Y-58945196D01*
X107227429Y-58939235D01*
X107204329Y-58930970D01*
X107182151Y-58920480D01*
X107161107Y-58907867D01*
X107141402Y-58893253D01*
X107123223Y-58876777D01*
X107106747Y-58858598D01*
X107092133Y-58838893D01*
X107079520Y-58817849D01*
X107069030Y-58795671D01*
X107060765Y-58772571D01*
X107054804Y-58748773D01*
X107051204Y-58724504D01*
X107050000Y-58700000D01*
X107050000Y-55600000D01*
X107051204Y-55575496D01*
X107054804Y-55551227D01*
X107060765Y-55527429D01*
X107069030Y-55504329D01*
X107079520Y-55482151D01*
X107092133Y-55461107D01*
X107106747Y-55441402D01*
X107123223Y-55423223D01*
X107141402Y-55406747D01*
X107161107Y-55392133D01*
X107182151Y-55379520D01*
X107204329Y-55369030D01*
X107227429Y-55360765D01*
X107251227Y-55354804D01*
X107275496Y-55351204D01*
X107300000Y-55350000D01*
X108600000Y-55350000D01*
X108624504Y-55351204D01*
X108624504Y-55351204D01*
G37*
D12*
X107950000Y-57150000D03*
D13*
X111450000Y-57150000D03*
D14*
X107270000Y-72390000D03*
X111170000Y-72390000D03*
X107270000Y-73660000D03*
X111170000Y-73660000D03*
X107270000Y-74930000D03*
X111170000Y-74930000D03*
X107270000Y-76200000D03*
X111170000Y-76200000D03*
X107270000Y-77470000D03*
X111170000Y-77470000D03*
D10*
G36*
X178104504Y-70221204D02*
G01*
X178128773Y-70224804D01*
X178152571Y-70230765D01*
X178175671Y-70239030D01*
X178197849Y-70249520D01*
X178218893Y-70262133D01*
X178238598Y-70276747D01*
X178256777Y-70293223D01*
X178273253Y-70311402D01*
X178287867Y-70331107D01*
X178300480Y-70352151D01*
X178310970Y-70374329D01*
X178319235Y-70397429D01*
X178325196Y-70421227D01*
X178328796Y-70445496D01*
X178330000Y-70470000D01*
X178330000Y-71770000D01*
X178328796Y-71794504D01*
X178325196Y-71818773D01*
X178319235Y-71842571D01*
X178310970Y-71865671D01*
X178300480Y-71887849D01*
X178287867Y-71908893D01*
X178273253Y-71928598D01*
X178256777Y-71946777D01*
X178238598Y-71963253D01*
X178218893Y-71977867D01*
X178197849Y-71990480D01*
X178175671Y-72000970D01*
X178152571Y-72009235D01*
X178128773Y-72015196D01*
X178104504Y-72018796D01*
X178080000Y-72020000D01*
X174980000Y-72020000D01*
X174955496Y-72018796D01*
X174931227Y-72015196D01*
X174907429Y-72009235D01*
X174884329Y-72000970D01*
X174862151Y-71990480D01*
X174841107Y-71977867D01*
X174821402Y-71963253D01*
X174803223Y-71946777D01*
X174786747Y-71928598D01*
X174772133Y-71908893D01*
X174759520Y-71887849D01*
X174749030Y-71865671D01*
X174740765Y-71842571D01*
X174734804Y-71818773D01*
X174731204Y-71794504D01*
X174730000Y-71770000D01*
X174730000Y-70470000D01*
X174731204Y-70445496D01*
X174734804Y-70421227D01*
X174740765Y-70397429D01*
X174749030Y-70374329D01*
X174759520Y-70352151D01*
X174772133Y-70331107D01*
X174786747Y-70311402D01*
X174803223Y-70293223D01*
X174821402Y-70276747D01*
X174841107Y-70262133D01*
X174862151Y-70249520D01*
X174884329Y-70239030D01*
X174907429Y-70230765D01*
X174931227Y-70224804D01*
X174955496Y-70221204D01*
X174980000Y-70220000D01*
X178080000Y-70220000D01*
X178104504Y-70221204D01*
X178104504Y-70221204D01*
G37*
D12*
X176530000Y-71120000D03*
D15*
X176530000Y-74620000D03*
X176530000Y-78120000D03*
X176530000Y-81620000D03*
D10*
G36*
X120054504Y-55351204D02*
G01*
X120078773Y-55354804D01*
X120102571Y-55360765D01*
X120125671Y-55369030D01*
X120147849Y-55379520D01*
X120168893Y-55392133D01*
X120188598Y-55406747D01*
X120206777Y-55423223D01*
X120223253Y-55441402D01*
X120237867Y-55461107D01*
X120250480Y-55482151D01*
X120260970Y-55504329D01*
X120269235Y-55527429D01*
X120275196Y-55551227D01*
X120278796Y-55575496D01*
X120280000Y-55600000D01*
X120280000Y-58700000D01*
X120278796Y-58724504D01*
X120275196Y-58748773D01*
X120269235Y-58772571D01*
X120260970Y-58795671D01*
X120250480Y-58817849D01*
X120237867Y-58838893D01*
X120223253Y-58858598D01*
X120206777Y-58876777D01*
X120188598Y-58893253D01*
X120168893Y-58907867D01*
X120147849Y-58920480D01*
X120125671Y-58930970D01*
X120102571Y-58939235D01*
X120078773Y-58945196D01*
X120054504Y-58948796D01*
X120030000Y-58950000D01*
X118730000Y-58950000D01*
X118705496Y-58948796D01*
X118681227Y-58945196D01*
X118657429Y-58939235D01*
X118634329Y-58930970D01*
X118612151Y-58920480D01*
X118591107Y-58907867D01*
X118571402Y-58893253D01*
X118553223Y-58876777D01*
X118536747Y-58858598D01*
X118522133Y-58838893D01*
X118509520Y-58817849D01*
X118499030Y-58795671D01*
X118490765Y-58772571D01*
X118484804Y-58748773D01*
X118481204Y-58724504D01*
X118480000Y-58700000D01*
X118480000Y-55600000D01*
X118481204Y-55575496D01*
X118484804Y-55551227D01*
X118490765Y-55527429D01*
X118499030Y-55504329D01*
X118509520Y-55482151D01*
X118522133Y-55461107D01*
X118536747Y-55441402D01*
X118553223Y-55423223D01*
X118571402Y-55406747D01*
X118591107Y-55392133D01*
X118612151Y-55379520D01*
X118634329Y-55369030D01*
X118657429Y-55360765D01*
X118681227Y-55354804D01*
X118705496Y-55351204D01*
X118730000Y-55350000D01*
X120030000Y-55350000D01*
X120054504Y-55351204D01*
X120054504Y-55351204D01*
G37*
D12*
X119380000Y-57150000D03*
D13*
X122880000Y-57150000D03*
X126380000Y-57150000D03*
X129880000Y-57150000D03*
X133380000Y-57150000D03*
X152740000Y-57150000D03*
X149240000Y-57150000D03*
X145740000Y-57150000D03*
D10*
G36*
X142914504Y-55351204D02*
G01*
X142938773Y-55354804D01*
X142962571Y-55360765D01*
X142985671Y-55369030D01*
X143007849Y-55379520D01*
X143028893Y-55392133D01*
X143048598Y-55406747D01*
X143066777Y-55423223D01*
X143083253Y-55441402D01*
X143097867Y-55461107D01*
X143110480Y-55482151D01*
X143120970Y-55504329D01*
X143129235Y-55527429D01*
X143135196Y-55551227D01*
X143138796Y-55575496D01*
X143140000Y-55600000D01*
X143140000Y-58700000D01*
X143138796Y-58724504D01*
X143135196Y-58748773D01*
X143129235Y-58772571D01*
X143120970Y-58795671D01*
X143110480Y-58817849D01*
X143097867Y-58838893D01*
X143083253Y-58858598D01*
X143066777Y-58876777D01*
X143048598Y-58893253D01*
X143028893Y-58907867D01*
X143007849Y-58920480D01*
X142985671Y-58930970D01*
X142962571Y-58939235D01*
X142938773Y-58945196D01*
X142914504Y-58948796D01*
X142890000Y-58950000D01*
X141590000Y-58950000D01*
X141565496Y-58948796D01*
X141541227Y-58945196D01*
X141517429Y-58939235D01*
X141494329Y-58930970D01*
X141472151Y-58920480D01*
X141451107Y-58907867D01*
X141431402Y-58893253D01*
X141413223Y-58876777D01*
X141396747Y-58858598D01*
X141382133Y-58838893D01*
X141369520Y-58817849D01*
X141359030Y-58795671D01*
X141350765Y-58772571D01*
X141344804Y-58748773D01*
X141341204Y-58724504D01*
X141340000Y-58700000D01*
X141340000Y-55600000D01*
X141341204Y-55575496D01*
X141344804Y-55551227D01*
X141350765Y-55527429D01*
X141359030Y-55504329D01*
X141369520Y-55482151D01*
X141382133Y-55461107D01*
X141396747Y-55441402D01*
X141413223Y-55423223D01*
X141431402Y-55406747D01*
X141451107Y-55392133D01*
X141472151Y-55379520D01*
X141494329Y-55369030D01*
X141517429Y-55360765D01*
X141541227Y-55354804D01*
X141565496Y-55351204D01*
X141590000Y-55350000D01*
X142890000Y-55350000D01*
X142914504Y-55351204D01*
X142914504Y-55351204D01*
G37*
D12*
X142240000Y-57150000D03*
D10*
G36*
X161964504Y-55351204D02*
G01*
X161988773Y-55354804D01*
X162012571Y-55360765D01*
X162035671Y-55369030D01*
X162057849Y-55379520D01*
X162078893Y-55392133D01*
X162098598Y-55406747D01*
X162116777Y-55423223D01*
X162133253Y-55441402D01*
X162147867Y-55461107D01*
X162160480Y-55482151D01*
X162170970Y-55504329D01*
X162179235Y-55527429D01*
X162185196Y-55551227D01*
X162188796Y-55575496D01*
X162190000Y-55600000D01*
X162190000Y-58700000D01*
X162188796Y-58724504D01*
X162185196Y-58748773D01*
X162179235Y-58772571D01*
X162170970Y-58795671D01*
X162160480Y-58817849D01*
X162147867Y-58838893D01*
X162133253Y-58858598D01*
X162116777Y-58876777D01*
X162098598Y-58893253D01*
X162078893Y-58907867D01*
X162057849Y-58920480D01*
X162035671Y-58930970D01*
X162012571Y-58939235D01*
X161988773Y-58945196D01*
X161964504Y-58948796D01*
X161940000Y-58950000D01*
X160640000Y-58950000D01*
X160615496Y-58948796D01*
X160591227Y-58945196D01*
X160567429Y-58939235D01*
X160544329Y-58930970D01*
X160522151Y-58920480D01*
X160501107Y-58907867D01*
X160481402Y-58893253D01*
X160463223Y-58876777D01*
X160446747Y-58858598D01*
X160432133Y-58838893D01*
X160419520Y-58817849D01*
X160409030Y-58795671D01*
X160400765Y-58772571D01*
X160394804Y-58748773D01*
X160391204Y-58724504D01*
X160390000Y-58700000D01*
X160390000Y-55600000D01*
X160391204Y-55575496D01*
X160394804Y-55551227D01*
X160400765Y-55527429D01*
X160409030Y-55504329D01*
X160419520Y-55482151D01*
X160432133Y-55461107D01*
X160446747Y-55441402D01*
X160463223Y-55423223D01*
X160481402Y-55406747D01*
X160501107Y-55392133D01*
X160522151Y-55379520D01*
X160544329Y-55369030D01*
X160567429Y-55360765D01*
X160591227Y-55354804D01*
X160615496Y-55351204D01*
X160640000Y-55350000D01*
X161940000Y-55350000D01*
X161964504Y-55351204D01*
X161964504Y-55351204D01*
G37*
D12*
X161290000Y-57150000D03*
D13*
X164790000Y-57150000D03*
X168290000Y-57150000D03*
X171790000Y-57150000D03*
D16*
X146235000Y-72786000D03*
X146235000Y-72136000D03*
X146235000Y-71486000D03*
X146235000Y-70836000D03*
X146235000Y-70186000D03*
X146235000Y-69536000D03*
X146235000Y-68886000D03*
X146235000Y-68236000D03*
X140335000Y-68236000D03*
X140335000Y-68886000D03*
X140335000Y-69536000D03*
X140335000Y-70186000D03*
X140335000Y-70836000D03*
X140335000Y-71486000D03*
X140335000Y-72136000D03*
X140335000Y-72786000D03*
D17*
X124200000Y-80890000D03*
X125000000Y-80890000D03*
X125800000Y-80890000D03*
X126600000Y-80890000D03*
X127400000Y-80890000D03*
X128200000Y-80890000D03*
X129000000Y-80890000D03*
X129800000Y-80890000D03*
D18*
X131250000Y-79440000D03*
X131250000Y-78640000D03*
X131250000Y-77840000D03*
X131250000Y-77040000D03*
X131250000Y-76240000D03*
X131250000Y-75440000D03*
X131250000Y-74640000D03*
X131250000Y-73840000D03*
D17*
X129800000Y-72390000D03*
X129000000Y-72390000D03*
X128200000Y-72390000D03*
X127400000Y-72390000D03*
X126600000Y-72390000D03*
X125800000Y-72390000D03*
X125000000Y-72390000D03*
X124200000Y-72390000D03*
D18*
X122750000Y-73840000D03*
X122750000Y-74640000D03*
X122750000Y-75440000D03*
X122750000Y-76240000D03*
X122750000Y-77040000D03*
X122750000Y-77840000D03*
X122750000Y-78640000D03*
X122750000Y-79440000D03*
D19*
X124300000Y-84460000D03*
X124300000Y-85410000D03*
X124300000Y-86360000D03*
X127000000Y-86360000D03*
X127000000Y-84460000D03*
X127000000Y-85410000D03*
D10*
G36*
X119339505Y-81601205D02*
G01*
X119363774Y-81604805D01*
X119387572Y-81610766D01*
X119410672Y-81619031D01*
X119432850Y-81629521D01*
X119453894Y-81642134D01*
X119473599Y-81656748D01*
X119491778Y-81673224D01*
X119508254Y-81691403D01*
X119522868Y-81711108D01*
X119535481Y-81732152D01*
X119545971Y-81754330D01*
X119554236Y-81777430D01*
X119560197Y-81801228D01*
X119563797Y-81825497D01*
X119565001Y-81850001D01*
X119565001Y-83100001D01*
X119563797Y-83124505D01*
X119560197Y-83148774D01*
X119554236Y-83172572D01*
X119545971Y-83195672D01*
X119535481Y-83217850D01*
X119522868Y-83238894D01*
X119508254Y-83258599D01*
X119491778Y-83276778D01*
X119473599Y-83293254D01*
X119453894Y-83307868D01*
X119432850Y-83320481D01*
X119410672Y-83330971D01*
X119387572Y-83339236D01*
X119363774Y-83345197D01*
X119339505Y-83348797D01*
X119315001Y-83350001D01*
X118390001Y-83350001D01*
X118365497Y-83348797D01*
X118341228Y-83345197D01*
X118317430Y-83339236D01*
X118294330Y-83330971D01*
X118272152Y-83320481D01*
X118251108Y-83307868D01*
X118231403Y-83293254D01*
X118213224Y-83276778D01*
X118196748Y-83258599D01*
X118182134Y-83238894D01*
X118169521Y-83217850D01*
X118159031Y-83195672D01*
X118150766Y-83172572D01*
X118144805Y-83148774D01*
X118141205Y-83124505D01*
X118140001Y-83100001D01*
X118140001Y-81850001D01*
X118141205Y-81825497D01*
X118144805Y-81801228D01*
X118150766Y-81777430D01*
X118159031Y-81754330D01*
X118169521Y-81732152D01*
X118182134Y-81711108D01*
X118196748Y-81691403D01*
X118213224Y-81673224D01*
X118231403Y-81656748D01*
X118251108Y-81642134D01*
X118272152Y-81629521D01*
X118294330Y-81619031D01*
X118317430Y-81610766D01*
X118341228Y-81604805D01*
X118365497Y-81601205D01*
X118390001Y-81600001D01*
X119315001Y-81600001D01*
X119339505Y-81601205D01*
X119339505Y-81601205D01*
G37*
D20*
X118852501Y-82475001D03*
D10*
G36*
X116364505Y-81601205D02*
G01*
X116388774Y-81604805D01*
X116412572Y-81610766D01*
X116435672Y-81619031D01*
X116457850Y-81629521D01*
X116478894Y-81642134D01*
X116498599Y-81656748D01*
X116516778Y-81673224D01*
X116533254Y-81691403D01*
X116547868Y-81711108D01*
X116560481Y-81732152D01*
X116570971Y-81754330D01*
X116579236Y-81777430D01*
X116585197Y-81801228D01*
X116588797Y-81825497D01*
X116590001Y-81850001D01*
X116590001Y-83100001D01*
X116588797Y-83124505D01*
X116585197Y-83148774D01*
X116579236Y-83172572D01*
X116570971Y-83195672D01*
X116560481Y-83217850D01*
X116547868Y-83238894D01*
X116533254Y-83258599D01*
X116516778Y-83276778D01*
X116498599Y-83293254D01*
X116478894Y-83307868D01*
X116457850Y-83320481D01*
X116435672Y-83330971D01*
X116412572Y-83339236D01*
X116388774Y-83345197D01*
X116364505Y-83348797D01*
X116340001Y-83350001D01*
X115415001Y-83350001D01*
X115390497Y-83348797D01*
X115366228Y-83345197D01*
X115342430Y-83339236D01*
X115319330Y-83330971D01*
X115297152Y-83320481D01*
X115276108Y-83307868D01*
X115256403Y-83293254D01*
X115238224Y-83276778D01*
X115221748Y-83258599D01*
X115207134Y-83238894D01*
X115194521Y-83217850D01*
X115184031Y-83195672D01*
X115175766Y-83172572D01*
X115169805Y-83148774D01*
X115166205Y-83124505D01*
X115165001Y-83100001D01*
X115165001Y-81850001D01*
X115166205Y-81825497D01*
X115169805Y-81801228D01*
X115175766Y-81777430D01*
X115184031Y-81754330D01*
X115194521Y-81732152D01*
X115207134Y-81711108D01*
X115221748Y-81691403D01*
X115238224Y-81673224D01*
X115256403Y-81656748D01*
X115276108Y-81642134D01*
X115297152Y-81629521D01*
X115319330Y-81619031D01*
X115342430Y-81610766D01*
X115366228Y-81604805D01*
X115390497Y-81601205D01*
X115415001Y-81600001D01*
X116340001Y-81600001D01*
X116364505Y-81601205D01*
X116364505Y-81601205D01*
G37*
D20*
X115877501Y-82475001D03*
D10*
G36*
X116364505Y-84991205D02*
G01*
X116388774Y-84994805D01*
X116412572Y-85000766D01*
X116435672Y-85009031D01*
X116457850Y-85019521D01*
X116478894Y-85032134D01*
X116498599Y-85046748D01*
X116516778Y-85063224D01*
X116533254Y-85081403D01*
X116547868Y-85101108D01*
X116560481Y-85122152D01*
X116570971Y-85144330D01*
X116579236Y-85167430D01*
X116585197Y-85191228D01*
X116588797Y-85215497D01*
X116590001Y-85240001D01*
X116590001Y-86490001D01*
X116588797Y-86514505D01*
X116585197Y-86538774D01*
X116579236Y-86562572D01*
X116570971Y-86585672D01*
X116560481Y-86607850D01*
X116547868Y-86628894D01*
X116533254Y-86648599D01*
X116516778Y-86666778D01*
X116498599Y-86683254D01*
X116478894Y-86697868D01*
X116457850Y-86710481D01*
X116435672Y-86720971D01*
X116412572Y-86729236D01*
X116388774Y-86735197D01*
X116364505Y-86738797D01*
X116340001Y-86740001D01*
X115415001Y-86740001D01*
X115390497Y-86738797D01*
X115366228Y-86735197D01*
X115342430Y-86729236D01*
X115319330Y-86720971D01*
X115297152Y-86710481D01*
X115276108Y-86697868D01*
X115256403Y-86683254D01*
X115238224Y-86666778D01*
X115221748Y-86648599D01*
X115207134Y-86628894D01*
X115194521Y-86607850D01*
X115184031Y-86585672D01*
X115175766Y-86562572D01*
X115169805Y-86538774D01*
X115166205Y-86514505D01*
X115165001Y-86490001D01*
X115165001Y-85240001D01*
X115166205Y-85215497D01*
X115169805Y-85191228D01*
X115175766Y-85167430D01*
X115184031Y-85144330D01*
X115194521Y-85122152D01*
X115207134Y-85101108D01*
X115221748Y-85081403D01*
X115238224Y-85063224D01*
X115256403Y-85046748D01*
X115276108Y-85032134D01*
X115297152Y-85019521D01*
X115319330Y-85009031D01*
X115342430Y-85000766D01*
X115366228Y-84994805D01*
X115390497Y-84991205D01*
X115415001Y-84990001D01*
X116340001Y-84990001D01*
X116364505Y-84991205D01*
X116364505Y-84991205D01*
G37*
D20*
X115877501Y-85865001D03*
D10*
G36*
X119339505Y-84991205D02*
G01*
X119363774Y-84994805D01*
X119387572Y-85000766D01*
X119410672Y-85009031D01*
X119432850Y-85019521D01*
X119453894Y-85032134D01*
X119473599Y-85046748D01*
X119491778Y-85063224D01*
X119508254Y-85081403D01*
X119522868Y-85101108D01*
X119535481Y-85122152D01*
X119545971Y-85144330D01*
X119554236Y-85167430D01*
X119560197Y-85191228D01*
X119563797Y-85215497D01*
X119565001Y-85240001D01*
X119565001Y-86490001D01*
X119563797Y-86514505D01*
X119560197Y-86538774D01*
X119554236Y-86562572D01*
X119545971Y-86585672D01*
X119535481Y-86607850D01*
X119522868Y-86628894D01*
X119508254Y-86648599D01*
X119491778Y-86666778D01*
X119473599Y-86683254D01*
X119453894Y-86697868D01*
X119432850Y-86710481D01*
X119410672Y-86720971D01*
X119387572Y-86729236D01*
X119363774Y-86735197D01*
X119339505Y-86738797D01*
X119315001Y-86740001D01*
X118390001Y-86740001D01*
X118365497Y-86738797D01*
X118341228Y-86735197D01*
X118317430Y-86729236D01*
X118294330Y-86720971D01*
X118272152Y-86710481D01*
X118251108Y-86697868D01*
X118231403Y-86683254D01*
X118213224Y-86666778D01*
X118196748Y-86648599D01*
X118182134Y-86628894D01*
X118169521Y-86607850D01*
X118159031Y-86585672D01*
X118150766Y-86562572D01*
X118144805Y-86538774D01*
X118141205Y-86514505D01*
X118140001Y-86490001D01*
X118140001Y-85240001D01*
X118141205Y-85215497D01*
X118144805Y-85191228D01*
X118150766Y-85167430D01*
X118159031Y-85144330D01*
X118169521Y-85122152D01*
X118182134Y-85101108D01*
X118196748Y-85081403D01*
X118213224Y-85063224D01*
X118231403Y-85046748D01*
X118251108Y-85032134D01*
X118272152Y-85019521D01*
X118294330Y-85009031D01*
X118317430Y-85000766D01*
X118341228Y-84994805D01*
X118365497Y-84991205D01*
X118390001Y-84990001D01*
X119315001Y-84990001D01*
X119339505Y-84991205D01*
X119339505Y-84991205D01*
G37*
D20*
X118852501Y-85865001D03*
D21*
X150235000Y-82960000D03*
X150235000Y-84660000D03*
X150235000Y-86360000D03*
X150235000Y-88060000D03*
X150235000Y-89760000D03*
D22*
X159385000Y-86360000D03*
D23*
X159385000Y-86360000D03*
X144780000Y-78105000D03*
D24*
X127000000Y-88900000D03*
X130810000Y-86360000D03*
X134620000Y-83820000D03*
X139700000Y-91440000D03*
X138811000Y-71374000D03*
X149098000Y-89789000D03*
D23*
X149225000Y-84645500D03*
X142873500Y-69467500D03*
D24*
X150495000Y-92075000D03*
X138049000Y-69977000D03*
D23*
X121417000Y-84460000D03*
X125860000Y-76832000D03*
D24*
X114935000Y-69850000D03*
X128270000Y-69850000D03*
D23*
X150876000Y-86360000D03*
X144780000Y-66675000D03*
D24*
X135890000Y-76835000D03*
D23*
X106045000Y-80645000D03*
D24*
X117983000Y-72898000D03*
X123126290Y-82994290D03*
X143764000Y-88773000D03*
D23*
X153162000Y-72136000D03*
D24*
X137058400Y-71221600D03*
X137058400Y-68808600D03*
X113030000Y-84836000D03*
X113362000Y-80772000D03*
D25*
X144774000Y-82544000D02*
X144780000Y-82550000D01*
D26*
X134620000Y-86490000D02*
X134620000Y-87215000D01*
D25*
X142155000Y-70186000D02*
X140335000Y-70186000D01*
X142873500Y-69467500D02*
X142155000Y-70186000D01*
D27*
X142192510Y-70148490D02*
X141585001Y-70148490D01*
X142873500Y-69467500D02*
X142192510Y-70148490D01*
X142873500Y-69467500D02*
X142873500Y-67311500D01*
X127000000Y-85410000D02*
X127000000Y-86360000D01*
D25*
X128155000Y-87060000D02*
X127455000Y-86360000D01*
X127455000Y-86360000D02*
X127000000Y-86360000D01*
X128155000Y-89646578D02*
X128155000Y-87060000D01*
X127639068Y-90162510D02*
X128155000Y-89646578D01*
X126360932Y-90162510D02*
X127639068Y-90162510D01*
X125987490Y-88747490D02*
X125987490Y-89789068D01*
X124300000Y-87060000D02*
X125987490Y-88747490D01*
X125987490Y-89789068D02*
X126360932Y-90162510D01*
X124300000Y-86360000D02*
X124300000Y-87060000D01*
D26*
X140335000Y-69536000D02*
X138490000Y-69536000D01*
X138490000Y-69536000D02*
X138049000Y-69977000D01*
X138049000Y-69977000D02*
X138049000Y-69977000D01*
D25*
X123145000Y-84460000D02*
X123140000Y-84455000D01*
X124300000Y-84460000D02*
X123145000Y-84460000D01*
X123145000Y-84460000D02*
X121417000Y-84460000D01*
X121417000Y-84460000D02*
X121417000Y-84460000D01*
X124852000Y-77840000D02*
X125860000Y-76832000D01*
X122750000Y-77840000D02*
X124852000Y-77840000D01*
X128468000Y-79440000D02*
X125860000Y-76832000D01*
X131250000Y-79440000D02*
X128468000Y-79440000D01*
D26*
X146235000Y-73261000D02*
X146235000Y-72786000D01*
X140056000Y-79440000D02*
X146235000Y-73261000D01*
X131250000Y-79440000D02*
X140056000Y-79440000D01*
X114935000Y-69850000D02*
X116710000Y-69850000D01*
X107270000Y-71770000D02*
X107270000Y-72390000D01*
X109190000Y-69850000D02*
X107270000Y-71770000D01*
X114935000Y-69850000D02*
X109190000Y-69850000D01*
X124200000Y-88900000D02*
X121417000Y-86117000D01*
X141375010Y-62414990D02*
X135705010Y-62414990D01*
X145740000Y-57150000D02*
X145740000Y-58050000D01*
X145740000Y-58050000D02*
X141375010Y-62414990D01*
X135705010Y-62414990D02*
X128270000Y-69850000D01*
X128270000Y-69850000D02*
X128270000Y-69850000D01*
X121408999Y-85865001D02*
X121417000Y-85857000D01*
X121417000Y-86117000D02*
X121417000Y-85857000D01*
X121417000Y-85857000D02*
X121417000Y-84460000D01*
X121171001Y-85871001D02*
X121417000Y-86117000D01*
X121171001Y-85865001D02*
X121171001Y-85871001D01*
X121171001Y-85865001D02*
X121408999Y-85865001D01*
X121171001Y-85865001D02*
X118852501Y-85865001D01*
X106440000Y-77470000D02*
X107270000Y-77470000D01*
D25*
X145110000Y-71486000D02*
X144780000Y-71156000D01*
X146235000Y-71486000D02*
X145110000Y-71486000D01*
X145110000Y-69536000D02*
X146235000Y-69536000D01*
X144780000Y-69866000D02*
X145110000Y-69536000D01*
X144780000Y-71156000D02*
X144780000Y-69866000D01*
D27*
X144780000Y-69866000D02*
X144780000Y-66675000D01*
X144780000Y-66675000D02*
X144780000Y-66675000D01*
D25*
X130075000Y-78640000D02*
X131250000Y-78640000D01*
X127279499Y-75844499D02*
X130075000Y-78640000D01*
X125385999Y-75844499D02*
X127279499Y-75844499D01*
X124990498Y-76240000D02*
X125385999Y-75844499D01*
X122750000Y-76240000D02*
X124990498Y-76240000D01*
X131250000Y-78640000D02*
X134085000Y-78640000D01*
X134085000Y-78640000D02*
X135890000Y-76835000D01*
X135890000Y-76835000D02*
X135890000Y-76835000D01*
X126304290Y-88204290D02*
X127000000Y-88900000D01*
X125832499Y-87732499D02*
X126304290Y-88204290D01*
X125832499Y-86089997D02*
X125832499Y-87732499D01*
X125152502Y-85410000D02*
X125832499Y-86089997D01*
X124300000Y-85410000D02*
X125152502Y-85410000D01*
X105695000Y-73660000D02*
X105410000Y-73945000D01*
X107270000Y-73660000D02*
X105695000Y-73660000D01*
X105410000Y-75215000D02*
X105410000Y-76200000D01*
X105695000Y-74930000D02*
X105410000Y-75215000D01*
X107270000Y-74930000D02*
X105695000Y-74930000D01*
X105410000Y-73945000D02*
X105410000Y-76200000D01*
X105695000Y-77470000D02*
X105410000Y-77755000D01*
X107270000Y-77470000D02*
X105695000Y-77470000D01*
X105410000Y-77755000D02*
X105410000Y-78740000D01*
X105410000Y-76200000D02*
X105410000Y-78740000D01*
X105410000Y-78740000D02*
X105410000Y-79375000D01*
X105410000Y-79375000D02*
X105410000Y-80010000D01*
X105410000Y-80010000D02*
X106045000Y-80645000D01*
X106045000Y-80645000D02*
X106045000Y-80645000D01*
X143810000Y-70836000D02*
X144780000Y-69866000D01*
X140335000Y-70836000D02*
X143810000Y-70836000D01*
D26*
X130040000Y-84460000D02*
X127000000Y-84460000D01*
X130810000Y-83690000D02*
X130040000Y-84460000D01*
X121700000Y-77040000D02*
X117983000Y-73323000D01*
X122750000Y-77040000D02*
X121700000Y-77040000D01*
X117983000Y-73323000D02*
X117983000Y-72898000D01*
X117983000Y-72898000D02*
X117983000Y-72898000D01*
X130114290Y-82994290D02*
X123126290Y-82994290D01*
X130810000Y-83690000D02*
X130114290Y-82994290D01*
X123126290Y-82994290D02*
X123126290Y-82994290D01*
X138923000Y-71486000D02*
X138811000Y-71374000D01*
X140335000Y-71486000D02*
X138923000Y-71486000D01*
D25*
X139706000Y-85350000D02*
X139700000Y-85344000D01*
X144780000Y-85350000D02*
X139706000Y-85350000D01*
X139700000Y-85344000D02*
X139700000Y-88770000D01*
X139703000Y-88773000D02*
X139700000Y-88770000D01*
X143764000Y-88773000D02*
X139703000Y-88773000D01*
D26*
X119380000Y-69720000D02*
X119510000Y-69850000D01*
X119380000Y-57150000D02*
X119380000Y-69720000D01*
X124200000Y-71865000D02*
X124200000Y-72390000D01*
X122185000Y-69850000D02*
X124200000Y-71865000D01*
X119510000Y-69850000D02*
X122185000Y-69850000D01*
X108920710Y-58120710D02*
X107950000Y-57150000D01*
X117660010Y-66860010D02*
X108920710Y-58120710D01*
X117660010Y-69813200D02*
X117660010Y-66860010D01*
X121686810Y-73840000D02*
X117660010Y-69813200D01*
X122750000Y-73840000D02*
X121686810Y-73840000D01*
X121889998Y-79440000D02*
X122750000Y-79440000D01*
X114839998Y-72390000D02*
X121889998Y-79440000D01*
X111170000Y-72390000D02*
X114839998Y-72390000D01*
X109709999Y-71694999D02*
X114944997Y-71694999D01*
X121889998Y-78640000D02*
X122750000Y-78640000D01*
X109644999Y-71759999D02*
X109709999Y-71694999D01*
X109644999Y-72964999D02*
X109644999Y-71759999D01*
X114944997Y-71694999D02*
X121889998Y-78640000D01*
X110340000Y-73660000D02*
X109644999Y-72964999D01*
X111170000Y-73660000D02*
X110340000Y-73660000D01*
X121700000Y-74640000D02*
X122750000Y-74640000D01*
X118304989Y-71244989D02*
X121700000Y-74640000D01*
X109523599Y-71244989D02*
X118304989Y-71244989D01*
X109194990Y-71573598D02*
X109523599Y-71244989D01*
X109194990Y-76324990D02*
X109194990Y-71573598D01*
X110340000Y-77470000D02*
X109194990Y-76324990D01*
X111170000Y-77470000D02*
X110340000Y-77470000D01*
X125000000Y-57380000D02*
X125230000Y-57150000D01*
X125230000Y-57150000D02*
X126380000Y-57150000D01*
X125000000Y-72390000D02*
X125000000Y-57380000D01*
X129880000Y-58050000D02*
X129880000Y-57150000D01*
X128730000Y-59200000D02*
X129880000Y-58050000D01*
X127830000Y-59200000D02*
X128730000Y-59200000D01*
X125800000Y-61230000D02*
X127830000Y-59200000D01*
X125800000Y-72390000D02*
X125800000Y-61230000D01*
X152740000Y-58050000D02*
X152740000Y-57150000D01*
X147474990Y-63315010D02*
X152740000Y-58050000D01*
X129800000Y-71865000D02*
X138349990Y-63315010D01*
X138349990Y-63315010D02*
X147474990Y-63315010D01*
X129800000Y-72390000D02*
X129800000Y-71865000D01*
X129000000Y-71529998D02*
X137664998Y-62865000D01*
X129000000Y-72390000D02*
X129000000Y-71529998D01*
X149240000Y-58050000D02*
X149240000Y-57150000D01*
X144425000Y-62865000D02*
X149240000Y-58050000D01*
X137664998Y-62865000D02*
X144425000Y-62865000D01*
D25*
X146235000Y-72136000D02*
X153162000Y-72136000D01*
X153162000Y-72136000D02*
X153162000Y-72136000D01*
X171790000Y-58050000D02*
X171790000Y-57150000D01*
X159004000Y-70836000D02*
X171790000Y-58050000D01*
X146235000Y-70836000D02*
X159004000Y-70836000D01*
X164790000Y-58050000D02*
X164790000Y-57150000D01*
X152654000Y-70186000D02*
X164790000Y-58050000D01*
X146235000Y-70186000D02*
X152654000Y-70186000D01*
X149554000Y-68886000D02*
X161290000Y-57150000D01*
X146235000Y-68886000D02*
X149554000Y-68886000D01*
D26*
X132300000Y-75440000D02*
X136518400Y-71221600D01*
X131250000Y-75440000D02*
X132300000Y-75440000D01*
X136518400Y-71221600D02*
X137058400Y-71221600D01*
X137058400Y-71221600D02*
X137058400Y-71221600D01*
X137631000Y-68236000D02*
X140335000Y-68236000D01*
X137058400Y-68808600D02*
X137631000Y-68236000D01*
X139335000Y-68886000D02*
X140335000Y-68886000D01*
X138066998Y-68886000D02*
X139335000Y-68886000D01*
X132312998Y-74640000D02*
X138066998Y-68886000D01*
X131250000Y-74640000D02*
X132312998Y-74640000D01*
X136404000Y-72136000D02*
X139335000Y-72136000D01*
X132300000Y-76240000D02*
X136404000Y-72136000D01*
X139335000Y-72136000D02*
X140335000Y-72136000D01*
X131250000Y-76240000D02*
X132300000Y-76240000D01*
X136554000Y-72786000D02*
X140335000Y-72786000D01*
X131250000Y-77040000D02*
X132300000Y-77040000D01*
X132300000Y-77040000D02*
X136554000Y-72786000D01*
X115065001Y-85865001D02*
X114036000Y-84836000D01*
X115877501Y-85865001D02*
X115065001Y-85865001D01*
X114036000Y-84836000D02*
X113030000Y-84836000D01*
X113030000Y-84836000D02*
X113030000Y-84836000D01*
X115065001Y-82475001D02*
X113362000Y-80772000D01*
X115877501Y-82475001D02*
X115065001Y-82475001D01*
X113362000Y-80772000D02*
X113362000Y-80772000D01*
X123675000Y-81940000D02*
X124200000Y-81415000D01*
X123150000Y-81940000D02*
X123675000Y-81940000D01*
X124200000Y-81415000D02*
X124200000Y-80890000D01*
X122614999Y-82475001D02*
X123150000Y-81940000D01*
X122614999Y-82475001D02*
X118852501Y-82475001D01*
D28*
G36*
X179578000Y-94488000D02*
G01*
X104902000Y-94488000D01*
X104902000Y-89710359D01*
X107059229Y-89710359D01*
X107059229Y-90289641D01*
X107172241Y-90857791D01*
X107393923Y-91392977D01*
X107715754Y-91874632D01*
X108125368Y-92284246D01*
X108607023Y-92606077D01*
X109142209Y-92827759D01*
X109710359Y-92940771D01*
X110289641Y-92940771D01*
X110857791Y-92827759D01*
X111392977Y-92606077D01*
X111874632Y-92284246D01*
X112284246Y-91874632D01*
X112606077Y-91392977D01*
X112688082Y-91195000D01*
X138186928Y-91195000D01*
X138186928Y-91945000D01*
X138203992Y-92118254D01*
X138254528Y-92284850D01*
X138336595Y-92438386D01*
X138447038Y-92572962D01*
X138581614Y-92683405D01*
X138735150Y-92765472D01*
X138901746Y-92816008D01*
X139075000Y-92833072D01*
X140325000Y-92833072D01*
X140498254Y-92816008D01*
X140664850Y-92765472D01*
X140818386Y-92683405D01*
X140952962Y-92572962D01*
X141063405Y-92438386D01*
X141145472Y-92284850D01*
X141196008Y-92118254D01*
X141213072Y-91945000D01*
X141213072Y-91195000D01*
X141196008Y-91021746D01*
X141145472Y-90855150D01*
X141063405Y-90701614D01*
X140952962Y-90567038D01*
X140818386Y-90456595D01*
X140664850Y-90374528D01*
X140498254Y-90323992D01*
X140325000Y-90306928D01*
X139075000Y-90306928D01*
X138901746Y-90323992D01*
X138735150Y-90374528D01*
X138581614Y-90456595D01*
X138447038Y-90567038D01*
X138336595Y-90701614D01*
X138254528Y-90855150D01*
X138203992Y-91021746D01*
X138186928Y-91195000D01*
X112688082Y-91195000D01*
X112827759Y-90857791D01*
X112940771Y-90289641D01*
X112940771Y-89710359D01*
X112827759Y-89142209D01*
X112606077Y-88607023D01*
X112284246Y-88125368D01*
X111874632Y-87715754D01*
X111392977Y-87393923D01*
X110857791Y-87172241D01*
X110289641Y-87059229D01*
X109710359Y-87059229D01*
X109142209Y-87172241D01*
X108607023Y-87393923D01*
X108125368Y-87715754D01*
X107715754Y-88125368D01*
X107393923Y-88607023D01*
X107172241Y-89142209D01*
X107059229Y-89710359D01*
X104902000Y-89710359D01*
X104902000Y-84734061D01*
X111995000Y-84734061D01*
X111995000Y-84937939D01*
X112034774Y-85137898D01*
X112112795Y-85326256D01*
X112226063Y-85495774D01*
X112370226Y-85639937D01*
X112539744Y-85753205D01*
X112728102Y-85831226D01*
X112928061Y-85871000D01*
X113131939Y-85871000D01*
X113331898Y-85831226D01*
X113520256Y-85753205D01*
X113689774Y-85639937D01*
X113727455Y-85602256D01*
X114501202Y-86376004D01*
X114525000Y-86405002D01*
X114526929Y-86406585D01*
X114526929Y-86490001D01*
X114543993Y-86663255D01*
X114594529Y-86829851D01*
X114676596Y-86983387D01*
X114787039Y-87117963D01*
X114921615Y-87228406D01*
X115075151Y-87310473D01*
X115241747Y-87361009D01*
X115415001Y-87378073D01*
X116340001Y-87378073D01*
X116513255Y-87361009D01*
X116679851Y-87310473D01*
X116833387Y-87228406D01*
X116967963Y-87117963D01*
X117078406Y-86983387D01*
X117160473Y-86829851D01*
X117211009Y-86663255D01*
X117228073Y-86490001D01*
X117228073Y-85240001D01*
X117211009Y-85066747D01*
X117160473Y-84900151D01*
X117078406Y-84746615D01*
X116967963Y-84612039D01*
X116833387Y-84501596D01*
X116679851Y-84419529D01*
X116513255Y-84368993D01*
X116340001Y-84351929D01*
X115415001Y-84351929D01*
X115241747Y-84368993D01*
X115075151Y-84419529D01*
X114921615Y-84501596D01*
X114841855Y-84567053D01*
X114599804Y-84325002D01*
X114576001Y-84295999D01*
X114460276Y-84201026D01*
X114328247Y-84130454D01*
X114184986Y-84086997D01*
X114073333Y-84076000D01*
X114073322Y-84076000D01*
X114036000Y-84072324D01*
X113998678Y-84076000D01*
X113733711Y-84076000D01*
X113689774Y-84032063D01*
X113520256Y-83918795D01*
X113331898Y-83840774D01*
X113131939Y-83801000D01*
X112928061Y-83801000D01*
X112728102Y-83840774D01*
X112539744Y-83918795D01*
X112370226Y-84032063D01*
X112226063Y-84176226D01*
X112112795Y-84345744D01*
X112034774Y-84534102D01*
X111995000Y-84734061D01*
X104902000Y-84734061D01*
X104902000Y-81112765D01*
X104950557Y-81229992D01*
X105085713Y-81432267D01*
X105257733Y-81604287D01*
X105460008Y-81739443D01*
X105684764Y-81832540D01*
X105923363Y-81880000D01*
X106166637Y-81880000D01*
X106405236Y-81832540D01*
X106629992Y-81739443D01*
X106832267Y-81604287D01*
X107004287Y-81432267D01*
X107139443Y-81229992D01*
X107232540Y-81005236D01*
X107280000Y-80766637D01*
X107280000Y-80670061D01*
X112327000Y-80670061D01*
X112327000Y-80873939D01*
X112366774Y-81073898D01*
X112444795Y-81262256D01*
X112558063Y-81431774D01*
X112702226Y-81575937D01*
X112871744Y-81689205D01*
X113060102Y-81767226D01*
X113260061Y-81807000D01*
X113322199Y-81807000D01*
X114501202Y-82986004D01*
X114525000Y-83015002D01*
X114526929Y-83016585D01*
X114526929Y-83100001D01*
X114543993Y-83273255D01*
X114594529Y-83439851D01*
X114676596Y-83593387D01*
X114787039Y-83727963D01*
X114921615Y-83838406D01*
X115075151Y-83920473D01*
X115241747Y-83971009D01*
X115415001Y-83988073D01*
X116340001Y-83988073D01*
X116513255Y-83971009D01*
X116679851Y-83920473D01*
X116833387Y-83838406D01*
X116967963Y-83727963D01*
X117078406Y-83593387D01*
X117160473Y-83439851D01*
X117211009Y-83273255D01*
X117228073Y-83100001D01*
X117228073Y-81850001D01*
X117211009Y-81676747D01*
X117160473Y-81510151D01*
X117078406Y-81356615D01*
X116967963Y-81222039D01*
X116833387Y-81111596D01*
X116679851Y-81029529D01*
X116513255Y-80978993D01*
X116340001Y-80961929D01*
X115415001Y-80961929D01*
X115241747Y-80978993D01*
X115075151Y-81029529D01*
X114921615Y-81111596D01*
X114841855Y-81177053D01*
X114397000Y-80732199D01*
X114397000Y-80670061D01*
X114357226Y-80470102D01*
X114279205Y-80281744D01*
X114165937Y-80112226D01*
X114021774Y-79968063D01*
X113852256Y-79854795D01*
X113663898Y-79776774D01*
X113463939Y-79737000D01*
X113260061Y-79737000D01*
X113060102Y-79776774D01*
X112871744Y-79854795D01*
X112702226Y-79968063D01*
X112558063Y-80112226D01*
X112444795Y-80281744D01*
X112366774Y-80470102D01*
X112327000Y-80670061D01*
X107280000Y-80670061D01*
X107280000Y-80523363D01*
X107232540Y-80284764D01*
X107139443Y-80060008D01*
X107004287Y-79857733D01*
X106832267Y-79685713D01*
X106629992Y-79550557D01*
X106405236Y-79457460D01*
X106232500Y-79423101D01*
X106232500Y-78478072D01*
X108470000Y-78478072D01*
X108594482Y-78465812D01*
X108714180Y-78429502D01*
X108824494Y-78370537D01*
X108921185Y-78291185D01*
X109000537Y-78194494D01*
X109059502Y-78084180D01*
X109095812Y-77964482D01*
X109108072Y-77840000D01*
X109108072Y-77312873D01*
X109331928Y-77536730D01*
X109331928Y-77840000D01*
X109344188Y-77964482D01*
X109380498Y-78084180D01*
X109439463Y-78194494D01*
X109518815Y-78291185D01*
X109615506Y-78370537D01*
X109725820Y-78429502D01*
X109845518Y-78465812D01*
X109970000Y-78478072D01*
X112370000Y-78478072D01*
X112494482Y-78465812D01*
X112614180Y-78429502D01*
X112724494Y-78370537D01*
X112821185Y-78291185D01*
X112900537Y-78194494D01*
X112959502Y-78084180D01*
X112995812Y-77964482D01*
X113008072Y-77840000D01*
X113008072Y-77100000D01*
X112995812Y-76975518D01*
X112959502Y-76855820D01*
X112948373Y-76835000D01*
X112959502Y-76814180D01*
X112995812Y-76694482D01*
X113008072Y-76570000D01*
X113008072Y-75830000D01*
X112995812Y-75705518D01*
X112959502Y-75585820D01*
X112948373Y-75565000D01*
X112959502Y-75544180D01*
X112995812Y-75424482D01*
X113008072Y-75300000D01*
X113008072Y-74560000D01*
X112995812Y-74435518D01*
X112959502Y-74315820D01*
X112948373Y-74295000D01*
X112959502Y-74274180D01*
X112995812Y-74154482D01*
X113008072Y-74030000D01*
X113008072Y-73290000D01*
X112995812Y-73165518D01*
X112991105Y-73150000D01*
X114525197Y-73150000D01*
X121326199Y-79951003D01*
X121349997Y-79980001D01*
X121378995Y-80003799D01*
X121388531Y-80011625D01*
X121419463Y-80069494D01*
X121498815Y-80166185D01*
X121595506Y-80245537D01*
X121705820Y-80304502D01*
X121825518Y-80340812D01*
X121950000Y-80353072D01*
X123286928Y-80353072D01*
X123286928Y-81180000D01*
X123187325Y-81180000D01*
X123150000Y-81176324D01*
X123112675Y-81180000D01*
X123112667Y-81180000D01*
X123001014Y-81190997D01*
X122857753Y-81234454D01*
X122725724Y-81305026D01*
X122609999Y-81399999D01*
X122586200Y-81428998D01*
X122300198Y-81715001D01*
X120189777Y-81715001D01*
X120186009Y-81676747D01*
X120135473Y-81510151D01*
X120053406Y-81356615D01*
X119942963Y-81222039D01*
X119808387Y-81111596D01*
X119654851Y-81029529D01*
X119488255Y-80978993D01*
X119315001Y-80961929D01*
X118390001Y-80961929D01*
X118216747Y-80978993D01*
X118050151Y-81029529D01*
X117896615Y-81111596D01*
X117762039Y-81222039D01*
X117651596Y-81356615D01*
X117569529Y-81510151D01*
X117518993Y-81676747D01*
X117501929Y-81850001D01*
X117501929Y-83100001D01*
X117518993Y-83273255D01*
X117569529Y-83439851D01*
X117651596Y-83593387D01*
X117762039Y-83727963D01*
X117896615Y-83838406D01*
X118050151Y-83920473D01*
X118216747Y-83971009D01*
X118390001Y-83988073D01*
X119315001Y-83988073D01*
X119488255Y-83971009D01*
X119654851Y-83920473D01*
X119808387Y-83838406D01*
X119942963Y-83727963D01*
X120053406Y-83593387D01*
X120135473Y-83439851D01*
X120186009Y-83273255D01*
X120189777Y-83235001D01*
X121245084Y-83235001D01*
X121056764Y-83272460D01*
X120832008Y-83365557D01*
X120629733Y-83500713D01*
X120457713Y-83672733D01*
X120322557Y-83875008D01*
X120229460Y-84099764D01*
X120182000Y-84338363D01*
X120182000Y-84581637D01*
X120229460Y-84820236D01*
X120322557Y-85044992D01*
X120362654Y-85105001D01*
X120189777Y-85105001D01*
X120186009Y-85066747D01*
X120135473Y-84900151D01*
X120053406Y-84746615D01*
X119942963Y-84612039D01*
X119808387Y-84501596D01*
X119654851Y-84419529D01*
X119488255Y-84368993D01*
X119315001Y-84351929D01*
X118390001Y-84351929D01*
X118216747Y-84368993D01*
X118050151Y-84419529D01*
X117896615Y-84501596D01*
X117762039Y-84612039D01*
X117651596Y-84746615D01*
X117569529Y-84900151D01*
X117518993Y-85066747D01*
X117501929Y-85240001D01*
X117501929Y-86490001D01*
X117518993Y-86663255D01*
X117569529Y-86829851D01*
X117651596Y-86983387D01*
X117762039Y-87117963D01*
X117896615Y-87228406D01*
X118050151Y-87310473D01*
X118216747Y-87361009D01*
X118390001Y-87378073D01*
X119315001Y-87378073D01*
X119488255Y-87361009D01*
X119654851Y-87310473D01*
X119808387Y-87228406D01*
X119942963Y-87117963D01*
X120053406Y-86983387D01*
X120135473Y-86829851D01*
X120186009Y-86663255D01*
X120189777Y-86625001D01*
X120850200Y-86625001D01*
X120853197Y-86627998D01*
X120876999Y-86657001D01*
X120906003Y-86680804D01*
X122936928Y-88711730D01*
X122936928Y-89525000D01*
X122953992Y-89698254D01*
X123004528Y-89864850D01*
X123086595Y-90018386D01*
X123197038Y-90152962D01*
X123331614Y-90263405D01*
X123485150Y-90345472D01*
X123651746Y-90396008D01*
X123825000Y-90413072D01*
X124575000Y-90413072D01*
X124748254Y-90396008D01*
X124914850Y-90345472D01*
X125068386Y-90263405D01*
X125202962Y-90152962D01*
X125313405Y-90018386D01*
X125395472Y-89864850D01*
X125446008Y-89698254D01*
X125463072Y-89525000D01*
X125463072Y-88526262D01*
X125694125Y-88757314D01*
X125694129Y-88757319D01*
X125736928Y-88800118D01*
X125736928Y-89525000D01*
X125753992Y-89698254D01*
X125804528Y-89864850D01*
X125886595Y-90018386D01*
X125997038Y-90152962D01*
X126131614Y-90263405D01*
X126285150Y-90345472D01*
X126451746Y-90396008D01*
X126625000Y-90413072D01*
X127375000Y-90413072D01*
X127548254Y-90396008D01*
X127714850Y-90345472D01*
X127868386Y-90263405D01*
X128002962Y-90152962D01*
X128113405Y-90018386D01*
X128195472Y-89864850D01*
X128246008Y-89698254D01*
X128263072Y-89525000D01*
X128263072Y-88275000D01*
X128246008Y-88101746D01*
X128195472Y-87935150D01*
X128113405Y-87781614D01*
X128002962Y-87647038D01*
X127868386Y-87536595D01*
X127714850Y-87454528D01*
X127548254Y-87403992D01*
X127375000Y-87386928D01*
X126654999Y-87386928D01*
X126654999Y-87320368D01*
X126714250Y-87320000D01*
X126873000Y-87161250D01*
X126873000Y-86487000D01*
X127127000Y-86487000D01*
X127127000Y-87161250D01*
X127285750Y-87320000D01*
X127780000Y-87323072D01*
X127904482Y-87310812D01*
X128024180Y-87274502D01*
X128134494Y-87215537D01*
X128231185Y-87136185D01*
X128310537Y-87039494D01*
X128369502Y-86929180D01*
X128405812Y-86809482D01*
X128418072Y-86685000D01*
X128415000Y-86645750D01*
X128256250Y-86487000D01*
X127127000Y-86487000D01*
X126873000Y-86487000D01*
X126853000Y-86487000D01*
X126853000Y-86233000D01*
X126873000Y-86233000D01*
X126873000Y-86213000D01*
X127127000Y-86213000D01*
X127127000Y-86233000D01*
X127148750Y-86233000D01*
X127285750Y-86370000D01*
X127780000Y-86373072D01*
X127904482Y-86360812D01*
X128024180Y-86324502D01*
X128134494Y-86265537D01*
X128174141Y-86233000D01*
X128256250Y-86233000D01*
X128374250Y-86115000D01*
X129296928Y-86115000D01*
X129296928Y-86865000D01*
X129313992Y-87038254D01*
X129364528Y-87204850D01*
X129446595Y-87358386D01*
X129557038Y-87492962D01*
X129691614Y-87603405D01*
X129845150Y-87685472D01*
X130011746Y-87736008D01*
X130185000Y-87753072D01*
X131435000Y-87753072D01*
X131608254Y-87736008D01*
X131774850Y-87685472D01*
X131928386Y-87603405D01*
X132062962Y-87492962D01*
X132173405Y-87358386D01*
X132255472Y-87204850D01*
X132282727Y-87115000D01*
X133106928Y-87115000D01*
X133119188Y-87239482D01*
X133155498Y-87359180D01*
X133214463Y-87469494D01*
X133293815Y-87566185D01*
X133390506Y-87645537D01*
X133500820Y-87704502D01*
X133620518Y-87740812D01*
X133745000Y-87753072D01*
X134334250Y-87750000D01*
X134493000Y-87591250D01*
X134493000Y-86617000D01*
X134747000Y-86617000D01*
X134747000Y-87591250D01*
X134905750Y-87750000D01*
X135495000Y-87753072D01*
X135619482Y-87740812D01*
X135739180Y-87704502D01*
X135849494Y-87645537D01*
X135946185Y-87566185D01*
X136025537Y-87469494D01*
X136084502Y-87359180D01*
X136120812Y-87239482D01*
X136133072Y-87115000D01*
X136130000Y-86775750D01*
X135971250Y-86617000D01*
X134747000Y-86617000D01*
X134493000Y-86617000D01*
X133268750Y-86617000D01*
X133110000Y-86775750D01*
X133106928Y-87115000D01*
X132282727Y-87115000D01*
X132306008Y-87038254D01*
X132323072Y-86865000D01*
X132323072Y-86115000D01*
X132306008Y-85941746D01*
X132282728Y-85865000D01*
X133106928Y-85865000D01*
X133110000Y-86204250D01*
X133268750Y-86363000D01*
X134493000Y-86363000D01*
X134493000Y-85388750D01*
X134747000Y-85388750D01*
X134747000Y-86363000D01*
X135971250Y-86363000D01*
X136130000Y-86204250D01*
X136133072Y-85865000D01*
X136120812Y-85740518D01*
X136084502Y-85620820D01*
X136025537Y-85510506D01*
X135946185Y-85413815D01*
X135849494Y-85334463D01*
X135739180Y-85275498D01*
X135619482Y-85239188D01*
X135495000Y-85226928D01*
X134905750Y-85230000D01*
X134747000Y-85388750D01*
X134493000Y-85388750D01*
X134334250Y-85230000D01*
X133745000Y-85226928D01*
X133620518Y-85239188D01*
X133500820Y-85275498D01*
X133390506Y-85334463D01*
X133293815Y-85413815D01*
X133214463Y-85510506D01*
X133155498Y-85620820D01*
X133119188Y-85740518D01*
X133106928Y-85865000D01*
X132282728Y-85865000D01*
X132255472Y-85775150D01*
X132173405Y-85621614D01*
X132062962Y-85487038D01*
X131928386Y-85376595D01*
X131774850Y-85294528D01*
X131608254Y-85243992D01*
X131435000Y-85226928D01*
X130185000Y-85226928D01*
X130011746Y-85243992D01*
X129845150Y-85294528D01*
X129691614Y-85376595D01*
X129557038Y-85487038D01*
X129446595Y-85621614D01*
X129364528Y-85775150D01*
X129313992Y-85941746D01*
X129296928Y-86115000D01*
X128374250Y-86115000D01*
X128415000Y-86074250D01*
X128418072Y-86035000D01*
X128405812Y-85910518D01*
X128398071Y-85885000D01*
X128405812Y-85859482D01*
X128418072Y-85735000D01*
X128415000Y-85695750D01*
X128256250Y-85537000D01*
X128174141Y-85537000D01*
X128134494Y-85504463D01*
X128024180Y-85445498D01*
X127907159Y-85410000D01*
X128024180Y-85374502D01*
X128134494Y-85315537D01*
X128174141Y-85283000D01*
X128256250Y-85283000D01*
X128319250Y-85220000D01*
X130002678Y-85220000D01*
X130040000Y-85223676D01*
X130077322Y-85220000D01*
X130077333Y-85220000D01*
X130188986Y-85209003D01*
X130332247Y-85165546D01*
X130464276Y-85094974D01*
X130580001Y-85000001D01*
X130603803Y-84970998D01*
X130605801Y-84969000D01*
X138186928Y-84969000D01*
X138186928Y-85719000D01*
X138203992Y-85892254D01*
X138254528Y-86058850D01*
X138336595Y-86212386D01*
X138447038Y-86346962D01*
X138581614Y-86457405D01*
X138735150Y-86539472D01*
X138877500Y-86582653D01*
X138877501Y-87531347D01*
X138735150Y-87574528D01*
X138581614Y-87656595D01*
X138447038Y-87767038D01*
X138336595Y-87901614D01*
X138254528Y-88055150D01*
X138203992Y-88221746D01*
X138186928Y-88395000D01*
X138186928Y-89145000D01*
X138203992Y-89318254D01*
X138254528Y-89484850D01*
X138336595Y-89638386D01*
X138447038Y-89772962D01*
X138581614Y-89883405D01*
X138735150Y-89965472D01*
X138901746Y-90016008D01*
X139075000Y-90033072D01*
X140325000Y-90033072D01*
X140498254Y-90016008D01*
X140664850Y-89965472D01*
X140818386Y-89883405D01*
X140952962Y-89772962D01*
X141063405Y-89638386D01*
X141086328Y-89595500D01*
X143132008Y-89595500D01*
X143273744Y-89690205D01*
X143462102Y-89768226D01*
X143662061Y-89808000D01*
X143865939Y-89808000D01*
X144065898Y-89768226D01*
X144254256Y-89690205D01*
X144423774Y-89576937D01*
X144567937Y-89432774D01*
X144681205Y-89263256D01*
X144759226Y-89074898D01*
X144799000Y-88874939D01*
X144799000Y-88671061D01*
X144786855Y-88610000D01*
X147296928Y-88610000D01*
X147309188Y-88734482D01*
X147345498Y-88854180D01*
X147375335Y-88910000D01*
X147345498Y-88965820D01*
X147309188Y-89085518D01*
X147296928Y-89210000D01*
X147296928Y-90310000D01*
X147309188Y-90434482D01*
X147345498Y-90554180D01*
X147404463Y-90664494D01*
X147483815Y-90761185D01*
X147580506Y-90840537D01*
X147690820Y-90899502D01*
X147810518Y-90935812D01*
X147935000Y-90948072D01*
X152535000Y-90948072D01*
X152659482Y-90935812D01*
X152779180Y-90899502D01*
X152889494Y-90840537D01*
X152986185Y-90761185D01*
X153065537Y-90664494D01*
X153124502Y-90554180D01*
X153160812Y-90434482D01*
X153173072Y-90310000D01*
X153173072Y-89210000D01*
X153160812Y-89085518D01*
X153124502Y-88965820D01*
X153094665Y-88910000D01*
X153124502Y-88854180D01*
X153160812Y-88734482D01*
X153173072Y-88610000D01*
X153170000Y-88345750D01*
X153011250Y-88187000D01*
X150362000Y-88187000D01*
X150362000Y-88207000D01*
X150108000Y-88207000D01*
X150108000Y-88187000D01*
X147458750Y-88187000D01*
X147300000Y-88345750D01*
X147296928Y-88610000D01*
X144786855Y-88610000D01*
X144759226Y-88471102D01*
X144681205Y-88282744D01*
X144567937Y-88113226D01*
X144423774Y-87969063D01*
X144254256Y-87855795D01*
X144065898Y-87777774D01*
X143865939Y-87738000D01*
X143662061Y-87738000D01*
X143462102Y-87777774D01*
X143273744Y-87855795D01*
X143132008Y-87950500D01*
X141089535Y-87950500D01*
X141063405Y-87901614D01*
X140952962Y-87767038D01*
X140818386Y-87656595D01*
X140664850Y-87574528D01*
X140522500Y-87531347D01*
X140522500Y-86582653D01*
X140664850Y-86539472D01*
X140818386Y-86457405D01*
X140952962Y-86346962D01*
X141063405Y-86212386D01*
X141084725Y-86172500D01*
X143392068Y-86172500D01*
X143416595Y-86218386D01*
X143527038Y-86352962D01*
X143661614Y-86463405D01*
X143815150Y-86545472D01*
X143981746Y-86596008D01*
X144155000Y-86613072D01*
X145405000Y-86613072D01*
X145578254Y-86596008D01*
X145744850Y-86545472D01*
X145898386Y-86463405D01*
X146032962Y-86352962D01*
X146143405Y-86218386D01*
X146225472Y-86064850D01*
X146276008Y-85898254D01*
X146293072Y-85725000D01*
X146293072Y-84975000D01*
X146276008Y-84801746D01*
X146225472Y-84635150D01*
X146143405Y-84481614D01*
X146032962Y-84347038D01*
X145898386Y-84236595D01*
X145744850Y-84154528D01*
X145578254Y-84103992D01*
X145405000Y-84086928D01*
X144155000Y-84086928D01*
X143981746Y-84103992D01*
X143815150Y-84154528D01*
X143661614Y-84236595D01*
X143527038Y-84347038D01*
X143416595Y-84481614D01*
X143392068Y-84527500D01*
X141091139Y-84527500D01*
X141063405Y-84475614D01*
X140952962Y-84341038D01*
X140818386Y-84230595D01*
X140664850Y-84148528D01*
X140498254Y-84097992D01*
X140325000Y-84080928D01*
X139075000Y-84080928D01*
X138901746Y-84097992D01*
X138735150Y-84148528D01*
X138581614Y-84230595D01*
X138447038Y-84341038D01*
X138336595Y-84475614D01*
X138254528Y-84629150D01*
X138203992Y-84795746D01*
X138186928Y-84969000D01*
X130605801Y-84969000D01*
X130621729Y-84953072D01*
X131435000Y-84953072D01*
X131608254Y-84936008D01*
X131774850Y-84885472D01*
X131928386Y-84803405D01*
X132062962Y-84692962D01*
X132173405Y-84558386D01*
X132255472Y-84404850D01*
X132306008Y-84238254D01*
X132323072Y-84065000D01*
X132323072Y-83315000D01*
X133106928Y-83315000D01*
X133106928Y-84065000D01*
X133123992Y-84238254D01*
X133174528Y-84404850D01*
X133256595Y-84558386D01*
X133367038Y-84692962D01*
X133501614Y-84803405D01*
X133655150Y-84885472D01*
X133821746Y-84936008D01*
X133995000Y-84953072D01*
X135245000Y-84953072D01*
X135418254Y-84936008D01*
X135584850Y-84885472D01*
X135738386Y-84803405D01*
X135872962Y-84692962D01*
X135983405Y-84558386D01*
X136065472Y-84404850D01*
X136116008Y-84238254D01*
X136133072Y-84065000D01*
X136133072Y-83315000D01*
X136118693Y-83169000D01*
X138186928Y-83169000D01*
X138199188Y-83293482D01*
X138235498Y-83413180D01*
X138294463Y-83523494D01*
X138373815Y-83620185D01*
X138470506Y-83699537D01*
X138580820Y-83758502D01*
X138700518Y-83794812D01*
X138825000Y-83807072D01*
X139414250Y-83804000D01*
X139573000Y-83645250D01*
X139573000Y-82671000D01*
X139827000Y-82671000D01*
X139827000Y-83645250D01*
X139985750Y-83804000D01*
X140575000Y-83807072D01*
X140699482Y-83794812D01*
X140819180Y-83758502D01*
X140929494Y-83699537D01*
X141026185Y-83620185D01*
X141105537Y-83523494D01*
X141164502Y-83413180D01*
X141200812Y-83293482D01*
X141212481Y-83175000D01*
X143266928Y-83175000D01*
X143279188Y-83299482D01*
X143315498Y-83419180D01*
X143374463Y-83529494D01*
X143453815Y-83626185D01*
X143550506Y-83705537D01*
X143660820Y-83764502D01*
X143780518Y-83800812D01*
X143905000Y-83813072D01*
X144494250Y-83810000D01*
X144653000Y-83651250D01*
X144653000Y-82677000D01*
X144907000Y-82677000D01*
X144907000Y-83651250D01*
X145065750Y-83810000D01*
X145655000Y-83813072D01*
X145779482Y-83800812D01*
X145899180Y-83764502D01*
X146009494Y-83705537D01*
X146106185Y-83626185D01*
X146185537Y-83529494D01*
X146244502Y-83419180D01*
X146280812Y-83299482D01*
X146293072Y-83175000D01*
X146290000Y-82835750D01*
X146131250Y-82677000D01*
X144907000Y-82677000D01*
X144653000Y-82677000D01*
X143428750Y-82677000D01*
X143270000Y-82835750D01*
X143266928Y-83175000D01*
X141212481Y-83175000D01*
X141213072Y-83169000D01*
X141210000Y-82829750D01*
X141051250Y-82671000D01*
X139827000Y-82671000D01*
X139573000Y-82671000D01*
X138348750Y-82671000D01*
X138190000Y-82829750D01*
X138186928Y-83169000D01*
X136118693Y-83169000D01*
X136116008Y-83141746D01*
X136065472Y-82975150D01*
X135983405Y-82821614D01*
X135872962Y-82687038D01*
X135738386Y-82576595D01*
X135584850Y-82494528D01*
X135418254Y-82443992D01*
X135245000Y-82426928D01*
X133995000Y-82426928D01*
X133821746Y-82443992D01*
X133655150Y-82494528D01*
X133501614Y-82576595D01*
X133367038Y-82687038D01*
X133256595Y-82821614D01*
X133174528Y-82975150D01*
X133123992Y-83141746D01*
X133106928Y-83315000D01*
X132323072Y-83315000D01*
X132306008Y-83141746D01*
X132255472Y-82975150D01*
X132173405Y-82821614D01*
X132062962Y-82687038D01*
X131928386Y-82576595D01*
X131774850Y-82494528D01*
X131608254Y-82443992D01*
X131435000Y-82426928D01*
X130620952Y-82426928D01*
X130538566Y-82359316D01*
X130406537Y-82288744D01*
X130339776Y-82268493D01*
X130429494Y-82220537D01*
X130526185Y-82141185D01*
X130605537Y-82044494D01*
X130664502Y-81934180D01*
X130669106Y-81919000D01*
X138186928Y-81919000D01*
X138190000Y-82258250D01*
X138348750Y-82417000D01*
X139573000Y-82417000D01*
X139573000Y-81442750D01*
X139827000Y-81442750D01*
X139827000Y-82417000D01*
X141051250Y-82417000D01*
X141210000Y-82258250D01*
X141213017Y-81925000D01*
X143266928Y-81925000D01*
X143270000Y-82264250D01*
X143428750Y-82423000D01*
X144653000Y-82423000D01*
X144653000Y-81448750D01*
X144907000Y-81448750D01*
X144907000Y-82423000D01*
X146131250Y-82423000D01*
X146144250Y-82410000D01*
X147296928Y-82410000D01*
X147296928Y-83510000D01*
X147309188Y-83634482D01*
X147345498Y-83754180D01*
X147375335Y-83810000D01*
X147345498Y-83865820D01*
X147309188Y-83985518D01*
X147296928Y-84110000D01*
X147296928Y-85210000D01*
X147309188Y-85334482D01*
X147345498Y-85454180D01*
X147375335Y-85510000D01*
X147345498Y-85565820D01*
X147309188Y-85685518D01*
X147296928Y-85810000D01*
X147296928Y-86910000D01*
X147309188Y-87034482D01*
X147345498Y-87154180D01*
X147375335Y-87210000D01*
X147345498Y-87265820D01*
X147309188Y-87385518D01*
X147296928Y-87510000D01*
X147300000Y-87774250D01*
X147458750Y-87933000D01*
X150108000Y-87933000D01*
X150108000Y-87913000D01*
X150362000Y-87913000D01*
X150362000Y-87933000D01*
X153011250Y-87933000D01*
X153170000Y-87774250D01*
X153173072Y-87510000D01*
X153160812Y-87385518D01*
X153124502Y-87265820D01*
X153094665Y-87210000D01*
X153124502Y-87154180D01*
X153160812Y-87034482D01*
X153173072Y-86910000D01*
X153173072Y-85810000D01*
X153160812Y-85685518D01*
X153124502Y-85565820D01*
X153094665Y-85510000D01*
X153124502Y-85454180D01*
X153160812Y-85334482D01*
X153173072Y-85210000D01*
X153173072Y-84110000D01*
X153160812Y-83985518D01*
X153124502Y-83865820D01*
X153094665Y-83810000D01*
X153124502Y-83754180D01*
X153160812Y-83634482D01*
X153173072Y-83510000D01*
X153173072Y-82410000D01*
X153160812Y-82285518D01*
X153124502Y-82165820D01*
X153065537Y-82055506D01*
X152986185Y-81958815D01*
X152889494Y-81879463D01*
X152779180Y-81820498D01*
X152659482Y-81784188D01*
X152535000Y-81771928D01*
X147935000Y-81771928D01*
X147810518Y-81784188D01*
X147690820Y-81820498D01*
X147580506Y-81879463D01*
X147483815Y-81958815D01*
X147404463Y-82055506D01*
X147345498Y-82165820D01*
X147309188Y-82285518D01*
X147296928Y-82410000D01*
X146144250Y-82410000D01*
X146290000Y-82264250D01*
X146293072Y-81925000D01*
X146280812Y-81800518D01*
X146244502Y-81680820D01*
X146185537Y-81570506D01*
X146106185Y-81473815D01*
X146009494Y-81394463D01*
X145899180Y-81335498D01*
X145779482Y-81299188D01*
X145655000Y-81286928D01*
X145065750Y-81290000D01*
X144907000Y-81448750D01*
X144653000Y-81448750D01*
X144494250Y-81290000D01*
X143905000Y-81286928D01*
X143780518Y-81299188D01*
X143660820Y-81335498D01*
X143550506Y-81394463D01*
X143453815Y-81473815D01*
X143374463Y-81570506D01*
X143315498Y-81680820D01*
X143279188Y-81800518D01*
X143266928Y-81925000D01*
X141213017Y-81925000D01*
X141213072Y-81919000D01*
X141200812Y-81794518D01*
X141164502Y-81674820D01*
X141105537Y-81564506D01*
X141026185Y-81467815D01*
X140929494Y-81388463D01*
X140819180Y-81329498D01*
X140699482Y-81293188D01*
X140575000Y-81280928D01*
X139985750Y-81284000D01*
X139827000Y-81442750D01*
X139573000Y-81442750D01*
X139414250Y-81284000D01*
X138825000Y-81280928D01*
X138700518Y-81293188D01*
X138580820Y-81329498D01*
X138470506Y-81388463D01*
X138373815Y-81467815D01*
X138294463Y-81564506D01*
X138235498Y-81674820D01*
X138199188Y-81794518D01*
X138186928Y-81919000D01*
X130669106Y-81919000D01*
X130700812Y-81814482D01*
X130713072Y-81690000D01*
X130713072Y-80960000D01*
X154046928Y-80960000D01*
X154046928Y-91760000D01*
X154059188Y-91884482D01*
X154095498Y-92004180D01*
X154154463Y-92114494D01*
X154233815Y-92211185D01*
X154330506Y-92290537D01*
X154440820Y-92349502D01*
X154560518Y-92385812D01*
X154685000Y-92398072D01*
X164085000Y-92398072D01*
X164209482Y-92385812D01*
X164329180Y-92349502D01*
X164439494Y-92290537D01*
X164536185Y-92211185D01*
X164615537Y-92114494D01*
X164674502Y-92004180D01*
X164710812Y-91884482D01*
X164723072Y-91760000D01*
X164723072Y-89710359D01*
X170059229Y-89710359D01*
X170059229Y-90289641D01*
X170172241Y-90857791D01*
X170393923Y-91392977D01*
X170715754Y-91874632D01*
X171125368Y-92284246D01*
X171607023Y-92606077D01*
X172142209Y-92827759D01*
X172710359Y-92940771D01*
X173289641Y-92940771D01*
X173857791Y-92827759D01*
X174392977Y-92606077D01*
X174874632Y-92284246D01*
X175284246Y-91874632D01*
X175606077Y-91392977D01*
X175827759Y-90857791D01*
X175940771Y-90289641D01*
X175940771Y-89710359D01*
X175827759Y-89142209D01*
X175606077Y-88607023D01*
X175284246Y-88125368D01*
X174874632Y-87715754D01*
X174392977Y-87393923D01*
X173857791Y-87172241D01*
X173289641Y-87059229D01*
X172710359Y-87059229D01*
X172142209Y-87172241D01*
X171607023Y-87393923D01*
X171125368Y-87715754D01*
X170715754Y-88125368D01*
X170393923Y-88607023D01*
X170172241Y-89142209D01*
X170059229Y-89710359D01*
X164723072Y-89710359D01*
X164723072Y-81620000D01*
X174087573Y-81620000D01*
X174117210Y-81920913D01*
X174204983Y-82210261D01*
X174347519Y-82476927D01*
X174539339Y-82710661D01*
X174773073Y-82902481D01*
X175039739Y-83045017D01*
X175329087Y-83132790D01*
X175554592Y-83155000D01*
X177505408Y-83155000D01*
X177730913Y-83132790D01*
X178020261Y-83045017D01*
X178286927Y-82902481D01*
X178520661Y-82710661D01*
X178712481Y-82476927D01*
X178855017Y-82210261D01*
X178942790Y-81920913D01*
X178972427Y-81620000D01*
X178942790Y-81319087D01*
X178855017Y-81029739D01*
X178712481Y-80763073D01*
X178520661Y-80529339D01*
X178286927Y-80337519D01*
X178020261Y-80194983D01*
X177730913Y-80107210D01*
X177505408Y-80085000D01*
X175554592Y-80085000D01*
X175329087Y-80107210D01*
X175039739Y-80194983D01*
X174773073Y-80337519D01*
X174539339Y-80529339D01*
X174347519Y-80763073D01*
X174204983Y-81029739D01*
X174117210Y-81319087D01*
X174087573Y-81620000D01*
X164723072Y-81620000D01*
X164723072Y-80960000D01*
X164710812Y-80835518D01*
X164674502Y-80715820D01*
X164615537Y-80605506D01*
X164536185Y-80508815D01*
X164439494Y-80429463D01*
X164329180Y-80370498D01*
X164209482Y-80334188D01*
X164085000Y-80321928D01*
X154685000Y-80321928D01*
X154560518Y-80334188D01*
X154440820Y-80370498D01*
X154330506Y-80429463D01*
X154233815Y-80508815D01*
X154154463Y-80605506D01*
X154095498Y-80715820D01*
X154059188Y-80835518D01*
X154046928Y-80960000D01*
X130713072Y-80960000D01*
X130713072Y-80353072D01*
X132050000Y-80353072D01*
X132174482Y-80340812D01*
X132294180Y-80304502D01*
X132404494Y-80245537D01*
X132459981Y-80200000D01*
X140018678Y-80200000D01*
X140056000Y-80203676D01*
X140093322Y-80200000D01*
X140093333Y-80200000D01*
X140204986Y-80189003D01*
X140348247Y-80145546D01*
X140480276Y-80074974D01*
X140596001Y-79980001D01*
X140619804Y-79950997D01*
X142450801Y-78120000D01*
X174087573Y-78120000D01*
X174117210Y-78420913D01*
X174204983Y-78710261D01*
X174347519Y-78976927D01*
X174539339Y-79210661D01*
X174773073Y-79402481D01*
X175039739Y-79545017D01*
X175329087Y-79632790D01*
X175554592Y-79655000D01*
X177505408Y-79655000D01*
X177730913Y-79632790D01*
X178020261Y-79545017D01*
X178286927Y-79402481D01*
X178520661Y-79210661D01*
X178712481Y-78976927D01*
X178855017Y-78710261D01*
X178942790Y-78420913D01*
X178972427Y-78120000D01*
X178942790Y-77819087D01*
X178855017Y-77529739D01*
X178712481Y-77263073D01*
X178520661Y-77029339D01*
X178286927Y-76837519D01*
X178020261Y-76694983D01*
X177730913Y-76607210D01*
X177505408Y-76585000D01*
X175554592Y-76585000D01*
X175329087Y-76607210D01*
X175039739Y-76694983D01*
X174773073Y-76837519D01*
X174539339Y-77029339D01*
X174347519Y-77263073D01*
X174204983Y-77529739D01*
X174117210Y-77819087D01*
X174087573Y-78120000D01*
X142450801Y-78120000D01*
X145950801Y-74620000D01*
X174087573Y-74620000D01*
X174117210Y-74920913D01*
X174204983Y-75210261D01*
X174347519Y-75476927D01*
X174539339Y-75710661D01*
X174773073Y-75902481D01*
X175039739Y-76045017D01*
X175329087Y-76132790D01*
X175554592Y-76155000D01*
X177505408Y-76155000D01*
X177730913Y-76132790D01*
X178020261Y-76045017D01*
X178286927Y-75902481D01*
X178520661Y-75710661D01*
X178712481Y-75476927D01*
X178855017Y-75210261D01*
X178942790Y-74920913D01*
X178972427Y-74620000D01*
X178942790Y-74319087D01*
X178855017Y-74029739D01*
X178712481Y-73763073D01*
X178520661Y-73529339D01*
X178286927Y-73337519D01*
X178020261Y-73194983D01*
X177730913Y-73107210D01*
X177505408Y-73085000D01*
X175554592Y-73085000D01*
X175329087Y-73107210D01*
X175039739Y-73194983D01*
X174773073Y-73337519D01*
X174539339Y-73529339D01*
X174347519Y-73763073D01*
X174204983Y-74029739D01*
X174117210Y-74319087D01*
X174087573Y-74620000D01*
X145950801Y-74620000D01*
X146746004Y-73824798D01*
X146775001Y-73801001D01*
X146869974Y-73685276D01*
X146889326Y-73649072D01*
X146985000Y-73649072D01*
X147109482Y-73636812D01*
X147229180Y-73600502D01*
X147339494Y-73541537D01*
X147436185Y-73462185D01*
X147515537Y-73365494D01*
X147574502Y-73255180D01*
X147610812Y-73135482D01*
X147623072Y-73011000D01*
X147623072Y-72958500D01*
X152237946Y-72958500D01*
X152374733Y-73095287D01*
X152577008Y-73230443D01*
X152801764Y-73323540D01*
X153040363Y-73371000D01*
X153283637Y-73371000D01*
X153522236Y-73323540D01*
X153746992Y-73230443D01*
X153949267Y-73095287D01*
X154121287Y-72923267D01*
X154256443Y-72720992D01*
X154349540Y-72496236D01*
X154397000Y-72257637D01*
X154397000Y-72014363D01*
X154349540Y-71775764D01*
X154300968Y-71658500D01*
X158963602Y-71658500D01*
X159004000Y-71662479D01*
X159044398Y-71658500D01*
X159165238Y-71646598D01*
X159320280Y-71599567D01*
X159463167Y-71523192D01*
X159588409Y-71420409D01*
X159614165Y-71389025D01*
X160533190Y-70470000D01*
X174091928Y-70470000D01*
X174091928Y-71770000D01*
X174108992Y-71943254D01*
X174159528Y-72109850D01*
X174241595Y-72263386D01*
X174352038Y-72397962D01*
X174486614Y-72508405D01*
X174640150Y-72590472D01*
X174806746Y-72641008D01*
X174980000Y-72658072D01*
X178080000Y-72658072D01*
X178253254Y-72641008D01*
X178419850Y-72590472D01*
X178573386Y-72508405D01*
X178707962Y-72397962D01*
X178818405Y-72263386D01*
X178900472Y-72109850D01*
X178951008Y-71943254D01*
X178968072Y-71770000D01*
X178968072Y-70470000D01*
X178951008Y-70296746D01*
X178900472Y-70130150D01*
X178818405Y-69976614D01*
X178707962Y-69842038D01*
X178573386Y-69731595D01*
X178419850Y-69649528D01*
X178253254Y-69598992D01*
X178080000Y-69581928D01*
X174980000Y-69581928D01*
X174806746Y-69598992D01*
X174640150Y-69649528D01*
X174486614Y-69731595D01*
X174352038Y-69842038D01*
X174241595Y-69976614D01*
X174159528Y-70130150D01*
X174108992Y-70296746D01*
X174091928Y-70470000D01*
X160533190Y-70470000D01*
X171451733Y-59551458D01*
X171489088Y-59562790D01*
X171790000Y-59592427D01*
X172090913Y-59562790D01*
X172380261Y-59475017D01*
X172646927Y-59332481D01*
X172880661Y-59140661D01*
X173072481Y-58906927D01*
X173215017Y-58640261D01*
X173302790Y-58350913D01*
X173325000Y-58125408D01*
X173325000Y-56174592D01*
X173302790Y-55949087D01*
X173215017Y-55659739D01*
X173072481Y-55393073D01*
X172880661Y-55159339D01*
X172646926Y-54967519D01*
X172380260Y-54824983D01*
X172090912Y-54737210D01*
X171790000Y-54707573D01*
X171489087Y-54737210D01*
X171199739Y-54824983D01*
X170933073Y-54967519D01*
X170699339Y-55159339D01*
X170507519Y-55393074D01*
X170364983Y-55659740D01*
X170277210Y-55949088D01*
X170255000Y-56174593D01*
X170255000Y-58125408D01*
X170277211Y-58350913D01*
X170288542Y-58388267D01*
X158663310Y-70013500D01*
X153989690Y-70013500D01*
X164451733Y-59551458D01*
X164489088Y-59562790D01*
X164790000Y-59592427D01*
X165090913Y-59562790D01*
X165380261Y-59475017D01*
X165646927Y-59332481D01*
X165880661Y-59140661D01*
X166072481Y-58906927D01*
X166215017Y-58640261D01*
X166302790Y-58350913D01*
X166325000Y-58125408D01*
X166325000Y-56174593D01*
X166755000Y-56174593D01*
X166755000Y-58125408D01*
X166777211Y-58350913D01*
X166864984Y-58640261D01*
X167007520Y-58906927D01*
X167199340Y-59140661D01*
X167433074Y-59332481D01*
X167699740Y-59475017D01*
X167989088Y-59562790D01*
X168290000Y-59592427D01*
X168590913Y-59562790D01*
X168880261Y-59475017D01*
X169146927Y-59332481D01*
X169380661Y-59140661D01*
X169572481Y-58906927D01*
X169715017Y-58640261D01*
X169802790Y-58350913D01*
X169825000Y-58125408D01*
X169825000Y-56174592D01*
X169802790Y-55949087D01*
X169715017Y-55659739D01*
X169572481Y-55393073D01*
X169380661Y-55159339D01*
X169146926Y-54967519D01*
X168880260Y-54824983D01*
X168590912Y-54737210D01*
X168290000Y-54707573D01*
X167989087Y-54737210D01*
X167699739Y-54824983D01*
X167433073Y-54967519D01*
X167199339Y-55159339D01*
X167007519Y-55393074D01*
X166864983Y-55659740D01*
X166777210Y-55949088D01*
X166755000Y-56174593D01*
X166325000Y-56174593D01*
X166325000Y-56174592D01*
X166302790Y-55949087D01*
X166215017Y-55659739D01*
X166072481Y-55393073D01*
X165880661Y-55159339D01*
X165646926Y-54967519D01*
X165380260Y-54824983D01*
X165090912Y-54737210D01*
X164790000Y-54707573D01*
X164489087Y-54737210D01*
X164199739Y-54824983D01*
X163933073Y-54967519D01*
X163699339Y-55159339D01*
X163507519Y-55393074D01*
X163364983Y-55659740D01*
X163277210Y-55949088D01*
X163255000Y-56174593D01*
X163255000Y-58125408D01*
X163277211Y-58350913D01*
X163288542Y-58388267D01*
X162811822Y-58864987D01*
X162828072Y-58700000D01*
X162828072Y-55600000D01*
X162811008Y-55426746D01*
X162760472Y-55260150D01*
X162678405Y-55106614D01*
X162567962Y-54972038D01*
X162433386Y-54861595D01*
X162279850Y-54779528D01*
X162113254Y-54728992D01*
X161940000Y-54711928D01*
X160640000Y-54711928D01*
X160466746Y-54728992D01*
X160300150Y-54779528D01*
X160146614Y-54861595D01*
X160012038Y-54972038D01*
X159901595Y-55106614D01*
X159819528Y-55260150D01*
X159768992Y-55426746D01*
X159751928Y-55600000D01*
X159751928Y-57524882D01*
X149213310Y-68063500D01*
X147623072Y-68063500D01*
X147623072Y-68011000D01*
X147610812Y-67886518D01*
X147574502Y-67766820D01*
X147515537Y-67656506D01*
X147436185Y-67559815D01*
X147339494Y-67480463D01*
X147229180Y-67421498D01*
X147109482Y-67385188D01*
X146985000Y-67372928D01*
X145798981Y-67372928D01*
X145874443Y-67259992D01*
X145967540Y-67035236D01*
X146015000Y-66796637D01*
X146015000Y-66553363D01*
X145967540Y-66314764D01*
X145874443Y-66090008D01*
X145739287Y-65887733D01*
X145567267Y-65715713D01*
X145364992Y-65580557D01*
X145140236Y-65487460D01*
X144901637Y-65440000D01*
X144658363Y-65440000D01*
X144419764Y-65487460D01*
X144195008Y-65580557D01*
X143992733Y-65715713D01*
X143820713Y-65887733D01*
X143685557Y-66090008D01*
X143592460Y-66314764D01*
X143545000Y-66553363D01*
X143545000Y-66796637D01*
X143592460Y-67035236D01*
X143685557Y-67259992D01*
X143820713Y-67462267D01*
X143845001Y-67486555D01*
X143845000Y-69637810D01*
X143469310Y-70013500D01*
X141670055Y-70013500D01*
X141674502Y-70005180D01*
X141687753Y-69961497D01*
X141720000Y-69929250D01*
X141712912Y-69864157D01*
X141723072Y-69761000D01*
X141723072Y-69311000D01*
X141713223Y-69211000D01*
X141723072Y-69111000D01*
X141723072Y-68661000D01*
X141713223Y-68561000D01*
X141723072Y-68461000D01*
X141723072Y-68011000D01*
X141710812Y-67886518D01*
X141674502Y-67766820D01*
X141615537Y-67656506D01*
X141536185Y-67559815D01*
X141439494Y-67480463D01*
X141329180Y-67421498D01*
X141209482Y-67385188D01*
X141085000Y-67372928D01*
X139585000Y-67372928D01*
X139460518Y-67385188D01*
X139340820Y-67421498D01*
X139238856Y-67476000D01*
X137668325Y-67476000D01*
X137631000Y-67472324D01*
X137593675Y-67476000D01*
X137593667Y-67476000D01*
X137482014Y-67486997D01*
X137338753Y-67530454D01*
X137206724Y-67601026D01*
X137090999Y-67695999D01*
X137067200Y-67724998D01*
X137018598Y-67773600D01*
X136956461Y-67773600D01*
X136756502Y-67813374D01*
X136568144Y-67891395D01*
X136398626Y-68004663D01*
X136254463Y-68148826D01*
X136141195Y-68318344D01*
X136063174Y-68506702D01*
X136023400Y-68706661D01*
X136023400Y-68910539D01*
X136063174Y-69110498D01*
X136141195Y-69298856D01*
X136254463Y-69468374D01*
X136332143Y-69546054D01*
X132610895Y-73267302D01*
X132580537Y-73210506D01*
X132501185Y-73113815D01*
X132404494Y-73034463D01*
X132294180Y-72975498D01*
X132174482Y-72939188D01*
X132050000Y-72926928D01*
X130713072Y-72926928D01*
X130713072Y-72026729D01*
X138664792Y-64075010D01*
X147437668Y-64075010D01*
X147474990Y-64078686D01*
X147512312Y-64075010D01*
X147512323Y-64075010D01*
X147623976Y-64064013D01*
X147767237Y-64020556D01*
X147899266Y-63949984D01*
X148014991Y-63855011D01*
X148038794Y-63826007D01*
X152333916Y-59530886D01*
X152439088Y-59562790D01*
X152740000Y-59592427D01*
X153040913Y-59562790D01*
X153330261Y-59475017D01*
X153596927Y-59332481D01*
X153830661Y-59140661D01*
X154022481Y-58906927D01*
X154165017Y-58640261D01*
X154252790Y-58350913D01*
X154275000Y-58125408D01*
X154275000Y-56174592D01*
X154252790Y-55949087D01*
X154165017Y-55659739D01*
X154022481Y-55393073D01*
X153830661Y-55159339D01*
X153596926Y-54967519D01*
X153330260Y-54824983D01*
X153040912Y-54737210D01*
X152740000Y-54707573D01*
X152439087Y-54737210D01*
X152149739Y-54824983D01*
X151883073Y-54967519D01*
X151649339Y-55159339D01*
X151457519Y-55393074D01*
X151314983Y-55659740D01*
X151227210Y-55949088D01*
X151205000Y-56174593D01*
X151205000Y-58125408D01*
X151227211Y-58350913D01*
X151259114Y-58456084D01*
X147160189Y-62555010D01*
X145809791Y-62555010D01*
X148833916Y-59530886D01*
X148939088Y-59562790D01*
X149240000Y-59592427D01*
X149540913Y-59562790D01*
X149830261Y-59475017D01*
X150096927Y-59332481D01*
X150330661Y-59140661D01*
X150522481Y-58906927D01*
X150665017Y-58640261D01*
X150752790Y-58350913D01*
X150775000Y-58125408D01*
X150775000Y-56174592D01*
X150752790Y-55949087D01*
X150665017Y-55659739D01*
X150522481Y-55393073D01*
X150330661Y-55159339D01*
X150096926Y-54967519D01*
X149830260Y-54824983D01*
X149540912Y-54737210D01*
X149240000Y-54707573D01*
X148939087Y-54737210D01*
X148649739Y-54824983D01*
X148383073Y-54967519D01*
X148149339Y-55159339D01*
X147957519Y-55393074D01*
X147814983Y-55659740D01*
X147727210Y-55949088D01*
X147705000Y-56174593D01*
X147705000Y-58125408D01*
X147727211Y-58350913D01*
X147759114Y-58456084D01*
X144110199Y-62105000D01*
X142759801Y-62105000D01*
X145333916Y-59530886D01*
X145439088Y-59562790D01*
X145740000Y-59592427D01*
X146040913Y-59562790D01*
X146330261Y-59475017D01*
X146596927Y-59332481D01*
X146830661Y-59140661D01*
X147022481Y-58906927D01*
X147165017Y-58640261D01*
X147252790Y-58350913D01*
X147275000Y-58125408D01*
X147275000Y-56174592D01*
X147252790Y-55949087D01*
X147165017Y-55659739D01*
X147022481Y-55393073D01*
X146830661Y-55159339D01*
X146596926Y-54967519D01*
X146330260Y-54824983D01*
X146040912Y-54737210D01*
X145740000Y-54707573D01*
X145439087Y-54737210D01*
X145149739Y-54824983D01*
X144883073Y-54967519D01*
X144649339Y-55159339D01*
X144457519Y-55393074D01*
X144314983Y-55659740D01*
X144227210Y-55949088D01*
X144205000Y-56174593D01*
X144205000Y-58125408D01*
X144227211Y-58350913D01*
X144259114Y-58456084D01*
X143725766Y-58989432D01*
X143761008Y-58873254D01*
X143778072Y-58700000D01*
X143778072Y-55600000D01*
X143761008Y-55426746D01*
X143710472Y-55260150D01*
X143628405Y-55106614D01*
X143517962Y-54972038D01*
X143383386Y-54861595D01*
X143229850Y-54779528D01*
X143063254Y-54728992D01*
X142890000Y-54711928D01*
X141590000Y-54711928D01*
X141416746Y-54728992D01*
X141250150Y-54779528D01*
X141096614Y-54861595D01*
X140962038Y-54972038D01*
X140851595Y-55106614D01*
X140769528Y-55260150D01*
X140718992Y-55426746D01*
X140701928Y-55600000D01*
X140701928Y-58700000D01*
X140718992Y-58873254D01*
X140769528Y-59039850D01*
X140851595Y-59193386D01*
X140962038Y-59327962D01*
X141096614Y-59438405D01*
X141250150Y-59520472D01*
X141416746Y-59571008D01*
X141590000Y-59588072D01*
X142890000Y-59588072D01*
X143063254Y-59571008D01*
X143179433Y-59535766D01*
X141060209Y-61654990D01*
X135742332Y-61654990D01*
X135705010Y-61651314D01*
X135667687Y-61654990D01*
X135667677Y-61654990D01*
X135556024Y-61665987D01*
X135412763Y-61709444D01*
X135280733Y-61780016D01*
X135263939Y-61793799D01*
X135165009Y-61874989D01*
X135141211Y-61903987D01*
X128230199Y-68815000D01*
X128168061Y-68815000D01*
X127968102Y-68854774D01*
X127779744Y-68932795D01*
X127610226Y-69046063D01*
X127466063Y-69190226D01*
X127352795Y-69359744D01*
X127274774Y-69548102D01*
X127235000Y-69748061D01*
X127235000Y-69951939D01*
X127274774Y-70151898D01*
X127352795Y-70340256D01*
X127466063Y-70509774D01*
X127610226Y-70653937D01*
X127779744Y-70767205D01*
X127968102Y-70845226D01*
X128168061Y-70885000D01*
X128371939Y-70885000D01*
X128571898Y-70845226D01*
X128636893Y-70818304D01*
X128500734Y-70954463D01*
X128475000Y-70951928D01*
X127925000Y-70951928D01*
X127800518Y-70964188D01*
X127800000Y-70964345D01*
X127799482Y-70964188D01*
X127675000Y-70951928D01*
X127125000Y-70951928D01*
X127000518Y-70964188D01*
X127000000Y-70964345D01*
X126999482Y-70964188D01*
X126875000Y-70951928D01*
X126560000Y-70951928D01*
X126560000Y-61544801D01*
X128144802Y-59960000D01*
X128692678Y-59960000D01*
X128730000Y-59963676D01*
X128767322Y-59960000D01*
X128767333Y-59960000D01*
X128878986Y-59949003D01*
X129022247Y-59905546D01*
X129154276Y-59834974D01*
X129270001Y-59740001D01*
X129293804Y-59710997D01*
X129473915Y-59530886D01*
X129579088Y-59562790D01*
X129880000Y-59592427D01*
X130180913Y-59562790D01*
X130470261Y-59475017D01*
X130736927Y-59332481D01*
X130970661Y-59140661D01*
X131162481Y-58906927D01*
X131305017Y-58640261D01*
X131392790Y-58350913D01*
X131415000Y-58125408D01*
X131415000Y-56174593D01*
X131845000Y-56174593D01*
X131845000Y-58125408D01*
X131867211Y-58350913D01*
X131954984Y-58640261D01*
X132097520Y-58906927D01*
X132289340Y-59140661D01*
X132523074Y-59332481D01*
X132789740Y-59475017D01*
X133079088Y-59562790D01*
X133380000Y-59592427D01*
X133680913Y-59562790D01*
X133970261Y-59475017D01*
X134236927Y-59332481D01*
X134470661Y-59140661D01*
X134662481Y-58906927D01*
X134805017Y-58640261D01*
X134892790Y-58350913D01*
X134915000Y-58125408D01*
X134915000Y-56174592D01*
X134892790Y-55949087D01*
X134805017Y-55659739D01*
X134662481Y-55393073D01*
X134470661Y-55159339D01*
X134236926Y-54967519D01*
X133970260Y-54824983D01*
X133680912Y-54737210D01*
X133380000Y-54707573D01*
X133079087Y-54737210D01*
X132789739Y-54824983D01*
X132523073Y-54967519D01*
X132289339Y-55159339D01*
X132097519Y-55393074D01*
X131954983Y-55659740D01*
X131867210Y-55949088D01*
X131845000Y-56174593D01*
X131415000Y-56174593D01*
X131415000Y-56174592D01*
X131392790Y-55949087D01*
X131305017Y-55659739D01*
X131162481Y-55393073D01*
X130970661Y-55159339D01*
X130736926Y-54967519D01*
X130470260Y-54824983D01*
X130180912Y-54737210D01*
X129880000Y-54707573D01*
X129579087Y-54737210D01*
X129289739Y-54824983D01*
X129023073Y-54967519D01*
X128789339Y-55159339D01*
X128597519Y-55393074D01*
X128454983Y-55659740D01*
X128367210Y-55949088D01*
X128345000Y-56174593D01*
X128345000Y-58125408D01*
X128367211Y-58350913D01*
X128394235Y-58440000D01*
X127867333Y-58440000D01*
X127865811Y-58439850D01*
X127892790Y-58350913D01*
X127915000Y-58125408D01*
X127915000Y-56174592D01*
X127892790Y-55949087D01*
X127805017Y-55659739D01*
X127662481Y-55393073D01*
X127470661Y-55159339D01*
X127236926Y-54967519D01*
X126970260Y-54824983D01*
X126680912Y-54737210D01*
X126380000Y-54707573D01*
X126079087Y-54737210D01*
X125789739Y-54824983D01*
X125523073Y-54967519D01*
X125289339Y-55159339D01*
X125097519Y-55393074D01*
X124954983Y-55659740D01*
X124867210Y-55949088D01*
X124845000Y-56174593D01*
X124845000Y-56494032D01*
X124805724Y-56515026D01*
X124689999Y-56609999D01*
X124666196Y-56639003D01*
X124488998Y-56816201D01*
X124460000Y-56839999D01*
X124436202Y-56868997D01*
X124436201Y-56868998D01*
X124415000Y-56894831D01*
X124415000Y-56174592D01*
X124392790Y-55949087D01*
X124305017Y-55659739D01*
X124162481Y-55393073D01*
X123970661Y-55159339D01*
X123736926Y-54967519D01*
X123470260Y-54824983D01*
X123180912Y-54737210D01*
X122880000Y-54707573D01*
X122579087Y-54737210D01*
X122289739Y-54824983D01*
X122023073Y-54967519D01*
X121789339Y-55159339D01*
X121597519Y-55393074D01*
X121454983Y-55659740D01*
X121367210Y-55949088D01*
X121345000Y-56174593D01*
X121345000Y-58125408D01*
X121367211Y-58350913D01*
X121454984Y-58640261D01*
X121597520Y-58906927D01*
X121789340Y-59140661D01*
X122023074Y-59332481D01*
X122289740Y-59475017D01*
X122579088Y-59562790D01*
X122880000Y-59592427D01*
X123180913Y-59562790D01*
X123470261Y-59475017D01*
X123736927Y-59332481D01*
X123970661Y-59140661D01*
X124162481Y-58906927D01*
X124240001Y-58761898D01*
X124240000Y-70830198D01*
X122748804Y-69339003D01*
X122725001Y-69309999D01*
X122609276Y-69215026D01*
X122477247Y-69144454D01*
X122333986Y-69100997D01*
X122222333Y-69090000D01*
X122222322Y-69090000D01*
X122185000Y-69086324D01*
X122147678Y-69090000D01*
X120759776Y-69090000D01*
X120756008Y-69051746D01*
X120705472Y-68885150D01*
X120623405Y-68731614D01*
X120512962Y-68597038D01*
X120378386Y-68486595D01*
X120224850Y-68404528D01*
X120140000Y-68378789D01*
X120140000Y-59577238D01*
X120203254Y-59571008D01*
X120369850Y-59520472D01*
X120523386Y-59438405D01*
X120657962Y-59327962D01*
X120768405Y-59193386D01*
X120850472Y-59039850D01*
X120901008Y-58873254D01*
X120918072Y-58700000D01*
X120918072Y-55600000D01*
X120901008Y-55426746D01*
X120850472Y-55260150D01*
X120768405Y-55106614D01*
X120657962Y-54972038D01*
X120523386Y-54861595D01*
X120369850Y-54779528D01*
X120203254Y-54728992D01*
X120030000Y-54711928D01*
X118730000Y-54711928D01*
X118556746Y-54728992D01*
X118390150Y-54779528D01*
X118236614Y-54861595D01*
X118102038Y-54972038D01*
X117991595Y-55106614D01*
X117909528Y-55260150D01*
X117858992Y-55426746D01*
X117841928Y-55600000D01*
X117841928Y-58700000D01*
X117858992Y-58873254D01*
X117909528Y-59039850D01*
X117991595Y-59193386D01*
X118102038Y-59327962D01*
X118236614Y-59438405D01*
X118390150Y-59520472D01*
X118556746Y-59571008D01*
X118620000Y-59577238D01*
X118620001Y-68504332D01*
X118507038Y-68597038D01*
X118420010Y-68703083D01*
X118420010Y-66897343D01*
X118423687Y-66860010D01*
X118409013Y-66711024D01*
X118365556Y-66567763D01*
X118294984Y-66435734D01*
X118223809Y-66349007D01*
X118200011Y-66320009D01*
X118171013Y-66296211D01*
X111465684Y-59590882D01*
X111750913Y-59562790D01*
X112040261Y-59475017D01*
X112306927Y-59332481D01*
X112540661Y-59140661D01*
X112732481Y-58906927D01*
X112875017Y-58640261D01*
X112962790Y-58350913D01*
X112985000Y-58125408D01*
X112985000Y-56174592D01*
X112962790Y-55949087D01*
X112875017Y-55659739D01*
X112732481Y-55393073D01*
X112540661Y-55159339D01*
X112306926Y-54967519D01*
X112040260Y-54824983D01*
X111750912Y-54737210D01*
X111450000Y-54707573D01*
X111149087Y-54737210D01*
X110859739Y-54824983D01*
X110593073Y-54967519D01*
X110359339Y-55159339D01*
X110167519Y-55393074D01*
X110024983Y-55659740D01*
X109937210Y-55949088D01*
X109915000Y-56174593D01*
X109915000Y-58040199D01*
X109488072Y-57613271D01*
X109488072Y-55600000D01*
X109471008Y-55426746D01*
X109420472Y-55260150D01*
X109338405Y-55106614D01*
X109227962Y-54972038D01*
X109093386Y-54861595D01*
X108939850Y-54779528D01*
X108773254Y-54728992D01*
X108600000Y-54711928D01*
X107300000Y-54711928D01*
X107126746Y-54728992D01*
X106960150Y-54779528D01*
X106806614Y-54861595D01*
X106672038Y-54972038D01*
X106561595Y-55106614D01*
X106479528Y-55260150D01*
X106428992Y-55426746D01*
X106411928Y-55600000D01*
X106411928Y-58700000D01*
X106428992Y-58873254D01*
X106479528Y-59039850D01*
X106561595Y-59193386D01*
X106672038Y-59327962D01*
X106806614Y-59438405D01*
X106960150Y-59520472D01*
X107126746Y-59571008D01*
X107300000Y-59588072D01*
X108600000Y-59588072D01*
X108773254Y-59571008D01*
X108939850Y-59520472D01*
X109093386Y-59438405D01*
X109131953Y-59406754D01*
X116900011Y-67174813D01*
X116900010Y-68336928D01*
X116335000Y-68336928D01*
X116161746Y-68353992D01*
X115995150Y-68404528D01*
X115841614Y-68486595D01*
X115707038Y-68597038D01*
X115596595Y-68731614D01*
X115514528Y-68885150D01*
X115487466Y-68974362D01*
X115425256Y-68932795D01*
X115236898Y-68854774D01*
X115036939Y-68815000D01*
X114833061Y-68815000D01*
X114633102Y-68854774D01*
X114444744Y-68932795D01*
X114275226Y-69046063D01*
X114231289Y-69090000D01*
X109227322Y-69090000D01*
X109189999Y-69086324D01*
X109152676Y-69090000D01*
X109152667Y-69090000D01*
X109041014Y-69100997D01*
X108897753Y-69144454D01*
X108765723Y-69215026D01*
X108715992Y-69255840D01*
X108649999Y-69309999D01*
X108626201Y-69338997D01*
X106759003Y-71206196D01*
X106729999Y-71229999D01*
X106676267Y-71295472D01*
X106635026Y-71345724D01*
X106615674Y-71381928D01*
X106070000Y-71381928D01*
X105945518Y-71394188D01*
X105825820Y-71430498D01*
X105715506Y-71489463D01*
X105618815Y-71568815D01*
X105539463Y-71665506D01*
X105480498Y-71775820D01*
X105444188Y-71895518D01*
X105431928Y-72020000D01*
X105431928Y-72760000D01*
X105443432Y-72876803D01*
X105378720Y-72896433D01*
X105235833Y-72972808D01*
X105110591Y-73075591D01*
X105084835Y-73106975D01*
X104902000Y-73289810D01*
X104902000Y-53467000D01*
X179578000Y-53467000D01*
X179578000Y-94488000D01*
X179578000Y-94488000D01*
G37*
X179578000Y-94488000D02*
X104902000Y-94488000D01*
X104902000Y-89710359D01*
X107059229Y-89710359D01*
X107059229Y-90289641D01*
X107172241Y-90857791D01*
X107393923Y-91392977D01*
X107715754Y-91874632D01*
X108125368Y-92284246D01*
X108607023Y-92606077D01*
X109142209Y-92827759D01*
X109710359Y-92940771D01*
X110289641Y-92940771D01*
X110857791Y-92827759D01*
X111392977Y-92606077D01*
X111874632Y-92284246D01*
X112284246Y-91874632D01*
X112606077Y-91392977D01*
X112688082Y-91195000D01*
X138186928Y-91195000D01*
X138186928Y-91945000D01*
X138203992Y-92118254D01*
X138254528Y-92284850D01*
X138336595Y-92438386D01*
X138447038Y-92572962D01*
X138581614Y-92683405D01*
X138735150Y-92765472D01*
X138901746Y-92816008D01*
X139075000Y-92833072D01*
X140325000Y-92833072D01*
X140498254Y-92816008D01*
X140664850Y-92765472D01*
X140818386Y-92683405D01*
X140952962Y-92572962D01*
X141063405Y-92438386D01*
X141145472Y-92284850D01*
X141196008Y-92118254D01*
X141213072Y-91945000D01*
X141213072Y-91195000D01*
X141196008Y-91021746D01*
X141145472Y-90855150D01*
X141063405Y-90701614D01*
X140952962Y-90567038D01*
X140818386Y-90456595D01*
X140664850Y-90374528D01*
X140498254Y-90323992D01*
X140325000Y-90306928D01*
X139075000Y-90306928D01*
X138901746Y-90323992D01*
X138735150Y-90374528D01*
X138581614Y-90456595D01*
X138447038Y-90567038D01*
X138336595Y-90701614D01*
X138254528Y-90855150D01*
X138203992Y-91021746D01*
X138186928Y-91195000D01*
X112688082Y-91195000D01*
X112827759Y-90857791D01*
X112940771Y-90289641D01*
X112940771Y-89710359D01*
X112827759Y-89142209D01*
X112606077Y-88607023D01*
X112284246Y-88125368D01*
X111874632Y-87715754D01*
X111392977Y-87393923D01*
X110857791Y-87172241D01*
X110289641Y-87059229D01*
X109710359Y-87059229D01*
X109142209Y-87172241D01*
X108607023Y-87393923D01*
X108125368Y-87715754D01*
X107715754Y-88125368D01*
X107393923Y-88607023D01*
X107172241Y-89142209D01*
X107059229Y-89710359D01*
X104902000Y-89710359D01*
X104902000Y-84734061D01*
X111995000Y-84734061D01*
X111995000Y-84937939D01*
X112034774Y-85137898D01*
X112112795Y-85326256D01*
X112226063Y-85495774D01*
X112370226Y-85639937D01*
X112539744Y-85753205D01*
X112728102Y-85831226D01*
X112928061Y-85871000D01*
X113131939Y-85871000D01*
X113331898Y-85831226D01*
X113520256Y-85753205D01*
X113689774Y-85639937D01*
X113727455Y-85602256D01*
X114501202Y-86376004D01*
X114525000Y-86405002D01*
X114526929Y-86406585D01*
X114526929Y-86490001D01*
X114543993Y-86663255D01*
X114594529Y-86829851D01*
X114676596Y-86983387D01*
X114787039Y-87117963D01*
X114921615Y-87228406D01*
X115075151Y-87310473D01*
X115241747Y-87361009D01*
X115415001Y-87378073D01*
X116340001Y-87378073D01*
X116513255Y-87361009D01*
X116679851Y-87310473D01*
X116833387Y-87228406D01*
X116967963Y-87117963D01*
X117078406Y-86983387D01*
X117160473Y-86829851D01*
X117211009Y-86663255D01*
X117228073Y-86490001D01*
X117228073Y-85240001D01*
X117211009Y-85066747D01*
X117160473Y-84900151D01*
X117078406Y-84746615D01*
X116967963Y-84612039D01*
X116833387Y-84501596D01*
X116679851Y-84419529D01*
X116513255Y-84368993D01*
X116340001Y-84351929D01*
X115415001Y-84351929D01*
X115241747Y-84368993D01*
X115075151Y-84419529D01*
X114921615Y-84501596D01*
X114841855Y-84567053D01*
X114599804Y-84325002D01*
X114576001Y-84295999D01*
X114460276Y-84201026D01*
X114328247Y-84130454D01*
X114184986Y-84086997D01*
X114073333Y-84076000D01*
X114073322Y-84076000D01*
X114036000Y-84072324D01*
X113998678Y-84076000D01*
X113733711Y-84076000D01*
X113689774Y-84032063D01*
X113520256Y-83918795D01*
X113331898Y-83840774D01*
X113131939Y-83801000D01*
X112928061Y-83801000D01*
X112728102Y-83840774D01*
X112539744Y-83918795D01*
X112370226Y-84032063D01*
X112226063Y-84176226D01*
X112112795Y-84345744D01*
X112034774Y-84534102D01*
X111995000Y-84734061D01*
X104902000Y-84734061D01*
X104902000Y-81112765D01*
X104950557Y-81229992D01*
X105085713Y-81432267D01*
X105257733Y-81604287D01*
X105460008Y-81739443D01*
X105684764Y-81832540D01*
X105923363Y-81880000D01*
X106166637Y-81880000D01*
X106405236Y-81832540D01*
X106629992Y-81739443D01*
X106832267Y-81604287D01*
X107004287Y-81432267D01*
X107139443Y-81229992D01*
X107232540Y-81005236D01*
X107280000Y-80766637D01*
X107280000Y-80670061D01*
X112327000Y-80670061D01*
X112327000Y-80873939D01*
X112366774Y-81073898D01*
X112444795Y-81262256D01*
X112558063Y-81431774D01*
X112702226Y-81575937D01*
X112871744Y-81689205D01*
X113060102Y-81767226D01*
X113260061Y-81807000D01*
X113322199Y-81807000D01*
X114501202Y-82986004D01*
X114525000Y-83015002D01*
X114526929Y-83016585D01*
X114526929Y-83100001D01*
X114543993Y-83273255D01*
X114594529Y-83439851D01*
X114676596Y-83593387D01*
X114787039Y-83727963D01*
X114921615Y-83838406D01*
X115075151Y-83920473D01*
X115241747Y-83971009D01*
X115415001Y-83988073D01*
X116340001Y-83988073D01*
X116513255Y-83971009D01*
X116679851Y-83920473D01*
X116833387Y-83838406D01*
X116967963Y-83727963D01*
X117078406Y-83593387D01*
X117160473Y-83439851D01*
X117211009Y-83273255D01*
X117228073Y-83100001D01*
X117228073Y-81850001D01*
X117211009Y-81676747D01*
X117160473Y-81510151D01*
X117078406Y-81356615D01*
X116967963Y-81222039D01*
X116833387Y-81111596D01*
X116679851Y-81029529D01*
X116513255Y-80978993D01*
X116340001Y-80961929D01*
X115415001Y-80961929D01*
X115241747Y-80978993D01*
X115075151Y-81029529D01*
X114921615Y-81111596D01*
X114841855Y-81177053D01*
X114397000Y-80732199D01*
X114397000Y-80670061D01*
X114357226Y-80470102D01*
X114279205Y-80281744D01*
X114165937Y-80112226D01*
X114021774Y-79968063D01*
X113852256Y-79854795D01*
X113663898Y-79776774D01*
X113463939Y-79737000D01*
X113260061Y-79737000D01*
X113060102Y-79776774D01*
X112871744Y-79854795D01*
X112702226Y-79968063D01*
X112558063Y-80112226D01*
X112444795Y-80281744D01*
X112366774Y-80470102D01*
X112327000Y-80670061D01*
X107280000Y-80670061D01*
X107280000Y-80523363D01*
X107232540Y-80284764D01*
X107139443Y-80060008D01*
X107004287Y-79857733D01*
X106832267Y-79685713D01*
X106629992Y-79550557D01*
X106405236Y-79457460D01*
X106232500Y-79423101D01*
X106232500Y-78478072D01*
X108470000Y-78478072D01*
X108594482Y-78465812D01*
X108714180Y-78429502D01*
X108824494Y-78370537D01*
X108921185Y-78291185D01*
X109000537Y-78194494D01*
X109059502Y-78084180D01*
X109095812Y-77964482D01*
X109108072Y-77840000D01*
X109108072Y-77312873D01*
X109331928Y-77536730D01*
X109331928Y-77840000D01*
X109344188Y-77964482D01*
X109380498Y-78084180D01*
X109439463Y-78194494D01*
X109518815Y-78291185D01*
X109615506Y-78370537D01*
X109725820Y-78429502D01*
X109845518Y-78465812D01*
X109970000Y-78478072D01*
X112370000Y-78478072D01*
X112494482Y-78465812D01*
X112614180Y-78429502D01*
X112724494Y-78370537D01*
X112821185Y-78291185D01*
X112900537Y-78194494D01*
X112959502Y-78084180D01*
X112995812Y-77964482D01*
X113008072Y-77840000D01*
X113008072Y-77100000D01*
X112995812Y-76975518D01*
X112959502Y-76855820D01*
X112948373Y-76835000D01*
X112959502Y-76814180D01*
X112995812Y-76694482D01*
X113008072Y-76570000D01*
X113008072Y-75830000D01*
X112995812Y-75705518D01*
X112959502Y-75585820D01*
X112948373Y-75565000D01*
X112959502Y-75544180D01*
X112995812Y-75424482D01*
X113008072Y-75300000D01*
X113008072Y-74560000D01*
X112995812Y-74435518D01*
X112959502Y-74315820D01*
X112948373Y-74295000D01*
X112959502Y-74274180D01*
X112995812Y-74154482D01*
X113008072Y-74030000D01*
X113008072Y-73290000D01*
X112995812Y-73165518D01*
X112991105Y-73150000D01*
X114525197Y-73150000D01*
X121326199Y-79951003D01*
X121349997Y-79980001D01*
X121378995Y-80003799D01*
X121388531Y-80011625D01*
X121419463Y-80069494D01*
X121498815Y-80166185D01*
X121595506Y-80245537D01*
X121705820Y-80304502D01*
X121825518Y-80340812D01*
X121950000Y-80353072D01*
X123286928Y-80353072D01*
X123286928Y-81180000D01*
X123187325Y-81180000D01*
X123150000Y-81176324D01*
X123112675Y-81180000D01*
X123112667Y-81180000D01*
X123001014Y-81190997D01*
X122857753Y-81234454D01*
X122725724Y-81305026D01*
X122609999Y-81399999D01*
X122586200Y-81428998D01*
X122300198Y-81715001D01*
X120189777Y-81715001D01*
X120186009Y-81676747D01*
X120135473Y-81510151D01*
X120053406Y-81356615D01*
X119942963Y-81222039D01*
X119808387Y-81111596D01*
X119654851Y-81029529D01*
X119488255Y-80978993D01*
X119315001Y-80961929D01*
X118390001Y-80961929D01*
X118216747Y-80978993D01*
X118050151Y-81029529D01*
X117896615Y-81111596D01*
X117762039Y-81222039D01*
X117651596Y-81356615D01*
X117569529Y-81510151D01*
X117518993Y-81676747D01*
X117501929Y-81850001D01*
X117501929Y-83100001D01*
X117518993Y-83273255D01*
X117569529Y-83439851D01*
X117651596Y-83593387D01*
X117762039Y-83727963D01*
X117896615Y-83838406D01*
X118050151Y-83920473D01*
X118216747Y-83971009D01*
X118390001Y-83988073D01*
X119315001Y-83988073D01*
X119488255Y-83971009D01*
X119654851Y-83920473D01*
X119808387Y-83838406D01*
X119942963Y-83727963D01*
X120053406Y-83593387D01*
X120135473Y-83439851D01*
X120186009Y-83273255D01*
X120189777Y-83235001D01*
X121245084Y-83235001D01*
X121056764Y-83272460D01*
X120832008Y-83365557D01*
X120629733Y-83500713D01*
X120457713Y-83672733D01*
X120322557Y-83875008D01*
X120229460Y-84099764D01*
X120182000Y-84338363D01*
X120182000Y-84581637D01*
X120229460Y-84820236D01*
X120322557Y-85044992D01*
X120362654Y-85105001D01*
X120189777Y-85105001D01*
X120186009Y-85066747D01*
X120135473Y-84900151D01*
X120053406Y-84746615D01*
X119942963Y-84612039D01*
X119808387Y-84501596D01*
X119654851Y-84419529D01*
X119488255Y-84368993D01*
X119315001Y-84351929D01*
X118390001Y-84351929D01*
X118216747Y-84368993D01*
X118050151Y-84419529D01*
X117896615Y-84501596D01*
X117762039Y-84612039D01*
X117651596Y-84746615D01*
X117569529Y-84900151D01*
X117518993Y-85066747D01*
X117501929Y-85240001D01*
X117501929Y-86490001D01*
X117518993Y-86663255D01*
X117569529Y-86829851D01*
X117651596Y-86983387D01*
X117762039Y-87117963D01*
X117896615Y-87228406D01*
X118050151Y-87310473D01*
X118216747Y-87361009D01*
X118390001Y-87378073D01*
X119315001Y-87378073D01*
X119488255Y-87361009D01*
X119654851Y-87310473D01*
X119808387Y-87228406D01*
X119942963Y-87117963D01*
X120053406Y-86983387D01*
X120135473Y-86829851D01*
X120186009Y-86663255D01*
X120189777Y-86625001D01*
X120850200Y-86625001D01*
X120853197Y-86627998D01*
X120876999Y-86657001D01*
X120906003Y-86680804D01*
X122936928Y-88711730D01*
X122936928Y-89525000D01*
X122953992Y-89698254D01*
X123004528Y-89864850D01*
X123086595Y-90018386D01*
X123197038Y-90152962D01*
X123331614Y-90263405D01*
X123485150Y-90345472D01*
X123651746Y-90396008D01*
X123825000Y-90413072D01*
X124575000Y-90413072D01*
X124748254Y-90396008D01*
X124914850Y-90345472D01*
X125068386Y-90263405D01*
X125202962Y-90152962D01*
X125313405Y-90018386D01*
X125395472Y-89864850D01*
X125446008Y-89698254D01*
X125463072Y-89525000D01*
X125463072Y-88526262D01*
X125694125Y-88757314D01*
X125694129Y-88757319D01*
X125736928Y-88800118D01*
X125736928Y-89525000D01*
X125753992Y-89698254D01*
X125804528Y-89864850D01*
X125886595Y-90018386D01*
X125997038Y-90152962D01*
X126131614Y-90263405D01*
X126285150Y-90345472D01*
X126451746Y-90396008D01*
X126625000Y-90413072D01*
X127375000Y-90413072D01*
X127548254Y-90396008D01*
X127714850Y-90345472D01*
X127868386Y-90263405D01*
X128002962Y-90152962D01*
X128113405Y-90018386D01*
X128195472Y-89864850D01*
X128246008Y-89698254D01*
X128263072Y-89525000D01*
X128263072Y-88275000D01*
X128246008Y-88101746D01*
X128195472Y-87935150D01*
X128113405Y-87781614D01*
X128002962Y-87647038D01*
X127868386Y-87536595D01*
X127714850Y-87454528D01*
X127548254Y-87403992D01*
X127375000Y-87386928D01*
X126654999Y-87386928D01*
X126654999Y-87320368D01*
X126714250Y-87320000D01*
X126873000Y-87161250D01*
X126873000Y-86487000D01*
X127127000Y-86487000D01*
X127127000Y-87161250D01*
X127285750Y-87320000D01*
X127780000Y-87323072D01*
X127904482Y-87310812D01*
X128024180Y-87274502D01*
X128134494Y-87215537D01*
X128231185Y-87136185D01*
X128310537Y-87039494D01*
X128369502Y-86929180D01*
X128405812Y-86809482D01*
X128418072Y-86685000D01*
X128415000Y-86645750D01*
X128256250Y-86487000D01*
X127127000Y-86487000D01*
X126873000Y-86487000D01*
X126853000Y-86487000D01*
X126853000Y-86233000D01*
X126873000Y-86233000D01*
X126873000Y-86213000D01*
X127127000Y-86213000D01*
X127127000Y-86233000D01*
X127148750Y-86233000D01*
X127285750Y-86370000D01*
X127780000Y-86373072D01*
X127904482Y-86360812D01*
X128024180Y-86324502D01*
X128134494Y-86265537D01*
X128174141Y-86233000D01*
X128256250Y-86233000D01*
X128374250Y-86115000D01*
X129296928Y-86115000D01*
X129296928Y-86865000D01*
X129313992Y-87038254D01*
X129364528Y-87204850D01*
X129446595Y-87358386D01*
X129557038Y-87492962D01*
X129691614Y-87603405D01*
X129845150Y-87685472D01*
X130011746Y-87736008D01*
X130185000Y-87753072D01*
X131435000Y-87753072D01*
X131608254Y-87736008D01*
X131774850Y-87685472D01*
X131928386Y-87603405D01*
X132062962Y-87492962D01*
X132173405Y-87358386D01*
X132255472Y-87204850D01*
X132282727Y-87115000D01*
X133106928Y-87115000D01*
X133119188Y-87239482D01*
X133155498Y-87359180D01*
X133214463Y-87469494D01*
X133293815Y-87566185D01*
X133390506Y-87645537D01*
X133500820Y-87704502D01*
X133620518Y-87740812D01*
X133745000Y-87753072D01*
X134334250Y-87750000D01*
X134493000Y-87591250D01*
X134493000Y-86617000D01*
X134747000Y-86617000D01*
X134747000Y-87591250D01*
X134905750Y-87750000D01*
X135495000Y-87753072D01*
X135619482Y-87740812D01*
X135739180Y-87704502D01*
X135849494Y-87645537D01*
X135946185Y-87566185D01*
X136025537Y-87469494D01*
X136084502Y-87359180D01*
X136120812Y-87239482D01*
X136133072Y-87115000D01*
X136130000Y-86775750D01*
X135971250Y-86617000D01*
X134747000Y-86617000D01*
X134493000Y-86617000D01*
X133268750Y-86617000D01*
X133110000Y-86775750D01*
X133106928Y-87115000D01*
X132282727Y-87115000D01*
X132306008Y-87038254D01*
X132323072Y-86865000D01*
X132323072Y-86115000D01*
X132306008Y-85941746D01*
X132282728Y-85865000D01*
X133106928Y-85865000D01*
X133110000Y-86204250D01*
X133268750Y-86363000D01*
X134493000Y-86363000D01*
X134493000Y-85388750D01*
X134747000Y-85388750D01*
X134747000Y-86363000D01*
X135971250Y-86363000D01*
X136130000Y-86204250D01*
X136133072Y-85865000D01*
X136120812Y-85740518D01*
X136084502Y-85620820D01*
X136025537Y-85510506D01*
X135946185Y-85413815D01*
X135849494Y-85334463D01*
X135739180Y-85275498D01*
X135619482Y-85239188D01*
X135495000Y-85226928D01*
X134905750Y-85230000D01*
X134747000Y-85388750D01*
X134493000Y-85388750D01*
X134334250Y-85230000D01*
X133745000Y-85226928D01*
X133620518Y-85239188D01*
X133500820Y-85275498D01*
X133390506Y-85334463D01*
X133293815Y-85413815D01*
X133214463Y-85510506D01*
X133155498Y-85620820D01*
X133119188Y-85740518D01*
X133106928Y-85865000D01*
X132282728Y-85865000D01*
X132255472Y-85775150D01*
X132173405Y-85621614D01*
X132062962Y-85487038D01*
X131928386Y-85376595D01*
X131774850Y-85294528D01*
X131608254Y-85243992D01*
X131435000Y-85226928D01*
X130185000Y-85226928D01*
X130011746Y-85243992D01*
X129845150Y-85294528D01*
X129691614Y-85376595D01*
X129557038Y-85487038D01*
X129446595Y-85621614D01*
X129364528Y-85775150D01*
X129313992Y-85941746D01*
X129296928Y-86115000D01*
X128374250Y-86115000D01*
X128415000Y-86074250D01*
X128418072Y-86035000D01*
X128405812Y-85910518D01*
X128398071Y-85885000D01*
X128405812Y-85859482D01*
X128418072Y-85735000D01*
X128415000Y-85695750D01*
X128256250Y-85537000D01*
X128174141Y-85537000D01*
X128134494Y-85504463D01*
X128024180Y-85445498D01*
X127907159Y-85410000D01*
X128024180Y-85374502D01*
X128134494Y-85315537D01*
X128174141Y-85283000D01*
X128256250Y-85283000D01*
X128319250Y-85220000D01*
X130002678Y-85220000D01*
X130040000Y-85223676D01*
X130077322Y-85220000D01*
X130077333Y-85220000D01*
X130188986Y-85209003D01*
X130332247Y-85165546D01*
X130464276Y-85094974D01*
X130580001Y-85000001D01*
X130603803Y-84970998D01*
X130605801Y-84969000D01*
X138186928Y-84969000D01*
X138186928Y-85719000D01*
X138203992Y-85892254D01*
X138254528Y-86058850D01*
X138336595Y-86212386D01*
X138447038Y-86346962D01*
X138581614Y-86457405D01*
X138735150Y-86539472D01*
X138877500Y-86582653D01*
X138877501Y-87531347D01*
X138735150Y-87574528D01*
X138581614Y-87656595D01*
X138447038Y-87767038D01*
X138336595Y-87901614D01*
X138254528Y-88055150D01*
X138203992Y-88221746D01*
X138186928Y-88395000D01*
X138186928Y-89145000D01*
X138203992Y-89318254D01*
X138254528Y-89484850D01*
X138336595Y-89638386D01*
X138447038Y-89772962D01*
X138581614Y-89883405D01*
X138735150Y-89965472D01*
X138901746Y-90016008D01*
X139075000Y-90033072D01*
X140325000Y-90033072D01*
X140498254Y-90016008D01*
X140664850Y-89965472D01*
X140818386Y-89883405D01*
X140952962Y-89772962D01*
X141063405Y-89638386D01*
X141086328Y-89595500D01*
X143132008Y-89595500D01*
X143273744Y-89690205D01*
X143462102Y-89768226D01*
X143662061Y-89808000D01*
X143865939Y-89808000D01*
X144065898Y-89768226D01*
X144254256Y-89690205D01*
X144423774Y-89576937D01*
X144567937Y-89432774D01*
X144681205Y-89263256D01*
X144759226Y-89074898D01*
X144799000Y-88874939D01*
X144799000Y-88671061D01*
X144786855Y-88610000D01*
X147296928Y-88610000D01*
X147309188Y-88734482D01*
X147345498Y-88854180D01*
X147375335Y-88910000D01*
X147345498Y-88965820D01*
X147309188Y-89085518D01*
X147296928Y-89210000D01*
X147296928Y-90310000D01*
X147309188Y-90434482D01*
X147345498Y-90554180D01*
X147404463Y-90664494D01*
X147483815Y-90761185D01*
X147580506Y-90840537D01*
X147690820Y-90899502D01*
X147810518Y-90935812D01*
X147935000Y-90948072D01*
X152535000Y-90948072D01*
X152659482Y-90935812D01*
X152779180Y-90899502D01*
X152889494Y-90840537D01*
X152986185Y-90761185D01*
X153065537Y-90664494D01*
X153124502Y-90554180D01*
X153160812Y-90434482D01*
X153173072Y-90310000D01*
X153173072Y-89210000D01*
X153160812Y-89085518D01*
X153124502Y-88965820D01*
X153094665Y-88910000D01*
X153124502Y-88854180D01*
X153160812Y-88734482D01*
X153173072Y-88610000D01*
X153170000Y-88345750D01*
X153011250Y-88187000D01*
X150362000Y-88187000D01*
X150362000Y-88207000D01*
X150108000Y-88207000D01*
X150108000Y-88187000D01*
X147458750Y-88187000D01*
X147300000Y-88345750D01*
X147296928Y-88610000D01*
X144786855Y-88610000D01*
X144759226Y-88471102D01*
X144681205Y-88282744D01*
X144567937Y-88113226D01*
X144423774Y-87969063D01*
X144254256Y-87855795D01*
X144065898Y-87777774D01*
X143865939Y-87738000D01*
X143662061Y-87738000D01*
X143462102Y-87777774D01*
X143273744Y-87855795D01*
X143132008Y-87950500D01*
X141089535Y-87950500D01*
X141063405Y-87901614D01*
X140952962Y-87767038D01*
X140818386Y-87656595D01*
X140664850Y-87574528D01*
X140522500Y-87531347D01*
X140522500Y-86582653D01*
X140664850Y-86539472D01*
X140818386Y-86457405D01*
X140952962Y-86346962D01*
X141063405Y-86212386D01*
X141084725Y-86172500D01*
X143392068Y-86172500D01*
X143416595Y-86218386D01*
X143527038Y-86352962D01*
X143661614Y-86463405D01*
X143815150Y-86545472D01*
X143981746Y-86596008D01*
X144155000Y-86613072D01*
X145405000Y-86613072D01*
X145578254Y-86596008D01*
X145744850Y-86545472D01*
X145898386Y-86463405D01*
X146032962Y-86352962D01*
X146143405Y-86218386D01*
X146225472Y-86064850D01*
X146276008Y-85898254D01*
X146293072Y-85725000D01*
X146293072Y-84975000D01*
X146276008Y-84801746D01*
X146225472Y-84635150D01*
X146143405Y-84481614D01*
X146032962Y-84347038D01*
X145898386Y-84236595D01*
X145744850Y-84154528D01*
X145578254Y-84103992D01*
X145405000Y-84086928D01*
X144155000Y-84086928D01*
X143981746Y-84103992D01*
X143815150Y-84154528D01*
X143661614Y-84236595D01*
X143527038Y-84347038D01*
X143416595Y-84481614D01*
X143392068Y-84527500D01*
X141091139Y-84527500D01*
X141063405Y-84475614D01*
X140952962Y-84341038D01*
X140818386Y-84230595D01*
X140664850Y-84148528D01*
X140498254Y-84097992D01*
X140325000Y-84080928D01*
X139075000Y-84080928D01*
X138901746Y-84097992D01*
X138735150Y-84148528D01*
X138581614Y-84230595D01*
X138447038Y-84341038D01*
X138336595Y-84475614D01*
X138254528Y-84629150D01*
X138203992Y-84795746D01*
X138186928Y-84969000D01*
X130605801Y-84969000D01*
X130621729Y-84953072D01*
X131435000Y-84953072D01*
X131608254Y-84936008D01*
X131774850Y-84885472D01*
X131928386Y-84803405D01*
X132062962Y-84692962D01*
X132173405Y-84558386D01*
X132255472Y-84404850D01*
X132306008Y-84238254D01*
X132323072Y-84065000D01*
X132323072Y-83315000D01*
X133106928Y-83315000D01*
X133106928Y-84065000D01*
X133123992Y-84238254D01*
X133174528Y-84404850D01*
X133256595Y-84558386D01*
X133367038Y-84692962D01*
X133501614Y-84803405D01*
X133655150Y-84885472D01*
X133821746Y-84936008D01*
X133995000Y-84953072D01*
X135245000Y-84953072D01*
X135418254Y-84936008D01*
X135584850Y-84885472D01*
X135738386Y-84803405D01*
X135872962Y-84692962D01*
X135983405Y-84558386D01*
X136065472Y-84404850D01*
X136116008Y-84238254D01*
X136133072Y-84065000D01*
X136133072Y-83315000D01*
X136118693Y-83169000D01*
X138186928Y-83169000D01*
X138199188Y-83293482D01*
X138235498Y-83413180D01*
X138294463Y-83523494D01*
X138373815Y-83620185D01*
X138470506Y-83699537D01*
X138580820Y-83758502D01*
X138700518Y-83794812D01*
X138825000Y-83807072D01*
X139414250Y-83804000D01*
X139573000Y-83645250D01*
X139573000Y-82671000D01*
X139827000Y-82671000D01*
X139827000Y-83645250D01*
X139985750Y-83804000D01*
X140575000Y-83807072D01*
X140699482Y-83794812D01*
X140819180Y-83758502D01*
X140929494Y-83699537D01*
X141026185Y-83620185D01*
X141105537Y-83523494D01*
X141164502Y-83413180D01*
X141200812Y-83293482D01*
X141212481Y-83175000D01*
X143266928Y-83175000D01*
X143279188Y-83299482D01*
X143315498Y-83419180D01*
X143374463Y-83529494D01*
X143453815Y-83626185D01*
X143550506Y-83705537D01*
X143660820Y-83764502D01*
X143780518Y-83800812D01*
X143905000Y-83813072D01*
X144494250Y-83810000D01*
X144653000Y-83651250D01*
X144653000Y-82677000D01*
X144907000Y-82677000D01*
X144907000Y-83651250D01*
X145065750Y-83810000D01*
X145655000Y-83813072D01*
X145779482Y-83800812D01*
X145899180Y-83764502D01*
X146009494Y-83705537D01*
X146106185Y-83626185D01*
X146185537Y-83529494D01*
X146244502Y-83419180D01*
X146280812Y-83299482D01*
X146293072Y-83175000D01*
X146290000Y-82835750D01*
X146131250Y-82677000D01*
X144907000Y-82677000D01*
X144653000Y-82677000D01*
X143428750Y-82677000D01*
X143270000Y-82835750D01*
X143266928Y-83175000D01*
X141212481Y-83175000D01*
X141213072Y-83169000D01*
X141210000Y-82829750D01*
X141051250Y-82671000D01*
X139827000Y-82671000D01*
X139573000Y-82671000D01*
X138348750Y-82671000D01*
X138190000Y-82829750D01*
X138186928Y-83169000D01*
X136118693Y-83169000D01*
X136116008Y-83141746D01*
X136065472Y-82975150D01*
X135983405Y-82821614D01*
X135872962Y-82687038D01*
X135738386Y-82576595D01*
X135584850Y-82494528D01*
X135418254Y-82443992D01*
X135245000Y-82426928D01*
X133995000Y-82426928D01*
X133821746Y-82443992D01*
X133655150Y-82494528D01*
X133501614Y-82576595D01*
X133367038Y-82687038D01*
X133256595Y-82821614D01*
X133174528Y-82975150D01*
X133123992Y-83141746D01*
X133106928Y-83315000D01*
X132323072Y-83315000D01*
X132306008Y-83141746D01*
X132255472Y-82975150D01*
X132173405Y-82821614D01*
X132062962Y-82687038D01*
X131928386Y-82576595D01*
X131774850Y-82494528D01*
X131608254Y-82443992D01*
X131435000Y-82426928D01*
X130620952Y-82426928D01*
X130538566Y-82359316D01*
X130406537Y-82288744D01*
X130339776Y-82268493D01*
X130429494Y-82220537D01*
X130526185Y-82141185D01*
X130605537Y-82044494D01*
X130664502Y-81934180D01*
X130669106Y-81919000D01*
X138186928Y-81919000D01*
X138190000Y-82258250D01*
X138348750Y-82417000D01*
X139573000Y-82417000D01*
X139573000Y-81442750D01*
X139827000Y-81442750D01*
X139827000Y-82417000D01*
X141051250Y-82417000D01*
X141210000Y-82258250D01*
X141213017Y-81925000D01*
X143266928Y-81925000D01*
X143270000Y-82264250D01*
X143428750Y-82423000D01*
X144653000Y-82423000D01*
X144653000Y-81448750D01*
X144907000Y-81448750D01*
X144907000Y-82423000D01*
X146131250Y-82423000D01*
X146144250Y-82410000D01*
X147296928Y-82410000D01*
X147296928Y-83510000D01*
X147309188Y-83634482D01*
X147345498Y-83754180D01*
X147375335Y-83810000D01*
X147345498Y-83865820D01*
X147309188Y-83985518D01*
X147296928Y-84110000D01*
X147296928Y-85210000D01*
X147309188Y-85334482D01*
X147345498Y-85454180D01*
X147375335Y-85510000D01*
X147345498Y-85565820D01*
X147309188Y-85685518D01*
X147296928Y-85810000D01*
X147296928Y-86910000D01*
X147309188Y-87034482D01*
X147345498Y-87154180D01*
X147375335Y-87210000D01*
X147345498Y-87265820D01*
X147309188Y-87385518D01*
X147296928Y-87510000D01*
X147300000Y-87774250D01*
X147458750Y-87933000D01*
X150108000Y-87933000D01*
X150108000Y-87913000D01*
X150362000Y-87913000D01*
X150362000Y-87933000D01*
X153011250Y-87933000D01*
X153170000Y-87774250D01*
X153173072Y-87510000D01*
X153160812Y-87385518D01*
X153124502Y-87265820D01*
X153094665Y-87210000D01*
X153124502Y-87154180D01*
X153160812Y-87034482D01*
X153173072Y-86910000D01*
X153173072Y-85810000D01*
X153160812Y-85685518D01*
X153124502Y-85565820D01*
X153094665Y-85510000D01*
X153124502Y-85454180D01*
X153160812Y-85334482D01*
X153173072Y-85210000D01*
X153173072Y-84110000D01*
X153160812Y-83985518D01*
X153124502Y-83865820D01*
X153094665Y-83810000D01*
X153124502Y-83754180D01*
X153160812Y-83634482D01*
X153173072Y-83510000D01*
X153173072Y-82410000D01*
X153160812Y-82285518D01*
X153124502Y-82165820D01*
X153065537Y-82055506D01*
X152986185Y-81958815D01*
X152889494Y-81879463D01*
X152779180Y-81820498D01*
X152659482Y-81784188D01*
X152535000Y-81771928D01*
X147935000Y-81771928D01*
X147810518Y-81784188D01*
X147690820Y-81820498D01*
X147580506Y-81879463D01*
X147483815Y-81958815D01*
X147404463Y-82055506D01*
X147345498Y-82165820D01*
X147309188Y-82285518D01*
X147296928Y-82410000D01*
X146144250Y-82410000D01*
X146290000Y-82264250D01*
X146293072Y-81925000D01*
X146280812Y-81800518D01*
X146244502Y-81680820D01*
X146185537Y-81570506D01*
X146106185Y-81473815D01*
X146009494Y-81394463D01*
X145899180Y-81335498D01*
X145779482Y-81299188D01*
X145655000Y-81286928D01*
X145065750Y-81290000D01*
X144907000Y-81448750D01*
X144653000Y-81448750D01*
X144494250Y-81290000D01*
X143905000Y-81286928D01*
X143780518Y-81299188D01*
X143660820Y-81335498D01*
X143550506Y-81394463D01*
X143453815Y-81473815D01*
X143374463Y-81570506D01*
X143315498Y-81680820D01*
X143279188Y-81800518D01*
X143266928Y-81925000D01*
X141213017Y-81925000D01*
X141213072Y-81919000D01*
X141200812Y-81794518D01*
X141164502Y-81674820D01*
X141105537Y-81564506D01*
X141026185Y-81467815D01*
X140929494Y-81388463D01*
X140819180Y-81329498D01*
X140699482Y-81293188D01*
X140575000Y-81280928D01*
X139985750Y-81284000D01*
X139827000Y-81442750D01*
X139573000Y-81442750D01*
X139414250Y-81284000D01*
X138825000Y-81280928D01*
X138700518Y-81293188D01*
X138580820Y-81329498D01*
X138470506Y-81388463D01*
X138373815Y-81467815D01*
X138294463Y-81564506D01*
X138235498Y-81674820D01*
X138199188Y-81794518D01*
X138186928Y-81919000D01*
X130669106Y-81919000D01*
X130700812Y-81814482D01*
X130713072Y-81690000D01*
X130713072Y-80960000D01*
X154046928Y-80960000D01*
X154046928Y-91760000D01*
X154059188Y-91884482D01*
X154095498Y-92004180D01*
X154154463Y-92114494D01*
X154233815Y-92211185D01*
X154330506Y-92290537D01*
X154440820Y-92349502D01*
X154560518Y-92385812D01*
X154685000Y-92398072D01*
X164085000Y-92398072D01*
X164209482Y-92385812D01*
X164329180Y-92349502D01*
X164439494Y-92290537D01*
X164536185Y-92211185D01*
X164615537Y-92114494D01*
X164674502Y-92004180D01*
X164710812Y-91884482D01*
X164723072Y-91760000D01*
X164723072Y-89710359D01*
X170059229Y-89710359D01*
X170059229Y-90289641D01*
X170172241Y-90857791D01*
X170393923Y-91392977D01*
X170715754Y-91874632D01*
X171125368Y-92284246D01*
X171607023Y-92606077D01*
X172142209Y-92827759D01*
X172710359Y-92940771D01*
X173289641Y-92940771D01*
X173857791Y-92827759D01*
X174392977Y-92606077D01*
X174874632Y-92284246D01*
X175284246Y-91874632D01*
X175606077Y-91392977D01*
X175827759Y-90857791D01*
X175940771Y-90289641D01*
X175940771Y-89710359D01*
X175827759Y-89142209D01*
X175606077Y-88607023D01*
X175284246Y-88125368D01*
X174874632Y-87715754D01*
X174392977Y-87393923D01*
X173857791Y-87172241D01*
X173289641Y-87059229D01*
X172710359Y-87059229D01*
X172142209Y-87172241D01*
X171607023Y-87393923D01*
X171125368Y-87715754D01*
X170715754Y-88125368D01*
X170393923Y-88607023D01*
X170172241Y-89142209D01*
X170059229Y-89710359D01*
X164723072Y-89710359D01*
X164723072Y-81620000D01*
X174087573Y-81620000D01*
X174117210Y-81920913D01*
X174204983Y-82210261D01*
X174347519Y-82476927D01*
X174539339Y-82710661D01*
X174773073Y-82902481D01*
X175039739Y-83045017D01*
X175329087Y-83132790D01*
X175554592Y-83155000D01*
X177505408Y-83155000D01*
X177730913Y-83132790D01*
X178020261Y-83045017D01*
X178286927Y-82902481D01*
X178520661Y-82710661D01*
X178712481Y-82476927D01*
X178855017Y-82210261D01*
X178942790Y-81920913D01*
X178972427Y-81620000D01*
X178942790Y-81319087D01*
X178855017Y-81029739D01*
X178712481Y-80763073D01*
X178520661Y-80529339D01*
X178286927Y-80337519D01*
X178020261Y-80194983D01*
X177730913Y-80107210D01*
X177505408Y-80085000D01*
X175554592Y-80085000D01*
X175329087Y-80107210D01*
X175039739Y-80194983D01*
X174773073Y-80337519D01*
X174539339Y-80529339D01*
X174347519Y-80763073D01*
X174204983Y-81029739D01*
X174117210Y-81319087D01*
X174087573Y-81620000D01*
X164723072Y-81620000D01*
X164723072Y-80960000D01*
X164710812Y-80835518D01*
X164674502Y-80715820D01*
X164615537Y-80605506D01*
X164536185Y-80508815D01*
X164439494Y-80429463D01*
X164329180Y-80370498D01*
X164209482Y-80334188D01*
X164085000Y-80321928D01*
X154685000Y-80321928D01*
X154560518Y-80334188D01*
X154440820Y-80370498D01*
X154330506Y-80429463D01*
X154233815Y-80508815D01*
X154154463Y-80605506D01*
X154095498Y-80715820D01*
X154059188Y-80835518D01*
X154046928Y-80960000D01*
X130713072Y-80960000D01*
X130713072Y-80353072D01*
X132050000Y-80353072D01*
X132174482Y-80340812D01*
X132294180Y-80304502D01*
X132404494Y-80245537D01*
X132459981Y-80200000D01*
X140018678Y-80200000D01*
X140056000Y-80203676D01*
X140093322Y-80200000D01*
X140093333Y-80200000D01*
X140204986Y-80189003D01*
X140348247Y-80145546D01*
X140480276Y-80074974D01*
X140596001Y-79980001D01*
X140619804Y-79950997D01*
X142450801Y-78120000D01*
X174087573Y-78120000D01*
X174117210Y-78420913D01*
X174204983Y-78710261D01*
X174347519Y-78976927D01*
X174539339Y-79210661D01*
X174773073Y-79402481D01*
X175039739Y-79545017D01*
X175329087Y-79632790D01*
X175554592Y-79655000D01*
X177505408Y-79655000D01*
X177730913Y-79632790D01*
X178020261Y-79545017D01*
X178286927Y-79402481D01*
X178520661Y-79210661D01*
X178712481Y-78976927D01*
X178855017Y-78710261D01*
X178942790Y-78420913D01*
X178972427Y-78120000D01*
X178942790Y-77819087D01*
X178855017Y-77529739D01*
X178712481Y-77263073D01*
X178520661Y-77029339D01*
X178286927Y-76837519D01*
X178020261Y-76694983D01*
X177730913Y-76607210D01*
X177505408Y-76585000D01*
X175554592Y-76585000D01*
X175329087Y-76607210D01*
X175039739Y-76694983D01*
X174773073Y-76837519D01*
X174539339Y-77029339D01*
X174347519Y-77263073D01*
X174204983Y-77529739D01*
X174117210Y-77819087D01*
X174087573Y-78120000D01*
X142450801Y-78120000D01*
X145950801Y-74620000D01*
X174087573Y-74620000D01*
X174117210Y-74920913D01*
X174204983Y-75210261D01*
X174347519Y-75476927D01*
X174539339Y-75710661D01*
X174773073Y-75902481D01*
X175039739Y-76045017D01*
X175329087Y-76132790D01*
X175554592Y-76155000D01*
X177505408Y-76155000D01*
X177730913Y-76132790D01*
X178020261Y-76045017D01*
X178286927Y-75902481D01*
X178520661Y-75710661D01*
X178712481Y-75476927D01*
X178855017Y-75210261D01*
X178942790Y-74920913D01*
X178972427Y-74620000D01*
X178942790Y-74319087D01*
X178855017Y-74029739D01*
X178712481Y-73763073D01*
X178520661Y-73529339D01*
X178286927Y-73337519D01*
X178020261Y-73194983D01*
X177730913Y-73107210D01*
X177505408Y-73085000D01*
X175554592Y-73085000D01*
X175329087Y-73107210D01*
X175039739Y-73194983D01*
X174773073Y-73337519D01*
X174539339Y-73529339D01*
X174347519Y-73763073D01*
X174204983Y-74029739D01*
X174117210Y-74319087D01*
X174087573Y-74620000D01*
X145950801Y-74620000D01*
X146746004Y-73824798D01*
X146775001Y-73801001D01*
X146869974Y-73685276D01*
X146889326Y-73649072D01*
X146985000Y-73649072D01*
X147109482Y-73636812D01*
X147229180Y-73600502D01*
X147339494Y-73541537D01*
X147436185Y-73462185D01*
X147515537Y-73365494D01*
X147574502Y-73255180D01*
X147610812Y-73135482D01*
X147623072Y-73011000D01*
X147623072Y-72958500D01*
X152237946Y-72958500D01*
X152374733Y-73095287D01*
X152577008Y-73230443D01*
X152801764Y-73323540D01*
X153040363Y-73371000D01*
X153283637Y-73371000D01*
X153522236Y-73323540D01*
X153746992Y-73230443D01*
X153949267Y-73095287D01*
X154121287Y-72923267D01*
X154256443Y-72720992D01*
X154349540Y-72496236D01*
X154397000Y-72257637D01*
X154397000Y-72014363D01*
X154349540Y-71775764D01*
X154300968Y-71658500D01*
X158963602Y-71658500D01*
X159004000Y-71662479D01*
X159044398Y-71658500D01*
X159165238Y-71646598D01*
X159320280Y-71599567D01*
X159463167Y-71523192D01*
X159588409Y-71420409D01*
X159614165Y-71389025D01*
X160533190Y-70470000D01*
X174091928Y-70470000D01*
X174091928Y-71770000D01*
X174108992Y-71943254D01*
X174159528Y-72109850D01*
X174241595Y-72263386D01*
X174352038Y-72397962D01*
X174486614Y-72508405D01*
X174640150Y-72590472D01*
X174806746Y-72641008D01*
X174980000Y-72658072D01*
X178080000Y-72658072D01*
X178253254Y-72641008D01*
X178419850Y-72590472D01*
X178573386Y-72508405D01*
X178707962Y-72397962D01*
X178818405Y-72263386D01*
X178900472Y-72109850D01*
X178951008Y-71943254D01*
X178968072Y-71770000D01*
X178968072Y-70470000D01*
X178951008Y-70296746D01*
X178900472Y-70130150D01*
X178818405Y-69976614D01*
X178707962Y-69842038D01*
X178573386Y-69731595D01*
X178419850Y-69649528D01*
X178253254Y-69598992D01*
X178080000Y-69581928D01*
X174980000Y-69581928D01*
X174806746Y-69598992D01*
X174640150Y-69649528D01*
X174486614Y-69731595D01*
X174352038Y-69842038D01*
X174241595Y-69976614D01*
X174159528Y-70130150D01*
X174108992Y-70296746D01*
X174091928Y-70470000D01*
X160533190Y-70470000D01*
X171451733Y-59551458D01*
X171489088Y-59562790D01*
X171790000Y-59592427D01*
X172090913Y-59562790D01*
X172380261Y-59475017D01*
X172646927Y-59332481D01*
X172880661Y-59140661D01*
X173072481Y-58906927D01*
X173215017Y-58640261D01*
X173302790Y-58350913D01*
X173325000Y-58125408D01*
X173325000Y-56174592D01*
X173302790Y-55949087D01*
X173215017Y-55659739D01*
X173072481Y-55393073D01*
X172880661Y-55159339D01*
X172646926Y-54967519D01*
X172380260Y-54824983D01*
X172090912Y-54737210D01*
X171790000Y-54707573D01*
X171489087Y-54737210D01*
X171199739Y-54824983D01*
X170933073Y-54967519D01*
X170699339Y-55159339D01*
X170507519Y-55393074D01*
X170364983Y-55659740D01*
X170277210Y-55949088D01*
X170255000Y-56174593D01*
X170255000Y-58125408D01*
X170277211Y-58350913D01*
X170288542Y-58388267D01*
X158663310Y-70013500D01*
X153989690Y-70013500D01*
X164451733Y-59551458D01*
X164489088Y-59562790D01*
X164790000Y-59592427D01*
X165090913Y-59562790D01*
X165380261Y-59475017D01*
X165646927Y-59332481D01*
X165880661Y-59140661D01*
X166072481Y-58906927D01*
X166215017Y-58640261D01*
X166302790Y-58350913D01*
X166325000Y-58125408D01*
X166325000Y-56174593D01*
X166755000Y-56174593D01*
X166755000Y-58125408D01*
X166777211Y-58350913D01*
X166864984Y-58640261D01*
X167007520Y-58906927D01*
X167199340Y-59140661D01*
X167433074Y-59332481D01*
X167699740Y-59475017D01*
X167989088Y-59562790D01*
X168290000Y-59592427D01*
X168590913Y-59562790D01*
X168880261Y-59475017D01*
X169146927Y-59332481D01*
X169380661Y-59140661D01*
X169572481Y-58906927D01*
X169715017Y-58640261D01*
X169802790Y-58350913D01*
X169825000Y-58125408D01*
X169825000Y-56174592D01*
X169802790Y-55949087D01*
X169715017Y-55659739D01*
X169572481Y-55393073D01*
X169380661Y-55159339D01*
X169146926Y-54967519D01*
X168880260Y-54824983D01*
X168590912Y-54737210D01*
X168290000Y-54707573D01*
X167989087Y-54737210D01*
X167699739Y-54824983D01*
X167433073Y-54967519D01*
X167199339Y-55159339D01*
X167007519Y-55393074D01*
X166864983Y-55659740D01*
X166777210Y-55949088D01*
X166755000Y-56174593D01*
X166325000Y-56174593D01*
X166325000Y-56174592D01*
X166302790Y-55949087D01*
X166215017Y-55659739D01*
X166072481Y-55393073D01*
X165880661Y-55159339D01*
X165646926Y-54967519D01*
X165380260Y-54824983D01*
X165090912Y-54737210D01*
X164790000Y-54707573D01*
X164489087Y-54737210D01*
X164199739Y-54824983D01*
X163933073Y-54967519D01*
X163699339Y-55159339D01*
X163507519Y-55393074D01*
X163364983Y-55659740D01*
X163277210Y-55949088D01*
X163255000Y-56174593D01*
X163255000Y-58125408D01*
X163277211Y-58350913D01*
X163288542Y-58388267D01*
X162811822Y-58864987D01*
X162828072Y-58700000D01*
X162828072Y-55600000D01*
X162811008Y-55426746D01*
X162760472Y-55260150D01*
X162678405Y-55106614D01*
X162567962Y-54972038D01*
X162433386Y-54861595D01*
X162279850Y-54779528D01*
X162113254Y-54728992D01*
X161940000Y-54711928D01*
X160640000Y-54711928D01*
X160466746Y-54728992D01*
X160300150Y-54779528D01*
X160146614Y-54861595D01*
X160012038Y-54972038D01*
X159901595Y-55106614D01*
X159819528Y-55260150D01*
X159768992Y-55426746D01*
X159751928Y-55600000D01*
X159751928Y-57524882D01*
X149213310Y-68063500D01*
X147623072Y-68063500D01*
X147623072Y-68011000D01*
X147610812Y-67886518D01*
X147574502Y-67766820D01*
X147515537Y-67656506D01*
X147436185Y-67559815D01*
X147339494Y-67480463D01*
X147229180Y-67421498D01*
X147109482Y-67385188D01*
X146985000Y-67372928D01*
X145798981Y-67372928D01*
X145874443Y-67259992D01*
X145967540Y-67035236D01*
X146015000Y-66796637D01*
X146015000Y-66553363D01*
X145967540Y-66314764D01*
X145874443Y-66090008D01*
X145739287Y-65887733D01*
X145567267Y-65715713D01*
X145364992Y-65580557D01*
X145140236Y-65487460D01*
X144901637Y-65440000D01*
X144658363Y-65440000D01*
X144419764Y-65487460D01*
X144195008Y-65580557D01*
X143992733Y-65715713D01*
X143820713Y-65887733D01*
X143685557Y-66090008D01*
X143592460Y-66314764D01*
X143545000Y-66553363D01*
X143545000Y-66796637D01*
X143592460Y-67035236D01*
X143685557Y-67259992D01*
X143820713Y-67462267D01*
X143845001Y-67486555D01*
X143845000Y-69637810D01*
X143469310Y-70013500D01*
X141670055Y-70013500D01*
X141674502Y-70005180D01*
X141687753Y-69961497D01*
X141720000Y-69929250D01*
X141712912Y-69864157D01*
X141723072Y-69761000D01*
X141723072Y-69311000D01*
X141713223Y-69211000D01*
X141723072Y-69111000D01*
X141723072Y-68661000D01*
X141713223Y-68561000D01*
X141723072Y-68461000D01*
X141723072Y-68011000D01*
X141710812Y-67886518D01*
X141674502Y-67766820D01*
X141615537Y-67656506D01*
X141536185Y-67559815D01*
X141439494Y-67480463D01*
X141329180Y-67421498D01*
X141209482Y-67385188D01*
X141085000Y-67372928D01*
X139585000Y-67372928D01*
X139460518Y-67385188D01*
X139340820Y-67421498D01*
X139238856Y-67476000D01*
X137668325Y-67476000D01*
X137631000Y-67472324D01*
X137593675Y-67476000D01*
X137593667Y-67476000D01*
X137482014Y-67486997D01*
X137338753Y-67530454D01*
X137206724Y-67601026D01*
X137090999Y-67695999D01*
X137067200Y-67724998D01*
X137018598Y-67773600D01*
X136956461Y-67773600D01*
X136756502Y-67813374D01*
X136568144Y-67891395D01*
X136398626Y-68004663D01*
X136254463Y-68148826D01*
X136141195Y-68318344D01*
X136063174Y-68506702D01*
X136023400Y-68706661D01*
X136023400Y-68910539D01*
X136063174Y-69110498D01*
X136141195Y-69298856D01*
X136254463Y-69468374D01*
X136332143Y-69546054D01*
X132610895Y-73267302D01*
X132580537Y-73210506D01*
X132501185Y-73113815D01*
X132404494Y-73034463D01*
X132294180Y-72975498D01*
X132174482Y-72939188D01*
X132050000Y-72926928D01*
X130713072Y-72926928D01*
X130713072Y-72026729D01*
X138664792Y-64075010D01*
X147437668Y-64075010D01*
X147474990Y-64078686D01*
X147512312Y-64075010D01*
X147512323Y-64075010D01*
X147623976Y-64064013D01*
X147767237Y-64020556D01*
X147899266Y-63949984D01*
X148014991Y-63855011D01*
X148038794Y-63826007D01*
X152333916Y-59530886D01*
X152439088Y-59562790D01*
X152740000Y-59592427D01*
X153040913Y-59562790D01*
X153330261Y-59475017D01*
X153596927Y-59332481D01*
X153830661Y-59140661D01*
X154022481Y-58906927D01*
X154165017Y-58640261D01*
X154252790Y-58350913D01*
X154275000Y-58125408D01*
X154275000Y-56174592D01*
X154252790Y-55949087D01*
X154165017Y-55659739D01*
X154022481Y-55393073D01*
X153830661Y-55159339D01*
X153596926Y-54967519D01*
X153330260Y-54824983D01*
X153040912Y-54737210D01*
X152740000Y-54707573D01*
X152439087Y-54737210D01*
X152149739Y-54824983D01*
X151883073Y-54967519D01*
X151649339Y-55159339D01*
X151457519Y-55393074D01*
X151314983Y-55659740D01*
X151227210Y-55949088D01*
X151205000Y-56174593D01*
X151205000Y-58125408D01*
X151227211Y-58350913D01*
X151259114Y-58456084D01*
X147160189Y-62555010D01*
X145809791Y-62555010D01*
X148833916Y-59530886D01*
X148939088Y-59562790D01*
X149240000Y-59592427D01*
X149540913Y-59562790D01*
X149830261Y-59475017D01*
X150096927Y-59332481D01*
X150330661Y-59140661D01*
X150522481Y-58906927D01*
X150665017Y-58640261D01*
X150752790Y-58350913D01*
X150775000Y-58125408D01*
X150775000Y-56174592D01*
X150752790Y-55949087D01*
X150665017Y-55659739D01*
X150522481Y-55393073D01*
X150330661Y-55159339D01*
X150096926Y-54967519D01*
X149830260Y-54824983D01*
X149540912Y-54737210D01*
X149240000Y-54707573D01*
X148939087Y-54737210D01*
X148649739Y-54824983D01*
X148383073Y-54967519D01*
X148149339Y-55159339D01*
X147957519Y-55393074D01*
X147814983Y-55659740D01*
X147727210Y-55949088D01*
X147705000Y-56174593D01*
X147705000Y-58125408D01*
X147727211Y-58350913D01*
X147759114Y-58456084D01*
X144110199Y-62105000D01*
X142759801Y-62105000D01*
X145333916Y-59530886D01*
X145439088Y-59562790D01*
X145740000Y-59592427D01*
X146040913Y-59562790D01*
X146330261Y-59475017D01*
X146596927Y-59332481D01*
X146830661Y-59140661D01*
X147022481Y-58906927D01*
X147165017Y-58640261D01*
X147252790Y-58350913D01*
X147275000Y-58125408D01*
X147275000Y-56174592D01*
X147252790Y-55949087D01*
X147165017Y-55659739D01*
X147022481Y-55393073D01*
X146830661Y-55159339D01*
X146596926Y-54967519D01*
X146330260Y-54824983D01*
X146040912Y-54737210D01*
X145740000Y-54707573D01*
X145439087Y-54737210D01*
X145149739Y-54824983D01*
X144883073Y-54967519D01*
X144649339Y-55159339D01*
X144457519Y-55393074D01*
X144314983Y-55659740D01*
X144227210Y-55949088D01*
X144205000Y-56174593D01*
X144205000Y-58125408D01*
X144227211Y-58350913D01*
X144259114Y-58456084D01*
X143725766Y-58989432D01*
X143761008Y-58873254D01*
X143778072Y-58700000D01*
X143778072Y-55600000D01*
X143761008Y-55426746D01*
X143710472Y-55260150D01*
X143628405Y-55106614D01*
X143517962Y-54972038D01*
X143383386Y-54861595D01*
X143229850Y-54779528D01*
X143063254Y-54728992D01*
X142890000Y-54711928D01*
X141590000Y-54711928D01*
X141416746Y-54728992D01*
X141250150Y-54779528D01*
X141096614Y-54861595D01*
X140962038Y-54972038D01*
X140851595Y-55106614D01*
X140769528Y-55260150D01*
X140718992Y-55426746D01*
X140701928Y-55600000D01*
X140701928Y-58700000D01*
X140718992Y-58873254D01*
X140769528Y-59039850D01*
X140851595Y-59193386D01*
X140962038Y-59327962D01*
X141096614Y-59438405D01*
X141250150Y-59520472D01*
X141416746Y-59571008D01*
X141590000Y-59588072D01*
X142890000Y-59588072D01*
X143063254Y-59571008D01*
X143179433Y-59535766D01*
X141060209Y-61654990D01*
X135742332Y-61654990D01*
X135705010Y-61651314D01*
X135667687Y-61654990D01*
X135667677Y-61654990D01*
X135556024Y-61665987D01*
X135412763Y-61709444D01*
X135280733Y-61780016D01*
X135263939Y-61793799D01*
X135165009Y-61874989D01*
X135141211Y-61903987D01*
X128230199Y-68815000D01*
X128168061Y-68815000D01*
X127968102Y-68854774D01*
X127779744Y-68932795D01*
X127610226Y-69046063D01*
X127466063Y-69190226D01*
X127352795Y-69359744D01*
X127274774Y-69548102D01*
X127235000Y-69748061D01*
X127235000Y-69951939D01*
X127274774Y-70151898D01*
X127352795Y-70340256D01*
X127466063Y-70509774D01*
X127610226Y-70653937D01*
X127779744Y-70767205D01*
X127968102Y-70845226D01*
X128168061Y-70885000D01*
X128371939Y-70885000D01*
X128571898Y-70845226D01*
X128636893Y-70818304D01*
X128500734Y-70954463D01*
X128475000Y-70951928D01*
X127925000Y-70951928D01*
X127800518Y-70964188D01*
X127800000Y-70964345D01*
X127799482Y-70964188D01*
X127675000Y-70951928D01*
X127125000Y-70951928D01*
X127000518Y-70964188D01*
X127000000Y-70964345D01*
X126999482Y-70964188D01*
X126875000Y-70951928D01*
X126560000Y-70951928D01*
X126560000Y-61544801D01*
X128144802Y-59960000D01*
X128692678Y-59960000D01*
X128730000Y-59963676D01*
X128767322Y-59960000D01*
X128767333Y-59960000D01*
X128878986Y-59949003D01*
X129022247Y-59905546D01*
X129154276Y-59834974D01*
X129270001Y-59740001D01*
X129293804Y-59710997D01*
X129473915Y-59530886D01*
X129579088Y-59562790D01*
X129880000Y-59592427D01*
X130180913Y-59562790D01*
X130470261Y-59475017D01*
X130736927Y-59332481D01*
X130970661Y-59140661D01*
X131162481Y-58906927D01*
X131305017Y-58640261D01*
X131392790Y-58350913D01*
X131415000Y-58125408D01*
X131415000Y-56174593D01*
X131845000Y-56174593D01*
X131845000Y-58125408D01*
X131867211Y-58350913D01*
X131954984Y-58640261D01*
X132097520Y-58906927D01*
X132289340Y-59140661D01*
X132523074Y-59332481D01*
X132789740Y-59475017D01*
X133079088Y-59562790D01*
X133380000Y-59592427D01*
X133680913Y-59562790D01*
X133970261Y-59475017D01*
X134236927Y-59332481D01*
X134470661Y-59140661D01*
X134662481Y-58906927D01*
X134805017Y-58640261D01*
X134892790Y-58350913D01*
X134915000Y-58125408D01*
X134915000Y-56174592D01*
X134892790Y-55949087D01*
X134805017Y-55659739D01*
X134662481Y-55393073D01*
X134470661Y-55159339D01*
X134236926Y-54967519D01*
X133970260Y-54824983D01*
X133680912Y-54737210D01*
X133380000Y-54707573D01*
X133079087Y-54737210D01*
X132789739Y-54824983D01*
X132523073Y-54967519D01*
X132289339Y-55159339D01*
X132097519Y-55393074D01*
X131954983Y-55659740D01*
X131867210Y-55949088D01*
X131845000Y-56174593D01*
X131415000Y-56174593D01*
X131415000Y-56174592D01*
X131392790Y-55949087D01*
X131305017Y-55659739D01*
X131162481Y-55393073D01*
X130970661Y-55159339D01*
X130736926Y-54967519D01*
X130470260Y-54824983D01*
X130180912Y-54737210D01*
X129880000Y-54707573D01*
X129579087Y-54737210D01*
X129289739Y-54824983D01*
X129023073Y-54967519D01*
X128789339Y-55159339D01*
X128597519Y-55393074D01*
X128454983Y-55659740D01*
X128367210Y-55949088D01*
X128345000Y-56174593D01*
X128345000Y-58125408D01*
X128367211Y-58350913D01*
X128394235Y-58440000D01*
X127867333Y-58440000D01*
X127865811Y-58439850D01*
X127892790Y-58350913D01*
X127915000Y-58125408D01*
X127915000Y-56174592D01*
X127892790Y-55949087D01*
X127805017Y-55659739D01*
X127662481Y-55393073D01*
X127470661Y-55159339D01*
X127236926Y-54967519D01*
X126970260Y-54824983D01*
X126680912Y-54737210D01*
X126380000Y-54707573D01*
X126079087Y-54737210D01*
X125789739Y-54824983D01*
X125523073Y-54967519D01*
X125289339Y-55159339D01*
X125097519Y-55393074D01*
X124954983Y-55659740D01*
X124867210Y-55949088D01*
X124845000Y-56174593D01*
X124845000Y-56494032D01*
X124805724Y-56515026D01*
X124689999Y-56609999D01*
X124666196Y-56639003D01*
X124488998Y-56816201D01*
X124460000Y-56839999D01*
X124436202Y-56868997D01*
X124436201Y-56868998D01*
X124415000Y-56894831D01*
X124415000Y-56174592D01*
X124392790Y-55949087D01*
X124305017Y-55659739D01*
X124162481Y-55393073D01*
X123970661Y-55159339D01*
X123736926Y-54967519D01*
X123470260Y-54824983D01*
X123180912Y-54737210D01*
X122880000Y-54707573D01*
X122579087Y-54737210D01*
X122289739Y-54824983D01*
X122023073Y-54967519D01*
X121789339Y-55159339D01*
X121597519Y-55393074D01*
X121454983Y-55659740D01*
X121367210Y-55949088D01*
X121345000Y-56174593D01*
X121345000Y-58125408D01*
X121367211Y-58350913D01*
X121454984Y-58640261D01*
X121597520Y-58906927D01*
X121789340Y-59140661D01*
X122023074Y-59332481D01*
X122289740Y-59475017D01*
X122579088Y-59562790D01*
X122880000Y-59592427D01*
X123180913Y-59562790D01*
X123470261Y-59475017D01*
X123736927Y-59332481D01*
X123970661Y-59140661D01*
X124162481Y-58906927D01*
X124240001Y-58761898D01*
X124240000Y-70830198D01*
X122748804Y-69339003D01*
X122725001Y-69309999D01*
X122609276Y-69215026D01*
X122477247Y-69144454D01*
X122333986Y-69100997D01*
X122222333Y-69090000D01*
X122222322Y-69090000D01*
X122185000Y-69086324D01*
X122147678Y-69090000D01*
X120759776Y-69090000D01*
X120756008Y-69051746D01*
X120705472Y-68885150D01*
X120623405Y-68731614D01*
X120512962Y-68597038D01*
X120378386Y-68486595D01*
X120224850Y-68404528D01*
X120140000Y-68378789D01*
X120140000Y-59577238D01*
X120203254Y-59571008D01*
X120369850Y-59520472D01*
X120523386Y-59438405D01*
X120657962Y-59327962D01*
X120768405Y-59193386D01*
X120850472Y-59039850D01*
X120901008Y-58873254D01*
X120918072Y-58700000D01*
X120918072Y-55600000D01*
X120901008Y-55426746D01*
X120850472Y-55260150D01*
X120768405Y-55106614D01*
X120657962Y-54972038D01*
X120523386Y-54861595D01*
X120369850Y-54779528D01*
X120203254Y-54728992D01*
X120030000Y-54711928D01*
X118730000Y-54711928D01*
X118556746Y-54728992D01*
X118390150Y-54779528D01*
X118236614Y-54861595D01*
X118102038Y-54972038D01*
X117991595Y-55106614D01*
X117909528Y-55260150D01*
X117858992Y-55426746D01*
X117841928Y-55600000D01*
X117841928Y-58700000D01*
X117858992Y-58873254D01*
X117909528Y-59039850D01*
X117991595Y-59193386D01*
X118102038Y-59327962D01*
X118236614Y-59438405D01*
X118390150Y-59520472D01*
X118556746Y-59571008D01*
X118620000Y-59577238D01*
X118620001Y-68504332D01*
X118507038Y-68597038D01*
X118420010Y-68703083D01*
X118420010Y-66897343D01*
X118423687Y-66860010D01*
X118409013Y-66711024D01*
X118365556Y-66567763D01*
X118294984Y-66435734D01*
X118223809Y-66349007D01*
X118200011Y-66320009D01*
X118171013Y-66296211D01*
X111465684Y-59590882D01*
X111750913Y-59562790D01*
X112040261Y-59475017D01*
X112306927Y-59332481D01*
X112540661Y-59140661D01*
X112732481Y-58906927D01*
X112875017Y-58640261D01*
X112962790Y-58350913D01*
X112985000Y-58125408D01*
X112985000Y-56174592D01*
X112962790Y-55949087D01*
X112875017Y-55659739D01*
X112732481Y-55393073D01*
X112540661Y-55159339D01*
X112306926Y-54967519D01*
X112040260Y-54824983D01*
X111750912Y-54737210D01*
X111450000Y-54707573D01*
X111149087Y-54737210D01*
X110859739Y-54824983D01*
X110593073Y-54967519D01*
X110359339Y-55159339D01*
X110167519Y-55393074D01*
X110024983Y-55659740D01*
X109937210Y-55949088D01*
X109915000Y-56174593D01*
X109915000Y-58040199D01*
X109488072Y-57613271D01*
X109488072Y-55600000D01*
X109471008Y-55426746D01*
X109420472Y-55260150D01*
X109338405Y-55106614D01*
X109227962Y-54972038D01*
X109093386Y-54861595D01*
X108939850Y-54779528D01*
X108773254Y-54728992D01*
X108600000Y-54711928D01*
X107300000Y-54711928D01*
X107126746Y-54728992D01*
X106960150Y-54779528D01*
X106806614Y-54861595D01*
X106672038Y-54972038D01*
X106561595Y-55106614D01*
X106479528Y-55260150D01*
X106428992Y-55426746D01*
X106411928Y-55600000D01*
X106411928Y-58700000D01*
X106428992Y-58873254D01*
X106479528Y-59039850D01*
X106561595Y-59193386D01*
X106672038Y-59327962D01*
X106806614Y-59438405D01*
X106960150Y-59520472D01*
X107126746Y-59571008D01*
X107300000Y-59588072D01*
X108600000Y-59588072D01*
X108773254Y-59571008D01*
X108939850Y-59520472D01*
X109093386Y-59438405D01*
X109131953Y-59406754D01*
X116900011Y-67174813D01*
X116900010Y-68336928D01*
X116335000Y-68336928D01*
X116161746Y-68353992D01*
X115995150Y-68404528D01*
X115841614Y-68486595D01*
X115707038Y-68597038D01*
X115596595Y-68731614D01*
X115514528Y-68885150D01*
X115487466Y-68974362D01*
X115425256Y-68932795D01*
X115236898Y-68854774D01*
X115036939Y-68815000D01*
X114833061Y-68815000D01*
X114633102Y-68854774D01*
X114444744Y-68932795D01*
X114275226Y-69046063D01*
X114231289Y-69090000D01*
X109227322Y-69090000D01*
X109189999Y-69086324D01*
X109152676Y-69090000D01*
X109152667Y-69090000D01*
X109041014Y-69100997D01*
X108897753Y-69144454D01*
X108765723Y-69215026D01*
X108715992Y-69255840D01*
X108649999Y-69309999D01*
X108626201Y-69338997D01*
X106759003Y-71206196D01*
X106729999Y-71229999D01*
X106676267Y-71295472D01*
X106635026Y-71345724D01*
X106615674Y-71381928D01*
X106070000Y-71381928D01*
X105945518Y-71394188D01*
X105825820Y-71430498D01*
X105715506Y-71489463D01*
X105618815Y-71568815D01*
X105539463Y-71665506D01*
X105480498Y-71775820D01*
X105444188Y-71895518D01*
X105431928Y-72020000D01*
X105431928Y-72760000D01*
X105443432Y-72876803D01*
X105378720Y-72896433D01*
X105235833Y-72972808D01*
X105110591Y-73075591D01*
X105084835Y-73106975D01*
X104902000Y-73289810D01*
X104902000Y-53467000D01*
X179578000Y-53467000D01*
X179578000Y-94488000D01*
G36*
X122881928Y-85735000D02*
G01*
X122894188Y-85859482D01*
X122901929Y-85885000D01*
X122894188Y-85910518D01*
X122881928Y-86035000D01*
X122885000Y-86074250D01*
X123043750Y-86233000D01*
X123125859Y-86233000D01*
X123165506Y-86265537D01*
X123275820Y-86324502D01*
X123395518Y-86360812D01*
X123520000Y-86373072D01*
X124447000Y-86373072D01*
X124447000Y-86487000D01*
X124427000Y-86487000D01*
X124427000Y-87161250D01*
X124585750Y-87320000D01*
X125010000Y-87322637D01*
X125010000Y-87505387D01*
X124914850Y-87454528D01*
X124748254Y-87403992D01*
X124575000Y-87386928D01*
X123825000Y-87386928D01*
X123767402Y-87392601D01*
X123696775Y-87321973D01*
X124014250Y-87320000D01*
X124173000Y-87161250D01*
X124173000Y-86487000D01*
X123043750Y-86487000D01*
X122952776Y-86577974D01*
X122177000Y-85802199D01*
X122177000Y-85437506D01*
X122204267Y-85419287D01*
X122341054Y-85282500D01*
X122881928Y-85282500D01*
X122881928Y-85735000D01*
X122881928Y-85735000D01*
G37*
X122881928Y-85735000D02*
X122894188Y-85859482D01*
X122901929Y-85885000D01*
X122894188Y-85910518D01*
X122881928Y-86035000D01*
X122885000Y-86074250D01*
X123043750Y-86233000D01*
X123125859Y-86233000D01*
X123165506Y-86265537D01*
X123275820Y-86324502D01*
X123395518Y-86360812D01*
X123520000Y-86373072D01*
X124447000Y-86373072D01*
X124447000Y-86487000D01*
X124427000Y-86487000D01*
X124427000Y-87161250D01*
X124585750Y-87320000D01*
X125010000Y-87322637D01*
X125010000Y-87505387D01*
X124914850Y-87454528D01*
X124748254Y-87403992D01*
X124575000Y-87386928D01*
X123825000Y-87386928D01*
X123767402Y-87392601D01*
X123696775Y-87321973D01*
X124014250Y-87320000D01*
X124173000Y-87161250D01*
X124173000Y-86487000D01*
X123043750Y-86487000D01*
X122952776Y-86577974D01*
X122177000Y-85802199D01*
X122177000Y-85437506D01*
X122204267Y-85419287D01*
X122341054Y-85282500D01*
X122881928Y-85282500D01*
X122881928Y-85735000D01*
G36*
X127148750Y-85537000D02*
G01*
X127127002Y-85537000D01*
X127127002Y-85423072D01*
X127262678Y-85423072D01*
X127148750Y-85537000D01*
X127148750Y-85537000D01*
G37*
X127148750Y-85537000D02*
X127127002Y-85537000D01*
X127127002Y-85423072D01*
X127262678Y-85423072D01*
X127148750Y-85537000D01*
G36*
X126872998Y-85537000D02*
G01*
X126853000Y-85537000D01*
X126853000Y-85423072D01*
X126872998Y-85423072D01*
X126872998Y-85537000D01*
X126872998Y-85537000D01*
G37*
X126872998Y-85537000D02*
X126853000Y-85537000D01*
X126853000Y-85423072D01*
X126872998Y-85423072D01*
X126872998Y-85537000D01*
M02*
