G04 #@! TF.GenerationSoftware,KiCad,Pcbnew,5.1.4-e60b266~84~ubuntu18.04.1*
G04 #@! TF.CreationDate,2019-10-02T13:36:21-06:00*
G04 #@! TF.ProjectId,Star Tracker,53746172-2054-4726-9163-6b65722e6b69,rev?*
G04 #@! TF.SameCoordinates,Original*
G04 #@! TF.FileFunction,Legend,Bot*
G04 #@! TF.FilePolarity,Positive*
%FSLAX46Y46*%
G04 Gerber Fmt 4.6, Leading zero omitted, Abs format (unit mm)*
G04 Created by KiCad (PCBNEW 5.1.4-e60b266~84~ubuntu18.04.1) date 2019-10-02 13:36:21*
%MOMM*%
%LPD*%
G04 APERTURE LIST*
%ADD10C,0.150000*%
%ADD11C,0.120000*%
G04 APERTURE END LIST*
D10*
X168480000Y-74954761D02*
X168337142Y-75002380D01*
X168099047Y-75002380D01*
X168003809Y-74954761D01*
X167956190Y-74907142D01*
X167908571Y-74811904D01*
X167908571Y-74716666D01*
X167956190Y-74621428D01*
X168003809Y-74573809D01*
X168099047Y-74526190D01*
X168289523Y-74478571D01*
X168384761Y-74430952D01*
X168432380Y-74383333D01*
X168480000Y-74288095D01*
X168480000Y-74192857D01*
X168432380Y-74097619D01*
X168384761Y-74050000D01*
X168289523Y-74002380D01*
X168051428Y-74002380D01*
X167908571Y-74050000D01*
X167622857Y-74335714D02*
X167241904Y-74335714D01*
X167480000Y-74002380D02*
X167480000Y-74859523D01*
X167432380Y-74954761D01*
X167337142Y-75002380D01*
X167241904Y-75002380D01*
X166480000Y-75002380D02*
X166480000Y-74478571D01*
X166527619Y-74383333D01*
X166622857Y-74335714D01*
X166813333Y-74335714D01*
X166908571Y-74383333D01*
X166480000Y-74954761D02*
X166575238Y-75002380D01*
X166813333Y-75002380D01*
X166908571Y-74954761D01*
X166956190Y-74859523D01*
X166956190Y-74764285D01*
X166908571Y-74669047D01*
X166813333Y-74621428D01*
X166575238Y-74621428D01*
X166480000Y-74573809D01*
X166003809Y-75002380D02*
X166003809Y-74335714D01*
X166003809Y-74526190D02*
X165956190Y-74430952D01*
X165908571Y-74383333D01*
X165813333Y-74335714D01*
X165718095Y-74335714D01*
X164765714Y-74002380D02*
X164194285Y-74002380D01*
X164480000Y-75002380D02*
X164480000Y-74002380D01*
X163860952Y-75002380D02*
X163860952Y-74335714D01*
X163860952Y-74526190D02*
X163813333Y-74430952D01*
X163765714Y-74383333D01*
X163670476Y-74335714D01*
X163575238Y-74335714D01*
X162813333Y-75002380D02*
X162813333Y-74478571D01*
X162860952Y-74383333D01*
X162956190Y-74335714D01*
X163146666Y-74335714D01*
X163241904Y-74383333D01*
X162813333Y-74954761D02*
X162908571Y-75002380D01*
X163146666Y-75002380D01*
X163241904Y-74954761D01*
X163289523Y-74859523D01*
X163289523Y-74764285D01*
X163241904Y-74669047D01*
X163146666Y-74621428D01*
X162908571Y-74621428D01*
X162813333Y-74573809D01*
X161908571Y-74954761D02*
X162003809Y-75002380D01*
X162194285Y-75002380D01*
X162289523Y-74954761D01*
X162337142Y-74907142D01*
X162384761Y-74811904D01*
X162384761Y-74526190D01*
X162337142Y-74430952D01*
X162289523Y-74383333D01*
X162194285Y-74335714D01*
X162003809Y-74335714D01*
X161908571Y-74383333D01*
X161480000Y-75002380D02*
X161480000Y-74002380D01*
X161384761Y-74621428D02*
X161099047Y-75002380D01*
X161099047Y-74335714D02*
X161480000Y-74716666D01*
X160670476Y-75002380D02*
X160670476Y-74335714D01*
X160670476Y-74002380D02*
X160718095Y-74050000D01*
X160670476Y-74097619D01*
X160622857Y-74050000D01*
X160670476Y-74002380D01*
X160670476Y-74097619D01*
X160194285Y-74335714D02*
X160194285Y-75002380D01*
X160194285Y-74430952D02*
X160146666Y-74383333D01*
X160051428Y-74335714D01*
X159908571Y-74335714D01*
X159813333Y-74383333D01*
X159765714Y-74478571D01*
X159765714Y-75002380D01*
X158860952Y-74335714D02*
X158860952Y-75145238D01*
X158908571Y-75240476D01*
X158956190Y-75288095D01*
X159051428Y-75335714D01*
X159194285Y-75335714D01*
X159289523Y-75288095D01*
X158860952Y-74954761D02*
X158956190Y-75002380D01*
X159146666Y-75002380D01*
X159241904Y-74954761D01*
X159289523Y-74907142D01*
X159337142Y-74811904D01*
X159337142Y-74526190D01*
X159289523Y-74430952D01*
X159241904Y-74383333D01*
X159146666Y-74335714D01*
X158956190Y-74335714D01*
X158860952Y-74383333D01*
X157051428Y-74907142D02*
X157099047Y-74954761D01*
X157241904Y-75002380D01*
X157337142Y-75002380D01*
X157480000Y-74954761D01*
X157575238Y-74859523D01*
X157622857Y-74764285D01*
X157670476Y-74573809D01*
X157670476Y-74430952D01*
X157622857Y-74240476D01*
X157575238Y-74145238D01*
X157480000Y-74050000D01*
X157337142Y-74002380D01*
X157241904Y-74002380D01*
X157099047Y-74050000D01*
X157051428Y-74097619D01*
X156194285Y-75002380D02*
X156194285Y-74478571D01*
X156241904Y-74383333D01*
X156337142Y-74335714D01*
X156527619Y-74335714D01*
X156622857Y-74383333D01*
X156194285Y-74954761D02*
X156289523Y-75002380D01*
X156527619Y-75002380D01*
X156622857Y-74954761D01*
X156670476Y-74859523D01*
X156670476Y-74764285D01*
X156622857Y-74669047D01*
X156527619Y-74621428D01*
X156289523Y-74621428D01*
X156194285Y-74573809D01*
X155718095Y-75002380D02*
X155718095Y-74335714D01*
X155718095Y-74430952D02*
X155670476Y-74383333D01*
X155575238Y-74335714D01*
X155432380Y-74335714D01*
X155337142Y-74383333D01*
X155289523Y-74478571D01*
X155289523Y-75002380D01*
X155289523Y-74478571D02*
X155241904Y-74383333D01*
X155146666Y-74335714D01*
X155003809Y-74335714D01*
X154908571Y-74383333D01*
X154860952Y-74478571D01*
X154860952Y-75002380D01*
X154003809Y-74954761D02*
X154099047Y-75002380D01*
X154289523Y-75002380D01*
X154384761Y-74954761D01*
X154432380Y-74859523D01*
X154432380Y-74478571D01*
X154384761Y-74383333D01*
X154289523Y-74335714D01*
X154099047Y-74335714D01*
X154003809Y-74383333D01*
X153956190Y-74478571D01*
X153956190Y-74573809D01*
X154432380Y-74669047D01*
X153527619Y-75002380D02*
X153527619Y-74335714D01*
X153527619Y-74526190D02*
X153480000Y-74430952D01*
X153432380Y-74383333D01*
X153337142Y-74335714D01*
X153241904Y-74335714D01*
X152480000Y-75002380D02*
X152480000Y-74478571D01*
X152527619Y-74383333D01*
X152622857Y-74335714D01*
X152813333Y-74335714D01*
X152908571Y-74383333D01*
X152480000Y-74954761D02*
X152575238Y-75002380D01*
X152813333Y-75002380D01*
X152908571Y-74954761D01*
X152956190Y-74859523D01*
X152956190Y-74764285D01*
X152908571Y-74669047D01*
X152813333Y-74621428D01*
X152575238Y-74621428D01*
X152480000Y-74573809D01*
X151241904Y-75002380D02*
X151241904Y-74002380D01*
X150908571Y-74716666D01*
X150575238Y-74002380D01*
X150575238Y-75002380D01*
X149956190Y-75002380D02*
X150051428Y-74954761D01*
X150099047Y-74907142D01*
X150146666Y-74811904D01*
X150146666Y-74526190D01*
X150099047Y-74430952D01*
X150051428Y-74383333D01*
X149956190Y-74335714D01*
X149813333Y-74335714D01*
X149718095Y-74383333D01*
X149670476Y-74430952D01*
X149622857Y-74526190D01*
X149622857Y-74811904D01*
X149670476Y-74907142D01*
X149718095Y-74954761D01*
X149813333Y-75002380D01*
X149956190Y-75002380D01*
X148765714Y-74335714D02*
X148765714Y-75002380D01*
X149194285Y-74335714D02*
X149194285Y-74859523D01*
X149146666Y-74954761D01*
X149051428Y-75002380D01*
X148908571Y-75002380D01*
X148813333Y-74954761D01*
X148765714Y-74907142D01*
X148289523Y-74335714D02*
X148289523Y-75002380D01*
X148289523Y-74430952D02*
X148241904Y-74383333D01*
X148146666Y-74335714D01*
X148003809Y-74335714D01*
X147908571Y-74383333D01*
X147860952Y-74478571D01*
X147860952Y-75002380D01*
X147527619Y-74335714D02*
X147146666Y-74335714D01*
X147384761Y-74002380D02*
X147384761Y-74859523D01*
X147337142Y-74954761D01*
X147241904Y-75002380D01*
X147146666Y-75002380D01*
X161932380Y-76557142D02*
X161980000Y-76604761D01*
X162122857Y-76652380D01*
X162218095Y-76652380D01*
X162360952Y-76604761D01*
X162456190Y-76509523D01*
X162503809Y-76414285D01*
X162551428Y-76223809D01*
X162551428Y-76080952D01*
X162503809Y-75890476D01*
X162456190Y-75795238D01*
X162360952Y-75700000D01*
X162218095Y-75652380D01*
X162122857Y-75652380D01*
X161980000Y-75700000D01*
X161932380Y-75747619D01*
X161360952Y-76652380D02*
X161456190Y-76604761D01*
X161503809Y-76557142D01*
X161551428Y-76461904D01*
X161551428Y-76176190D01*
X161503809Y-76080952D01*
X161456190Y-76033333D01*
X161360952Y-75985714D01*
X161218095Y-75985714D01*
X161122857Y-76033333D01*
X161075238Y-76080952D01*
X161027619Y-76176190D01*
X161027619Y-76461904D01*
X161075238Y-76557142D01*
X161122857Y-76604761D01*
X161218095Y-76652380D01*
X161360952Y-76652380D01*
X160599047Y-75985714D02*
X160599047Y-76652380D01*
X160599047Y-76080952D02*
X160551428Y-76033333D01*
X160456190Y-75985714D01*
X160313333Y-75985714D01*
X160218095Y-76033333D01*
X160170476Y-76128571D01*
X160170476Y-76652380D01*
X159837142Y-75985714D02*
X159456190Y-75985714D01*
X159694285Y-75652380D02*
X159694285Y-76509523D01*
X159646666Y-76604761D01*
X159551428Y-76652380D01*
X159456190Y-76652380D01*
X159122857Y-76652380D02*
X159122857Y-75985714D01*
X159122857Y-76176190D02*
X159075238Y-76080952D01*
X159027619Y-76033333D01*
X158932380Y-75985714D01*
X158837142Y-75985714D01*
X158360952Y-76652380D02*
X158456190Y-76604761D01*
X158503809Y-76557142D01*
X158551428Y-76461904D01*
X158551428Y-76176190D01*
X158503809Y-76080952D01*
X158456190Y-76033333D01*
X158360952Y-75985714D01*
X158218095Y-75985714D01*
X158122857Y-76033333D01*
X158075238Y-76080952D01*
X158027619Y-76176190D01*
X158027619Y-76461904D01*
X158075238Y-76557142D01*
X158122857Y-76604761D01*
X158218095Y-76652380D01*
X158360952Y-76652380D01*
X157456190Y-76652380D02*
X157551428Y-76604761D01*
X157599047Y-76509523D01*
X157599047Y-75652380D01*
X155980000Y-76128571D02*
X155837142Y-76176190D01*
X155789523Y-76223809D01*
X155741904Y-76319047D01*
X155741904Y-76461904D01*
X155789523Y-76557142D01*
X155837142Y-76604761D01*
X155932380Y-76652380D01*
X156313333Y-76652380D01*
X156313333Y-75652380D01*
X155980000Y-75652380D01*
X155884761Y-75700000D01*
X155837142Y-75747619D01*
X155789523Y-75842857D01*
X155789523Y-75938095D01*
X155837142Y-76033333D01*
X155884761Y-76080952D01*
X155980000Y-76128571D01*
X156313333Y-76128571D01*
X155170476Y-76652380D02*
X155265714Y-76604761D01*
X155313333Y-76557142D01*
X155360952Y-76461904D01*
X155360952Y-76176190D01*
X155313333Y-76080952D01*
X155265714Y-76033333D01*
X155170476Y-75985714D01*
X155027619Y-75985714D01*
X154932380Y-76033333D01*
X154884761Y-76080952D01*
X154837142Y-76176190D01*
X154837142Y-76461904D01*
X154884761Y-76557142D01*
X154932380Y-76604761D01*
X155027619Y-76652380D01*
X155170476Y-76652380D01*
X153980000Y-76652380D02*
X153980000Y-76128571D01*
X154027619Y-76033333D01*
X154122857Y-75985714D01*
X154313333Y-75985714D01*
X154408571Y-76033333D01*
X153980000Y-76604761D02*
X154075238Y-76652380D01*
X154313333Y-76652380D01*
X154408571Y-76604761D01*
X154456190Y-76509523D01*
X154456190Y-76414285D01*
X154408571Y-76319047D01*
X154313333Y-76271428D01*
X154075238Y-76271428D01*
X153980000Y-76223809D01*
X153503809Y-76652380D02*
X153503809Y-75985714D01*
X153503809Y-76176190D02*
X153456190Y-76080952D01*
X153408571Y-76033333D01*
X153313333Y-75985714D01*
X153218095Y-75985714D01*
X152456190Y-76652380D02*
X152456190Y-75652380D01*
X152456190Y-76604761D02*
X152551428Y-76652380D01*
X152741904Y-76652380D01*
X152837142Y-76604761D01*
X152884761Y-76557142D01*
X152932380Y-76461904D01*
X152932380Y-76176190D01*
X152884761Y-76080952D01*
X152837142Y-76033333D01*
X152741904Y-75985714D01*
X152551428Y-75985714D01*
X152456190Y-76033333D01*
X166789523Y-78302380D02*
X166789523Y-77302380D01*
X166551428Y-77302380D01*
X166408571Y-77350000D01*
X166313333Y-77445238D01*
X166265714Y-77540476D01*
X166218095Y-77730952D01*
X166218095Y-77873809D01*
X166265714Y-78064285D01*
X166313333Y-78159523D01*
X166408571Y-78254761D01*
X166551428Y-78302380D01*
X166789523Y-78302380D01*
X165408571Y-78254761D02*
X165503809Y-78302380D01*
X165694285Y-78302380D01*
X165789523Y-78254761D01*
X165837142Y-78159523D01*
X165837142Y-77778571D01*
X165789523Y-77683333D01*
X165694285Y-77635714D01*
X165503809Y-77635714D01*
X165408571Y-77683333D01*
X165360952Y-77778571D01*
X165360952Y-77873809D01*
X165837142Y-77969047D01*
X164980000Y-78254761D02*
X164884761Y-78302380D01*
X164694285Y-78302380D01*
X164599047Y-78254761D01*
X164551428Y-78159523D01*
X164551428Y-78111904D01*
X164599047Y-78016666D01*
X164694285Y-77969047D01*
X164837142Y-77969047D01*
X164932380Y-77921428D01*
X164980000Y-77826190D01*
X164980000Y-77778571D01*
X164932380Y-77683333D01*
X164837142Y-77635714D01*
X164694285Y-77635714D01*
X164599047Y-77683333D01*
X164122857Y-78302380D02*
X164122857Y-77635714D01*
X164122857Y-77302380D02*
X164170476Y-77350000D01*
X164122857Y-77397619D01*
X164075238Y-77350000D01*
X164122857Y-77302380D01*
X164122857Y-77397619D01*
X163218095Y-77635714D02*
X163218095Y-78445238D01*
X163265714Y-78540476D01*
X163313333Y-78588095D01*
X163408571Y-78635714D01*
X163551428Y-78635714D01*
X163646666Y-78588095D01*
X163218095Y-78254761D02*
X163313333Y-78302380D01*
X163503809Y-78302380D01*
X163599047Y-78254761D01*
X163646666Y-78207142D01*
X163694285Y-78111904D01*
X163694285Y-77826190D01*
X163646666Y-77730952D01*
X163599047Y-77683333D01*
X163503809Y-77635714D01*
X163313333Y-77635714D01*
X163218095Y-77683333D01*
X162741904Y-77635714D02*
X162741904Y-78302380D01*
X162741904Y-77730952D02*
X162694285Y-77683333D01*
X162599047Y-77635714D01*
X162456190Y-77635714D01*
X162360952Y-77683333D01*
X162313333Y-77778571D01*
X162313333Y-78302380D01*
X160741904Y-77778571D02*
X160599047Y-77826190D01*
X160551428Y-77873809D01*
X160503809Y-77969047D01*
X160503809Y-78111904D01*
X160551428Y-78207142D01*
X160599047Y-78254761D01*
X160694285Y-78302380D01*
X161075238Y-78302380D01*
X161075238Y-77302380D01*
X160741904Y-77302380D01*
X160646666Y-77350000D01*
X160599047Y-77397619D01*
X160551428Y-77492857D01*
X160551428Y-77588095D01*
X160599047Y-77683333D01*
X160646666Y-77730952D01*
X160741904Y-77778571D01*
X161075238Y-77778571D01*
X160170476Y-77635714D02*
X159932380Y-78302380D01*
X159694285Y-77635714D02*
X159932380Y-78302380D01*
X160027619Y-78540476D01*
X160075238Y-78588095D01*
X160170476Y-78635714D01*
X159313333Y-78207142D02*
X159265714Y-78254761D01*
X159313333Y-78302380D01*
X159360952Y-78254761D01*
X159313333Y-78207142D01*
X159313333Y-78302380D01*
X159313333Y-77683333D02*
X159265714Y-77730952D01*
X159313333Y-77778571D01*
X159360952Y-77730952D01*
X159313333Y-77683333D01*
X159313333Y-77778571D01*
X158075238Y-78302380D02*
X158075238Y-77302380D01*
X157741904Y-78016666D01*
X157408571Y-77302380D01*
X157408571Y-78302380D01*
X156932380Y-78302380D02*
X156932380Y-77635714D01*
X156932380Y-77302380D02*
X156980000Y-77350000D01*
X156932380Y-77397619D01*
X156884761Y-77350000D01*
X156932380Y-77302380D01*
X156932380Y-77397619D01*
X156027619Y-78254761D02*
X156122857Y-78302380D01*
X156313333Y-78302380D01*
X156408571Y-78254761D01*
X156456190Y-78207142D01*
X156503809Y-78111904D01*
X156503809Y-77826190D01*
X156456190Y-77730952D01*
X156408571Y-77683333D01*
X156313333Y-77635714D01*
X156122857Y-77635714D01*
X156027619Y-77683333D01*
X155599047Y-78302380D02*
X155599047Y-77302380D01*
X155170476Y-78302380D02*
X155170476Y-77778571D01*
X155218095Y-77683333D01*
X155313333Y-77635714D01*
X155456190Y-77635714D01*
X155551428Y-77683333D01*
X155599047Y-77730952D01*
X154265714Y-78302380D02*
X154265714Y-77778571D01*
X154313333Y-77683333D01*
X154408571Y-77635714D01*
X154599047Y-77635714D01*
X154694285Y-77683333D01*
X154265714Y-78254761D02*
X154360952Y-78302380D01*
X154599047Y-78302380D01*
X154694285Y-78254761D01*
X154741904Y-78159523D01*
X154741904Y-78064285D01*
X154694285Y-77969047D01*
X154599047Y-77921428D01*
X154360952Y-77921428D01*
X154265714Y-77873809D01*
X153408571Y-78254761D02*
X153503809Y-78302380D01*
X153694285Y-78302380D01*
X153789523Y-78254761D01*
X153837142Y-78159523D01*
X153837142Y-77778571D01*
X153789523Y-77683333D01*
X153694285Y-77635714D01*
X153503809Y-77635714D01*
X153408571Y-77683333D01*
X153360952Y-77778571D01*
X153360952Y-77873809D01*
X153837142Y-77969047D01*
X152789523Y-78302380D02*
X152884761Y-78254761D01*
X152932380Y-78159523D01*
X152932380Y-77302380D01*
X151122857Y-77350000D02*
X151218095Y-77302380D01*
X151360952Y-77302380D01*
X151503809Y-77350000D01*
X151599047Y-77445238D01*
X151646666Y-77540476D01*
X151694285Y-77730952D01*
X151694285Y-77873809D01*
X151646666Y-78064285D01*
X151599047Y-78159523D01*
X151503809Y-78254761D01*
X151360952Y-78302380D01*
X151265714Y-78302380D01*
X151122857Y-78254761D01*
X151075238Y-78207142D01*
X151075238Y-77873809D01*
X151265714Y-77873809D01*
X150646666Y-78302380D02*
X150646666Y-77635714D01*
X150646666Y-77826190D02*
X150599047Y-77730952D01*
X150551428Y-77683333D01*
X150456190Y-77635714D01*
X150360952Y-77635714D01*
X149646666Y-78254761D02*
X149741904Y-78302380D01*
X149932380Y-78302380D01*
X150027619Y-78254761D01*
X150075238Y-78159523D01*
X150075238Y-77778571D01*
X150027619Y-77683333D01*
X149932380Y-77635714D01*
X149741904Y-77635714D01*
X149646666Y-77683333D01*
X149599047Y-77778571D01*
X149599047Y-77873809D01*
X150075238Y-77969047D01*
X148789523Y-78254761D02*
X148884761Y-78302380D01*
X149075238Y-78302380D01*
X149170476Y-78254761D01*
X149218095Y-78159523D01*
X149218095Y-77778571D01*
X149170476Y-77683333D01*
X149075238Y-77635714D01*
X148884761Y-77635714D01*
X148789523Y-77683333D01*
X148741904Y-77778571D01*
X148741904Y-77873809D01*
X149218095Y-77969047D01*
X148313333Y-78302380D02*
X148313333Y-77635714D01*
X148313333Y-77826190D02*
X148265714Y-77730952D01*
X148218095Y-77683333D01*
X148122857Y-77635714D01*
X148027619Y-77635714D01*
D11*
X142204064Y-77322000D02*
X140999936Y-77322000D01*
X142204064Y-79142000D02*
X140999936Y-79142000D01*
X129067936Y-79650000D02*
X130272064Y-79650000D01*
X129067936Y-77830000D02*
X130272064Y-77830000D01*
X125062064Y-79650000D02*
X123857936Y-79650000D01*
X125062064Y-77830000D02*
X123857936Y-77830000D01*
X123857936Y-86000000D02*
X125062064Y-86000000D01*
X123857936Y-84180000D02*
X125062064Y-84180000D01*
X125062064Y-75840000D02*
X123857936Y-75840000D01*
X125062064Y-74020000D02*
X123857936Y-74020000D01*
X129067936Y-75840000D02*
X130272064Y-75840000D01*
X129067936Y-74020000D02*
X130272064Y-74020000D01*
X141965000Y-70263936D02*
X141965000Y-71468064D01*
X143785000Y-70263936D02*
X143785000Y-71468064D01*
X154580000Y-81947936D02*
X154580000Y-83152064D01*
X152760000Y-81947936D02*
X152760000Y-83152064D01*
X154580000Y-89502064D02*
X154580000Y-88297936D01*
X152760000Y-89502064D02*
X152760000Y-88297936D01*
X120290000Y-76867936D02*
X120290000Y-78072064D01*
X118470000Y-76867936D02*
X118470000Y-78072064D01*
X142207064Y-76221000D02*
X141002936Y-76221000D01*
X142207064Y-74401000D02*
X141002936Y-74401000D01*
X112297936Y-64410000D02*
X113502064Y-64410000D01*
X112297936Y-62590000D02*
X113502064Y-62590000D01*
X116020436Y-84815000D02*
X117224564Y-84815000D01*
X116020436Y-86635000D02*
X117224564Y-86635000D01*
X116020436Y-83206000D02*
X117224564Y-83206000D01*
X116020436Y-81386000D02*
X117224564Y-81386000D01*
X108617936Y-73935000D02*
X109822064Y-73935000D01*
X108617936Y-72115000D02*
X109822064Y-72115000D01*
D10*
X144054380Y-75864380D02*
X143959142Y-75864380D01*
X143863904Y-75912000D01*
X143816285Y-75959619D01*
X143768666Y-76054857D01*
X143721047Y-76245333D01*
X143721047Y-76483428D01*
X143768666Y-76673904D01*
X143816285Y-76769142D01*
X143863904Y-76816761D01*
X143959142Y-76864380D01*
X144054380Y-76864380D01*
X144149619Y-76816761D01*
X144197238Y-76769142D01*
X144244857Y-76673904D01*
X144292476Y-76483428D01*
X144292476Y-76245333D01*
X144244857Y-76054857D01*
X144197238Y-75959619D01*
X144149619Y-75912000D01*
X144054380Y-75864380D01*
X143292476Y-76769142D02*
X143244857Y-76816761D01*
X143292476Y-76864380D01*
X143340095Y-76816761D01*
X143292476Y-76769142D01*
X143292476Y-76864380D01*
X142625809Y-75864380D02*
X142530571Y-75864380D01*
X142435333Y-75912000D01*
X142387714Y-75959619D01*
X142340095Y-76054857D01*
X142292476Y-76245333D01*
X142292476Y-76483428D01*
X142340095Y-76673904D01*
X142387714Y-76769142D01*
X142435333Y-76816761D01*
X142530571Y-76864380D01*
X142625809Y-76864380D01*
X142721047Y-76816761D01*
X142768666Y-76769142D01*
X142816285Y-76673904D01*
X142863904Y-76483428D01*
X142863904Y-76245333D01*
X142816285Y-76054857D01*
X142768666Y-75959619D01*
X142721047Y-75912000D01*
X142625809Y-75864380D01*
X141340095Y-76864380D02*
X141911523Y-76864380D01*
X141625809Y-76864380D02*
X141625809Y-75864380D01*
X141721047Y-76007238D01*
X141816285Y-76102476D01*
X141911523Y-76150095D01*
X140482952Y-76197714D02*
X140482952Y-76864380D01*
X140911523Y-76197714D02*
X140911523Y-76721523D01*
X140863904Y-76816761D01*
X140768666Y-76864380D01*
X140625809Y-76864380D01*
X140530571Y-76816761D01*
X140482952Y-76769142D01*
X140149619Y-76197714D02*
X139768666Y-76197714D01*
X140006761Y-76864380D02*
X140006761Y-76007238D01*
X139959142Y-75912000D01*
X139863904Y-75864380D01*
X139768666Y-75864380D01*
X138911523Y-76864380D02*
X139482952Y-76864380D01*
X139197238Y-76864380D02*
X139197238Y-75864380D01*
X139292476Y-76007238D01*
X139387714Y-76102476D01*
X139482952Y-76150095D01*
X131420952Y-81097380D02*
X131992380Y-81097380D01*
X131706666Y-81097380D02*
X131706666Y-80097380D01*
X131801904Y-80240238D01*
X131897142Y-80335476D01*
X131992380Y-80383095D01*
X130801904Y-80097380D02*
X130706666Y-80097380D01*
X130611428Y-80145000D01*
X130563809Y-80192619D01*
X130516190Y-80287857D01*
X130468571Y-80478333D01*
X130468571Y-80716428D01*
X130516190Y-80906904D01*
X130563809Y-81002142D01*
X130611428Y-81049761D01*
X130706666Y-81097380D01*
X130801904Y-81097380D01*
X130897142Y-81049761D01*
X130944761Y-81002142D01*
X130992380Y-80906904D01*
X131040000Y-80716428D01*
X131040000Y-80478333D01*
X130992380Y-80287857D01*
X130944761Y-80192619D01*
X130897142Y-80145000D01*
X130801904Y-80097380D01*
X129849523Y-80097380D02*
X129754285Y-80097380D01*
X129659047Y-80145000D01*
X129611428Y-80192619D01*
X129563809Y-80287857D01*
X129516190Y-80478333D01*
X129516190Y-80716428D01*
X129563809Y-80906904D01*
X129611428Y-81002142D01*
X129659047Y-81049761D01*
X129754285Y-81097380D01*
X129849523Y-81097380D01*
X129944761Y-81049761D01*
X129992380Y-81002142D01*
X130040000Y-80906904D01*
X130087619Y-80716428D01*
X130087619Y-80478333D01*
X130040000Y-80287857D01*
X129992380Y-80192619D01*
X129944761Y-80145000D01*
X129849523Y-80097380D01*
X129087619Y-80430714D02*
X129087619Y-81097380D01*
X129087619Y-80525952D02*
X129040000Y-80478333D01*
X128944761Y-80430714D01*
X128801904Y-80430714D01*
X128706666Y-80478333D01*
X128659047Y-80573571D01*
X128659047Y-81097380D01*
X128325714Y-80430714D02*
X127944761Y-80430714D01*
X128182857Y-81097380D02*
X128182857Y-80240238D01*
X128135238Y-80145000D01*
X128040000Y-80097380D01*
X127944761Y-80097380D01*
X127087619Y-81097380D02*
X127659047Y-81097380D01*
X127373333Y-81097380D02*
X127373333Y-80097380D01*
X127468571Y-80240238D01*
X127563809Y-80335476D01*
X127659047Y-80383095D01*
X126340952Y-81097380D02*
X126912380Y-81097380D01*
X126626666Y-81097380D02*
X126626666Y-80097380D01*
X126721904Y-80240238D01*
X126817142Y-80335476D01*
X126912380Y-80383095D01*
X125721904Y-80097380D02*
X125626666Y-80097380D01*
X125531428Y-80145000D01*
X125483809Y-80192619D01*
X125436190Y-80287857D01*
X125388571Y-80478333D01*
X125388571Y-80716428D01*
X125436190Y-80906904D01*
X125483809Y-81002142D01*
X125531428Y-81049761D01*
X125626666Y-81097380D01*
X125721904Y-81097380D01*
X125817142Y-81049761D01*
X125864761Y-81002142D01*
X125912380Y-80906904D01*
X125960000Y-80716428D01*
X125960000Y-80478333D01*
X125912380Y-80287857D01*
X125864761Y-80192619D01*
X125817142Y-80145000D01*
X125721904Y-80097380D01*
X124769523Y-80097380D02*
X124674285Y-80097380D01*
X124579047Y-80145000D01*
X124531428Y-80192619D01*
X124483809Y-80287857D01*
X124436190Y-80478333D01*
X124436190Y-80716428D01*
X124483809Y-80906904D01*
X124531428Y-81002142D01*
X124579047Y-81049761D01*
X124674285Y-81097380D01*
X124769523Y-81097380D01*
X124864761Y-81049761D01*
X124912380Y-81002142D01*
X124960000Y-80906904D01*
X125007619Y-80716428D01*
X125007619Y-80478333D01*
X124960000Y-80287857D01*
X124912380Y-80192619D01*
X124864761Y-80145000D01*
X124769523Y-80097380D01*
X124007619Y-80430714D02*
X124007619Y-81097380D01*
X124007619Y-80525952D02*
X123960000Y-80478333D01*
X123864761Y-80430714D01*
X123721904Y-80430714D01*
X123626666Y-80478333D01*
X123579047Y-80573571D01*
X123579047Y-81097380D01*
X123245714Y-80430714D02*
X122864761Y-80430714D01*
X123102857Y-81097380D02*
X123102857Y-80240238D01*
X123055238Y-80145000D01*
X122960000Y-80097380D01*
X122864761Y-80097380D01*
X122579047Y-80192619D02*
X122531428Y-80145000D01*
X122436190Y-80097380D01*
X122198095Y-80097380D01*
X122102857Y-80145000D01*
X122055238Y-80192619D01*
X122007619Y-80287857D01*
X122007619Y-80383095D01*
X122055238Y-80525952D01*
X122626666Y-81097380D01*
X122007619Y-81097380D01*
X126340952Y-87362380D02*
X126912380Y-87362380D01*
X126626666Y-87362380D02*
X126626666Y-86362380D01*
X126721904Y-86505238D01*
X126817142Y-86600476D01*
X126912380Y-86648095D01*
X125721904Y-86362380D02*
X125626666Y-86362380D01*
X125531428Y-86410000D01*
X125483809Y-86457619D01*
X125436190Y-86552857D01*
X125388571Y-86743333D01*
X125388571Y-86981428D01*
X125436190Y-87171904D01*
X125483809Y-87267142D01*
X125531428Y-87314761D01*
X125626666Y-87362380D01*
X125721904Y-87362380D01*
X125817142Y-87314761D01*
X125864761Y-87267142D01*
X125912380Y-87171904D01*
X125960000Y-86981428D01*
X125960000Y-86743333D01*
X125912380Y-86552857D01*
X125864761Y-86457619D01*
X125817142Y-86410000D01*
X125721904Y-86362380D01*
X124769523Y-86362380D02*
X124674285Y-86362380D01*
X124579047Y-86410000D01*
X124531428Y-86457619D01*
X124483809Y-86552857D01*
X124436190Y-86743333D01*
X124436190Y-86981428D01*
X124483809Y-87171904D01*
X124531428Y-87267142D01*
X124579047Y-87314761D01*
X124674285Y-87362380D01*
X124769523Y-87362380D01*
X124864761Y-87314761D01*
X124912380Y-87267142D01*
X124960000Y-87171904D01*
X125007619Y-86981428D01*
X125007619Y-86743333D01*
X124960000Y-86552857D01*
X124912380Y-86457619D01*
X124864761Y-86410000D01*
X124769523Y-86362380D01*
X124007619Y-86695714D02*
X124007619Y-87362380D01*
X124007619Y-86790952D02*
X123960000Y-86743333D01*
X123864761Y-86695714D01*
X123721904Y-86695714D01*
X123626666Y-86743333D01*
X123579047Y-86838571D01*
X123579047Y-87362380D01*
X123245714Y-86695714D02*
X122864761Y-86695714D01*
X123102857Y-87362380D02*
X123102857Y-86505238D01*
X123055238Y-86410000D01*
X122960000Y-86362380D01*
X122864761Y-86362380D01*
X122626666Y-86362380D02*
X122007619Y-86362380D01*
X122340952Y-86743333D01*
X122198095Y-86743333D01*
X122102857Y-86790952D01*
X122055238Y-86838571D01*
X122007619Y-86933809D01*
X122007619Y-87171904D01*
X122055238Y-87267142D01*
X122102857Y-87314761D01*
X122198095Y-87362380D01*
X122483809Y-87362380D01*
X122579047Y-87314761D01*
X122626666Y-87267142D01*
X125864761Y-73477380D02*
X126436190Y-73477380D01*
X126150476Y-73477380D02*
X126150476Y-72477380D01*
X126245714Y-72620238D01*
X126340952Y-72715476D01*
X126436190Y-72763095D01*
X125245714Y-72477380D02*
X125150476Y-72477380D01*
X125055238Y-72525000D01*
X125007619Y-72572619D01*
X124960000Y-72667857D01*
X124912380Y-72858333D01*
X124912380Y-73096428D01*
X124960000Y-73286904D01*
X125007619Y-73382142D01*
X125055238Y-73429761D01*
X125150476Y-73477380D01*
X125245714Y-73477380D01*
X125340952Y-73429761D01*
X125388571Y-73382142D01*
X125436190Y-73286904D01*
X125483809Y-73096428D01*
X125483809Y-72858333D01*
X125436190Y-72667857D01*
X125388571Y-72572619D01*
X125340952Y-72525000D01*
X125245714Y-72477380D01*
X124055238Y-72810714D02*
X124055238Y-73477380D01*
X124483809Y-72810714D02*
X124483809Y-73334523D01*
X124436190Y-73429761D01*
X124340952Y-73477380D01*
X124198095Y-73477380D01*
X124102857Y-73429761D01*
X124055238Y-73382142D01*
X123721904Y-72810714D02*
X123340952Y-72810714D01*
X123579047Y-73477380D02*
X123579047Y-72620238D01*
X123531428Y-72525000D01*
X123436190Y-72477380D01*
X123340952Y-72477380D01*
X122483809Y-73477380D02*
X123055238Y-73477380D01*
X122769523Y-73477380D02*
X122769523Y-72477380D01*
X122864761Y-72620238D01*
X122960000Y-72715476D01*
X123055238Y-72763095D01*
X130944761Y-73477380D02*
X131516190Y-73477380D01*
X131230476Y-73477380D02*
X131230476Y-72477380D01*
X131325714Y-72620238D01*
X131420952Y-72715476D01*
X131516190Y-72763095D01*
X130325714Y-72477380D02*
X130230476Y-72477380D01*
X130135238Y-72525000D01*
X130087619Y-72572619D01*
X130040000Y-72667857D01*
X129992380Y-72858333D01*
X129992380Y-73096428D01*
X130040000Y-73286904D01*
X130087619Y-73382142D01*
X130135238Y-73429761D01*
X130230476Y-73477380D01*
X130325714Y-73477380D01*
X130420952Y-73429761D01*
X130468571Y-73382142D01*
X130516190Y-73286904D01*
X130563809Y-73096428D01*
X130563809Y-72858333D01*
X130516190Y-72667857D01*
X130468571Y-72572619D01*
X130420952Y-72525000D01*
X130325714Y-72477380D01*
X129135238Y-72810714D02*
X129135238Y-73477380D01*
X129563809Y-72810714D02*
X129563809Y-73334523D01*
X129516190Y-73429761D01*
X129420952Y-73477380D01*
X129278095Y-73477380D01*
X129182857Y-73429761D01*
X129135238Y-73382142D01*
X128801904Y-72810714D02*
X128420952Y-72810714D01*
X128659047Y-73477380D02*
X128659047Y-72620238D01*
X128611428Y-72525000D01*
X128516190Y-72477380D01*
X128420952Y-72477380D01*
X128135238Y-72572619D02*
X128087619Y-72525000D01*
X127992380Y-72477380D01*
X127754285Y-72477380D01*
X127659047Y-72525000D01*
X127611428Y-72572619D01*
X127563809Y-72667857D01*
X127563809Y-72763095D01*
X127611428Y-72905952D01*
X128182857Y-73477380D01*
X127563809Y-73477380D01*
X141507380Y-69461238D02*
X141507380Y-68889809D01*
X141507380Y-69175523D02*
X140507380Y-69175523D01*
X140650238Y-69080285D01*
X140745476Y-68985047D01*
X140793095Y-68889809D01*
X140507380Y-70080285D02*
X140507380Y-70175523D01*
X140555000Y-70270761D01*
X140602619Y-70318380D01*
X140697857Y-70366000D01*
X140888333Y-70413619D01*
X141126428Y-70413619D01*
X141316904Y-70366000D01*
X141412142Y-70318380D01*
X141459761Y-70270761D01*
X141507380Y-70175523D01*
X141507380Y-70080285D01*
X141459761Y-69985047D01*
X141412142Y-69937428D01*
X141316904Y-69889809D01*
X141126428Y-69842190D01*
X140888333Y-69842190D01*
X140697857Y-69889809D01*
X140602619Y-69937428D01*
X140555000Y-69985047D01*
X140507380Y-70080285D01*
X140840714Y-71270761D02*
X141507380Y-71270761D01*
X140840714Y-70842190D02*
X141364523Y-70842190D01*
X141459761Y-70889809D01*
X141507380Y-70985047D01*
X141507380Y-71127904D01*
X141459761Y-71223142D01*
X141412142Y-71270761D01*
X140840714Y-71604095D02*
X140840714Y-71985047D01*
X141507380Y-71746952D02*
X140650238Y-71746952D01*
X140555000Y-71794571D01*
X140507380Y-71889809D01*
X140507380Y-71985047D01*
X140507380Y-72223142D02*
X140507380Y-72842190D01*
X140888333Y-72508857D01*
X140888333Y-72651714D01*
X140935952Y-72746952D01*
X140983571Y-72794571D01*
X141078809Y-72842190D01*
X141316904Y-72842190D01*
X141412142Y-72794571D01*
X141459761Y-72746952D01*
X141507380Y-72651714D01*
X141507380Y-72366000D01*
X141459761Y-72270761D01*
X141412142Y-72223142D01*
X152302380Y-80669047D02*
X152302380Y-80097619D01*
X152302380Y-80383333D02*
X151302380Y-80383333D01*
X151445238Y-80288095D01*
X151540476Y-80192857D01*
X151588095Y-80097619D01*
X151302380Y-81573809D02*
X151302380Y-81097619D01*
X151778571Y-81050000D01*
X151730952Y-81097619D01*
X151683333Y-81192857D01*
X151683333Y-81430952D01*
X151730952Y-81526190D01*
X151778571Y-81573809D01*
X151873809Y-81621428D01*
X152111904Y-81621428D01*
X152207142Y-81573809D01*
X152254761Y-81526190D01*
X152302380Y-81430952D01*
X152302380Y-81192857D01*
X152254761Y-81097619D01*
X152207142Y-81050000D01*
X151302380Y-82240476D02*
X151302380Y-82335714D01*
X151350000Y-82430952D01*
X151397619Y-82478571D01*
X151492857Y-82526190D01*
X151683333Y-82573809D01*
X151921428Y-82573809D01*
X152111904Y-82526190D01*
X152207142Y-82478571D01*
X152254761Y-82430952D01*
X152302380Y-82335714D01*
X152302380Y-82240476D01*
X152254761Y-82145238D01*
X152207142Y-82097619D01*
X152111904Y-82050000D01*
X151921428Y-82002380D01*
X151683333Y-82002380D01*
X151492857Y-82050000D01*
X151397619Y-82097619D01*
X151350000Y-82145238D01*
X151302380Y-82240476D01*
X151635714Y-83430952D02*
X152302380Y-83430952D01*
X151635714Y-83002380D02*
X152159523Y-83002380D01*
X152254761Y-83050000D01*
X152302380Y-83145238D01*
X152302380Y-83288095D01*
X152254761Y-83383333D01*
X152207142Y-83430952D01*
X151635714Y-83764285D02*
X151635714Y-84145238D01*
X152302380Y-83907142D02*
X151445238Y-83907142D01*
X151350000Y-83954761D01*
X151302380Y-84050000D01*
X151302380Y-84145238D01*
X152302380Y-85002380D02*
X152302380Y-84430952D01*
X152302380Y-84716666D02*
X151302380Y-84716666D01*
X151445238Y-84621428D01*
X151540476Y-84526190D01*
X151588095Y-84430952D01*
X155942380Y-87019047D02*
X155942380Y-86447619D01*
X155942380Y-86733333D02*
X154942380Y-86733333D01*
X155085238Y-86638095D01*
X155180476Y-86542857D01*
X155228095Y-86447619D01*
X154942380Y-87923809D02*
X154942380Y-87447619D01*
X155418571Y-87400000D01*
X155370952Y-87447619D01*
X155323333Y-87542857D01*
X155323333Y-87780952D01*
X155370952Y-87876190D01*
X155418571Y-87923809D01*
X155513809Y-87971428D01*
X155751904Y-87971428D01*
X155847142Y-87923809D01*
X155894761Y-87876190D01*
X155942380Y-87780952D01*
X155942380Y-87542857D01*
X155894761Y-87447619D01*
X155847142Y-87400000D01*
X154942380Y-88590476D02*
X154942380Y-88685714D01*
X154990000Y-88780952D01*
X155037619Y-88828571D01*
X155132857Y-88876190D01*
X155323333Y-88923809D01*
X155561428Y-88923809D01*
X155751904Y-88876190D01*
X155847142Y-88828571D01*
X155894761Y-88780952D01*
X155942380Y-88685714D01*
X155942380Y-88590476D01*
X155894761Y-88495238D01*
X155847142Y-88447619D01*
X155751904Y-88400000D01*
X155561428Y-88352380D01*
X155323333Y-88352380D01*
X155132857Y-88400000D01*
X155037619Y-88447619D01*
X154990000Y-88495238D01*
X154942380Y-88590476D01*
X155275714Y-89780952D02*
X155942380Y-89780952D01*
X155275714Y-89352380D02*
X155799523Y-89352380D01*
X155894761Y-89400000D01*
X155942380Y-89495238D01*
X155942380Y-89638095D01*
X155894761Y-89733333D01*
X155847142Y-89780952D01*
X155275714Y-90114285D02*
X155275714Y-90495238D01*
X155942380Y-90257142D02*
X155085238Y-90257142D01*
X154990000Y-90304761D01*
X154942380Y-90400000D01*
X154942380Y-90495238D01*
X155037619Y-90780952D02*
X154990000Y-90828571D01*
X154942380Y-90923809D01*
X154942380Y-91161904D01*
X154990000Y-91257142D01*
X155037619Y-91304761D01*
X155132857Y-91352380D01*
X155228095Y-91352380D01*
X155370952Y-91304761D01*
X155942380Y-90733333D01*
X155942380Y-91352380D01*
X119832380Y-72731428D02*
X119832380Y-72160000D01*
X119832380Y-72445714D02*
X118832380Y-72445714D01*
X118975238Y-72350476D01*
X119070476Y-72255238D01*
X119118095Y-72160000D01*
X119165714Y-73588571D02*
X119832380Y-73588571D01*
X119165714Y-73160000D02*
X119689523Y-73160000D01*
X119784761Y-73207619D01*
X119832380Y-73302857D01*
X119832380Y-73445714D01*
X119784761Y-73540952D01*
X119737142Y-73588571D01*
X119165714Y-73921904D02*
X119165714Y-74302857D01*
X119832380Y-74064761D02*
X118975238Y-74064761D01*
X118880000Y-74112380D01*
X118832380Y-74207619D01*
X118832380Y-74302857D01*
X119832380Y-75160000D02*
X119832380Y-74588571D01*
X119832380Y-74874285D02*
X118832380Y-74874285D01*
X118975238Y-74779047D01*
X119070476Y-74683809D01*
X119118095Y-74588571D01*
X143819285Y-73038619D02*
X143771666Y-72991000D01*
X143676428Y-72943380D01*
X143438333Y-72943380D01*
X143343095Y-72991000D01*
X143295476Y-73038619D01*
X143247857Y-73133857D01*
X143247857Y-73229095D01*
X143295476Y-73371952D01*
X143866904Y-73943380D01*
X143247857Y-73943380D01*
X142819285Y-73848142D02*
X142771666Y-73895761D01*
X142819285Y-73943380D01*
X142866904Y-73895761D01*
X142819285Y-73848142D01*
X142819285Y-73943380D01*
X142390714Y-73038619D02*
X142343095Y-72991000D01*
X142247857Y-72943380D01*
X142009761Y-72943380D01*
X141914523Y-72991000D01*
X141866904Y-73038619D01*
X141819285Y-73133857D01*
X141819285Y-73229095D01*
X141866904Y-73371952D01*
X142438333Y-73943380D01*
X141819285Y-73943380D01*
X140962142Y-73276714D02*
X140962142Y-73943380D01*
X141390714Y-73276714D02*
X141390714Y-73800523D01*
X141343095Y-73895761D01*
X141247857Y-73943380D01*
X141105000Y-73943380D01*
X141009761Y-73895761D01*
X140962142Y-73848142D01*
X140628809Y-73276714D02*
X140247857Y-73276714D01*
X140485952Y-73943380D02*
X140485952Y-73086238D01*
X140438333Y-72991000D01*
X140343095Y-72943380D01*
X140247857Y-72943380D01*
X139390714Y-73943380D02*
X139962142Y-73943380D01*
X139676428Y-73943380D02*
X139676428Y-72943380D01*
X139771666Y-73086238D01*
X139866904Y-73181476D01*
X139962142Y-73229095D01*
X116304761Y-64772380D02*
X115685714Y-64772380D01*
X116019047Y-65153333D01*
X115876190Y-65153333D01*
X115780952Y-65200952D01*
X115733333Y-65248571D01*
X115685714Y-65343809D01*
X115685714Y-65581904D01*
X115733333Y-65677142D01*
X115780952Y-65724761D01*
X115876190Y-65772380D01*
X116161904Y-65772380D01*
X116257142Y-65724761D01*
X116304761Y-65677142D01*
X115352380Y-64772380D02*
X114733333Y-64772380D01*
X115066666Y-65153333D01*
X114923809Y-65153333D01*
X114828571Y-65200952D01*
X114780952Y-65248571D01*
X114733333Y-65343809D01*
X114733333Y-65581904D01*
X114780952Y-65677142D01*
X114828571Y-65724761D01*
X114923809Y-65772380D01*
X115209523Y-65772380D01*
X115304761Y-65724761D01*
X115352380Y-65677142D01*
X114114285Y-64772380D02*
X114019047Y-64772380D01*
X113923809Y-64820000D01*
X113876190Y-64867619D01*
X113828571Y-64962857D01*
X113780952Y-65153333D01*
X113780952Y-65391428D01*
X113828571Y-65581904D01*
X113876190Y-65677142D01*
X113923809Y-65724761D01*
X114019047Y-65772380D01*
X114114285Y-65772380D01*
X114209523Y-65724761D01*
X114257142Y-65677142D01*
X114304761Y-65581904D01*
X114352380Y-65391428D01*
X114352380Y-65153333D01*
X114304761Y-64962857D01*
X114257142Y-64867619D01*
X114209523Y-64820000D01*
X114114285Y-64772380D01*
X113161904Y-64772380D02*
X112971428Y-64772380D01*
X112876190Y-64820000D01*
X112780952Y-64915238D01*
X112733333Y-65105714D01*
X112733333Y-65439047D01*
X112780952Y-65629523D01*
X112876190Y-65724761D01*
X112971428Y-65772380D01*
X113161904Y-65772380D01*
X113257142Y-65724761D01*
X113352380Y-65629523D01*
X113400000Y-65439047D01*
X113400000Y-65105714D01*
X113352380Y-64915238D01*
X113257142Y-64820000D01*
X113161904Y-64772380D01*
X112304761Y-65772380D02*
X112304761Y-64772380D01*
X111876190Y-65772380D02*
X111876190Y-65248571D01*
X111923809Y-65153333D01*
X112019047Y-65105714D01*
X112161904Y-65105714D01*
X112257142Y-65153333D01*
X112304761Y-65200952D01*
X111400000Y-65772380D02*
X111400000Y-65105714D01*
X111400000Y-65200952D02*
X111352380Y-65153333D01*
X111257142Y-65105714D01*
X111114285Y-65105714D01*
X111019047Y-65153333D01*
X110971428Y-65248571D01*
X110971428Y-65772380D01*
X110971428Y-65248571D02*
X110923809Y-65153333D01*
X110828571Y-65105714D01*
X110685714Y-65105714D01*
X110590476Y-65153333D01*
X110542857Y-65248571D01*
X110542857Y-65772380D01*
X109542857Y-65772380D02*
X110114285Y-65772380D01*
X109828571Y-65772380D02*
X109828571Y-64772380D01*
X109923809Y-64915238D01*
X110019047Y-65010476D01*
X110114285Y-65058095D01*
X120027261Y-86997380D02*
X119408214Y-86997380D01*
X119741547Y-87378333D01*
X119598690Y-87378333D01*
X119503452Y-87425952D01*
X119455833Y-87473571D01*
X119408214Y-87568809D01*
X119408214Y-87806904D01*
X119455833Y-87902142D01*
X119503452Y-87949761D01*
X119598690Y-87997380D01*
X119884404Y-87997380D01*
X119979642Y-87949761D01*
X120027261Y-87902142D01*
X119074880Y-86997380D02*
X118455833Y-86997380D01*
X118789166Y-87378333D01*
X118646309Y-87378333D01*
X118551071Y-87425952D01*
X118503452Y-87473571D01*
X118455833Y-87568809D01*
X118455833Y-87806904D01*
X118503452Y-87902142D01*
X118551071Y-87949761D01*
X118646309Y-87997380D01*
X118932023Y-87997380D01*
X119027261Y-87949761D01*
X119074880Y-87902142D01*
X117836785Y-86997380D02*
X117741547Y-86997380D01*
X117646309Y-87045000D01*
X117598690Y-87092619D01*
X117551071Y-87187857D01*
X117503452Y-87378333D01*
X117503452Y-87616428D01*
X117551071Y-87806904D01*
X117598690Y-87902142D01*
X117646309Y-87949761D01*
X117741547Y-87997380D01*
X117836785Y-87997380D01*
X117932023Y-87949761D01*
X117979642Y-87902142D01*
X118027261Y-87806904D01*
X118074880Y-87616428D01*
X118074880Y-87378333D01*
X118027261Y-87187857D01*
X117979642Y-87092619D01*
X117932023Y-87045000D01*
X117836785Y-86997380D01*
X116884404Y-86997380D02*
X116693928Y-86997380D01*
X116598690Y-87045000D01*
X116503452Y-87140238D01*
X116455833Y-87330714D01*
X116455833Y-87664047D01*
X116503452Y-87854523D01*
X116598690Y-87949761D01*
X116693928Y-87997380D01*
X116884404Y-87997380D01*
X116979642Y-87949761D01*
X117074880Y-87854523D01*
X117122500Y-87664047D01*
X117122500Y-87330714D01*
X117074880Y-87140238D01*
X116979642Y-87045000D01*
X116884404Y-86997380D01*
X116027261Y-87997380D02*
X116027261Y-86997380D01*
X115598690Y-87997380D02*
X115598690Y-87473571D01*
X115646309Y-87378333D01*
X115741547Y-87330714D01*
X115884404Y-87330714D01*
X115979642Y-87378333D01*
X116027261Y-87425952D01*
X115122500Y-87997380D02*
X115122500Y-87330714D01*
X115122500Y-87425952D02*
X115074880Y-87378333D01*
X114979642Y-87330714D01*
X114836785Y-87330714D01*
X114741547Y-87378333D01*
X114693928Y-87473571D01*
X114693928Y-87997380D01*
X114693928Y-87473571D02*
X114646309Y-87378333D01*
X114551071Y-87330714D01*
X114408214Y-87330714D01*
X114312976Y-87378333D01*
X114265357Y-87473571D01*
X114265357Y-87997380D01*
X113836785Y-87092619D02*
X113789166Y-87045000D01*
X113693928Y-86997380D01*
X113455833Y-86997380D01*
X113360595Y-87045000D01*
X113312976Y-87092619D01*
X113265357Y-87187857D01*
X113265357Y-87283095D01*
X113312976Y-87425952D01*
X113884404Y-87997380D01*
X113265357Y-87997380D01*
X120027261Y-83568380D02*
X119408214Y-83568380D01*
X119741547Y-83949333D01*
X119598690Y-83949333D01*
X119503452Y-83996952D01*
X119455833Y-84044571D01*
X119408214Y-84139809D01*
X119408214Y-84377904D01*
X119455833Y-84473142D01*
X119503452Y-84520761D01*
X119598690Y-84568380D01*
X119884404Y-84568380D01*
X119979642Y-84520761D01*
X120027261Y-84473142D01*
X119074880Y-83568380D02*
X118455833Y-83568380D01*
X118789166Y-83949333D01*
X118646309Y-83949333D01*
X118551071Y-83996952D01*
X118503452Y-84044571D01*
X118455833Y-84139809D01*
X118455833Y-84377904D01*
X118503452Y-84473142D01*
X118551071Y-84520761D01*
X118646309Y-84568380D01*
X118932023Y-84568380D01*
X119027261Y-84520761D01*
X119074880Y-84473142D01*
X117836785Y-83568380D02*
X117741547Y-83568380D01*
X117646309Y-83616000D01*
X117598690Y-83663619D01*
X117551071Y-83758857D01*
X117503452Y-83949333D01*
X117503452Y-84187428D01*
X117551071Y-84377904D01*
X117598690Y-84473142D01*
X117646309Y-84520761D01*
X117741547Y-84568380D01*
X117836785Y-84568380D01*
X117932023Y-84520761D01*
X117979642Y-84473142D01*
X118027261Y-84377904D01*
X118074880Y-84187428D01*
X118074880Y-83949333D01*
X118027261Y-83758857D01*
X117979642Y-83663619D01*
X117932023Y-83616000D01*
X117836785Y-83568380D01*
X116884404Y-83568380D02*
X116693928Y-83568380D01*
X116598690Y-83616000D01*
X116503452Y-83711238D01*
X116455833Y-83901714D01*
X116455833Y-84235047D01*
X116503452Y-84425523D01*
X116598690Y-84520761D01*
X116693928Y-84568380D01*
X116884404Y-84568380D01*
X116979642Y-84520761D01*
X117074880Y-84425523D01*
X117122500Y-84235047D01*
X117122500Y-83901714D01*
X117074880Y-83711238D01*
X116979642Y-83616000D01*
X116884404Y-83568380D01*
X116027261Y-84568380D02*
X116027261Y-83568380D01*
X115598690Y-84568380D02*
X115598690Y-84044571D01*
X115646309Y-83949333D01*
X115741547Y-83901714D01*
X115884404Y-83901714D01*
X115979642Y-83949333D01*
X116027261Y-83996952D01*
X115122500Y-84568380D02*
X115122500Y-83901714D01*
X115122500Y-83996952D02*
X115074880Y-83949333D01*
X114979642Y-83901714D01*
X114836785Y-83901714D01*
X114741547Y-83949333D01*
X114693928Y-84044571D01*
X114693928Y-84568380D01*
X114693928Y-84044571D02*
X114646309Y-83949333D01*
X114551071Y-83901714D01*
X114408214Y-83901714D01*
X114312976Y-83949333D01*
X114265357Y-84044571D01*
X114265357Y-84568380D01*
X113884404Y-83568380D02*
X113265357Y-83568380D01*
X113598690Y-83949333D01*
X113455833Y-83949333D01*
X113360595Y-83996952D01*
X113312976Y-84044571D01*
X113265357Y-84139809D01*
X113265357Y-84377904D01*
X113312976Y-84473142D01*
X113360595Y-84520761D01*
X113455833Y-84568380D01*
X113741547Y-84568380D01*
X113836785Y-84520761D01*
X113884404Y-84473142D01*
X110148571Y-75297380D02*
X110720000Y-75297380D01*
X110434285Y-75297380D02*
X110434285Y-74297380D01*
X110529523Y-74440238D01*
X110624761Y-74535476D01*
X110720000Y-74583095D01*
X109291428Y-74630714D02*
X109291428Y-75297380D01*
X109720000Y-74630714D02*
X109720000Y-75154523D01*
X109672380Y-75249761D01*
X109577142Y-75297380D01*
X109434285Y-75297380D01*
X109339047Y-75249761D01*
X109291428Y-75202142D01*
X108958095Y-74630714D02*
X108577142Y-74630714D01*
X108815238Y-75297380D02*
X108815238Y-74440238D01*
X108767619Y-74345000D01*
X108672380Y-74297380D01*
X108577142Y-74297380D01*
X107767619Y-74297380D02*
X108243809Y-74297380D01*
X108291428Y-74773571D01*
X108243809Y-74725952D01*
X108148571Y-74678333D01*
X107910476Y-74678333D01*
X107815238Y-74725952D01*
X107767619Y-74773571D01*
X107720000Y-74868809D01*
X107720000Y-75106904D01*
X107767619Y-75202142D01*
X107815238Y-75249761D01*
X107910476Y-75297380D01*
X108148571Y-75297380D01*
X108243809Y-75249761D01*
X108291428Y-75202142D01*
M02*
