M48
; DRILL file {KiCad 5.1.4-e60b266~84~ubuntu18.04.1} date Wed 02 Oct 2019 01:36:13 PM MDT
; FORMAT={-:-/ absolute / inch / decimal}
; #@! TF.CreationDate,2019-10-02T13:36:13-06:00
; #@! TF.GenerationSoftware,Kicad,Pcbnew,5.1.4-e60b266~84~ubuntu18.04.1
; #@! TF.FileFunction,Plated,1,2,PTH
FMAT,2
INCH
T1C0.0157
T2C0.0236
T3C0.0472
%
G90
G05
T1
X4.45Y-3.34
X4.4631Y-3.18
X4.525Y-2.75
X4.645Y-2.87
X4.8475Y-3.2675
X5.0Y-3.5
X5.05Y-2.75
X5.15Y-3.4
X5.3Y-3.3
X5.35Y-3.025
X5.396Y-2.709
X5.396Y-2.804
X5.435Y-2.755
X5.465Y-2.81
X5.5Y-3.6
X5.66Y-3.495
X5.87Y-3.535
X5.925Y-3.625
T2
X4.175Y-3.175
X4.7802Y-3.3252
X4.9551Y-3.0249
X5.6249Y-2.7349
X5.7Y-2.625
X5.7Y-3.075
X5.875Y-3.3325
X5.94Y-3.4
X6.03Y-2.84
X6.275Y-3.4
T3
X6.95Y-2.8
X6.95Y-2.9378
X6.95Y-3.0756
X6.95Y-3.2134
X6.35Y-2.25
X6.4878Y-2.25
X6.6256Y-2.25
X6.7634Y-2.25
X4.7Y-2.25
X4.8378Y-2.25
X4.9756Y-2.25
X5.1134Y-2.25
X5.2512Y-2.25
X5.6Y-2.25
X5.7378Y-2.25
X5.8756Y-2.25
X6.0134Y-2.25
X4.25Y-2.25
X4.3878Y-2.25
T0
M30
