G04 #@! TF.GenerationSoftware,KiCad,Pcbnew,5.1.4-e60b266~84~ubuntu18.04.1*
G04 #@! TF.CreationDate,2019-10-02T13:36:21-06:00*
G04 #@! TF.ProjectId,Star Tracker,53746172-2054-4726-9163-6b65722e6b69,rev?*
G04 #@! TF.SameCoordinates,Original*
G04 #@! TF.FileFunction,Copper,L2,Bot*
G04 #@! TF.FilePolarity,Positive*
%FSLAX46Y46*%
G04 Gerber Fmt 4.6, Leading zero omitted, Abs format (unit mm)*
G04 Created by KiCad (PCBNEW 5.1.4-e60b266~84~ubuntu18.04.1) date 2019-10-02 13:36:21*
%MOMM*%
%LPD*%
G04 APERTURE LIST*
%ADD10C,0.100000*%
%ADD11C,1.250000*%
%ADD12C,1.800000*%
%ADD13O,1.800000X3.600000*%
%ADD14O,3.600000X1.800000*%
%ADD15C,1.425000*%
%ADD16C,1.200000*%
%ADD17C,0.800000*%
%ADD18C,0.375000*%
%ADD19C,0.600000*%
%ADD20C,0.250000*%
%ADD21C,1.000000*%
%ADD22C,0.254000*%
G04 APERTURE END LIST*
D10*
G36*
X143401504Y-77358204D02*
G01*
X143425773Y-77361804D01*
X143449571Y-77367765D01*
X143472671Y-77376030D01*
X143494849Y-77386520D01*
X143515893Y-77399133D01*
X143535598Y-77413747D01*
X143553777Y-77430223D01*
X143570253Y-77448402D01*
X143584867Y-77468107D01*
X143597480Y-77489151D01*
X143607970Y-77511329D01*
X143616235Y-77534429D01*
X143622196Y-77558227D01*
X143625796Y-77582496D01*
X143627000Y-77607000D01*
X143627000Y-78857000D01*
X143625796Y-78881504D01*
X143622196Y-78905773D01*
X143616235Y-78929571D01*
X143607970Y-78952671D01*
X143597480Y-78974849D01*
X143584867Y-78995893D01*
X143570253Y-79015598D01*
X143553777Y-79033777D01*
X143535598Y-79050253D01*
X143515893Y-79064867D01*
X143494849Y-79077480D01*
X143472671Y-79087970D01*
X143449571Y-79096235D01*
X143425773Y-79102196D01*
X143401504Y-79105796D01*
X143377000Y-79107000D01*
X142627000Y-79107000D01*
X142602496Y-79105796D01*
X142578227Y-79102196D01*
X142554429Y-79096235D01*
X142531329Y-79087970D01*
X142509151Y-79077480D01*
X142488107Y-79064867D01*
X142468402Y-79050253D01*
X142450223Y-79033777D01*
X142433747Y-79015598D01*
X142419133Y-78995893D01*
X142406520Y-78974849D01*
X142396030Y-78952671D01*
X142387765Y-78929571D01*
X142381804Y-78905773D01*
X142378204Y-78881504D01*
X142377000Y-78857000D01*
X142377000Y-77607000D01*
X142378204Y-77582496D01*
X142381804Y-77558227D01*
X142387765Y-77534429D01*
X142396030Y-77511329D01*
X142406520Y-77489151D01*
X142419133Y-77468107D01*
X142433747Y-77448402D01*
X142450223Y-77430223D01*
X142468402Y-77413747D01*
X142488107Y-77399133D01*
X142509151Y-77386520D01*
X142531329Y-77376030D01*
X142554429Y-77367765D01*
X142578227Y-77361804D01*
X142602496Y-77358204D01*
X142627000Y-77357000D01*
X143377000Y-77357000D01*
X143401504Y-77358204D01*
X143401504Y-77358204D01*
G37*
D11*
X143002000Y-78232000D03*
D10*
G36*
X140601504Y-77358204D02*
G01*
X140625773Y-77361804D01*
X140649571Y-77367765D01*
X140672671Y-77376030D01*
X140694849Y-77386520D01*
X140715893Y-77399133D01*
X140735598Y-77413747D01*
X140753777Y-77430223D01*
X140770253Y-77448402D01*
X140784867Y-77468107D01*
X140797480Y-77489151D01*
X140807970Y-77511329D01*
X140816235Y-77534429D01*
X140822196Y-77558227D01*
X140825796Y-77582496D01*
X140827000Y-77607000D01*
X140827000Y-78857000D01*
X140825796Y-78881504D01*
X140822196Y-78905773D01*
X140816235Y-78929571D01*
X140807970Y-78952671D01*
X140797480Y-78974849D01*
X140784867Y-78995893D01*
X140770253Y-79015598D01*
X140753777Y-79033777D01*
X140735598Y-79050253D01*
X140715893Y-79064867D01*
X140694849Y-79077480D01*
X140672671Y-79087970D01*
X140649571Y-79096235D01*
X140625773Y-79102196D01*
X140601504Y-79105796D01*
X140577000Y-79107000D01*
X139827000Y-79107000D01*
X139802496Y-79105796D01*
X139778227Y-79102196D01*
X139754429Y-79096235D01*
X139731329Y-79087970D01*
X139709151Y-79077480D01*
X139688107Y-79064867D01*
X139668402Y-79050253D01*
X139650223Y-79033777D01*
X139633747Y-79015598D01*
X139619133Y-78995893D01*
X139606520Y-78974849D01*
X139596030Y-78952671D01*
X139587765Y-78929571D01*
X139581804Y-78905773D01*
X139578204Y-78881504D01*
X139577000Y-78857000D01*
X139577000Y-77607000D01*
X139578204Y-77582496D01*
X139581804Y-77558227D01*
X139587765Y-77534429D01*
X139596030Y-77511329D01*
X139606520Y-77489151D01*
X139619133Y-77468107D01*
X139633747Y-77448402D01*
X139650223Y-77430223D01*
X139668402Y-77413747D01*
X139688107Y-77399133D01*
X139709151Y-77386520D01*
X139731329Y-77376030D01*
X139754429Y-77367765D01*
X139778227Y-77361804D01*
X139802496Y-77358204D01*
X139827000Y-77357000D01*
X140577000Y-77357000D01*
X140601504Y-77358204D01*
X140601504Y-77358204D01*
G37*
D11*
X140202000Y-78232000D03*
D10*
G36*
X128669504Y-77866204D02*
G01*
X128693773Y-77869804D01*
X128717571Y-77875765D01*
X128740671Y-77884030D01*
X128762849Y-77894520D01*
X128783893Y-77907133D01*
X128803598Y-77921747D01*
X128821777Y-77938223D01*
X128838253Y-77956402D01*
X128852867Y-77976107D01*
X128865480Y-77997151D01*
X128875970Y-78019329D01*
X128884235Y-78042429D01*
X128890196Y-78066227D01*
X128893796Y-78090496D01*
X128895000Y-78115000D01*
X128895000Y-79365000D01*
X128893796Y-79389504D01*
X128890196Y-79413773D01*
X128884235Y-79437571D01*
X128875970Y-79460671D01*
X128865480Y-79482849D01*
X128852867Y-79503893D01*
X128838253Y-79523598D01*
X128821777Y-79541777D01*
X128803598Y-79558253D01*
X128783893Y-79572867D01*
X128762849Y-79585480D01*
X128740671Y-79595970D01*
X128717571Y-79604235D01*
X128693773Y-79610196D01*
X128669504Y-79613796D01*
X128645000Y-79615000D01*
X127895000Y-79615000D01*
X127870496Y-79613796D01*
X127846227Y-79610196D01*
X127822429Y-79604235D01*
X127799329Y-79595970D01*
X127777151Y-79585480D01*
X127756107Y-79572867D01*
X127736402Y-79558253D01*
X127718223Y-79541777D01*
X127701747Y-79523598D01*
X127687133Y-79503893D01*
X127674520Y-79482849D01*
X127664030Y-79460671D01*
X127655765Y-79437571D01*
X127649804Y-79413773D01*
X127646204Y-79389504D01*
X127645000Y-79365000D01*
X127645000Y-78115000D01*
X127646204Y-78090496D01*
X127649804Y-78066227D01*
X127655765Y-78042429D01*
X127664030Y-78019329D01*
X127674520Y-77997151D01*
X127687133Y-77976107D01*
X127701747Y-77956402D01*
X127718223Y-77938223D01*
X127736402Y-77921747D01*
X127756107Y-77907133D01*
X127777151Y-77894520D01*
X127799329Y-77884030D01*
X127822429Y-77875765D01*
X127846227Y-77869804D01*
X127870496Y-77866204D01*
X127895000Y-77865000D01*
X128645000Y-77865000D01*
X128669504Y-77866204D01*
X128669504Y-77866204D01*
G37*
D11*
X128270000Y-78740000D03*
D10*
G36*
X131469504Y-77866204D02*
G01*
X131493773Y-77869804D01*
X131517571Y-77875765D01*
X131540671Y-77884030D01*
X131562849Y-77894520D01*
X131583893Y-77907133D01*
X131603598Y-77921747D01*
X131621777Y-77938223D01*
X131638253Y-77956402D01*
X131652867Y-77976107D01*
X131665480Y-77997151D01*
X131675970Y-78019329D01*
X131684235Y-78042429D01*
X131690196Y-78066227D01*
X131693796Y-78090496D01*
X131695000Y-78115000D01*
X131695000Y-79365000D01*
X131693796Y-79389504D01*
X131690196Y-79413773D01*
X131684235Y-79437571D01*
X131675970Y-79460671D01*
X131665480Y-79482849D01*
X131652867Y-79503893D01*
X131638253Y-79523598D01*
X131621777Y-79541777D01*
X131603598Y-79558253D01*
X131583893Y-79572867D01*
X131562849Y-79585480D01*
X131540671Y-79595970D01*
X131517571Y-79604235D01*
X131493773Y-79610196D01*
X131469504Y-79613796D01*
X131445000Y-79615000D01*
X130695000Y-79615000D01*
X130670496Y-79613796D01*
X130646227Y-79610196D01*
X130622429Y-79604235D01*
X130599329Y-79595970D01*
X130577151Y-79585480D01*
X130556107Y-79572867D01*
X130536402Y-79558253D01*
X130518223Y-79541777D01*
X130501747Y-79523598D01*
X130487133Y-79503893D01*
X130474520Y-79482849D01*
X130464030Y-79460671D01*
X130455765Y-79437571D01*
X130449804Y-79413773D01*
X130446204Y-79389504D01*
X130445000Y-79365000D01*
X130445000Y-78115000D01*
X130446204Y-78090496D01*
X130449804Y-78066227D01*
X130455765Y-78042429D01*
X130464030Y-78019329D01*
X130474520Y-77997151D01*
X130487133Y-77976107D01*
X130501747Y-77956402D01*
X130518223Y-77938223D01*
X130536402Y-77921747D01*
X130556107Y-77907133D01*
X130577151Y-77894520D01*
X130599329Y-77884030D01*
X130622429Y-77875765D01*
X130646227Y-77869804D01*
X130670496Y-77866204D01*
X130695000Y-77865000D01*
X131445000Y-77865000D01*
X131469504Y-77866204D01*
X131469504Y-77866204D01*
G37*
D11*
X131070000Y-78740000D03*
D10*
G36*
X123459504Y-77866204D02*
G01*
X123483773Y-77869804D01*
X123507571Y-77875765D01*
X123530671Y-77884030D01*
X123552849Y-77894520D01*
X123573893Y-77907133D01*
X123593598Y-77921747D01*
X123611777Y-77938223D01*
X123628253Y-77956402D01*
X123642867Y-77976107D01*
X123655480Y-77997151D01*
X123665970Y-78019329D01*
X123674235Y-78042429D01*
X123680196Y-78066227D01*
X123683796Y-78090496D01*
X123685000Y-78115000D01*
X123685000Y-79365000D01*
X123683796Y-79389504D01*
X123680196Y-79413773D01*
X123674235Y-79437571D01*
X123665970Y-79460671D01*
X123655480Y-79482849D01*
X123642867Y-79503893D01*
X123628253Y-79523598D01*
X123611777Y-79541777D01*
X123593598Y-79558253D01*
X123573893Y-79572867D01*
X123552849Y-79585480D01*
X123530671Y-79595970D01*
X123507571Y-79604235D01*
X123483773Y-79610196D01*
X123459504Y-79613796D01*
X123435000Y-79615000D01*
X122685000Y-79615000D01*
X122660496Y-79613796D01*
X122636227Y-79610196D01*
X122612429Y-79604235D01*
X122589329Y-79595970D01*
X122567151Y-79585480D01*
X122546107Y-79572867D01*
X122526402Y-79558253D01*
X122508223Y-79541777D01*
X122491747Y-79523598D01*
X122477133Y-79503893D01*
X122464520Y-79482849D01*
X122454030Y-79460671D01*
X122445765Y-79437571D01*
X122439804Y-79413773D01*
X122436204Y-79389504D01*
X122435000Y-79365000D01*
X122435000Y-78115000D01*
X122436204Y-78090496D01*
X122439804Y-78066227D01*
X122445765Y-78042429D01*
X122454030Y-78019329D01*
X122464520Y-77997151D01*
X122477133Y-77976107D01*
X122491747Y-77956402D01*
X122508223Y-77938223D01*
X122526402Y-77921747D01*
X122546107Y-77907133D01*
X122567151Y-77894520D01*
X122589329Y-77884030D01*
X122612429Y-77875765D01*
X122636227Y-77869804D01*
X122660496Y-77866204D01*
X122685000Y-77865000D01*
X123435000Y-77865000D01*
X123459504Y-77866204D01*
X123459504Y-77866204D01*
G37*
D11*
X123060000Y-78740000D03*
D10*
G36*
X126259504Y-77866204D02*
G01*
X126283773Y-77869804D01*
X126307571Y-77875765D01*
X126330671Y-77884030D01*
X126352849Y-77894520D01*
X126373893Y-77907133D01*
X126393598Y-77921747D01*
X126411777Y-77938223D01*
X126428253Y-77956402D01*
X126442867Y-77976107D01*
X126455480Y-77997151D01*
X126465970Y-78019329D01*
X126474235Y-78042429D01*
X126480196Y-78066227D01*
X126483796Y-78090496D01*
X126485000Y-78115000D01*
X126485000Y-79365000D01*
X126483796Y-79389504D01*
X126480196Y-79413773D01*
X126474235Y-79437571D01*
X126465970Y-79460671D01*
X126455480Y-79482849D01*
X126442867Y-79503893D01*
X126428253Y-79523598D01*
X126411777Y-79541777D01*
X126393598Y-79558253D01*
X126373893Y-79572867D01*
X126352849Y-79585480D01*
X126330671Y-79595970D01*
X126307571Y-79604235D01*
X126283773Y-79610196D01*
X126259504Y-79613796D01*
X126235000Y-79615000D01*
X125485000Y-79615000D01*
X125460496Y-79613796D01*
X125436227Y-79610196D01*
X125412429Y-79604235D01*
X125389329Y-79595970D01*
X125367151Y-79585480D01*
X125346107Y-79572867D01*
X125326402Y-79558253D01*
X125308223Y-79541777D01*
X125291747Y-79523598D01*
X125277133Y-79503893D01*
X125264520Y-79482849D01*
X125254030Y-79460671D01*
X125245765Y-79437571D01*
X125239804Y-79413773D01*
X125236204Y-79389504D01*
X125235000Y-79365000D01*
X125235000Y-78115000D01*
X125236204Y-78090496D01*
X125239804Y-78066227D01*
X125245765Y-78042429D01*
X125254030Y-78019329D01*
X125264520Y-77997151D01*
X125277133Y-77976107D01*
X125291747Y-77956402D01*
X125308223Y-77938223D01*
X125326402Y-77921747D01*
X125346107Y-77907133D01*
X125367151Y-77894520D01*
X125389329Y-77884030D01*
X125412429Y-77875765D01*
X125436227Y-77869804D01*
X125460496Y-77866204D01*
X125485000Y-77865000D01*
X126235000Y-77865000D01*
X126259504Y-77866204D01*
X126259504Y-77866204D01*
G37*
D11*
X125860000Y-78740000D03*
D10*
G36*
X123459504Y-84216204D02*
G01*
X123483773Y-84219804D01*
X123507571Y-84225765D01*
X123530671Y-84234030D01*
X123552849Y-84244520D01*
X123573893Y-84257133D01*
X123593598Y-84271747D01*
X123611777Y-84288223D01*
X123628253Y-84306402D01*
X123642867Y-84326107D01*
X123655480Y-84347151D01*
X123665970Y-84369329D01*
X123674235Y-84392429D01*
X123680196Y-84416227D01*
X123683796Y-84440496D01*
X123685000Y-84465000D01*
X123685000Y-85715000D01*
X123683796Y-85739504D01*
X123680196Y-85763773D01*
X123674235Y-85787571D01*
X123665970Y-85810671D01*
X123655480Y-85832849D01*
X123642867Y-85853893D01*
X123628253Y-85873598D01*
X123611777Y-85891777D01*
X123593598Y-85908253D01*
X123573893Y-85922867D01*
X123552849Y-85935480D01*
X123530671Y-85945970D01*
X123507571Y-85954235D01*
X123483773Y-85960196D01*
X123459504Y-85963796D01*
X123435000Y-85965000D01*
X122685000Y-85965000D01*
X122660496Y-85963796D01*
X122636227Y-85960196D01*
X122612429Y-85954235D01*
X122589329Y-85945970D01*
X122567151Y-85935480D01*
X122546107Y-85922867D01*
X122526402Y-85908253D01*
X122508223Y-85891777D01*
X122491747Y-85873598D01*
X122477133Y-85853893D01*
X122464520Y-85832849D01*
X122454030Y-85810671D01*
X122445765Y-85787571D01*
X122439804Y-85763773D01*
X122436204Y-85739504D01*
X122435000Y-85715000D01*
X122435000Y-84465000D01*
X122436204Y-84440496D01*
X122439804Y-84416227D01*
X122445765Y-84392429D01*
X122454030Y-84369329D01*
X122464520Y-84347151D01*
X122477133Y-84326107D01*
X122491747Y-84306402D01*
X122508223Y-84288223D01*
X122526402Y-84271747D01*
X122546107Y-84257133D01*
X122567151Y-84244520D01*
X122589329Y-84234030D01*
X122612429Y-84225765D01*
X122636227Y-84219804D01*
X122660496Y-84216204D01*
X122685000Y-84215000D01*
X123435000Y-84215000D01*
X123459504Y-84216204D01*
X123459504Y-84216204D01*
G37*
D11*
X123060000Y-85090000D03*
D10*
G36*
X126259504Y-84216204D02*
G01*
X126283773Y-84219804D01*
X126307571Y-84225765D01*
X126330671Y-84234030D01*
X126352849Y-84244520D01*
X126373893Y-84257133D01*
X126393598Y-84271747D01*
X126411777Y-84288223D01*
X126428253Y-84306402D01*
X126442867Y-84326107D01*
X126455480Y-84347151D01*
X126465970Y-84369329D01*
X126474235Y-84392429D01*
X126480196Y-84416227D01*
X126483796Y-84440496D01*
X126485000Y-84465000D01*
X126485000Y-85715000D01*
X126483796Y-85739504D01*
X126480196Y-85763773D01*
X126474235Y-85787571D01*
X126465970Y-85810671D01*
X126455480Y-85832849D01*
X126442867Y-85853893D01*
X126428253Y-85873598D01*
X126411777Y-85891777D01*
X126393598Y-85908253D01*
X126373893Y-85922867D01*
X126352849Y-85935480D01*
X126330671Y-85945970D01*
X126307571Y-85954235D01*
X126283773Y-85960196D01*
X126259504Y-85963796D01*
X126235000Y-85965000D01*
X125485000Y-85965000D01*
X125460496Y-85963796D01*
X125436227Y-85960196D01*
X125412429Y-85954235D01*
X125389329Y-85945970D01*
X125367151Y-85935480D01*
X125346107Y-85922867D01*
X125326402Y-85908253D01*
X125308223Y-85891777D01*
X125291747Y-85873598D01*
X125277133Y-85853893D01*
X125264520Y-85832849D01*
X125254030Y-85810671D01*
X125245765Y-85787571D01*
X125239804Y-85763773D01*
X125236204Y-85739504D01*
X125235000Y-85715000D01*
X125235000Y-84465000D01*
X125236204Y-84440496D01*
X125239804Y-84416227D01*
X125245765Y-84392429D01*
X125254030Y-84369329D01*
X125264520Y-84347151D01*
X125277133Y-84326107D01*
X125291747Y-84306402D01*
X125308223Y-84288223D01*
X125326402Y-84271747D01*
X125346107Y-84257133D01*
X125367151Y-84244520D01*
X125389329Y-84234030D01*
X125412429Y-84225765D01*
X125436227Y-84219804D01*
X125460496Y-84216204D01*
X125485000Y-84215000D01*
X126235000Y-84215000D01*
X126259504Y-84216204D01*
X126259504Y-84216204D01*
G37*
D11*
X125860000Y-85090000D03*
D10*
G36*
X123459504Y-74056204D02*
G01*
X123483773Y-74059804D01*
X123507571Y-74065765D01*
X123530671Y-74074030D01*
X123552849Y-74084520D01*
X123573893Y-74097133D01*
X123593598Y-74111747D01*
X123611777Y-74128223D01*
X123628253Y-74146402D01*
X123642867Y-74166107D01*
X123655480Y-74187151D01*
X123665970Y-74209329D01*
X123674235Y-74232429D01*
X123680196Y-74256227D01*
X123683796Y-74280496D01*
X123685000Y-74305000D01*
X123685000Y-75555000D01*
X123683796Y-75579504D01*
X123680196Y-75603773D01*
X123674235Y-75627571D01*
X123665970Y-75650671D01*
X123655480Y-75672849D01*
X123642867Y-75693893D01*
X123628253Y-75713598D01*
X123611777Y-75731777D01*
X123593598Y-75748253D01*
X123573893Y-75762867D01*
X123552849Y-75775480D01*
X123530671Y-75785970D01*
X123507571Y-75794235D01*
X123483773Y-75800196D01*
X123459504Y-75803796D01*
X123435000Y-75805000D01*
X122685000Y-75805000D01*
X122660496Y-75803796D01*
X122636227Y-75800196D01*
X122612429Y-75794235D01*
X122589329Y-75785970D01*
X122567151Y-75775480D01*
X122546107Y-75762867D01*
X122526402Y-75748253D01*
X122508223Y-75731777D01*
X122491747Y-75713598D01*
X122477133Y-75693893D01*
X122464520Y-75672849D01*
X122454030Y-75650671D01*
X122445765Y-75627571D01*
X122439804Y-75603773D01*
X122436204Y-75579504D01*
X122435000Y-75555000D01*
X122435000Y-74305000D01*
X122436204Y-74280496D01*
X122439804Y-74256227D01*
X122445765Y-74232429D01*
X122454030Y-74209329D01*
X122464520Y-74187151D01*
X122477133Y-74166107D01*
X122491747Y-74146402D01*
X122508223Y-74128223D01*
X122526402Y-74111747D01*
X122546107Y-74097133D01*
X122567151Y-74084520D01*
X122589329Y-74074030D01*
X122612429Y-74065765D01*
X122636227Y-74059804D01*
X122660496Y-74056204D01*
X122685000Y-74055000D01*
X123435000Y-74055000D01*
X123459504Y-74056204D01*
X123459504Y-74056204D01*
G37*
D11*
X123060000Y-74930000D03*
D10*
G36*
X126259504Y-74056204D02*
G01*
X126283773Y-74059804D01*
X126307571Y-74065765D01*
X126330671Y-74074030D01*
X126352849Y-74084520D01*
X126373893Y-74097133D01*
X126393598Y-74111747D01*
X126411777Y-74128223D01*
X126428253Y-74146402D01*
X126442867Y-74166107D01*
X126455480Y-74187151D01*
X126465970Y-74209329D01*
X126474235Y-74232429D01*
X126480196Y-74256227D01*
X126483796Y-74280496D01*
X126485000Y-74305000D01*
X126485000Y-75555000D01*
X126483796Y-75579504D01*
X126480196Y-75603773D01*
X126474235Y-75627571D01*
X126465970Y-75650671D01*
X126455480Y-75672849D01*
X126442867Y-75693893D01*
X126428253Y-75713598D01*
X126411777Y-75731777D01*
X126393598Y-75748253D01*
X126373893Y-75762867D01*
X126352849Y-75775480D01*
X126330671Y-75785970D01*
X126307571Y-75794235D01*
X126283773Y-75800196D01*
X126259504Y-75803796D01*
X126235000Y-75805000D01*
X125485000Y-75805000D01*
X125460496Y-75803796D01*
X125436227Y-75800196D01*
X125412429Y-75794235D01*
X125389329Y-75785970D01*
X125367151Y-75775480D01*
X125346107Y-75762867D01*
X125326402Y-75748253D01*
X125308223Y-75731777D01*
X125291747Y-75713598D01*
X125277133Y-75693893D01*
X125264520Y-75672849D01*
X125254030Y-75650671D01*
X125245765Y-75627571D01*
X125239804Y-75603773D01*
X125236204Y-75579504D01*
X125235000Y-75555000D01*
X125235000Y-74305000D01*
X125236204Y-74280496D01*
X125239804Y-74256227D01*
X125245765Y-74232429D01*
X125254030Y-74209329D01*
X125264520Y-74187151D01*
X125277133Y-74166107D01*
X125291747Y-74146402D01*
X125308223Y-74128223D01*
X125326402Y-74111747D01*
X125346107Y-74097133D01*
X125367151Y-74084520D01*
X125389329Y-74074030D01*
X125412429Y-74065765D01*
X125436227Y-74059804D01*
X125460496Y-74056204D01*
X125485000Y-74055000D01*
X126235000Y-74055000D01*
X126259504Y-74056204D01*
X126259504Y-74056204D01*
G37*
D11*
X125860000Y-74930000D03*
D10*
G36*
X128669504Y-74056204D02*
G01*
X128693773Y-74059804D01*
X128717571Y-74065765D01*
X128740671Y-74074030D01*
X128762849Y-74084520D01*
X128783893Y-74097133D01*
X128803598Y-74111747D01*
X128821777Y-74128223D01*
X128838253Y-74146402D01*
X128852867Y-74166107D01*
X128865480Y-74187151D01*
X128875970Y-74209329D01*
X128884235Y-74232429D01*
X128890196Y-74256227D01*
X128893796Y-74280496D01*
X128895000Y-74305000D01*
X128895000Y-75555000D01*
X128893796Y-75579504D01*
X128890196Y-75603773D01*
X128884235Y-75627571D01*
X128875970Y-75650671D01*
X128865480Y-75672849D01*
X128852867Y-75693893D01*
X128838253Y-75713598D01*
X128821777Y-75731777D01*
X128803598Y-75748253D01*
X128783893Y-75762867D01*
X128762849Y-75775480D01*
X128740671Y-75785970D01*
X128717571Y-75794235D01*
X128693773Y-75800196D01*
X128669504Y-75803796D01*
X128645000Y-75805000D01*
X127895000Y-75805000D01*
X127870496Y-75803796D01*
X127846227Y-75800196D01*
X127822429Y-75794235D01*
X127799329Y-75785970D01*
X127777151Y-75775480D01*
X127756107Y-75762867D01*
X127736402Y-75748253D01*
X127718223Y-75731777D01*
X127701747Y-75713598D01*
X127687133Y-75693893D01*
X127674520Y-75672849D01*
X127664030Y-75650671D01*
X127655765Y-75627571D01*
X127649804Y-75603773D01*
X127646204Y-75579504D01*
X127645000Y-75555000D01*
X127645000Y-74305000D01*
X127646204Y-74280496D01*
X127649804Y-74256227D01*
X127655765Y-74232429D01*
X127664030Y-74209329D01*
X127674520Y-74187151D01*
X127687133Y-74166107D01*
X127701747Y-74146402D01*
X127718223Y-74128223D01*
X127736402Y-74111747D01*
X127756107Y-74097133D01*
X127777151Y-74084520D01*
X127799329Y-74074030D01*
X127822429Y-74065765D01*
X127846227Y-74059804D01*
X127870496Y-74056204D01*
X127895000Y-74055000D01*
X128645000Y-74055000D01*
X128669504Y-74056204D01*
X128669504Y-74056204D01*
G37*
D11*
X128270000Y-74930000D03*
D10*
G36*
X131469504Y-74056204D02*
G01*
X131493773Y-74059804D01*
X131517571Y-74065765D01*
X131540671Y-74074030D01*
X131562849Y-74084520D01*
X131583893Y-74097133D01*
X131603598Y-74111747D01*
X131621777Y-74128223D01*
X131638253Y-74146402D01*
X131652867Y-74166107D01*
X131665480Y-74187151D01*
X131675970Y-74209329D01*
X131684235Y-74232429D01*
X131690196Y-74256227D01*
X131693796Y-74280496D01*
X131695000Y-74305000D01*
X131695000Y-75555000D01*
X131693796Y-75579504D01*
X131690196Y-75603773D01*
X131684235Y-75627571D01*
X131675970Y-75650671D01*
X131665480Y-75672849D01*
X131652867Y-75693893D01*
X131638253Y-75713598D01*
X131621777Y-75731777D01*
X131603598Y-75748253D01*
X131583893Y-75762867D01*
X131562849Y-75775480D01*
X131540671Y-75785970D01*
X131517571Y-75794235D01*
X131493773Y-75800196D01*
X131469504Y-75803796D01*
X131445000Y-75805000D01*
X130695000Y-75805000D01*
X130670496Y-75803796D01*
X130646227Y-75800196D01*
X130622429Y-75794235D01*
X130599329Y-75785970D01*
X130577151Y-75775480D01*
X130556107Y-75762867D01*
X130536402Y-75748253D01*
X130518223Y-75731777D01*
X130501747Y-75713598D01*
X130487133Y-75693893D01*
X130474520Y-75672849D01*
X130464030Y-75650671D01*
X130455765Y-75627571D01*
X130449804Y-75603773D01*
X130446204Y-75579504D01*
X130445000Y-75555000D01*
X130445000Y-74305000D01*
X130446204Y-74280496D01*
X130449804Y-74256227D01*
X130455765Y-74232429D01*
X130464030Y-74209329D01*
X130474520Y-74187151D01*
X130487133Y-74166107D01*
X130501747Y-74146402D01*
X130518223Y-74128223D01*
X130536402Y-74111747D01*
X130556107Y-74097133D01*
X130577151Y-74084520D01*
X130599329Y-74074030D01*
X130622429Y-74065765D01*
X130646227Y-74059804D01*
X130670496Y-74056204D01*
X130695000Y-74055000D01*
X131445000Y-74055000D01*
X131469504Y-74056204D01*
X131469504Y-74056204D01*
G37*
D11*
X131070000Y-74930000D03*
D10*
G36*
X143524504Y-68842204D02*
G01*
X143548773Y-68845804D01*
X143572571Y-68851765D01*
X143595671Y-68860030D01*
X143617849Y-68870520D01*
X143638893Y-68883133D01*
X143658598Y-68897747D01*
X143676777Y-68914223D01*
X143693253Y-68932402D01*
X143707867Y-68952107D01*
X143720480Y-68973151D01*
X143730970Y-68995329D01*
X143739235Y-69018429D01*
X143745196Y-69042227D01*
X143748796Y-69066496D01*
X143750000Y-69091000D01*
X143750000Y-69841000D01*
X143748796Y-69865504D01*
X143745196Y-69889773D01*
X143739235Y-69913571D01*
X143730970Y-69936671D01*
X143720480Y-69958849D01*
X143707867Y-69979893D01*
X143693253Y-69999598D01*
X143676777Y-70017777D01*
X143658598Y-70034253D01*
X143638893Y-70048867D01*
X143617849Y-70061480D01*
X143595671Y-70071970D01*
X143572571Y-70080235D01*
X143548773Y-70086196D01*
X143524504Y-70089796D01*
X143500000Y-70091000D01*
X142250000Y-70091000D01*
X142225496Y-70089796D01*
X142201227Y-70086196D01*
X142177429Y-70080235D01*
X142154329Y-70071970D01*
X142132151Y-70061480D01*
X142111107Y-70048867D01*
X142091402Y-70034253D01*
X142073223Y-70017777D01*
X142056747Y-69999598D01*
X142042133Y-69979893D01*
X142029520Y-69958849D01*
X142019030Y-69936671D01*
X142010765Y-69913571D01*
X142004804Y-69889773D01*
X142001204Y-69865504D01*
X142000000Y-69841000D01*
X142000000Y-69091000D01*
X142001204Y-69066496D01*
X142004804Y-69042227D01*
X142010765Y-69018429D01*
X142019030Y-68995329D01*
X142029520Y-68973151D01*
X142042133Y-68952107D01*
X142056747Y-68932402D01*
X142073223Y-68914223D01*
X142091402Y-68897747D01*
X142111107Y-68883133D01*
X142132151Y-68870520D01*
X142154329Y-68860030D01*
X142177429Y-68851765D01*
X142201227Y-68845804D01*
X142225496Y-68842204D01*
X142250000Y-68841000D01*
X143500000Y-68841000D01*
X143524504Y-68842204D01*
X143524504Y-68842204D01*
G37*
D11*
X142875000Y-69466000D03*
D10*
G36*
X143524504Y-71642204D02*
G01*
X143548773Y-71645804D01*
X143572571Y-71651765D01*
X143595671Y-71660030D01*
X143617849Y-71670520D01*
X143638893Y-71683133D01*
X143658598Y-71697747D01*
X143676777Y-71714223D01*
X143693253Y-71732402D01*
X143707867Y-71752107D01*
X143720480Y-71773151D01*
X143730970Y-71795329D01*
X143739235Y-71818429D01*
X143745196Y-71842227D01*
X143748796Y-71866496D01*
X143750000Y-71891000D01*
X143750000Y-72641000D01*
X143748796Y-72665504D01*
X143745196Y-72689773D01*
X143739235Y-72713571D01*
X143730970Y-72736671D01*
X143720480Y-72758849D01*
X143707867Y-72779893D01*
X143693253Y-72799598D01*
X143676777Y-72817777D01*
X143658598Y-72834253D01*
X143638893Y-72848867D01*
X143617849Y-72861480D01*
X143595671Y-72871970D01*
X143572571Y-72880235D01*
X143548773Y-72886196D01*
X143524504Y-72889796D01*
X143500000Y-72891000D01*
X142250000Y-72891000D01*
X142225496Y-72889796D01*
X142201227Y-72886196D01*
X142177429Y-72880235D01*
X142154329Y-72871970D01*
X142132151Y-72861480D01*
X142111107Y-72848867D01*
X142091402Y-72834253D01*
X142073223Y-72817777D01*
X142056747Y-72799598D01*
X142042133Y-72779893D01*
X142029520Y-72758849D01*
X142019030Y-72736671D01*
X142010765Y-72713571D01*
X142004804Y-72689773D01*
X142001204Y-72665504D01*
X142000000Y-72641000D01*
X142000000Y-71891000D01*
X142001204Y-71866496D01*
X142004804Y-71842227D01*
X142010765Y-71818429D01*
X142019030Y-71795329D01*
X142029520Y-71773151D01*
X142042133Y-71752107D01*
X142056747Y-71732402D01*
X142073223Y-71714223D01*
X142091402Y-71697747D01*
X142111107Y-71683133D01*
X142132151Y-71670520D01*
X142154329Y-71660030D01*
X142177429Y-71651765D01*
X142201227Y-71645804D01*
X142225496Y-71642204D01*
X142250000Y-71641000D01*
X143500000Y-71641000D01*
X143524504Y-71642204D01*
X143524504Y-71642204D01*
G37*
D11*
X142875000Y-72266000D03*
D10*
G36*
X154319504Y-83326204D02*
G01*
X154343773Y-83329804D01*
X154367571Y-83335765D01*
X154390671Y-83344030D01*
X154412849Y-83354520D01*
X154433893Y-83367133D01*
X154453598Y-83381747D01*
X154471777Y-83398223D01*
X154488253Y-83416402D01*
X154502867Y-83436107D01*
X154515480Y-83457151D01*
X154525970Y-83479329D01*
X154534235Y-83502429D01*
X154540196Y-83526227D01*
X154543796Y-83550496D01*
X154545000Y-83575000D01*
X154545000Y-84325000D01*
X154543796Y-84349504D01*
X154540196Y-84373773D01*
X154534235Y-84397571D01*
X154525970Y-84420671D01*
X154515480Y-84442849D01*
X154502867Y-84463893D01*
X154488253Y-84483598D01*
X154471777Y-84501777D01*
X154453598Y-84518253D01*
X154433893Y-84532867D01*
X154412849Y-84545480D01*
X154390671Y-84555970D01*
X154367571Y-84564235D01*
X154343773Y-84570196D01*
X154319504Y-84573796D01*
X154295000Y-84575000D01*
X153045000Y-84575000D01*
X153020496Y-84573796D01*
X152996227Y-84570196D01*
X152972429Y-84564235D01*
X152949329Y-84555970D01*
X152927151Y-84545480D01*
X152906107Y-84532867D01*
X152886402Y-84518253D01*
X152868223Y-84501777D01*
X152851747Y-84483598D01*
X152837133Y-84463893D01*
X152824520Y-84442849D01*
X152814030Y-84420671D01*
X152805765Y-84397571D01*
X152799804Y-84373773D01*
X152796204Y-84349504D01*
X152795000Y-84325000D01*
X152795000Y-83575000D01*
X152796204Y-83550496D01*
X152799804Y-83526227D01*
X152805765Y-83502429D01*
X152814030Y-83479329D01*
X152824520Y-83457151D01*
X152837133Y-83436107D01*
X152851747Y-83416402D01*
X152868223Y-83398223D01*
X152886402Y-83381747D01*
X152906107Y-83367133D01*
X152927151Y-83354520D01*
X152949329Y-83344030D01*
X152972429Y-83335765D01*
X152996227Y-83329804D01*
X153020496Y-83326204D01*
X153045000Y-83325000D01*
X154295000Y-83325000D01*
X154319504Y-83326204D01*
X154319504Y-83326204D01*
G37*
D11*
X153670000Y-83950000D03*
D10*
G36*
X154319504Y-80526204D02*
G01*
X154343773Y-80529804D01*
X154367571Y-80535765D01*
X154390671Y-80544030D01*
X154412849Y-80554520D01*
X154433893Y-80567133D01*
X154453598Y-80581747D01*
X154471777Y-80598223D01*
X154488253Y-80616402D01*
X154502867Y-80636107D01*
X154515480Y-80657151D01*
X154525970Y-80679329D01*
X154534235Y-80702429D01*
X154540196Y-80726227D01*
X154543796Y-80750496D01*
X154545000Y-80775000D01*
X154545000Y-81525000D01*
X154543796Y-81549504D01*
X154540196Y-81573773D01*
X154534235Y-81597571D01*
X154525970Y-81620671D01*
X154515480Y-81642849D01*
X154502867Y-81663893D01*
X154488253Y-81683598D01*
X154471777Y-81701777D01*
X154453598Y-81718253D01*
X154433893Y-81732867D01*
X154412849Y-81745480D01*
X154390671Y-81755970D01*
X154367571Y-81764235D01*
X154343773Y-81770196D01*
X154319504Y-81773796D01*
X154295000Y-81775000D01*
X153045000Y-81775000D01*
X153020496Y-81773796D01*
X152996227Y-81770196D01*
X152972429Y-81764235D01*
X152949329Y-81755970D01*
X152927151Y-81745480D01*
X152906107Y-81732867D01*
X152886402Y-81718253D01*
X152868223Y-81701777D01*
X152851747Y-81683598D01*
X152837133Y-81663893D01*
X152824520Y-81642849D01*
X152814030Y-81620671D01*
X152805765Y-81597571D01*
X152799804Y-81573773D01*
X152796204Y-81549504D01*
X152795000Y-81525000D01*
X152795000Y-80775000D01*
X152796204Y-80750496D01*
X152799804Y-80726227D01*
X152805765Y-80702429D01*
X152814030Y-80679329D01*
X152824520Y-80657151D01*
X152837133Y-80636107D01*
X152851747Y-80616402D01*
X152868223Y-80598223D01*
X152886402Y-80581747D01*
X152906107Y-80567133D01*
X152927151Y-80554520D01*
X152949329Y-80544030D01*
X152972429Y-80535765D01*
X152996227Y-80529804D01*
X153020496Y-80526204D01*
X153045000Y-80525000D01*
X154295000Y-80525000D01*
X154319504Y-80526204D01*
X154319504Y-80526204D01*
G37*
D11*
X153670000Y-81150000D03*
D10*
G36*
X154319504Y-89676204D02*
G01*
X154343773Y-89679804D01*
X154367571Y-89685765D01*
X154390671Y-89694030D01*
X154412849Y-89704520D01*
X154433893Y-89717133D01*
X154453598Y-89731747D01*
X154471777Y-89748223D01*
X154488253Y-89766402D01*
X154502867Y-89786107D01*
X154515480Y-89807151D01*
X154525970Y-89829329D01*
X154534235Y-89852429D01*
X154540196Y-89876227D01*
X154543796Y-89900496D01*
X154545000Y-89925000D01*
X154545000Y-90675000D01*
X154543796Y-90699504D01*
X154540196Y-90723773D01*
X154534235Y-90747571D01*
X154525970Y-90770671D01*
X154515480Y-90792849D01*
X154502867Y-90813893D01*
X154488253Y-90833598D01*
X154471777Y-90851777D01*
X154453598Y-90868253D01*
X154433893Y-90882867D01*
X154412849Y-90895480D01*
X154390671Y-90905970D01*
X154367571Y-90914235D01*
X154343773Y-90920196D01*
X154319504Y-90923796D01*
X154295000Y-90925000D01*
X153045000Y-90925000D01*
X153020496Y-90923796D01*
X152996227Y-90920196D01*
X152972429Y-90914235D01*
X152949329Y-90905970D01*
X152927151Y-90895480D01*
X152906107Y-90882867D01*
X152886402Y-90868253D01*
X152868223Y-90851777D01*
X152851747Y-90833598D01*
X152837133Y-90813893D01*
X152824520Y-90792849D01*
X152814030Y-90770671D01*
X152805765Y-90747571D01*
X152799804Y-90723773D01*
X152796204Y-90699504D01*
X152795000Y-90675000D01*
X152795000Y-89925000D01*
X152796204Y-89900496D01*
X152799804Y-89876227D01*
X152805765Y-89852429D01*
X152814030Y-89829329D01*
X152824520Y-89807151D01*
X152837133Y-89786107D01*
X152851747Y-89766402D01*
X152868223Y-89748223D01*
X152886402Y-89731747D01*
X152906107Y-89717133D01*
X152927151Y-89704520D01*
X152949329Y-89694030D01*
X152972429Y-89685765D01*
X152996227Y-89679804D01*
X153020496Y-89676204D01*
X153045000Y-89675000D01*
X154295000Y-89675000D01*
X154319504Y-89676204D01*
X154319504Y-89676204D01*
G37*
D11*
X153670000Y-90300000D03*
D10*
G36*
X154319504Y-86876204D02*
G01*
X154343773Y-86879804D01*
X154367571Y-86885765D01*
X154390671Y-86894030D01*
X154412849Y-86904520D01*
X154433893Y-86917133D01*
X154453598Y-86931747D01*
X154471777Y-86948223D01*
X154488253Y-86966402D01*
X154502867Y-86986107D01*
X154515480Y-87007151D01*
X154525970Y-87029329D01*
X154534235Y-87052429D01*
X154540196Y-87076227D01*
X154543796Y-87100496D01*
X154545000Y-87125000D01*
X154545000Y-87875000D01*
X154543796Y-87899504D01*
X154540196Y-87923773D01*
X154534235Y-87947571D01*
X154525970Y-87970671D01*
X154515480Y-87992849D01*
X154502867Y-88013893D01*
X154488253Y-88033598D01*
X154471777Y-88051777D01*
X154453598Y-88068253D01*
X154433893Y-88082867D01*
X154412849Y-88095480D01*
X154390671Y-88105970D01*
X154367571Y-88114235D01*
X154343773Y-88120196D01*
X154319504Y-88123796D01*
X154295000Y-88125000D01*
X153045000Y-88125000D01*
X153020496Y-88123796D01*
X152996227Y-88120196D01*
X152972429Y-88114235D01*
X152949329Y-88105970D01*
X152927151Y-88095480D01*
X152906107Y-88082867D01*
X152886402Y-88068253D01*
X152868223Y-88051777D01*
X152851747Y-88033598D01*
X152837133Y-88013893D01*
X152824520Y-87992849D01*
X152814030Y-87970671D01*
X152805765Y-87947571D01*
X152799804Y-87923773D01*
X152796204Y-87899504D01*
X152795000Y-87875000D01*
X152795000Y-87125000D01*
X152796204Y-87100496D01*
X152799804Y-87076227D01*
X152805765Y-87052429D01*
X152814030Y-87029329D01*
X152824520Y-87007151D01*
X152837133Y-86986107D01*
X152851747Y-86966402D01*
X152868223Y-86948223D01*
X152886402Y-86931747D01*
X152906107Y-86917133D01*
X152927151Y-86904520D01*
X152949329Y-86894030D01*
X152972429Y-86885765D01*
X152996227Y-86879804D01*
X153020496Y-86876204D01*
X153045000Y-86875000D01*
X154295000Y-86875000D01*
X154319504Y-86876204D01*
X154319504Y-86876204D01*
G37*
D11*
X153670000Y-87500000D03*
D10*
G36*
X120029504Y-78246204D02*
G01*
X120053773Y-78249804D01*
X120077571Y-78255765D01*
X120100671Y-78264030D01*
X120122849Y-78274520D01*
X120143893Y-78287133D01*
X120163598Y-78301747D01*
X120181777Y-78318223D01*
X120198253Y-78336402D01*
X120212867Y-78356107D01*
X120225480Y-78377151D01*
X120235970Y-78399329D01*
X120244235Y-78422429D01*
X120250196Y-78446227D01*
X120253796Y-78470496D01*
X120255000Y-78495000D01*
X120255000Y-79245000D01*
X120253796Y-79269504D01*
X120250196Y-79293773D01*
X120244235Y-79317571D01*
X120235970Y-79340671D01*
X120225480Y-79362849D01*
X120212867Y-79383893D01*
X120198253Y-79403598D01*
X120181777Y-79421777D01*
X120163598Y-79438253D01*
X120143893Y-79452867D01*
X120122849Y-79465480D01*
X120100671Y-79475970D01*
X120077571Y-79484235D01*
X120053773Y-79490196D01*
X120029504Y-79493796D01*
X120005000Y-79495000D01*
X118755000Y-79495000D01*
X118730496Y-79493796D01*
X118706227Y-79490196D01*
X118682429Y-79484235D01*
X118659329Y-79475970D01*
X118637151Y-79465480D01*
X118616107Y-79452867D01*
X118596402Y-79438253D01*
X118578223Y-79421777D01*
X118561747Y-79403598D01*
X118547133Y-79383893D01*
X118534520Y-79362849D01*
X118524030Y-79340671D01*
X118515765Y-79317571D01*
X118509804Y-79293773D01*
X118506204Y-79269504D01*
X118505000Y-79245000D01*
X118505000Y-78495000D01*
X118506204Y-78470496D01*
X118509804Y-78446227D01*
X118515765Y-78422429D01*
X118524030Y-78399329D01*
X118534520Y-78377151D01*
X118547133Y-78356107D01*
X118561747Y-78336402D01*
X118578223Y-78318223D01*
X118596402Y-78301747D01*
X118616107Y-78287133D01*
X118637151Y-78274520D01*
X118659329Y-78264030D01*
X118682429Y-78255765D01*
X118706227Y-78249804D01*
X118730496Y-78246204D01*
X118755000Y-78245000D01*
X120005000Y-78245000D01*
X120029504Y-78246204D01*
X120029504Y-78246204D01*
G37*
D11*
X119380000Y-78870000D03*
D10*
G36*
X120029504Y-75446204D02*
G01*
X120053773Y-75449804D01*
X120077571Y-75455765D01*
X120100671Y-75464030D01*
X120122849Y-75474520D01*
X120143893Y-75487133D01*
X120163598Y-75501747D01*
X120181777Y-75518223D01*
X120198253Y-75536402D01*
X120212867Y-75556107D01*
X120225480Y-75577151D01*
X120235970Y-75599329D01*
X120244235Y-75622429D01*
X120250196Y-75646227D01*
X120253796Y-75670496D01*
X120255000Y-75695000D01*
X120255000Y-76445000D01*
X120253796Y-76469504D01*
X120250196Y-76493773D01*
X120244235Y-76517571D01*
X120235970Y-76540671D01*
X120225480Y-76562849D01*
X120212867Y-76583893D01*
X120198253Y-76603598D01*
X120181777Y-76621777D01*
X120163598Y-76638253D01*
X120143893Y-76652867D01*
X120122849Y-76665480D01*
X120100671Y-76675970D01*
X120077571Y-76684235D01*
X120053773Y-76690196D01*
X120029504Y-76693796D01*
X120005000Y-76695000D01*
X118755000Y-76695000D01*
X118730496Y-76693796D01*
X118706227Y-76690196D01*
X118682429Y-76684235D01*
X118659329Y-76675970D01*
X118637151Y-76665480D01*
X118616107Y-76652867D01*
X118596402Y-76638253D01*
X118578223Y-76621777D01*
X118561747Y-76603598D01*
X118547133Y-76583893D01*
X118534520Y-76562849D01*
X118524030Y-76540671D01*
X118515765Y-76517571D01*
X118509804Y-76493773D01*
X118506204Y-76469504D01*
X118505000Y-76445000D01*
X118505000Y-75695000D01*
X118506204Y-75670496D01*
X118509804Y-75646227D01*
X118515765Y-75622429D01*
X118524030Y-75599329D01*
X118534520Y-75577151D01*
X118547133Y-75556107D01*
X118561747Y-75536402D01*
X118578223Y-75518223D01*
X118596402Y-75501747D01*
X118616107Y-75487133D01*
X118637151Y-75474520D01*
X118659329Y-75464030D01*
X118682429Y-75455765D01*
X118706227Y-75449804D01*
X118730496Y-75446204D01*
X118755000Y-75445000D01*
X120005000Y-75445000D01*
X120029504Y-75446204D01*
X120029504Y-75446204D01*
G37*
D11*
X119380000Y-76070000D03*
D10*
G36*
X140604504Y-74437204D02*
G01*
X140628773Y-74440804D01*
X140652571Y-74446765D01*
X140675671Y-74455030D01*
X140697849Y-74465520D01*
X140718893Y-74478133D01*
X140738598Y-74492747D01*
X140756777Y-74509223D01*
X140773253Y-74527402D01*
X140787867Y-74547107D01*
X140800480Y-74568151D01*
X140810970Y-74590329D01*
X140819235Y-74613429D01*
X140825196Y-74637227D01*
X140828796Y-74661496D01*
X140830000Y-74686000D01*
X140830000Y-75936000D01*
X140828796Y-75960504D01*
X140825196Y-75984773D01*
X140819235Y-76008571D01*
X140810970Y-76031671D01*
X140800480Y-76053849D01*
X140787867Y-76074893D01*
X140773253Y-76094598D01*
X140756777Y-76112777D01*
X140738598Y-76129253D01*
X140718893Y-76143867D01*
X140697849Y-76156480D01*
X140675671Y-76166970D01*
X140652571Y-76175235D01*
X140628773Y-76181196D01*
X140604504Y-76184796D01*
X140580000Y-76186000D01*
X139830000Y-76186000D01*
X139805496Y-76184796D01*
X139781227Y-76181196D01*
X139757429Y-76175235D01*
X139734329Y-76166970D01*
X139712151Y-76156480D01*
X139691107Y-76143867D01*
X139671402Y-76129253D01*
X139653223Y-76112777D01*
X139636747Y-76094598D01*
X139622133Y-76074893D01*
X139609520Y-76053849D01*
X139599030Y-76031671D01*
X139590765Y-76008571D01*
X139584804Y-75984773D01*
X139581204Y-75960504D01*
X139580000Y-75936000D01*
X139580000Y-74686000D01*
X139581204Y-74661496D01*
X139584804Y-74637227D01*
X139590765Y-74613429D01*
X139599030Y-74590329D01*
X139609520Y-74568151D01*
X139622133Y-74547107D01*
X139636747Y-74527402D01*
X139653223Y-74509223D01*
X139671402Y-74492747D01*
X139691107Y-74478133D01*
X139712151Y-74465520D01*
X139734329Y-74455030D01*
X139757429Y-74446765D01*
X139781227Y-74440804D01*
X139805496Y-74437204D01*
X139830000Y-74436000D01*
X140580000Y-74436000D01*
X140604504Y-74437204D01*
X140604504Y-74437204D01*
G37*
D11*
X140205000Y-75311000D03*
D10*
G36*
X143404504Y-74437204D02*
G01*
X143428773Y-74440804D01*
X143452571Y-74446765D01*
X143475671Y-74455030D01*
X143497849Y-74465520D01*
X143518893Y-74478133D01*
X143538598Y-74492747D01*
X143556777Y-74509223D01*
X143573253Y-74527402D01*
X143587867Y-74547107D01*
X143600480Y-74568151D01*
X143610970Y-74590329D01*
X143619235Y-74613429D01*
X143625196Y-74637227D01*
X143628796Y-74661496D01*
X143630000Y-74686000D01*
X143630000Y-75936000D01*
X143628796Y-75960504D01*
X143625196Y-75984773D01*
X143619235Y-76008571D01*
X143610970Y-76031671D01*
X143600480Y-76053849D01*
X143587867Y-76074893D01*
X143573253Y-76094598D01*
X143556777Y-76112777D01*
X143538598Y-76129253D01*
X143518893Y-76143867D01*
X143497849Y-76156480D01*
X143475671Y-76166970D01*
X143452571Y-76175235D01*
X143428773Y-76181196D01*
X143404504Y-76184796D01*
X143380000Y-76186000D01*
X142630000Y-76186000D01*
X142605496Y-76184796D01*
X142581227Y-76181196D01*
X142557429Y-76175235D01*
X142534329Y-76166970D01*
X142512151Y-76156480D01*
X142491107Y-76143867D01*
X142471402Y-76129253D01*
X142453223Y-76112777D01*
X142436747Y-76094598D01*
X142422133Y-76074893D01*
X142409520Y-76053849D01*
X142399030Y-76031671D01*
X142390765Y-76008571D01*
X142384804Y-75984773D01*
X142381204Y-75960504D01*
X142380000Y-75936000D01*
X142380000Y-74686000D01*
X142381204Y-74661496D01*
X142384804Y-74637227D01*
X142390765Y-74613429D01*
X142399030Y-74590329D01*
X142409520Y-74568151D01*
X142422133Y-74547107D01*
X142436747Y-74527402D01*
X142453223Y-74509223D01*
X142471402Y-74492747D01*
X142491107Y-74478133D01*
X142512151Y-74465520D01*
X142534329Y-74455030D01*
X142557429Y-74446765D01*
X142581227Y-74440804D01*
X142605496Y-74437204D01*
X142630000Y-74436000D01*
X143380000Y-74436000D01*
X143404504Y-74437204D01*
X143404504Y-74437204D01*
G37*
D11*
X143005000Y-75311000D03*
D10*
G36*
X111899504Y-62626204D02*
G01*
X111923773Y-62629804D01*
X111947571Y-62635765D01*
X111970671Y-62644030D01*
X111992849Y-62654520D01*
X112013893Y-62667133D01*
X112033598Y-62681747D01*
X112051777Y-62698223D01*
X112068253Y-62716402D01*
X112082867Y-62736107D01*
X112095480Y-62757151D01*
X112105970Y-62779329D01*
X112114235Y-62802429D01*
X112120196Y-62826227D01*
X112123796Y-62850496D01*
X112125000Y-62875000D01*
X112125000Y-64125000D01*
X112123796Y-64149504D01*
X112120196Y-64173773D01*
X112114235Y-64197571D01*
X112105970Y-64220671D01*
X112095480Y-64242849D01*
X112082867Y-64263893D01*
X112068253Y-64283598D01*
X112051777Y-64301777D01*
X112033598Y-64318253D01*
X112013893Y-64332867D01*
X111992849Y-64345480D01*
X111970671Y-64355970D01*
X111947571Y-64364235D01*
X111923773Y-64370196D01*
X111899504Y-64373796D01*
X111875000Y-64375000D01*
X111125000Y-64375000D01*
X111100496Y-64373796D01*
X111076227Y-64370196D01*
X111052429Y-64364235D01*
X111029329Y-64355970D01*
X111007151Y-64345480D01*
X110986107Y-64332867D01*
X110966402Y-64318253D01*
X110948223Y-64301777D01*
X110931747Y-64283598D01*
X110917133Y-64263893D01*
X110904520Y-64242849D01*
X110894030Y-64220671D01*
X110885765Y-64197571D01*
X110879804Y-64173773D01*
X110876204Y-64149504D01*
X110875000Y-64125000D01*
X110875000Y-62875000D01*
X110876204Y-62850496D01*
X110879804Y-62826227D01*
X110885765Y-62802429D01*
X110894030Y-62779329D01*
X110904520Y-62757151D01*
X110917133Y-62736107D01*
X110931747Y-62716402D01*
X110948223Y-62698223D01*
X110966402Y-62681747D01*
X110986107Y-62667133D01*
X111007151Y-62654520D01*
X111029329Y-62644030D01*
X111052429Y-62635765D01*
X111076227Y-62629804D01*
X111100496Y-62626204D01*
X111125000Y-62625000D01*
X111875000Y-62625000D01*
X111899504Y-62626204D01*
X111899504Y-62626204D01*
G37*
D11*
X111500000Y-63500000D03*
D10*
G36*
X114699504Y-62626204D02*
G01*
X114723773Y-62629804D01*
X114747571Y-62635765D01*
X114770671Y-62644030D01*
X114792849Y-62654520D01*
X114813893Y-62667133D01*
X114833598Y-62681747D01*
X114851777Y-62698223D01*
X114868253Y-62716402D01*
X114882867Y-62736107D01*
X114895480Y-62757151D01*
X114905970Y-62779329D01*
X114914235Y-62802429D01*
X114920196Y-62826227D01*
X114923796Y-62850496D01*
X114925000Y-62875000D01*
X114925000Y-64125000D01*
X114923796Y-64149504D01*
X114920196Y-64173773D01*
X114914235Y-64197571D01*
X114905970Y-64220671D01*
X114895480Y-64242849D01*
X114882867Y-64263893D01*
X114868253Y-64283598D01*
X114851777Y-64301777D01*
X114833598Y-64318253D01*
X114813893Y-64332867D01*
X114792849Y-64345480D01*
X114770671Y-64355970D01*
X114747571Y-64364235D01*
X114723773Y-64370196D01*
X114699504Y-64373796D01*
X114675000Y-64375000D01*
X113925000Y-64375000D01*
X113900496Y-64373796D01*
X113876227Y-64370196D01*
X113852429Y-64364235D01*
X113829329Y-64355970D01*
X113807151Y-64345480D01*
X113786107Y-64332867D01*
X113766402Y-64318253D01*
X113748223Y-64301777D01*
X113731747Y-64283598D01*
X113717133Y-64263893D01*
X113704520Y-64242849D01*
X113694030Y-64220671D01*
X113685765Y-64197571D01*
X113679804Y-64173773D01*
X113676204Y-64149504D01*
X113675000Y-64125000D01*
X113675000Y-62875000D01*
X113676204Y-62850496D01*
X113679804Y-62826227D01*
X113685765Y-62802429D01*
X113694030Y-62779329D01*
X113704520Y-62757151D01*
X113717133Y-62736107D01*
X113731747Y-62716402D01*
X113748223Y-62698223D01*
X113766402Y-62681747D01*
X113786107Y-62667133D01*
X113807151Y-62654520D01*
X113829329Y-62644030D01*
X113852429Y-62635765D01*
X113876227Y-62629804D01*
X113900496Y-62626204D01*
X113925000Y-62625000D01*
X114675000Y-62625000D01*
X114699504Y-62626204D01*
X114699504Y-62626204D01*
G37*
D11*
X114300000Y-63500000D03*
D10*
G36*
X108624504Y-55351204D02*
G01*
X108648773Y-55354804D01*
X108672571Y-55360765D01*
X108695671Y-55369030D01*
X108717849Y-55379520D01*
X108738893Y-55392133D01*
X108758598Y-55406747D01*
X108776777Y-55423223D01*
X108793253Y-55441402D01*
X108807867Y-55461107D01*
X108820480Y-55482151D01*
X108830970Y-55504329D01*
X108839235Y-55527429D01*
X108845196Y-55551227D01*
X108848796Y-55575496D01*
X108850000Y-55600000D01*
X108850000Y-58700000D01*
X108848796Y-58724504D01*
X108845196Y-58748773D01*
X108839235Y-58772571D01*
X108830970Y-58795671D01*
X108820480Y-58817849D01*
X108807867Y-58838893D01*
X108793253Y-58858598D01*
X108776777Y-58876777D01*
X108758598Y-58893253D01*
X108738893Y-58907867D01*
X108717849Y-58920480D01*
X108695671Y-58930970D01*
X108672571Y-58939235D01*
X108648773Y-58945196D01*
X108624504Y-58948796D01*
X108600000Y-58950000D01*
X107300000Y-58950000D01*
X107275496Y-58948796D01*
X107251227Y-58945196D01*
X107227429Y-58939235D01*
X107204329Y-58930970D01*
X107182151Y-58920480D01*
X107161107Y-58907867D01*
X107141402Y-58893253D01*
X107123223Y-58876777D01*
X107106747Y-58858598D01*
X107092133Y-58838893D01*
X107079520Y-58817849D01*
X107069030Y-58795671D01*
X107060765Y-58772571D01*
X107054804Y-58748773D01*
X107051204Y-58724504D01*
X107050000Y-58700000D01*
X107050000Y-55600000D01*
X107051204Y-55575496D01*
X107054804Y-55551227D01*
X107060765Y-55527429D01*
X107069030Y-55504329D01*
X107079520Y-55482151D01*
X107092133Y-55461107D01*
X107106747Y-55441402D01*
X107123223Y-55423223D01*
X107141402Y-55406747D01*
X107161107Y-55392133D01*
X107182151Y-55379520D01*
X107204329Y-55369030D01*
X107227429Y-55360765D01*
X107251227Y-55354804D01*
X107275496Y-55351204D01*
X107300000Y-55350000D01*
X108600000Y-55350000D01*
X108624504Y-55351204D01*
X108624504Y-55351204D01*
G37*
D12*
X107950000Y-57150000D03*
D13*
X111450000Y-57150000D03*
D10*
G36*
X178104504Y-70221204D02*
G01*
X178128773Y-70224804D01*
X178152571Y-70230765D01*
X178175671Y-70239030D01*
X178197849Y-70249520D01*
X178218893Y-70262133D01*
X178238598Y-70276747D01*
X178256777Y-70293223D01*
X178273253Y-70311402D01*
X178287867Y-70331107D01*
X178300480Y-70352151D01*
X178310970Y-70374329D01*
X178319235Y-70397429D01*
X178325196Y-70421227D01*
X178328796Y-70445496D01*
X178330000Y-70470000D01*
X178330000Y-71770000D01*
X178328796Y-71794504D01*
X178325196Y-71818773D01*
X178319235Y-71842571D01*
X178310970Y-71865671D01*
X178300480Y-71887849D01*
X178287867Y-71908893D01*
X178273253Y-71928598D01*
X178256777Y-71946777D01*
X178238598Y-71963253D01*
X178218893Y-71977867D01*
X178197849Y-71990480D01*
X178175671Y-72000970D01*
X178152571Y-72009235D01*
X178128773Y-72015196D01*
X178104504Y-72018796D01*
X178080000Y-72020000D01*
X174980000Y-72020000D01*
X174955496Y-72018796D01*
X174931227Y-72015196D01*
X174907429Y-72009235D01*
X174884329Y-72000970D01*
X174862151Y-71990480D01*
X174841107Y-71977867D01*
X174821402Y-71963253D01*
X174803223Y-71946777D01*
X174786747Y-71928598D01*
X174772133Y-71908893D01*
X174759520Y-71887849D01*
X174749030Y-71865671D01*
X174740765Y-71842571D01*
X174734804Y-71818773D01*
X174731204Y-71794504D01*
X174730000Y-71770000D01*
X174730000Y-70470000D01*
X174731204Y-70445496D01*
X174734804Y-70421227D01*
X174740765Y-70397429D01*
X174749030Y-70374329D01*
X174759520Y-70352151D01*
X174772133Y-70331107D01*
X174786747Y-70311402D01*
X174803223Y-70293223D01*
X174821402Y-70276747D01*
X174841107Y-70262133D01*
X174862151Y-70249520D01*
X174884329Y-70239030D01*
X174907429Y-70230765D01*
X174931227Y-70224804D01*
X174955496Y-70221204D01*
X174980000Y-70220000D01*
X178080000Y-70220000D01*
X178104504Y-70221204D01*
X178104504Y-70221204D01*
G37*
D12*
X176530000Y-71120000D03*
D14*
X176530000Y-74620000D03*
X176530000Y-78120000D03*
X176530000Y-81620000D03*
D10*
G36*
X120054504Y-55351204D02*
G01*
X120078773Y-55354804D01*
X120102571Y-55360765D01*
X120125671Y-55369030D01*
X120147849Y-55379520D01*
X120168893Y-55392133D01*
X120188598Y-55406747D01*
X120206777Y-55423223D01*
X120223253Y-55441402D01*
X120237867Y-55461107D01*
X120250480Y-55482151D01*
X120260970Y-55504329D01*
X120269235Y-55527429D01*
X120275196Y-55551227D01*
X120278796Y-55575496D01*
X120280000Y-55600000D01*
X120280000Y-58700000D01*
X120278796Y-58724504D01*
X120275196Y-58748773D01*
X120269235Y-58772571D01*
X120260970Y-58795671D01*
X120250480Y-58817849D01*
X120237867Y-58838893D01*
X120223253Y-58858598D01*
X120206777Y-58876777D01*
X120188598Y-58893253D01*
X120168893Y-58907867D01*
X120147849Y-58920480D01*
X120125671Y-58930970D01*
X120102571Y-58939235D01*
X120078773Y-58945196D01*
X120054504Y-58948796D01*
X120030000Y-58950000D01*
X118730000Y-58950000D01*
X118705496Y-58948796D01*
X118681227Y-58945196D01*
X118657429Y-58939235D01*
X118634329Y-58930970D01*
X118612151Y-58920480D01*
X118591107Y-58907867D01*
X118571402Y-58893253D01*
X118553223Y-58876777D01*
X118536747Y-58858598D01*
X118522133Y-58838893D01*
X118509520Y-58817849D01*
X118499030Y-58795671D01*
X118490765Y-58772571D01*
X118484804Y-58748773D01*
X118481204Y-58724504D01*
X118480000Y-58700000D01*
X118480000Y-55600000D01*
X118481204Y-55575496D01*
X118484804Y-55551227D01*
X118490765Y-55527429D01*
X118499030Y-55504329D01*
X118509520Y-55482151D01*
X118522133Y-55461107D01*
X118536747Y-55441402D01*
X118553223Y-55423223D01*
X118571402Y-55406747D01*
X118591107Y-55392133D01*
X118612151Y-55379520D01*
X118634329Y-55369030D01*
X118657429Y-55360765D01*
X118681227Y-55354804D01*
X118705496Y-55351204D01*
X118730000Y-55350000D01*
X120030000Y-55350000D01*
X120054504Y-55351204D01*
X120054504Y-55351204D01*
G37*
D12*
X119380000Y-57150000D03*
D13*
X122880000Y-57150000D03*
X126380000Y-57150000D03*
X129880000Y-57150000D03*
X133380000Y-57150000D03*
X152740000Y-57150000D03*
X149240000Y-57150000D03*
X145740000Y-57150000D03*
D10*
G36*
X142914504Y-55351204D02*
G01*
X142938773Y-55354804D01*
X142962571Y-55360765D01*
X142985671Y-55369030D01*
X143007849Y-55379520D01*
X143028893Y-55392133D01*
X143048598Y-55406747D01*
X143066777Y-55423223D01*
X143083253Y-55441402D01*
X143097867Y-55461107D01*
X143110480Y-55482151D01*
X143120970Y-55504329D01*
X143129235Y-55527429D01*
X143135196Y-55551227D01*
X143138796Y-55575496D01*
X143140000Y-55600000D01*
X143140000Y-58700000D01*
X143138796Y-58724504D01*
X143135196Y-58748773D01*
X143129235Y-58772571D01*
X143120970Y-58795671D01*
X143110480Y-58817849D01*
X143097867Y-58838893D01*
X143083253Y-58858598D01*
X143066777Y-58876777D01*
X143048598Y-58893253D01*
X143028893Y-58907867D01*
X143007849Y-58920480D01*
X142985671Y-58930970D01*
X142962571Y-58939235D01*
X142938773Y-58945196D01*
X142914504Y-58948796D01*
X142890000Y-58950000D01*
X141590000Y-58950000D01*
X141565496Y-58948796D01*
X141541227Y-58945196D01*
X141517429Y-58939235D01*
X141494329Y-58930970D01*
X141472151Y-58920480D01*
X141451107Y-58907867D01*
X141431402Y-58893253D01*
X141413223Y-58876777D01*
X141396747Y-58858598D01*
X141382133Y-58838893D01*
X141369520Y-58817849D01*
X141359030Y-58795671D01*
X141350765Y-58772571D01*
X141344804Y-58748773D01*
X141341204Y-58724504D01*
X141340000Y-58700000D01*
X141340000Y-55600000D01*
X141341204Y-55575496D01*
X141344804Y-55551227D01*
X141350765Y-55527429D01*
X141359030Y-55504329D01*
X141369520Y-55482151D01*
X141382133Y-55461107D01*
X141396747Y-55441402D01*
X141413223Y-55423223D01*
X141431402Y-55406747D01*
X141451107Y-55392133D01*
X141472151Y-55379520D01*
X141494329Y-55369030D01*
X141517429Y-55360765D01*
X141541227Y-55354804D01*
X141565496Y-55351204D01*
X141590000Y-55350000D01*
X142890000Y-55350000D01*
X142914504Y-55351204D01*
X142914504Y-55351204D01*
G37*
D12*
X142240000Y-57150000D03*
D10*
G36*
X161964504Y-55351204D02*
G01*
X161988773Y-55354804D01*
X162012571Y-55360765D01*
X162035671Y-55369030D01*
X162057849Y-55379520D01*
X162078893Y-55392133D01*
X162098598Y-55406747D01*
X162116777Y-55423223D01*
X162133253Y-55441402D01*
X162147867Y-55461107D01*
X162160480Y-55482151D01*
X162170970Y-55504329D01*
X162179235Y-55527429D01*
X162185196Y-55551227D01*
X162188796Y-55575496D01*
X162190000Y-55600000D01*
X162190000Y-58700000D01*
X162188796Y-58724504D01*
X162185196Y-58748773D01*
X162179235Y-58772571D01*
X162170970Y-58795671D01*
X162160480Y-58817849D01*
X162147867Y-58838893D01*
X162133253Y-58858598D01*
X162116777Y-58876777D01*
X162098598Y-58893253D01*
X162078893Y-58907867D01*
X162057849Y-58920480D01*
X162035671Y-58930970D01*
X162012571Y-58939235D01*
X161988773Y-58945196D01*
X161964504Y-58948796D01*
X161940000Y-58950000D01*
X160640000Y-58950000D01*
X160615496Y-58948796D01*
X160591227Y-58945196D01*
X160567429Y-58939235D01*
X160544329Y-58930970D01*
X160522151Y-58920480D01*
X160501107Y-58907867D01*
X160481402Y-58893253D01*
X160463223Y-58876777D01*
X160446747Y-58858598D01*
X160432133Y-58838893D01*
X160419520Y-58817849D01*
X160409030Y-58795671D01*
X160400765Y-58772571D01*
X160394804Y-58748773D01*
X160391204Y-58724504D01*
X160390000Y-58700000D01*
X160390000Y-55600000D01*
X160391204Y-55575496D01*
X160394804Y-55551227D01*
X160400765Y-55527429D01*
X160409030Y-55504329D01*
X160419520Y-55482151D01*
X160432133Y-55461107D01*
X160446747Y-55441402D01*
X160463223Y-55423223D01*
X160481402Y-55406747D01*
X160501107Y-55392133D01*
X160522151Y-55379520D01*
X160544329Y-55369030D01*
X160567429Y-55360765D01*
X160591227Y-55354804D01*
X160615496Y-55351204D01*
X160640000Y-55350000D01*
X161940000Y-55350000D01*
X161964504Y-55351204D01*
X161964504Y-55351204D01*
G37*
D12*
X161290000Y-57150000D03*
D13*
X164790000Y-57150000D03*
X168290000Y-57150000D03*
X171790000Y-57150000D03*
D10*
G36*
X118597004Y-84851204D02*
G01*
X118621273Y-84854804D01*
X118645071Y-84860765D01*
X118668171Y-84869030D01*
X118690349Y-84879520D01*
X118711393Y-84892133D01*
X118731098Y-84906747D01*
X118749277Y-84923223D01*
X118765753Y-84941402D01*
X118780367Y-84961107D01*
X118792980Y-84982151D01*
X118803470Y-85004329D01*
X118811735Y-85027429D01*
X118817696Y-85051227D01*
X118821296Y-85075496D01*
X118822500Y-85100000D01*
X118822500Y-86350000D01*
X118821296Y-86374504D01*
X118817696Y-86398773D01*
X118811735Y-86422571D01*
X118803470Y-86445671D01*
X118792980Y-86467849D01*
X118780367Y-86488893D01*
X118765753Y-86508598D01*
X118749277Y-86526777D01*
X118731098Y-86543253D01*
X118711393Y-86557867D01*
X118690349Y-86570480D01*
X118668171Y-86580970D01*
X118645071Y-86589235D01*
X118621273Y-86595196D01*
X118597004Y-86598796D01*
X118572500Y-86600000D01*
X117647500Y-86600000D01*
X117622996Y-86598796D01*
X117598727Y-86595196D01*
X117574929Y-86589235D01*
X117551829Y-86580970D01*
X117529651Y-86570480D01*
X117508607Y-86557867D01*
X117488902Y-86543253D01*
X117470723Y-86526777D01*
X117454247Y-86508598D01*
X117439633Y-86488893D01*
X117427020Y-86467849D01*
X117416530Y-86445671D01*
X117408265Y-86422571D01*
X117402304Y-86398773D01*
X117398704Y-86374504D01*
X117397500Y-86350000D01*
X117397500Y-85100000D01*
X117398704Y-85075496D01*
X117402304Y-85051227D01*
X117408265Y-85027429D01*
X117416530Y-85004329D01*
X117427020Y-84982151D01*
X117439633Y-84961107D01*
X117454247Y-84941402D01*
X117470723Y-84923223D01*
X117488902Y-84906747D01*
X117508607Y-84892133D01*
X117529651Y-84879520D01*
X117551829Y-84869030D01*
X117574929Y-84860765D01*
X117598727Y-84854804D01*
X117622996Y-84851204D01*
X117647500Y-84850000D01*
X118572500Y-84850000D01*
X118597004Y-84851204D01*
X118597004Y-84851204D01*
G37*
D15*
X118110000Y-85725000D03*
D10*
G36*
X115622004Y-84851204D02*
G01*
X115646273Y-84854804D01*
X115670071Y-84860765D01*
X115693171Y-84869030D01*
X115715349Y-84879520D01*
X115736393Y-84892133D01*
X115756098Y-84906747D01*
X115774277Y-84923223D01*
X115790753Y-84941402D01*
X115805367Y-84961107D01*
X115817980Y-84982151D01*
X115828470Y-85004329D01*
X115836735Y-85027429D01*
X115842696Y-85051227D01*
X115846296Y-85075496D01*
X115847500Y-85100000D01*
X115847500Y-86350000D01*
X115846296Y-86374504D01*
X115842696Y-86398773D01*
X115836735Y-86422571D01*
X115828470Y-86445671D01*
X115817980Y-86467849D01*
X115805367Y-86488893D01*
X115790753Y-86508598D01*
X115774277Y-86526777D01*
X115756098Y-86543253D01*
X115736393Y-86557867D01*
X115715349Y-86570480D01*
X115693171Y-86580970D01*
X115670071Y-86589235D01*
X115646273Y-86595196D01*
X115622004Y-86598796D01*
X115597500Y-86600000D01*
X114672500Y-86600000D01*
X114647996Y-86598796D01*
X114623727Y-86595196D01*
X114599929Y-86589235D01*
X114576829Y-86580970D01*
X114554651Y-86570480D01*
X114533607Y-86557867D01*
X114513902Y-86543253D01*
X114495723Y-86526777D01*
X114479247Y-86508598D01*
X114464633Y-86488893D01*
X114452020Y-86467849D01*
X114441530Y-86445671D01*
X114433265Y-86422571D01*
X114427304Y-86398773D01*
X114423704Y-86374504D01*
X114422500Y-86350000D01*
X114422500Y-85100000D01*
X114423704Y-85075496D01*
X114427304Y-85051227D01*
X114433265Y-85027429D01*
X114441530Y-85004329D01*
X114452020Y-84982151D01*
X114464633Y-84961107D01*
X114479247Y-84941402D01*
X114495723Y-84923223D01*
X114513902Y-84906747D01*
X114533607Y-84892133D01*
X114554651Y-84879520D01*
X114576829Y-84869030D01*
X114599929Y-84860765D01*
X114623727Y-84854804D01*
X114647996Y-84851204D01*
X114672500Y-84850000D01*
X115597500Y-84850000D01*
X115622004Y-84851204D01*
X115622004Y-84851204D01*
G37*
D15*
X115135000Y-85725000D03*
D10*
G36*
X115622004Y-81422204D02*
G01*
X115646273Y-81425804D01*
X115670071Y-81431765D01*
X115693171Y-81440030D01*
X115715349Y-81450520D01*
X115736393Y-81463133D01*
X115756098Y-81477747D01*
X115774277Y-81494223D01*
X115790753Y-81512402D01*
X115805367Y-81532107D01*
X115817980Y-81553151D01*
X115828470Y-81575329D01*
X115836735Y-81598429D01*
X115842696Y-81622227D01*
X115846296Y-81646496D01*
X115847500Y-81671000D01*
X115847500Y-82921000D01*
X115846296Y-82945504D01*
X115842696Y-82969773D01*
X115836735Y-82993571D01*
X115828470Y-83016671D01*
X115817980Y-83038849D01*
X115805367Y-83059893D01*
X115790753Y-83079598D01*
X115774277Y-83097777D01*
X115756098Y-83114253D01*
X115736393Y-83128867D01*
X115715349Y-83141480D01*
X115693171Y-83151970D01*
X115670071Y-83160235D01*
X115646273Y-83166196D01*
X115622004Y-83169796D01*
X115597500Y-83171000D01*
X114672500Y-83171000D01*
X114647996Y-83169796D01*
X114623727Y-83166196D01*
X114599929Y-83160235D01*
X114576829Y-83151970D01*
X114554651Y-83141480D01*
X114533607Y-83128867D01*
X114513902Y-83114253D01*
X114495723Y-83097777D01*
X114479247Y-83079598D01*
X114464633Y-83059893D01*
X114452020Y-83038849D01*
X114441530Y-83016671D01*
X114433265Y-82993571D01*
X114427304Y-82969773D01*
X114423704Y-82945504D01*
X114422500Y-82921000D01*
X114422500Y-81671000D01*
X114423704Y-81646496D01*
X114427304Y-81622227D01*
X114433265Y-81598429D01*
X114441530Y-81575329D01*
X114452020Y-81553151D01*
X114464633Y-81532107D01*
X114479247Y-81512402D01*
X114495723Y-81494223D01*
X114513902Y-81477747D01*
X114533607Y-81463133D01*
X114554651Y-81450520D01*
X114576829Y-81440030D01*
X114599929Y-81431765D01*
X114623727Y-81425804D01*
X114647996Y-81422204D01*
X114672500Y-81421000D01*
X115597500Y-81421000D01*
X115622004Y-81422204D01*
X115622004Y-81422204D01*
G37*
D15*
X115135000Y-82296000D03*
D10*
G36*
X118597004Y-81422204D02*
G01*
X118621273Y-81425804D01*
X118645071Y-81431765D01*
X118668171Y-81440030D01*
X118690349Y-81450520D01*
X118711393Y-81463133D01*
X118731098Y-81477747D01*
X118749277Y-81494223D01*
X118765753Y-81512402D01*
X118780367Y-81532107D01*
X118792980Y-81553151D01*
X118803470Y-81575329D01*
X118811735Y-81598429D01*
X118817696Y-81622227D01*
X118821296Y-81646496D01*
X118822500Y-81671000D01*
X118822500Y-82921000D01*
X118821296Y-82945504D01*
X118817696Y-82969773D01*
X118811735Y-82993571D01*
X118803470Y-83016671D01*
X118792980Y-83038849D01*
X118780367Y-83059893D01*
X118765753Y-83079598D01*
X118749277Y-83097777D01*
X118731098Y-83114253D01*
X118711393Y-83128867D01*
X118690349Y-83141480D01*
X118668171Y-83151970D01*
X118645071Y-83160235D01*
X118621273Y-83166196D01*
X118597004Y-83169796D01*
X118572500Y-83171000D01*
X117647500Y-83171000D01*
X117622996Y-83169796D01*
X117598727Y-83166196D01*
X117574929Y-83160235D01*
X117551829Y-83151970D01*
X117529651Y-83141480D01*
X117508607Y-83128867D01*
X117488902Y-83114253D01*
X117470723Y-83097777D01*
X117454247Y-83079598D01*
X117439633Y-83059893D01*
X117427020Y-83038849D01*
X117416530Y-83016671D01*
X117408265Y-82993571D01*
X117402304Y-82969773D01*
X117398704Y-82945504D01*
X117397500Y-82921000D01*
X117397500Y-81671000D01*
X117398704Y-81646496D01*
X117402304Y-81622227D01*
X117408265Y-81598429D01*
X117416530Y-81575329D01*
X117427020Y-81553151D01*
X117439633Y-81532107D01*
X117454247Y-81512402D01*
X117470723Y-81494223D01*
X117488902Y-81477747D01*
X117508607Y-81463133D01*
X117529651Y-81450520D01*
X117551829Y-81440030D01*
X117574929Y-81431765D01*
X117598727Y-81425804D01*
X117622996Y-81422204D01*
X117647500Y-81421000D01*
X118572500Y-81421000D01*
X118597004Y-81422204D01*
X118597004Y-81422204D01*
G37*
D15*
X118110000Y-82296000D03*
D10*
G36*
X108219504Y-72151204D02*
G01*
X108243773Y-72154804D01*
X108267571Y-72160765D01*
X108290671Y-72169030D01*
X108312849Y-72179520D01*
X108333893Y-72192133D01*
X108353598Y-72206747D01*
X108371777Y-72223223D01*
X108388253Y-72241402D01*
X108402867Y-72261107D01*
X108415480Y-72282151D01*
X108425970Y-72304329D01*
X108434235Y-72327429D01*
X108440196Y-72351227D01*
X108443796Y-72375496D01*
X108445000Y-72400000D01*
X108445000Y-73650000D01*
X108443796Y-73674504D01*
X108440196Y-73698773D01*
X108434235Y-73722571D01*
X108425970Y-73745671D01*
X108415480Y-73767849D01*
X108402867Y-73788893D01*
X108388253Y-73808598D01*
X108371777Y-73826777D01*
X108353598Y-73843253D01*
X108333893Y-73857867D01*
X108312849Y-73870480D01*
X108290671Y-73880970D01*
X108267571Y-73889235D01*
X108243773Y-73895196D01*
X108219504Y-73898796D01*
X108195000Y-73900000D01*
X107270000Y-73900000D01*
X107245496Y-73898796D01*
X107221227Y-73895196D01*
X107197429Y-73889235D01*
X107174329Y-73880970D01*
X107152151Y-73870480D01*
X107131107Y-73857867D01*
X107111402Y-73843253D01*
X107093223Y-73826777D01*
X107076747Y-73808598D01*
X107062133Y-73788893D01*
X107049520Y-73767849D01*
X107039030Y-73745671D01*
X107030765Y-73722571D01*
X107024804Y-73698773D01*
X107021204Y-73674504D01*
X107020000Y-73650000D01*
X107020000Y-72400000D01*
X107021204Y-72375496D01*
X107024804Y-72351227D01*
X107030765Y-72327429D01*
X107039030Y-72304329D01*
X107049520Y-72282151D01*
X107062133Y-72261107D01*
X107076747Y-72241402D01*
X107093223Y-72223223D01*
X107111402Y-72206747D01*
X107131107Y-72192133D01*
X107152151Y-72179520D01*
X107174329Y-72169030D01*
X107197429Y-72160765D01*
X107221227Y-72154804D01*
X107245496Y-72151204D01*
X107270000Y-72150000D01*
X108195000Y-72150000D01*
X108219504Y-72151204D01*
X108219504Y-72151204D01*
G37*
D15*
X107732500Y-73025000D03*
D10*
G36*
X111194504Y-72151204D02*
G01*
X111218773Y-72154804D01*
X111242571Y-72160765D01*
X111265671Y-72169030D01*
X111287849Y-72179520D01*
X111308893Y-72192133D01*
X111328598Y-72206747D01*
X111346777Y-72223223D01*
X111363253Y-72241402D01*
X111377867Y-72261107D01*
X111390480Y-72282151D01*
X111400970Y-72304329D01*
X111409235Y-72327429D01*
X111415196Y-72351227D01*
X111418796Y-72375496D01*
X111420000Y-72400000D01*
X111420000Y-73650000D01*
X111418796Y-73674504D01*
X111415196Y-73698773D01*
X111409235Y-73722571D01*
X111400970Y-73745671D01*
X111390480Y-73767849D01*
X111377867Y-73788893D01*
X111363253Y-73808598D01*
X111346777Y-73826777D01*
X111328598Y-73843253D01*
X111308893Y-73857867D01*
X111287849Y-73870480D01*
X111265671Y-73880970D01*
X111242571Y-73889235D01*
X111218773Y-73895196D01*
X111194504Y-73898796D01*
X111170000Y-73900000D01*
X110245000Y-73900000D01*
X110220496Y-73898796D01*
X110196227Y-73895196D01*
X110172429Y-73889235D01*
X110149329Y-73880970D01*
X110127151Y-73870480D01*
X110106107Y-73857867D01*
X110086402Y-73843253D01*
X110068223Y-73826777D01*
X110051747Y-73808598D01*
X110037133Y-73788893D01*
X110024520Y-73767849D01*
X110014030Y-73745671D01*
X110005765Y-73722571D01*
X109999804Y-73698773D01*
X109996204Y-73674504D01*
X109995000Y-73650000D01*
X109995000Y-72400000D01*
X109996204Y-72375496D01*
X109999804Y-72351227D01*
X110005765Y-72327429D01*
X110014030Y-72304329D01*
X110024520Y-72282151D01*
X110037133Y-72261107D01*
X110051747Y-72241402D01*
X110068223Y-72223223D01*
X110086402Y-72206747D01*
X110106107Y-72192133D01*
X110127151Y-72179520D01*
X110149329Y-72169030D01*
X110172429Y-72160765D01*
X110196227Y-72154804D01*
X110220496Y-72151204D01*
X110245000Y-72150000D01*
X111170000Y-72150000D01*
X111194504Y-72151204D01*
X111194504Y-72151204D01*
G37*
D15*
X110707500Y-73025000D03*
D16*
X159385000Y-86360000D03*
X144780000Y-78105000D03*
D17*
X127000000Y-88900000D03*
X130810000Y-86360000D03*
X134620000Y-83820000D03*
X139700000Y-91440000D03*
X138811000Y-71374000D03*
X149098000Y-89789000D03*
D16*
X149225000Y-84645500D03*
X142873500Y-69467500D03*
D17*
X150495000Y-92075000D03*
X138049000Y-69977000D03*
D16*
X121417000Y-84460000D03*
X125860000Y-76832000D03*
D17*
X114935000Y-69850000D03*
X128270000Y-69850000D03*
D16*
X150876000Y-86360000D03*
X144780000Y-66675000D03*
D17*
X135890000Y-76835000D03*
D16*
X106045000Y-80645000D03*
D17*
X117983000Y-72898000D03*
X123126290Y-82994290D03*
X143764000Y-88773000D03*
D16*
X153162000Y-72136000D03*
D17*
X137058400Y-71221600D03*
X137058400Y-68808600D03*
X113030000Y-84836000D03*
X113362000Y-80772000D03*
D18*
X142873500Y-69467500D02*
X142875000Y-69466000D01*
X152974290Y-90995710D02*
X151574290Y-90995710D01*
X153670000Y-90300000D02*
X152974290Y-90995710D01*
X151574290Y-90995710D02*
X150495000Y-92075000D01*
X150495000Y-92075000D02*
X150495000Y-92075000D01*
D19*
X144653000Y-78232000D02*
X144780000Y-78105000D01*
D20*
X143129000Y-78105000D02*
X143002000Y-78232000D01*
X144780000Y-78105000D02*
X143129000Y-78105000D01*
X143570710Y-70161710D02*
X142875000Y-69466000D01*
X144780000Y-71371000D02*
X143570710Y-70161710D01*
X144780000Y-78105000D02*
X144780000Y-71371000D01*
X138049000Y-70542685D02*
X138049000Y-69977000D01*
X138049000Y-76804000D02*
X138049000Y-70542685D01*
X139477000Y-78232000D02*
X138049000Y-76804000D01*
X140202000Y-78232000D02*
X139477000Y-78232000D01*
D18*
X122047000Y-85090000D02*
X121417000Y-84460000D01*
X123060000Y-85090000D02*
X122047000Y-85090000D01*
X125860000Y-82290000D02*
X125860000Y-78740000D01*
X123060000Y-85090000D02*
X125860000Y-82290000D01*
X125860000Y-78740000D02*
X128270000Y-78740000D01*
X128270000Y-74930000D02*
X125860000Y-74930000D01*
X125860000Y-75905000D02*
X125860000Y-76832000D01*
X125860000Y-74930000D02*
X125860000Y-75905000D01*
X125860000Y-76832000D02*
X125860000Y-78740000D01*
D20*
X125135000Y-74930000D02*
X120055000Y-69850000D01*
X125860000Y-74930000D02*
X125135000Y-74930000D01*
X120055000Y-69850000D02*
X114935000Y-69850000D01*
X114935000Y-69850000D02*
X114935000Y-69850000D01*
X128270000Y-74930000D02*
X128270000Y-69850000D01*
X110907500Y-69850000D02*
X114935000Y-69850000D01*
X107732500Y-73025000D02*
X110907500Y-69850000D01*
X122930000Y-78870000D02*
X123060000Y-78740000D01*
X119380000Y-78870000D02*
X119380000Y-78870000D01*
X142875000Y-75181000D02*
X143005000Y-75311000D01*
D18*
X133380000Y-58050000D02*
X133380000Y-57150000D01*
X122880000Y-57150000D02*
X122880000Y-58050000D01*
D21*
X152720500Y-81150000D02*
X149225000Y-84645500D01*
X153670000Y-81150000D02*
X152720500Y-81150000D01*
X163700000Y-71120000D02*
X176530000Y-71120000D01*
X153670000Y-81150000D02*
X163700000Y-71120000D01*
D20*
X117983000Y-74673000D02*
X119380000Y-76070000D01*
X117983000Y-72898000D02*
X117983000Y-74673000D01*
X120075710Y-76765710D02*
X119380000Y-76070000D01*
X122109990Y-81977990D02*
X122109990Y-78799990D01*
X122109990Y-78799990D02*
X120075710Y-76765710D01*
X123126290Y-82994290D02*
X122109990Y-81977990D01*
X138811000Y-71939685D02*
X138811000Y-71374000D01*
X138811000Y-74642000D02*
X138811000Y-71939685D01*
X139480000Y-75311000D02*
X138811000Y-74642000D01*
X140205000Y-75311000D02*
X139480000Y-75311000D01*
D18*
X149098000Y-89789000D02*
X144780000Y-89789000D01*
X144780000Y-89789000D02*
X143764000Y-88773000D01*
X143764000Y-88773000D02*
X143764000Y-88773000D01*
D20*
X111500000Y-57200000D02*
X111450000Y-57150000D01*
X111500000Y-63500000D02*
X111500000Y-57200000D01*
D21*
X176530000Y-74620000D02*
X176530000Y-78120000D01*
D18*
X168148000Y-57150000D02*
X168290000Y-57150000D01*
X153162000Y-72136000D02*
X168148000Y-57150000D01*
D20*
X137058400Y-71221600D02*
X137058400Y-68808600D01*
X137058400Y-68808600D02*
X137058400Y-68808600D01*
X114246000Y-84836000D02*
X115135000Y-85725000D01*
X113030000Y-84836000D02*
X114246000Y-84836000D01*
X113611000Y-80772000D02*
X115135000Y-82296000D01*
X113362000Y-80772000D02*
X113611000Y-80772000D01*
D22*
G36*
X179578000Y-94488000D02*
G01*
X104902000Y-94488000D01*
X104902000Y-89710359D01*
X107059229Y-89710359D01*
X107059229Y-90289641D01*
X107172241Y-90857791D01*
X107393923Y-91392977D01*
X107715754Y-91874632D01*
X108125368Y-92284246D01*
X108607023Y-92606077D01*
X109142209Y-92827759D01*
X109710359Y-92940771D01*
X110289641Y-92940771D01*
X110857791Y-92827759D01*
X111392977Y-92606077D01*
X111874632Y-92284246D01*
X112185817Y-91973061D01*
X149460000Y-91973061D01*
X149460000Y-92176939D01*
X149499774Y-92376898D01*
X149577795Y-92565256D01*
X149691063Y-92734774D01*
X149835226Y-92878937D01*
X150004744Y-92992205D01*
X150193102Y-93070226D01*
X150393061Y-93110000D01*
X150596939Y-93110000D01*
X150796898Y-93070226D01*
X150985256Y-92992205D01*
X151154774Y-92878937D01*
X151298937Y-92734774D01*
X151412205Y-92565256D01*
X151490226Y-92376898D01*
X151523482Y-92209709D01*
X151914981Y-91818210D01*
X152933892Y-91818210D01*
X152974290Y-91822189D01*
X153014688Y-91818210D01*
X153135528Y-91806308D01*
X153290570Y-91759277D01*
X153433457Y-91682902D01*
X153558699Y-91580119D01*
X153572689Y-91563072D01*
X154295000Y-91563072D01*
X154468254Y-91546008D01*
X154634850Y-91495472D01*
X154788386Y-91413405D01*
X154922962Y-91302962D01*
X155033405Y-91168386D01*
X155115472Y-91014850D01*
X155166008Y-90848254D01*
X155183072Y-90675000D01*
X155183072Y-89925000D01*
X155166008Y-89751746D01*
X155153454Y-89710359D01*
X170059229Y-89710359D01*
X170059229Y-90289641D01*
X170172241Y-90857791D01*
X170393923Y-91392977D01*
X170715754Y-91874632D01*
X171125368Y-92284246D01*
X171607023Y-92606077D01*
X172142209Y-92827759D01*
X172710359Y-92940771D01*
X173289641Y-92940771D01*
X173857791Y-92827759D01*
X174392977Y-92606077D01*
X174874632Y-92284246D01*
X175284246Y-91874632D01*
X175606077Y-91392977D01*
X175827759Y-90857791D01*
X175940771Y-90289641D01*
X175940771Y-89710359D01*
X175827759Y-89142209D01*
X175606077Y-88607023D01*
X175284246Y-88125368D01*
X174874632Y-87715754D01*
X174392977Y-87393923D01*
X173857791Y-87172241D01*
X173289641Y-87059229D01*
X172710359Y-87059229D01*
X172142209Y-87172241D01*
X171607023Y-87393923D01*
X171125368Y-87715754D01*
X170715754Y-88125368D01*
X170393923Y-88607023D01*
X170172241Y-89142209D01*
X170059229Y-89710359D01*
X155153454Y-89710359D01*
X155115472Y-89585150D01*
X155033405Y-89431614D01*
X154922962Y-89297038D01*
X154788386Y-89186595D01*
X154634850Y-89104528D01*
X154468254Y-89053992D01*
X154295000Y-89036928D01*
X153045000Y-89036928D01*
X152871746Y-89053992D01*
X152705150Y-89104528D01*
X152551614Y-89186595D01*
X152417038Y-89297038D01*
X152306595Y-89431614D01*
X152224528Y-89585150D01*
X152173992Y-89751746D01*
X152156928Y-89925000D01*
X152156928Y-90173210D01*
X151614688Y-90173210D01*
X151574290Y-90169231D01*
X151533892Y-90173210D01*
X151413052Y-90185112D01*
X151258010Y-90232143D01*
X151115123Y-90308518D01*
X150989881Y-90411301D01*
X150964129Y-90442680D01*
X150360291Y-91046518D01*
X150193102Y-91079774D01*
X150004744Y-91157795D01*
X149835226Y-91271063D01*
X149691063Y-91415226D01*
X149577795Y-91584744D01*
X149499774Y-91773102D01*
X149460000Y-91973061D01*
X112185817Y-91973061D01*
X112284246Y-91874632D01*
X112606077Y-91392977D01*
X112827759Y-90857791D01*
X112940771Y-90289641D01*
X112940771Y-89710359D01*
X112827759Y-89142209D01*
X112632603Y-88671061D01*
X142729000Y-88671061D01*
X142729000Y-88874939D01*
X142768774Y-89074898D01*
X142846795Y-89263256D01*
X142960063Y-89432774D01*
X143104226Y-89576937D01*
X143273744Y-89690205D01*
X143462102Y-89768226D01*
X143629291Y-89801482D01*
X144169839Y-90342030D01*
X144195591Y-90373409D01*
X144320833Y-90476192D01*
X144463720Y-90552567D01*
X144618761Y-90599598D01*
X144780000Y-90615479D01*
X144820398Y-90611500D01*
X148466008Y-90611500D01*
X148607744Y-90706205D01*
X148796102Y-90784226D01*
X148996061Y-90824000D01*
X149199939Y-90824000D01*
X149399898Y-90784226D01*
X149588256Y-90706205D01*
X149757774Y-90592937D01*
X149901937Y-90448774D01*
X150015205Y-90279256D01*
X150093226Y-90090898D01*
X150133000Y-89890939D01*
X150133000Y-89687061D01*
X150093226Y-89487102D01*
X150015205Y-89298744D01*
X149901937Y-89129226D01*
X149757774Y-88985063D01*
X149588256Y-88871795D01*
X149399898Y-88793774D01*
X149199939Y-88754000D01*
X148996061Y-88754000D01*
X148796102Y-88793774D01*
X148607744Y-88871795D01*
X148466008Y-88966500D01*
X145120691Y-88966500D01*
X144792482Y-88638291D01*
X144759226Y-88471102D01*
X144681205Y-88282744D01*
X144575805Y-88125000D01*
X152156928Y-88125000D01*
X152169188Y-88249482D01*
X152205498Y-88369180D01*
X152264463Y-88479494D01*
X152343815Y-88576185D01*
X152440506Y-88655537D01*
X152550820Y-88714502D01*
X152670518Y-88750812D01*
X152795000Y-88763072D01*
X153384250Y-88760000D01*
X153543000Y-88601250D01*
X153543000Y-87627000D01*
X153797000Y-87627000D01*
X153797000Y-88601250D01*
X153955750Y-88760000D01*
X154545000Y-88763072D01*
X154669482Y-88750812D01*
X154789180Y-88714502D01*
X154899494Y-88655537D01*
X154996185Y-88576185D01*
X155075537Y-88479494D01*
X155134502Y-88369180D01*
X155170812Y-88249482D01*
X155183072Y-88125000D01*
X155180000Y-87785750D01*
X155021250Y-87627000D01*
X153797000Y-87627000D01*
X153543000Y-87627000D01*
X152318750Y-87627000D01*
X152160000Y-87785750D01*
X152156928Y-88125000D01*
X144575805Y-88125000D01*
X144567937Y-88113226D01*
X144423774Y-87969063D01*
X144254256Y-87855795D01*
X144065898Y-87777774D01*
X143865939Y-87738000D01*
X143662061Y-87738000D01*
X143462102Y-87777774D01*
X143273744Y-87855795D01*
X143104226Y-87969063D01*
X142960063Y-88113226D01*
X142846795Y-88282744D01*
X142768774Y-88471102D01*
X142729000Y-88671061D01*
X112632603Y-88671061D01*
X112606077Y-88607023D01*
X112284246Y-88125368D01*
X111874632Y-87715754D01*
X111392977Y-87393923D01*
X110857791Y-87172241D01*
X110289641Y-87059229D01*
X109710359Y-87059229D01*
X109142209Y-87172241D01*
X108607023Y-87393923D01*
X108125368Y-87715754D01*
X107715754Y-88125368D01*
X107393923Y-88607023D01*
X107172241Y-89142209D01*
X107059229Y-89710359D01*
X104902000Y-89710359D01*
X104902000Y-84734061D01*
X111995000Y-84734061D01*
X111995000Y-84937939D01*
X112034774Y-85137898D01*
X112112795Y-85326256D01*
X112226063Y-85495774D01*
X112370226Y-85639937D01*
X112539744Y-85753205D01*
X112728102Y-85831226D01*
X112928061Y-85871000D01*
X113131939Y-85871000D01*
X113331898Y-85831226D01*
X113520256Y-85753205D01*
X113689774Y-85639937D01*
X113733711Y-85596000D01*
X113784428Y-85596000D01*
X113784428Y-86350000D01*
X113801492Y-86523254D01*
X113852028Y-86689850D01*
X113934095Y-86843386D01*
X114044538Y-86977962D01*
X114179114Y-87088405D01*
X114332650Y-87170472D01*
X114499246Y-87221008D01*
X114672500Y-87238072D01*
X115597500Y-87238072D01*
X115770754Y-87221008D01*
X115937350Y-87170472D01*
X116090886Y-87088405D01*
X116225462Y-86977962D01*
X116335905Y-86843386D01*
X116417972Y-86689850D01*
X116445227Y-86600000D01*
X116759428Y-86600000D01*
X116771688Y-86724482D01*
X116807998Y-86844180D01*
X116866963Y-86954494D01*
X116946315Y-87051185D01*
X117043006Y-87130537D01*
X117153320Y-87189502D01*
X117273018Y-87225812D01*
X117397500Y-87238072D01*
X117824250Y-87235000D01*
X117983000Y-87076250D01*
X117983000Y-85852000D01*
X118237000Y-85852000D01*
X118237000Y-87076250D01*
X118395750Y-87235000D01*
X118822500Y-87238072D01*
X118946982Y-87225812D01*
X119066680Y-87189502D01*
X119176994Y-87130537D01*
X119273685Y-87051185D01*
X119353037Y-86954494D01*
X119395528Y-86875000D01*
X152156928Y-86875000D01*
X152160000Y-87214250D01*
X152318750Y-87373000D01*
X153543000Y-87373000D01*
X153543000Y-86398750D01*
X153797000Y-86398750D01*
X153797000Y-87373000D01*
X155021250Y-87373000D01*
X155180000Y-87214250D01*
X155183072Y-86875000D01*
X155170812Y-86750518D01*
X155134502Y-86630820D01*
X155075537Y-86520506D01*
X154996185Y-86423815D01*
X154899494Y-86344463D01*
X154789180Y-86285498D01*
X154669482Y-86249188D01*
X154545000Y-86236928D01*
X153955750Y-86240000D01*
X153797000Y-86398750D01*
X153543000Y-86398750D01*
X153384250Y-86240000D01*
X152795000Y-86236928D01*
X152670518Y-86249188D01*
X152550820Y-86285498D01*
X152440506Y-86344463D01*
X152343815Y-86423815D01*
X152264463Y-86520506D01*
X152205498Y-86630820D01*
X152169188Y-86750518D01*
X152156928Y-86875000D01*
X119395528Y-86875000D01*
X119412002Y-86844180D01*
X119448312Y-86724482D01*
X119460572Y-86600000D01*
X119457500Y-86010750D01*
X119298750Y-85852000D01*
X118237000Y-85852000D01*
X117983000Y-85852000D01*
X116921250Y-85852000D01*
X116762500Y-86010750D01*
X116759428Y-86600000D01*
X116445227Y-86600000D01*
X116468508Y-86523254D01*
X116485572Y-86350000D01*
X116485572Y-85100000D01*
X116468508Y-84926746D01*
X116445228Y-84850000D01*
X116759428Y-84850000D01*
X116762500Y-85439250D01*
X116921250Y-85598000D01*
X117983000Y-85598000D01*
X117983000Y-84373750D01*
X118237000Y-84373750D01*
X118237000Y-85598000D01*
X119298750Y-85598000D01*
X119457500Y-85439250D01*
X119460572Y-84850000D01*
X119448312Y-84725518D01*
X119412002Y-84605820D01*
X119353037Y-84495506D01*
X119273685Y-84398815D01*
X119176994Y-84319463D01*
X119066680Y-84260498D01*
X118946982Y-84224188D01*
X118822500Y-84211928D01*
X118395750Y-84215000D01*
X118237000Y-84373750D01*
X117983000Y-84373750D01*
X117824250Y-84215000D01*
X117397500Y-84211928D01*
X117273018Y-84224188D01*
X117153320Y-84260498D01*
X117043006Y-84319463D01*
X116946315Y-84398815D01*
X116866963Y-84495506D01*
X116807998Y-84605820D01*
X116771688Y-84725518D01*
X116759428Y-84850000D01*
X116445228Y-84850000D01*
X116417972Y-84760150D01*
X116335905Y-84606614D01*
X116225462Y-84472038D01*
X116090886Y-84361595D01*
X115937350Y-84279528D01*
X115770754Y-84228992D01*
X115597500Y-84211928D01*
X114683560Y-84211928D01*
X114670276Y-84201026D01*
X114538247Y-84130454D01*
X114394986Y-84086997D01*
X114283333Y-84076000D01*
X114283322Y-84076000D01*
X114246000Y-84072324D01*
X114208678Y-84076000D01*
X113733711Y-84076000D01*
X113689774Y-84032063D01*
X113520256Y-83918795D01*
X113331898Y-83840774D01*
X113131939Y-83801000D01*
X112928061Y-83801000D01*
X112728102Y-83840774D01*
X112539744Y-83918795D01*
X112370226Y-84032063D01*
X112226063Y-84176226D01*
X112112795Y-84345744D01*
X112034774Y-84534102D01*
X111995000Y-84734061D01*
X104902000Y-84734061D01*
X104902000Y-80670061D01*
X112327000Y-80670061D01*
X112327000Y-80873939D01*
X112366774Y-81073898D01*
X112444795Y-81262256D01*
X112558063Y-81431774D01*
X112702226Y-81575937D01*
X112871744Y-81689205D01*
X113060102Y-81767226D01*
X113260061Y-81807000D01*
X113463939Y-81807000D01*
X113553403Y-81789205D01*
X113784428Y-82020230D01*
X113784428Y-82921000D01*
X113801492Y-83094254D01*
X113852028Y-83260850D01*
X113934095Y-83414386D01*
X114044538Y-83548962D01*
X114179114Y-83659405D01*
X114332650Y-83741472D01*
X114499246Y-83792008D01*
X114672500Y-83809072D01*
X115597500Y-83809072D01*
X115770754Y-83792008D01*
X115937350Y-83741472D01*
X116090886Y-83659405D01*
X116225462Y-83548962D01*
X116335905Y-83414386D01*
X116417972Y-83260850D01*
X116445227Y-83171000D01*
X116759428Y-83171000D01*
X116771688Y-83295482D01*
X116807998Y-83415180D01*
X116866963Y-83525494D01*
X116946315Y-83622185D01*
X117043006Y-83701537D01*
X117153320Y-83760502D01*
X117273018Y-83796812D01*
X117397500Y-83809072D01*
X117824250Y-83806000D01*
X117983000Y-83647250D01*
X117983000Y-82423000D01*
X118237000Y-82423000D01*
X118237000Y-83647250D01*
X118395750Y-83806000D01*
X118822500Y-83809072D01*
X118946982Y-83796812D01*
X119066680Y-83760502D01*
X119176994Y-83701537D01*
X119273685Y-83622185D01*
X119353037Y-83525494D01*
X119412002Y-83415180D01*
X119448312Y-83295482D01*
X119460572Y-83171000D01*
X119457500Y-82581750D01*
X119298750Y-82423000D01*
X118237000Y-82423000D01*
X117983000Y-82423000D01*
X116921250Y-82423000D01*
X116762500Y-82581750D01*
X116759428Y-83171000D01*
X116445227Y-83171000D01*
X116468508Y-83094254D01*
X116485572Y-82921000D01*
X116485572Y-81671000D01*
X116468508Y-81497746D01*
X116445228Y-81421000D01*
X116759428Y-81421000D01*
X116762500Y-82010250D01*
X116921250Y-82169000D01*
X117983000Y-82169000D01*
X117983000Y-80944750D01*
X118237000Y-80944750D01*
X118237000Y-82169000D01*
X119298750Y-82169000D01*
X119457500Y-82010250D01*
X119460572Y-81421000D01*
X119448312Y-81296518D01*
X119412002Y-81176820D01*
X119353037Y-81066506D01*
X119273685Y-80969815D01*
X119176994Y-80890463D01*
X119066680Y-80831498D01*
X118946982Y-80795188D01*
X118822500Y-80782928D01*
X118395750Y-80786000D01*
X118237000Y-80944750D01*
X117983000Y-80944750D01*
X117824250Y-80786000D01*
X117397500Y-80782928D01*
X117273018Y-80795188D01*
X117153320Y-80831498D01*
X117043006Y-80890463D01*
X116946315Y-80969815D01*
X116866963Y-81066506D01*
X116807998Y-81176820D01*
X116771688Y-81296518D01*
X116759428Y-81421000D01*
X116445228Y-81421000D01*
X116417972Y-81331150D01*
X116335905Y-81177614D01*
X116225462Y-81043038D01*
X116090886Y-80932595D01*
X115937350Y-80850528D01*
X115770754Y-80799992D01*
X115597500Y-80782928D01*
X114696730Y-80782928D01*
X114338362Y-80424561D01*
X114279205Y-80281744D01*
X114165937Y-80112226D01*
X114021774Y-79968063D01*
X113852256Y-79854795D01*
X113663898Y-79776774D01*
X113463939Y-79737000D01*
X113260061Y-79737000D01*
X113060102Y-79776774D01*
X112871744Y-79854795D01*
X112702226Y-79968063D01*
X112558063Y-80112226D01*
X112444795Y-80281744D01*
X112366774Y-80470102D01*
X112327000Y-80670061D01*
X104902000Y-80670061D01*
X104902000Y-79495000D01*
X117866928Y-79495000D01*
X117879188Y-79619482D01*
X117915498Y-79739180D01*
X117974463Y-79849494D01*
X118053815Y-79946185D01*
X118150506Y-80025537D01*
X118260820Y-80084502D01*
X118380518Y-80120812D01*
X118505000Y-80133072D01*
X119094250Y-80130000D01*
X119253000Y-79971250D01*
X119253000Y-78997000D01*
X119507000Y-78997000D01*
X119507000Y-79971250D01*
X119665750Y-80130000D01*
X120255000Y-80133072D01*
X120379482Y-80120812D01*
X120499180Y-80084502D01*
X120609494Y-80025537D01*
X120706185Y-79946185D01*
X120785537Y-79849494D01*
X120844502Y-79739180D01*
X120880812Y-79619482D01*
X120893072Y-79495000D01*
X120890000Y-79155750D01*
X120731250Y-78997000D01*
X119507000Y-78997000D01*
X119253000Y-78997000D01*
X118028750Y-78997000D01*
X117870000Y-79155750D01*
X117866928Y-79495000D01*
X104902000Y-79495000D01*
X104902000Y-78245000D01*
X117866928Y-78245000D01*
X117870000Y-78584250D01*
X118028750Y-78743000D01*
X119253000Y-78743000D01*
X119253000Y-77768750D01*
X119094250Y-77610000D01*
X118505000Y-77606928D01*
X118380518Y-77619188D01*
X118260820Y-77655498D01*
X118150506Y-77714463D01*
X118053815Y-77793815D01*
X117974463Y-77890506D01*
X117915498Y-78000820D01*
X117879188Y-78120518D01*
X117866928Y-78245000D01*
X104902000Y-78245000D01*
X104902000Y-72400000D01*
X106381928Y-72400000D01*
X106381928Y-73650000D01*
X106398992Y-73823254D01*
X106449528Y-73989850D01*
X106531595Y-74143386D01*
X106642038Y-74277962D01*
X106776614Y-74388405D01*
X106930150Y-74470472D01*
X107096746Y-74521008D01*
X107270000Y-74538072D01*
X108195000Y-74538072D01*
X108368254Y-74521008D01*
X108534850Y-74470472D01*
X108688386Y-74388405D01*
X108822962Y-74277962D01*
X108933405Y-74143386D01*
X109015472Y-73989850D01*
X109042727Y-73900000D01*
X109356928Y-73900000D01*
X109369188Y-74024482D01*
X109405498Y-74144180D01*
X109464463Y-74254494D01*
X109543815Y-74351185D01*
X109640506Y-74430537D01*
X109750820Y-74489502D01*
X109870518Y-74525812D01*
X109995000Y-74538072D01*
X110421750Y-74535000D01*
X110580500Y-74376250D01*
X110580500Y-73152000D01*
X110834500Y-73152000D01*
X110834500Y-74376250D01*
X110993250Y-74535000D01*
X111420000Y-74538072D01*
X111544482Y-74525812D01*
X111664180Y-74489502D01*
X111774494Y-74430537D01*
X111871185Y-74351185D01*
X111950537Y-74254494D01*
X112009502Y-74144180D01*
X112045812Y-74024482D01*
X112058072Y-73900000D01*
X112055000Y-73310750D01*
X111896250Y-73152000D01*
X110834500Y-73152000D01*
X110580500Y-73152000D01*
X109518750Y-73152000D01*
X109360000Y-73310750D01*
X109356928Y-73900000D01*
X109042727Y-73900000D01*
X109066008Y-73823254D01*
X109083072Y-73650000D01*
X109083072Y-72749229D01*
X109358616Y-72473686D01*
X109360000Y-72739250D01*
X109518750Y-72898000D01*
X110580500Y-72898000D01*
X110580500Y-71673750D01*
X110834500Y-71673750D01*
X110834500Y-72898000D01*
X111896250Y-72898000D01*
X112055000Y-72739250D01*
X112058072Y-72150000D01*
X112045812Y-72025518D01*
X112009502Y-71905820D01*
X111950537Y-71795506D01*
X111871185Y-71698815D01*
X111774494Y-71619463D01*
X111664180Y-71560498D01*
X111544482Y-71524188D01*
X111420000Y-71511928D01*
X110993250Y-71515000D01*
X110834500Y-71673750D01*
X110580500Y-71673750D01*
X110421750Y-71515000D01*
X110318048Y-71514253D01*
X111222302Y-70610000D01*
X114231289Y-70610000D01*
X114275226Y-70653937D01*
X114444744Y-70767205D01*
X114633102Y-70845226D01*
X114833061Y-70885000D01*
X115036939Y-70885000D01*
X115236898Y-70845226D01*
X115425256Y-70767205D01*
X115594774Y-70653937D01*
X115638711Y-70610000D01*
X119740199Y-70610000D01*
X122548151Y-73417953D01*
X122435000Y-73416928D01*
X122310518Y-73429188D01*
X122190820Y-73465498D01*
X122080506Y-73524463D01*
X121983815Y-73603815D01*
X121904463Y-73700506D01*
X121845498Y-73810820D01*
X121809188Y-73930518D01*
X121796928Y-74055000D01*
X121800000Y-74644250D01*
X121958750Y-74803000D01*
X122933000Y-74803000D01*
X122933000Y-74783000D01*
X123187000Y-74783000D01*
X123187000Y-74803000D01*
X123207000Y-74803000D01*
X123207000Y-75057000D01*
X123187000Y-75057000D01*
X123187000Y-76281250D01*
X123345750Y-76440000D01*
X123685000Y-76443072D01*
X123809482Y-76430812D01*
X123929180Y-76394502D01*
X124039494Y-76335537D01*
X124136185Y-76256185D01*
X124215537Y-76159494D01*
X124274502Y-76049180D01*
X124310812Y-75929482D01*
X124323072Y-75805000D01*
X124320000Y-75215750D01*
X124161252Y-75057002D01*
X124187200Y-75057002D01*
X124571201Y-75441003D01*
X124594999Y-75470001D01*
X124596928Y-75471584D01*
X124596928Y-75555000D01*
X124613992Y-75728254D01*
X124664528Y-75894850D01*
X124746595Y-76048386D01*
X124830201Y-76150261D01*
X124765557Y-76247008D01*
X124672460Y-76471764D01*
X124625000Y-76710363D01*
X124625000Y-76953637D01*
X124672460Y-77192236D01*
X124765557Y-77416992D01*
X124832411Y-77517046D01*
X124746595Y-77621614D01*
X124664528Y-77775150D01*
X124613992Y-77941746D01*
X124596928Y-78115000D01*
X124596928Y-79365000D01*
X124613992Y-79538254D01*
X124664528Y-79704850D01*
X124746595Y-79858386D01*
X124857038Y-79992962D01*
X124991614Y-80103405D01*
X125037501Y-80127932D01*
X125037500Y-81949309D01*
X124150202Y-82836607D01*
X124121516Y-82692392D01*
X124043495Y-82504034D01*
X123930227Y-82334516D01*
X123786064Y-82190353D01*
X123616546Y-82077085D01*
X123428188Y-81999064D01*
X123228229Y-81959290D01*
X123166092Y-81959290D01*
X122869990Y-81663189D01*
X122869990Y-80154260D01*
X122933000Y-80091250D01*
X122933000Y-78867000D01*
X123187000Y-78867000D01*
X123187000Y-80091250D01*
X123345750Y-80250000D01*
X123685000Y-80253072D01*
X123809482Y-80240812D01*
X123929180Y-80204502D01*
X124039494Y-80145537D01*
X124136185Y-80066185D01*
X124215537Y-79969494D01*
X124274502Y-79859180D01*
X124310812Y-79739482D01*
X124323072Y-79615000D01*
X124320000Y-79025750D01*
X124161250Y-78867000D01*
X123187000Y-78867000D01*
X122933000Y-78867000D01*
X122913000Y-78867000D01*
X122913000Y-78613000D01*
X122933000Y-78613000D01*
X122933000Y-77388750D01*
X123187000Y-77388750D01*
X123187000Y-78613000D01*
X124161250Y-78613000D01*
X124320000Y-78454250D01*
X124323072Y-77865000D01*
X124310812Y-77740518D01*
X124274502Y-77620820D01*
X124215537Y-77510506D01*
X124136185Y-77413815D01*
X124039494Y-77334463D01*
X123929180Y-77275498D01*
X123809482Y-77239188D01*
X123685000Y-77226928D01*
X123345750Y-77230000D01*
X123187000Y-77388750D01*
X122933000Y-77388750D01*
X122774250Y-77230000D01*
X122435000Y-77226928D01*
X122310518Y-77239188D01*
X122190820Y-77275498D01*
X122080506Y-77334463D01*
X121983815Y-77413815D01*
X121904463Y-77510506D01*
X121901274Y-77516472D01*
X120887399Y-76502598D01*
X120893072Y-76445000D01*
X120893072Y-75805000D01*
X121796928Y-75805000D01*
X121809188Y-75929482D01*
X121845498Y-76049180D01*
X121904463Y-76159494D01*
X121983815Y-76256185D01*
X122080506Y-76335537D01*
X122190820Y-76394502D01*
X122310518Y-76430812D01*
X122435000Y-76443072D01*
X122774250Y-76440000D01*
X122933000Y-76281250D01*
X122933000Y-75057000D01*
X121958750Y-75057000D01*
X121800000Y-75215750D01*
X121796928Y-75805000D01*
X120893072Y-75805000D01*
X120893072Y-75695000D01*
X120876008Y-75521746D01*
X120825472Y-75355150D01*
X120743405Y-75201614D01*
X120632962Y-75067038D01*
X120498386Y-74956595D01*
X120344850Y-74874528D01*
X120178254Y-74823992D01*
X120005000Y-74806928D01*
X119191729Y-74806928D01*
X118743000Y-74358199D01*
X118743000Y-73601711D01*
X118786937Y-73557774D01*
X118900205Y-73388256D01*
X118978226Y-73199898D01*
X119018000Y-72999939D01*
X119018000Y-72796061D01*
X118978226Y-72596102D01*
X118900205Y-72407744D01*
X118786937Y-72238226D01*
X118642774Y-72094063D01*
X118473256Y-71980795D01*
X118284898Y-71902774D01*
X118084939Y-71863000D01*
X117881061Y-71863000D01*
X117681102Y-71902774D01*
X117492744Y-71980795D01*
X117323226Y-72094063D01*
X117179063Y-72238226D01*
X117065795Y-72407744D01*
X116987774Y-72596102D01*
X116948000Y-72796061D01*
X116948000Y-72999939D01*
X116987774Y-73199898D01*
X117065795Y-73388256D01*
X117179063Y-73557774D01*
X117223000Y-73601711D01*
X117223001Y-74635668D01*
X117219324Y-74673000D01*
X117233998Y-74821985D01*
X117277454Y-74965246D01*
X117348026Y-75097276D01*
X117419201Y-75184002D01*
X117443000Y-75213001D01*
X117471998Y-75236799D01*
X117872601Y-75637402D01*
X117866928Y-75695000D01*
X117866928Y-76445000D01*
X117883992Y-76618254D01*
X117934528Y-76784850D01*
X118016595Y-76938386D01*
X118127038Y-77072962D01*
X118261614Y-77183405D01*
X118415150Y-77265472D01*
X118581746Y-77316008D01*
X118755000Y-77333072D01*
X119568271Y-77333072D01*
X119844268Y-77609069D01*
X119665750Y-77610000D01*
X119507000Y-77768750D01*
X119507000Y-78743000D01*
X120731250Y-78743000D01*
X120854724Y-78619526D01*
X121349991Y-79114793D01*
X121349990Y-81940667D01*
X121346314Y-81977990D01*
X121349990Y-82015312D01*
X121349990Y-82015322D01*
X121360987Y-82126975D01*
X121384254Y-82203676D01*
X121404444Y-82270236D01*
X121475016Y-82402266D01*
X121510075Y-82444985D01*
X121569989Y-82517991D01*
X121598992Y-82541794D01*
X122091290Y-83034092D01*
X122091290Y-83096229D01*
X122131064Y-83296188D01*
X122209085Y-83484546D01*
X122251342Y-83547788D01*
X122204267Y-83500713D01*
X122001992Y-83365557D01*
X121777236Y-83272460D01*
X121538637Y-83225000D01*
X121295363Y-83225000D01*
X121056764Y-83272460D01*
X120832008Y-83365557D01*
X120629733Y-83500713D01*
X120457713Y-83672733D01*
X120322557Y-83875008D01*
X120229460Y-84099764D01*
X120182000Y-84338363D01*
X120182000Y-84581637D01*
X120229460Y-84820236D01*
X120322557Y-85044992D01*
X120457713Y-85247267D01*
X120629733Y-85419287D01*
X120832008Y-85554443D01*
X121056764Y-85647540D01*
X121295363Y-85695000D01*
X121487681Y-85695000D01*
X121493970Y-85700161D01*
X121587833Y-85777192D01*
X121730720Y-85853567D01*
X121813035Y-85878537D01*
X121813992Y-85888254D01*
X121864528Y-86054850D01*
X121946595Y-86208386D01*
X122057038Y-86342962D01*
X122191614Y-86453405D01*
X122345150Y-86535472D01*
X122511746Y-86586008D01*
X122685000Y-86603072D01*
X123435000Y-86603072D01*
X123608254Y-86586008D01*
X123774850Y-86535472D01*
X123928386Y-86453405D01*
X124062962Y-86342962D01*
X124173405Y-86208386D01*
X124255472Y-86054850D01*
X124282727Y-85965000D01*
X124596928Y-85965000D01*
X124609188Y-86089482D01*
X124645498Y-86209180D01*
X124704463Y-86319494D01*
X124783815Y-86416185D01*
X124880506Y-86495537D01*
X124990820Y-86554502D01*
X125110518Y-86590812D01*
X125235000Y-86603072D01*
X125574250Y-86600000D01*
X125733000Y-86441250D01*
X125733000Y-85217000D01*
X125987000Y-85217000D01*
X125987000Y-86441250D01*
X126145750Y-86600000D01*
X126485000Y-86603072D01*
X126609482Y-86590812D01*
X126729180Y-86554502D01*
X126839494Y-86495537D01*
X126936185Y-86416185D01*
X127015537Y-86319494D01*
X127074502Y-86209180D01*
X127110812Y-86089482D01*
X127123072Y-85965000D01*
X127120000Y-85375750D01*
X126961250Y-85217000D01*
X125987000Y-85217000D01*
X125733000Y-85217000D01*
X124758750Y-85217000D01*
X124600000Y-85375750D01*
X124596928Y-85965000D01*
X124282727Y-85965000D01*
X124306008Y-85888254D01*
X124323072Y-85715000D01*
X124323072Y-84990118D01*
X124599528Y-84713663D01*
X124600000Y-84804250D01*
X124758750Y-84963000D01*
X125733000Y-84963000D01*
X125733000Y-83738750D01*
X125987000Y-83738750D01*
X125987000Y-84963000D01*
X126961250Y-84963000D01*
X127120000Y-84804250D01*
X127121461Y-84523863D01*
X147990000Y-84523863D01*
X147990000Y-84767137D01*
X148037460Y-85005736D01*
X148130557Y-85230492D01*
X148265713Y-85432767D01*
X148437733Y-85604787D01*
X148640008Y-85739943D01*
X148864764Y-85833040D01*
X149103363Y-85880500D01*
X149346637Y-85880500D01*
X149585236Y-85833040D01*
X149809992Y-85739943D01*
X150012267Y-85604787D01*
X150184287Y-85432767D01*
X150319443Y-85230492D01*
X150371984Y-85103647D01*
X150900631Y-84575000D01*
X152156928Y-84575000D01*
X152169188Y-84699482D01*
X152205498Y-84819180D01*
X152264463Y-84929494D01*
X152343815Y-85026185D01*
X152440506Y-85105537D01*
X152550820Y-85164502D01*
X152670518Y-85200812D01*
X152795000Y-85213072D01*
X153384250Y-85210000D01*
X153543000Y-85051250D01*
X153543000Y-84077000D01*
X153797000Y-84077000D01*
X153797000Y-85051250D01*
X153955750Y-85210000D01*
X154545000Y-85213072D01*
X154669482Y-85200812D01*
X154789180Y-85164502D01*
X154899494Y-85105537D01*
X154996185Y-85026185D01*
X155075537Y-84929494D01*
X155134502Y-84819180D01*
X155170812Y-84699482D01*
X155183072Y-84575000D01*
X155180000Y-84235750D01*
X155021250Y-84077000D01*
X153797000Y-84077000D01*
X153543000Y-84077000D01*
X152318750Y-84077000D01*
X152160000Y-84235750D01*
X152156928Y-84575000D01*
X150900631Y-84575000D01*
X152157616Y-83318016D01*
X152156928Y-83325000D01*
X152160000Y-83664250D01*
X152318750Y-83823000D01*
X153543000Y-83823000D01*
X153543000Y-82848750D01*
X153797000Y-82848750D01*
X153797000Y-83823000D01*
X155021250Y-83823000D01*
X155180000Y-83664250D01*
X155183072Y-83325000D01*
X155170812Y-83200518D01*
X155134502Y-83080820D01*
X155075537Y-82970506D01*
X154996185Y-82873815D01*
X154899494Y-82794463D01*
X154789180Y-82735498D01*
X154669482Y-82699188D01*
X154545000Y-82686928D01*
X153955750Y-82690000D01*
X153797000Y-82848750D01*
X153543000Y-82848750D01*
X153384250Y-82690000D01*
X152795000Y-82686928D01*
X152788017Y-82687616D01*
X153062561Y-82413072D01*
X154295000Y-82413072D01*
X154468254Y-82396008D01*
X154634850Y-82345472D01*
X154788386Y-82263405D01*
X154922962Y-82152962D01*
X155033405Y-82018386D01*
X155051389Y-81984740D01*
X174138964Y-81984740D01*
X174163245Y-82090087D01*
X174283138Y-82367204D01*
X174454790Y-82615606D01*
X174671604Y-82825748D01*
X174925249Y-82989554D01*
X175205977Y-83100729D01*
X175503000Y-83155000D01*
X176403000Y-83155000D01*
X176403000Y-81747000D01*
X176657000Y-81747000D01*
X176657000Y-83155000D01*
X177557000Y-83155000D01*
X177854023Y-83100729D01*
X178134751Y-82989554D01*
X178388396Y-82825748D01*
X178605210Y-82615606D01*
X178776862Y-82367204D01*
X178896755Y-82090087D01*
X178921036Y-81984740D01*
X178800378Y-81747000D01*
X176657000Y-81747000D01*
X176403000Y-81747000D01*
X174259622Y-81747000D01*
X174138964Y-81984740D01*
X155051389Y-81984740D01*
X155115472Y-81864850D01*
X155166008Y-81698254D01*
X155183072Y-81525000D01*
X155183072Y-81255260D01*
X174138964Y-81255260D01*
X174259622Y-81493000D01*
X176403000Y-81493000D01*
X176403000Y-80085000D01*
X176657000Y-80085000D01*
X176657000Y-81493000D01*
X178800378Y-81493000D01*
X178921036Y-81255260D01*
X178896755Y-81149913D01*
X178776862Y-80872796D01*
X178605210Y-80624394D01*
X178388396Y-80414252D01*
X178134751Y-80250446D01*
X177854023Y-80139271D01*
X177557000Y-80085000D01*
X176657000Y-80085000D01*
X176403000Y-80085000D01*
X175503000Y-80085000D01*
X175205977Y-80139271D01*
X174925249Y-80250446D01*
X174671604Y-80414252D01*
X174454790Y-80624394D01*
X174283138Y-80872796D01*
X174163245Y-81149913D01*
X174138964Y-81255260D01*
X155183072Y-81255260D01*
X155183072Y-81242059D01*
X161805131Y-74620000D01*
X174087573Y-74620000D01*
X174117210Y-74920913D01*
X174204983Y-75210261D01*
X174347519Y-75476927D01*
X174539339Y-75710661D01*
X174773073Y-75902481D01*
X175039739Y-76045017D01*
X175329087Y-76132790D01*
X175395000Y-76139282D01*
X175395001Y-76600718D01*
X175329087Y-76607210D01*
X175039739Y-76694983D01*
X174773073Y-76837519D01*
X174539339Y-77029339D01*
X174347519Y-77263073D01*
X174204983Y-77529739D01*
X174117210Y-77819087D01*
X174087573Y-78120000D01*
X174117210Y-78420913D01*
X174204983Y-78710261D01*
X174347519Y-78976927D01*
X174539339Y-79210661D01*
X174773073Y-79402481D01*
X175039739Y-79545017D01*
X175329087Y-79632790D01*
X175554592Y-79655000D01*
X177505408Y-79655000D01*
X177730913Y-79632790D01*
X178020261Y-79545017D01*
X178286927Y-79402481D01*
X178520661Y-79210661D01*
X178712481Y-78976927D01*
X178855017Y-78710261D01*
X178942790Y-78420913D01*
X178972427Y-78120000D01*
X178942790Y-77819087D01*
X178855017Y-77529739D01*
X178712481Y-77263073D01*
X178520661Y-77029339D01*
X178286927Y-76837519D01*
X178020261Y-76694983D01*
X177730913Y-76607210D01*
X177665000Y-76600718D01*
X177665000Y-76139282D01*
X177730913Y-76132790D01*
X178020261Y-76045017D01*
X178286927Y-75902481D01*
X178520661Y-75710661D01*
X178712481Y-75476927D01*
X178855017Y-75210261D01*
X178942790Y-74920913D01*
X178972427Y-74620000D01*
X178942790Y-74319087D01*
X178855017Y-74029739D01*
X178712481Y-73763073D01*
X178520661Y-73529339D01*
X178286927Y-73337519D01*
X178020261Y-73194983D01*
X177730913Y-73107210D01*
X177505408Y-73085000D01*
X175554592Y-73085000D01*
X175329087Y-73107210D01*
X175039739Y-73194983D01*
X174773073Y-73337519D01*
X174539339Y-73529339D01*
X174347519Y-73763073D01*
X174204983Y-74029739D01*
X174117210Y-74319087D01*
X174087573Y-74620000D01*
X161805131Y-74620000D01*
X164170132Y-72255000D01*
X174237113Y-72255000D01*
X174241595Y-72263386D01*
X174352038Y-72397962D01*
X174486614Y-72508405D01*
X174640150Y-72590472D01*
X174806746Y-72641008D01*
X174980000Y-72658072D01*
X178080000Y-72658072D01*
X178253254Y-72641008D01*
X178419850Y-72590472D01*
X178573386Y-72508405D01*
X178707962Y-72397962D01*
X178818405Y-72263386D01*
X178900472Y-72109850D01*
X178951008Y-71943254D01*
X178968072Y-71770000D01*
X178968072Y-70470000D01*
X178951008Y-70296746D01*
X178900472Y-70130150D01*
X178818405Y-69976614D01*
X178707962Y-69842038D01*
X178573386Y-69731595D01*
X178419850Y-69649528D01*
X178253254Y-69598992D01*
X178080000Y-69581928D01*
X174980000Y-69581928D01*
X174806746Y-69598992D01*
X174640150Y-69649528D01*
X174486614Y-69731595D01*
X174352038Y-69842038D01*
X174241595Y-69976614D01*
X174237113Y-69985000D01*
X163755751Y-69985000D01*
X163699999Y-69979509D01*
X163644248Y-69985000D01*
X163477501Y-70001423D01*
X163263553Y-70066324D01*
X163066377Y-70171716D01*
X162893551Y-70313551D01*
X162858009Y-70356859D01*
X153327941Y-79886928D01*
X153045000Y-79886928D01*
X152871746Y-79903992D01*
X152705150Y-79954528D01*
X152575586Y-80023782D01*
X152498001Y-80031423D01*
X152284053Y-80096324D01*
X152086877Y-80201716D01*
X151957356Y-80308011D01*
X151957354Y-80308013D01*
X151914051Y-80343551D01*
X151878513Y-80386854D01*
X148766853Y-83498516D01*
X148640008Y-83551057D01*
X148437733Y-83686213D01*
X148265713Y-83858233D01*
X148130557Y-84060508D01*
X148037460Y-84285264D01*
X147990000Y-84523863D01*
X127121461Y-84523863D01*
X127123072Y-84215000D01*
X127110812Y-84090518D01*
X127074502Y-83970820D01*
X127015537Y-83860506D01*
X126936185Y-83763815D01*
X126839494Y-83684463D01*
X126729180Y-83625498D01*
X126609482Y-83589188D01*
X126485000Y-83576928D01*
X126145750Y-83580000D01*
X125987000Y-83738750D01*
X125733000Y-83738750D01*
X125653720Y-83659470D01*
X126413031Y-82900160D01*
X126444409Y-82874409D01*
X126547192Y-82749167D01*
X126623567Y-82606280D01*
X126623567Y-82606279D01*
X126670598Y-82451239D01*
X126686479Y-82290000D01*
X126682500Y-82249602D01*
X126682500Y-80127932D01*
X126728386Y-80103405D01*
X126862962Y-79992962D01*
X126973405Y-79858386D01*
X127055472Y-79704850D01*
X127065000Y-79673440D01*
X127074528Y-79704850D01*
X127156595Y-79858386D01*
X127267038Y-79992962D01*
X127401614Y-80103405D01*
X127555150Y-80185472D01*
X127721746Y-80236008D01*
X127895000Y-80253072D01*
X128645000Y-80253072D01*
X128818254Y-80236008D01*
X128984850Y-80185472D01*
X129138386Y-80103405D01*
X129272962Y-79992962D01*
X129383405Y-79858386D01*
X129465472Y-79704850D01*
X129492727Y-79615000D01*
X129806928Y-79615000D01*
X129819188Y-79739482D01*
X129855498Y-79859180D01*
X129914463Y-79969494D01*
X129993815Y-80066185D01*
X130090506Y-80145537D01*
X130200820Y-80204502D01*
X130320518Y-80240812D01*
X130445000Y-80253072D01*
X130784250Y-80250000D01*
X130943000Y-80091250D01*
X130943000Y-78867000D01*
X131197000Y-78867000D01*
X131197000Y-80091250D01*
X131355750Y-80250000D01*
X131695000Y-80253072D01*
X131819482Y-80240812D01*
X131939180Y-80204502D01*
X132049494Y-80145537D01*
X132146185Y-80066185D01*
X132225537Y-79969494D01*
X132284502Y-79859180D01*
X132320812Y-79739482D01*
X132333072Y-79615000D01*
X132330000Y-79025750D01*
X132171250Y-78867000D01*
X131197000Y-78867000D01*
X130943000Y-78867000D01*
X129968750Y-78867000D01*
X129810000Y-79025750D01*
X129806928Y-79615000D01*
X129492727Y-79615000D01*
X129516008Y-79538254D01*
X129533072Y-79365000D01*
X129533072Y-78115000D01*
X129516008Y-77941746D01*
X129492728Y-77865000D01*
X129806928Y-77865000D01*
X129810000Y-78454250D01*
X129968750Y-78613000D01*
X130943000Y-78613000D01*
X130943000Y-77388750D01*
X131197000Y-77388750D01*
X131197000Y-78613000D01*
X132171250Y-78613000D01*
X132330000Y-78454250D01*
X132333072Y-77865000D01*
X132320812Y-77740518D01*
X132284502Y-77620820D01*
X132225537Y-77510506D01*
X132146185Y-77413815D01*
X132049494Y-77334463D01*
X131939180Y-77275498D01*
X131819482Y-77239188D01*
X131695000Y-77226928D01*
X131355750Y-77230000D01*
X131197000Y-77388750D01*
X130943000Y-77388750D01*
X130784250Y-77230000D01*
X130445000Y-77226928D01*
X130320518Y-77239188D01*
X130200820Y-77275498D01*
X130090506Y-77334463D01*
X129993815Y-77413815D01*
X129914463Y-77510506D01*
X129855498Y-77620820D01*
X129819188Y-77740518D01*
X129806928Y-77865000D01*
X129492728Y-77865000D01*
X129465472Y-77775150D01*
X129383405Y-77621614D01*
X129272962Y-77487038D01*
X129138386Y-77376595D01*
X128984850Y-77294528D01*
X128818254Y-77243992D01*
X128645000Y-77226928D01*
X127895000Y-77226928D01*
X127721746Y-77243992D01*
X127555150Y-77294528D01*
X127401614Y-77376595D01*
X127267038Y-77487038D01*
X127156595Y-77621614D01*
X127074528Y-77775150D01*
X127065000Y-77806560D01*
X127055472Y-77775150D01*
X126973405Y-77621614D01*
X126887589Y-77517046D01*
X126954443Y-77416992D01*
X127047540Y-77192236D01*
X127095000Y-76953637D01*
X127095000Y-76710363D01*
X127047540Y-76471764D01*
X126954443Y-76247008D01*
X126889799Y-76150261D01*
X126973405Y-76048386D01*
X127055472Y-75894850D01*
X127065000Y-75863440D01*
X127074528Y-75894850D01*
X127156595Y-76048386D01*
X127267038Y-76182962D01*
X127401614Y-76293405D01*
X127555150Y-76375472D01*
X127721746Y-76426008D01*
X127895000Y-76443072D01*
X128645000Y-76443072D01*
X128818254Y-76426008D01*
X128984850Y-76375472D01*
X129138386Y-76293405D01*
X129272962Y-76182962D01*
X129383405Y-76048386D01*
X129465472Y-75894850D01*
X129492727Y-75805000D01*
X129806928Y-75805000D01*
X129819188Y-75929482D01*
X129855498Y-76049180D01*
X129914463Y-76159494D01*
X129993815Y-76256185D01*
X130090506Y-76335537D01*
X130200820Y-76394502D01*
X130320518Y-76430812D01*
X130445000Y-76443072D01*
X130784250Y-76440000D01*
X130943000Y-76281250D01*
X130943000Y-75057000D01*
X131197000Y-75057000D01*
X131197000Y-76281250D01*
X131355750Y-76440000D01*
X131695000Y-76443072D01*
X131819482Y-76430812D01*
X131939180Y-76394502D01*
X132049494Y-76335537D01*
X132146185Y-76256185D01*
X132225537Y-76159494D01*
X132284502Y-76049180D01*
X132320812Y-75929482D01*
X132333072Y-75805000D01*
X132330000Y-75215750D01*
X132171250Y-75057000D01*
X131197000Y-75057000D01*
X130943000Y-75057000D01*
X129968750Y-75057000D01*
X129810000Y-75215750D01*
X129806928Y-75805000D01*
X129492727Y-75805000D01*
X129516008Y-75728254D01*
X129533072Y-75555000D01*
X129533072Y-74305000D01*
X129516008Y-74131746D01*
X129492728Y-74055000D01*
X129806928Y-74055000D01*
X129810000Y-74644250D01*
X129968750Y-74803000D01*
X130943000Y-74803000D01*
X130943000Y-73578750D01*
X131197000Y-73578750D01*
X131197000Y-74803000D01*
X132171250Y-74803000D01*
X132330000Y-74644250D01*
X132333072Y-74055000D01*
X132320812Y-73930518D01*
X132284502Y-73810820D01*
X132225537Y-73700506D01*
X132146185Y-73603815D01*
X132049494Y-73524463D01*
X131939180Y-73465498D01*
X131819482Y-73429188D01*
X131695000Y-73416928D01*
X131355750Y-73420000D01*
X131197000Y-73578750D01*
X130943000Y-73578750D01*
X130784250Y-73420000D01*
X130445000Y-73416928D01*
X130320518Y-73429188D01*
X130200820Y-73465498D01*
X130090506Y-73524463D01*
X129993815Y-73603815D01*
X129914463Y-73700506D01*
X129855498Y-73810820D01*
X129819188Y-73930518D01*
X129806928Y-74055000D01*
X129492728Y-74055000D01*
X129465472Y-73965150D01*
X129383405Y-73811614D01*
X129272962Y-73677038D01*
X129138386Y-73566595D01*
X129030000Y-73508661D01*
X129030000Y-70553711D01*
X129073937Y-70509774D01*
X129187205Y-70340256D01*
X129265226Y-70151898D01*
X129305000Y-69951939D01*
X129305000Y-69748061D01*
X129265226Y-69548102D01*
X129187205Y-69359744D01*
X129073937Y-69190226D01*
X128929774Y-69046063D01*
X128760256Y-68932795D01*
X128571898Y-68854774D01*
X128371939Y-68815000D01*
X128168061Y-68815000D01*
X127968102Y-68854774D01*
X127779744Y-68932795D01*
X127610226Y-69046063D01*
X127466063Y-69190226D01*
X127352795Y-69359744D01*
X127274774Y-69548102D01*
X127235000Y-69748061D01*
X127235000Y-69951939D01*
X127274774Y-70151898D01*
X127352795Y-70340256D01*
X127466063Y-70509774D01*
X127510001Y-70553712D01*
X127510000Y-73508661D01*
X127401614Y-73566595D01*
X127267038Y-73677038D01*
X127156595Y-73811614D01*
X127074528Y-73965150D01*
X127065000Y-73996560D01*
X127055472Y-73965150D01*
X126973405Y-73811614D01*
X126862962Y-73677038D01*
X126728386Y-73566595D01*
X126574850Y-73484528D01*
X126408254Y-73433992D01*
X126235000Y-73416928D01*
X125485000Y-73416928D01*
X125311746Y-73433992D01*
X125145150Y-73484528D01*
X124991614Y-73566595D01*
X124911854Y-73632052D01*
X120618804Y-69339003D01*
X120595001Y-69309999D01*
X120479276Y-69215026D01*
X120347247Y-69144454D01*
X120203986Y-69100997D01*
X120092333Y-69090000D01*
X120092322Y-69090000D01*
X120055000Y-69086324D01*
X120017678Y-69090000D01*
X115638711Y-69090000D01*
X115594774Y-69046063D01*
X115425256Y-68932795D01*
X115236898Y-68854774D01*
X115036939Y-68815000D01*
X114833061Y-68815000D01*
X114633102Y-68854774D01*
X114444744Y-68932795D01*
X114275226Y-69046063D01*
X114231289Y-69090000D01*
X110944822Y-69090000D01*
X110907499Y-69086324D01*
X110870176Y-69090000D01*
X110870167Y-69090000D01*
X110758514Y-69100997D01*
X110615253Y-69144454D01*
X110483223Y-69215026D01*
X110414466Y-69271454D01*
X110367499Y-69309999D01*
X110343701Y-69338997D01*
X108170771Y-71511928D01*
X107270000Y-71511928D01*
X107096746Y-71528992D01*
X106930150Y-71579528D01*
X106776614Y-71661595D01*
X106642038Y-71772038D01*
X106531595Y-71906614D01*
X106449528Y-72060150D01*
X106398992Y-72226746D01*
X106381928Y-72400000D01*
X104902000Y-72400000D01*
X104902000Y-68706661D01*
X136023400Y-68706661D01*
X136023400Y-68910539D01*
X136063174Y-69110498D01*
X136141195Y-69298856D01*
X136254463Y-69468374D01*
X136298401Y-69512312D01*
X136298400Y-70517889D01*
X136254463Y-70561826D01*
X136141195Y-70731344D01*
X136063174Y-70919702D01*
X136023400Y-71119661D01*
X136023400Y-71323539D01*
X136063174Y-71523498D01*
X136141195Y-71711856D01*
X136254463Y-71881374D01*
X136398626Y-72025537D01*
X136568144Y-72138805D01*
X136756502Y-72216826D01*
X136956461Y-72256600D01*
X137160339Y-72256600D01*
X137289001Y-72231008D01*
X137289000Y-76766677D01*
X137285324Y-76804000D01*
X137289000Y-76841322D01*
X137289000Y-76841332D01*
X137299997Y-76952985D01*
X137331839Y-77057956D01*
X137343454Y-77096246D01*
X137414026Y-77228276D01*
X137452781Y-77275498D01*
X137508999Y-77344001D01*
X137538003Y-77367804D01*
X138913201Y-78743003D01*
X138936999Y-78772001D01*
X138938928Y-78773584D01*
X138938928Y-78857000D01*
X138955992Y-79030254D01*
X139006528Y-79196850D01*
X139088595Y-79350386D01*
X139199038Y-79484962D01*
X139333614Y-79595405D01*
X139487150Y-79677472D01*
X139653746Y-79728008D01*
X139827000Y-79745072D01*
X140577000Y-79745072D01*
X140750254Y-79728008D01*
X140916850Y-79677472D01*
X141070386Y-79595405D01*
X141204962Y-79484962D01*
X141315405Y-79350386D01*
X141397472Y-79196850D01*
X141448008Y-79030254D01*
X141465072Y-78857000D01*
X141465072Y-77607000D01*
X141448008Y-77433746D01*
X141397472Y-77267150D01*
X141315405Y-77113614D01*
X141204962Y-76979038D01*
X141070386Y-76868595D01*
X140916850Y-76786528D01*
X140868809Y-76771955D01*
X140919850Y-76756472D01*
X141073386Y-76674405D01*
X141207962Y-76563962D01*
X141318405Y-76429386D01*
X141400472Y-76275850D01*
X141451008Y-76109254D01*
X141468072Y-75936000D01*
X141468072Y-74686000D01*
X141451008Y-74512746D01*
X141427728Y-74436000D01*
X141741928Y-74436000D01*
X141745000Y-75025250D01*
X141903750Y-75184000D01*
X142878000Y-75184000D01*
X142878000Y-73959750D01*
X142719250Y-73801000D01*
X142380000Y-73797928D01*
X142255518Y-73810188D01*
X142135820Y-73846498D01*
X142025506Y-73905463D01*
X141928815Y-73984815D01*
X141849463Y-74081506D01*
X141790498Y-74191820D01*
X141754188Y-74311518D01*
X141741928Y-74436000D01*
X141427728Y-74436000D01*
X141400472Y-74346150D01*
X141318405Y-74192614D01*
X141207962Y-74058038D01*
X141073386Y-73947595D01*
X140919850Y-73865528D01*
X140753254Y-73814992D01*
X140580000Y-73797928D01*
X139830000Y-73797928D01*
X139656746Y-73814992D01*
X139571000Y-73841003D01*
X139571000Y-72891000D01*
X141361928Y-72891000D01*
X141374188Y-73015482D01*
X141410498Y-73135180D01*
X141469463Y-73245494D01*
X141548815Y-73342185D01*
X141645506Y-73421537D01*
X141755820Y-73480502D01*
X141875518Y-73516812D01*
X142000000Y-73529072D01*
X142589250Y-73526000D01*
X142748000Y-73367250D01*
X142748000Y-72393000D01*
X141523750Y-72393000D01*
X141365000Y-72551750D01*
X141361928Y-72891000D01*
X139571000Y-72891000D01*
X139571000Y-72077711D01*
X139614937Y-72033774D01*
X139728205Y-71864256D01*
X139806226Y-71675898D01*
X139813167Y-71641000D01*
X141361928Y-71641000D01*
X141365000Y-71980250D01*
X141523750Y-72139000D01*
X142748000Y-72139000D01*
X142748000Y-71164750D01*
X142589250Y-71006000D01*
X142000000Y-71002928D01*
X141875518Y-71015188D01*
X141755820Y-71051498D01*
X141645506Y-71110463D01*
X141548815Y-71189815D01*
X141469463Y-71286506D01*
X141410498Y-71396820D01*
X141374188Y-71516518D01*
X141361928Y-71641000D01*
X139813167Y-71641000D01*
X139846000Y-71475939D01*
X139846000Y-71272061D01*
X139806226Y-71072102D01*
X139728205Y-70883744D01*
X139614937Y-70714226D01*
X139470774Y-70570063D01*
X139301256Y-70456795D01*
X139112898Y-70378774D01*
X139011232Y-70358552D01*
X139044226Y-70278898D01*
X139084000Y-70078939D01*
X139084000Y-69875061D01*
X139044226Y-69675102D01*
X138966205Y-69486744D01*
X138852937Y-69317226D01*
X138708774Y-69173063D01*
X138585958Y-69091000D01*
X141361928Y-69091000D01*
X141361928Y-69841000D01*
X141378992Y-70014254D01*
X141429528Y-70180850D01*
X141511595Y-70334386D01*
X141622038Y-70468962D01*
X141756614Y-70579405D01*
X141910150Y-70661472D01*
X142076746Y-70712008D01*
X142250000Y-70729072D01*
X143063271Y-70729072D01*
X143339268Y-71005069D01*
X143160750Y-71006000D01*
X143002000Y-71164750D01*
X143002000Y-72139000D01*
X143022000Y-72139000D01*
X143022000Y-72393000D01*
X143002000Y-72393000D01*
X143002000Y-73367250D01*
X143160750Y-73526000D01*
X143750000Y-73529072D01*
X143874482Y-73516812D01*
X143994180Y-73480502D01*
X144020001Y-73466700D01*
X144020001Y-73934602D01*
X143984494Y-73905463D01*
X143874180Y-73846498D01*
X143754482Y-73810188D01*
X143630000Y-73797928D01*
X143290750Y-73801000D01*
X143132000Y-73959750D01*
X143132000Y-75184000D01*
X143152000Y-75184000D01*
X143152000Y-75438000D01*
X143132000Y-75438000D01*
X143132000Y-75458000D01*
X142878000Y-75458000D01*
X142878000Y-75438000D01*
X141903750Y-75438000D01*
X141745000Y-75596750D01*
X141741928Y-76186000D01*
X141754188Y-76310482D01*
X141790498Y-76430180D01*
X141849463Y-76540494D01*
X141928815Y-76637185D01*
X142025506Y-76716537D01*
X142135820Y-76775502D01*
X142245521Y-76808779D01*
X142133614Y-76868595D01*
X141999038Y-76979038D01*
X141888595Y-77113614D01*
X141806528Y-77267150D01*
X141755992Y-77433746D01*
X141738928Y-77607000D01*
X141738928Y-78857000D01*
X141755992Y-79030254D01*
X141806528Y-79196850D01*
X141888595Y-79350386D01*
X141999038Y-79484962D01*
X142133614Y-79595405D01*
X142287150Y-79677472D01*
X142453746Y-79728008D01*
X142627000Y-79745072D01*
X143377000Y-79745072D01*
X143550254Y-79728008D01*
X143716850Y-79677472D01*
X143870386Y-79595405D01*
X144004962Y-79484962D01*
X144115405Y-79350386D01*
X144195891Y-79199809D01*
X144419764Y-79292540D01*
X144658363Y-79340000D01*
X144901637Y-79340000D01*
X145140236Y-79292540D01*
X145364992Y-79199443D01*
X145567267Y-79064287D01*
X145739287Y-78892267D01*
X145874443Y-78689992D01*
X145967540Y-78465236D01*
X146015000Y-78226637D01*
X146015000Y-77983363D01*
X145967540Y-77744764D01*
X145874443Y-77520008D01*
X145739287Y-77317733D01*
X145567267Y-77145713D01*
X145540000Y-77127494D01*
X145540000Y-72014363D01*
X151927000Y-72014363D01*
X151927000Y-72257637D01*
X151974460Y-72496236D01*
X152067557Y-72720992D01*
X152202713Y-72923267D01*
X152374733Y-73095287D01*
X152577008Y-73230443D01*
X152801764Y-73323540D01*
X153040363Y-73371000D01*
X153283637Y-73371000D01*
X153522236Y-73323540D01*
X153746992Y-73230443D01*
X153949267Y-73095287D01*
X154121287Y-72923267D01*
X154256443Y-72720992D01*
X154349540Y-72496236D01*
X154397000Y-72257637D01*
X154397000Y-72064190D01*
X167265903Y-59195287D01*
X167433074Y-59332481D01*
X167699740Y-59475017D01*
X167989088Y-59562790D01*
X168290000Y-59592427D01*
X168590913Y-59562790D01*
X168880261Y-59475017D01*
X169146927Y-59332481D01*
X169380661Y-59140661D01*
X169572481Y-58906927D01*
X169715017Y-58640261D01*
X169802790Y-58350913D01*
X169825000Y-58125408D01*
X169825000Y-56174593D01*
X170255000Y-56174593D01*
X170255000Y-58125408D01*
X170277211Y-58350913D01*
X170364984Y-58640261D01*
X170507520Y-58906927D01*
X170699340Y-59140661D01*
X170933074Y-59332481D01*
X171199740Y-59475017D01*
X171489088Y-59562790D01*
X171790000Y-59592427D01*
X172090913Y-59562790D01*
X172380261Y-59475017D01*
X172646927Y-59332481D01*
X172880661Y-59140661D01*
X173072481Y-58906927D01*
X173215017Y-58640261D01*
X173302790Y-58350913D01*
X173325000Y-58125408D01*
X173325000Y-56174592D01*
X173302790Y-55949087D01*
X173215017Y-55659739D01*
X173072481Y-55393073D01*
X172880661Y-55159339D01*
X172646926Y-54967519D01*
X172380260Y-54824983D01*
X172090912Y-54737210D01*
X171790000Y-54707573D01*
X171489087Y-54737210D01*
X171199739Y-54824983D01*
X170933073Y-54967519D01*
X170699339Y-55159339D01*
X170507519Y-55393074D01*
X170364983Y-55659740D01*
X170277210Y-55949088D01*
X170255000Y-56174593D01*
X169825000Y-56174593D01*
X169825000Y-56174592D01*
X169802790Y-55949087D01*
X169715017Y-55659739D01*
X169572481Y-55393073D01*
X169380661Y-55159339D01*
X169146926Y-54967519D01*
X168880260Y-54824983D01*
X168590912Y-54737210D01*
X168290000Y-54707573D01*
X167989087Y-54737210D01*
X167699739Y-54824983D01*
X167433073Y-54967519D01*
X167199339Y-55159339D01*
X167007519Y-55393074D01*
X166864983Y-55659740D01*
X166777210Y-55949088D01*
X166755000Y-56174593D01*
X166755000Y-57379810D01*
X166325000Y-57809810D01*
X166325000Y-56174592D01*
X166302790Y-55949087D01*
X166215017Y-55659739D01*
X166072481Y-55393073D01*
X165880661Y-55159339D01*
X165646926Y-54967519D01*
X165380260Y-54824983D01*
X165090912Y-54737210D01*
X164790000Y-54707573D01*
X164489087Y-54737210D01*
X164199739Y-54824983D01*
X163933073Y-54967519D01*
X163699339Y-55159339D01*
X163507519Y-55393074D01*
X163364983Y-55659740D01*
X163277210Y-55949088D01*
X163255000Y-56174593D01*
X163255000Y-58125408D01*
X163277211Y-58350913D01*
X163364984Y-58640261D01*
X163507520Y-58906927D01*
X163699340Y-59140661D01*
X163933074Y-59332481D01*
X164199740Y-59475017D01*
X164489088Y-59562790D01*
X164564584Y-59570226D01*
X153233810Y-70901000D01*
X153040363Y-70901000D01*
X152801764Y-70948460D01*
X152577008Y-71041557D01*
X152374733Y-71176713D01*
X152202713Y-71348733D01*
X152067557Y-71551008D01*
X151974460Y-71775764D01*
X151927000Y-72014363D01*
X145540000Y-72014363D01*
X145540000Y-71408322D01*
X145543676Y-71370999D01*
X145540000Y-71333676D01*
X145540000Y-71333667D01*
X145529003Y-71222014D01*
X145485546Y-71078753D01*
X145414974Y-70946724D01*
X145320001Y-70830999D01*
X145291003Y-70807201D01*
X144382399Y-69898598D01*
X144388072Y-69841000D01*
X144388072Y-69091000D01*
X144371008Y-68917746D01*
X144320472Y-68751150D01*
X144238405Y-68597614D01*
X144127962Y-68463038D01*
X143993386Y-68352595D01*
X143839850Y-68270528D01*
X143673254Y-68219992D01*
X143500000Y-68202928D01*
X142250000Y-68202928D01*
X142076746Y-68219992D01*
X141910150Y-68270528D01*
X141756614Y-68352595D01*
X141622038Y-68463038D01*
X141511595Y-68597614D01*
X141429528Y-68751150D01*
X141378992Y-68917746D01*
X141361928Y-69091000D01*
X138585958Y-69091000D01*
X138539256Y-69059795D01*
X138350898Y-68981774D01*
X138150939Y-68942000D01*
X138087142Y-68942000D01*
X138093400Y-68910539D01*
X138093400Y-68706661D01*
X138053626Y-68506702D01*
X137975605Y-68318344D01*
X137862337Y-68148826D01*
X137718174Y-68004663D01*
X137548656Y-67891395D01*
X137360298Y-67813374D01*
X137160339Y-67773600D01*
X136956461Y-67773600D01*
X136756502Y-67813374D01*
X136568144Y-67891395D01*
X136398626Y-68004663D01*
X136254463Y-68148826D01*
X136141195Y-68318344D01*
X136063174Y-68506702D01*
X136023400Y-68706661D01*
X104902000Y-68706661D01*
X104902000Y-55600000D01*
X106411928Y-55600000D01*
X106411928Y-58700000D01*
X106428992Y-58873254D01*
X106479528Y-59039850D01*
X106561595Y-59193386D01*
X106672038Y-59327962D01*
X106806614Y-59438405D01*
X106960150Y-59520472D01*
X107126746Y-59571008D01*
X107300000Y-59588072D01*
X108600000Y-59588072D01*
X108773254Y-59571008D01*
X108939850Y-59520472D01*
X109093386Y-59438405D01*
X109227962Y-59327962D01*
X109338405Y-59193386D01*
X109420472Y-59039850D01*
X109471008Y-58873254D01*
X109488072Y-58700000D01*
X109488072Y-56174593D01*
X109915000Y-56174593D01*
X109915000Y-58125408D01*
X109937211Y-58350913D01*
X110024984Y-58640261D01*
X110167520Y-58906927D01*
X110359340Y-59140661D01*
X110593074Y-59332481D01*
X110740001Y-59411015D01*
X110740000Y-62078661D01*
X110631614Y-62136595D01*
X110497038Y-62247038D01*
X110386595Y-62381614D01*
X110304528Y-62535150D01*
X110253992Y-62701746D01*
X110236928Y-62875000D01*
X110236928Y-64125000D01*
X110253992Y-64298254D01*
X110304528Y-64464850D01*
X110386595Y-64618386D01*
X110497038Y-64752962D01*
X110631614Y-64863405D01*
X110785150Y-64945472D01*
X110951746Y-64996008D01*
X111125000Y-65013072D01*
X111875000Y-65013072D01*
X112048254Y-64996008D01*
X112214850Y-64945472D01*
X112368386Y-64863405D01*
X112502962Y-64752962D01*
X112613405Y-64618386D01*
X112695472Y-64464850D01*
X112722727Y-64375000D01*
X113036928Y-64375000D01*
X113049188Y-64499482D01*
X113085498Y-64619180D01*
X113144463Y-64729494D01*
X113223815Y-64826185D01*
X113320506Y-64905537D01*
X113430820Y-64964502D01*
X113550518Y-65000812D01*
X113675000Y-65013072D01*
X114014250Y-65010000D01*
X114173000Y-64851250D01*
X114173000Y-63627000D01*
X114427000Y-63627000D01*
X114427000Y-64851250D01*
X114585750Y-65010000D01*
X114925000Y-65013072D01*
X115049482Y-65000812D01*
X115169180Y-64964502D01*
X115279494Y-64905537D01*
X115376185Y-64826185D01*
X115455537Y-64729494D01*
X115514502Y-64619180D01*
X115550812Y-64499482D01*
X115563072Y-64375000D01*
X115560000Y-63785750D01*
X115401250Y-63627000D01*
X114427000Y-63627000D01*
X114173000Y-63627000D01*
X113198750Y-63627000D01*
X113040000Y-63785750D01*
X113036928Y-64375000D01*
X112722727Y-64375000D01*
X112746008Y-64298254D01*
X112763072Y-64125000D01*
X112763072Y-62875000D01*
X112746008Y-62701746D01*
X112722728Y-62625000D01*
X113036928Y-62625000D01*
X113040000Y-63214250D01*
X113198750Y-63373000D01*
X114173000Y-63373000D01*
X114173000Y-62148750D01*
X114427000Y-62148750D01*
X114427000Y-63373000D01*
X115401250Y-63373000D01*
X115560000Y-63214250D01*
X115563072Y-62625000D01*
X115550812Y-62500518D01*
X115514502Y-62380820D01*
X115455537Y-62270506D01*
X115376185Y-62173815D01*
X115279494Y-62094463D01*
X115169180Y-62035498D01*
X115049482Y-61999188D01*
X114925000Y-61986928D01*
X114585750Y-61990000D01*
X114427000Y-62148750D01*
X114173000Y-62148750D01*
X114014250Y-61990000D01*
X113675000Y-61986928D01*
X113550518Y-61999188D01*
X113430820Y-62035498D01*
X113320506Y-62094463D01*
X113223815Y-62173815D01*
X113144463Y-62270506D01*
X113085498Y-62380820D01*
X113049188Y-62500518D01*
X113036928Y-62625000D01*
X112722728Y-62625000D01*
X112695472Y-62535150D01*
X112613405Y-62381614D01*
X112502962Y-62247038D01*
X112368386Y-62136595D01*
X112260000Y-62078661D01*
X112260000Y-59357564D01*
X112306927Y-59332481D01*
X112540661Y-59140661D01*
X112732481Y-58906927D01*
X112875017Y-58640261D01*
X112962790Y-58350913D01*
X112985000Y-58125408D01*
X112985000Y-56174592D01*
X112962790Y-55949087D01*
X112875017Y-55659739D01*
X112843086Y-55600000D01*
X117841928Y-55600000D01*
X117841928Y-58700000D01*
X117858992Y-58873254D01*
X117909528Y-59039850D01*
X117991595Y-59193386D01*
X118102038Y-59327962D01*
X118236614Y-59438405D01*
X118390150Y-59520472D01*
X118556746Y-59571008D01*
X118730000Y-59588072D01*
X120030000Y-59588072D01*
X120203254Y-59571008D01*
X120369850Y-59520472D01*
X120523386Y-59438405D01*
X120657962Y-59327962D01*
X120768405Y-59193386D01*
X120850472Y-59039850D01*
X120901008Y-58873254D01*
X120918072Y-58700000D01*
X120918072Y-57277000D01*
X121345000Y-57277000D01*
X121345000Y-58177000D01*
X121399271Y-58474023D01*
X121510446Y-58754751D01*
X121674252Y-59008396D01*
X121884394Y-59225210D01*
X122132796Y-59396862D01*
X122409913Y-59516755D01*
X122515260Y-59541036D01*
X122753000Y-59420378D01*
X122753000Y-57277000D01*
X123007000Y-57277000D01*
X123007000Y-59420378D01*
X123244740Y-59541036D01*
X123350087Y-59516755D01*
X123627204Y-59396862D01*
X123875606Y-59225210D01*
X124085748Y-59008396D01*
X124249554Y-58754751D01*
X124360729Y-58474023D01*
X124415000Y-58177000D01*
X124415000Y-57277000D01*
X123007000Y-57277000D01*
X122753000Y-57277000D01*
X121345000Y-57277000D01*
X120918072Y-57277000D01*
X120918072Y-56123000D01*
X121345000Y-56123000D01*
X121345000Y-57023000D01*
X122753000Y-57023000D01*
X122753000Y-54879622D01*
X123007000Y-54879622D01*
X123007000Y-57023000D01*
X124415000Y-57023000D01*
X124415000Y-56174593D01*
X124845000Y-56174593D01*
X124845000Y-58125408D01*
X124867211Y-58350913D01*
X124954984Y-58640261D01*
X125097520Y-58906927D01*
X125289340Y-59140661D01*
X125523074Y-59332481D01*
X125789740Y-59475017D01*
X126079088Y-59562790D01*
X126380000Y-59592427D01*
X126680913Y-59562790D01*
X126970261Y-59475017D01*
X127236927Y-59332481D01*
X127470661Y-59140661D01*
X127662481Y-58906927D01*
X127805017Y-58640261D01*
X127892790Y-58350913D01*
X127915000Y-58125408D01*
X127915000Y-56174593D01*
X128345000Y-56174593D01*
X128345000Y-58125408D01*
X128367211Y-58350913D01*
X128454984Y-58640261D01*
X128597520Y-58906927D01*
X128789340Y-59140661D01*
X129023074Y-59332481D01*
X129289740Y-59475017D01*
X129579088Y-59562790D01*
X129880000Y-59592427D01*
X130180913Y-59562790D01*
X130470261Y-59475017D01*
X130736927Y-59332481D01*
X130970661Y-59140661D01*
X131162481Y-58906927D01*
X131305017Y-58640261D01*
X131392790Y-58350913D01*
X131415000Y-58125408D01*
X131415000Y-57277000D01*
X131845000Y-57277000D01*
X131845000Y-58177000D01*
X131899271Y-58474023D01*
X132010446Y-58754751D01*
X132174252Y-59008396D01*
X132384394Y-59225210D01*
X132632796Y-59396862D01*
X132909913Y-59516755D01*
X133015260Y-59541036D01*
X133253000Y-59420378D01*
X133253000Y-57277000D01*
X133507000Y-57277000D01*
X133507000Y-59420378D01*
X133744740Y-59541036D01*
X133850087Y-59516755D01*
X134127204Y-59396862D01*
X134375606Y-59225210D01*
X134585748Y-59008396D01*
X134623460Y-58950000D01*
X140701928Y-58950000D01*
X140714188Y-59074482D01*
X140750498Y-59194180D01*
X140809463Y-59304494D01*
X140888815Y-59401185D01*
X140985506Y-59480537D01*
X141095820Y-59539502D01*
X141215518Y-59575812D01*
X141340000Y-59588072D01*
X141954250Y-59585000D01*
X142113000Y-59426250D01*
X142113000Y-57277000D01*
X142367000Y-57277000D01*
X142367000Y-59426250D01*
X142525750Y-59585000D01*
X143140000Y-59588072D01*
X143264482Y-59575812D01*
X143384180Y-59539502D01*
X143494494Y-59480537D01*
X143591185Y-59401185D01*
X143670537Y-59304494D01*
X143729502Y-59194180D01*
X143765812Y-59074482D01*
X143778072Y-58950000D01*
X143775000Y-57435750D01*
X143616250Y-57277000D01*
X142367000Y-57277000D01*
X142113000Y-57277000D01*
X140863750Y-57277000D01*
X140705000Y-57435750D01*
X140701928Y-58950000D01*
X134623460Y-58950000D01*
X134749554Y-58754751D01*
X134860729Y-58474023D01*
X134915000Y-58177000D01*
X134915000Y-57277000D01*
X133507000Y-57277000D01*
X133253000Y-57277000D01*
X131845000Y-57277000D01*
X131415000Y-57277000D01*
X131415000Y-56174592D01*
X131409919Y-56123000D01*
X131845000Y-56123000D01*
X131845000Y-57023000D01*
X133253000Y-57023000D01*
X133253000Y-54879622D01*
X133507000Y-54879622D01*
X133507000Y-57023000D01*
X134915000Y-57023000D01*
X134915000Y-56123000D01*
X134860729Y-55825977D01*
X134749554Y-55545249D01*
X134623461Y-55350000D01*
X140701928Y-55350000D01*
X140705000Y-56864250D01*
X140863750Y-57023000D01*
X142113000Y-57023000D01*
X142113000Y-54873750D01*
X142367000Y-54873750D01*
X142367000Y-57023000D01*
X143616250Y-57023000D01*
X143775000Y-56864250D01*
X143776399Y-56174593D01*
X144205000Y-56174593D01*
X144205000Y-58125408D01*
X144227211Y-58350913D01*
X144314984Y-58640261D01*
X144457520Y-58906927D01*
X144649340Y-59140661D01*
X144883074Y-59332481D01*
X145149740Y-59475017D01*
X145439088Y-59562790D01*
X145740000Y-59592427D01*
X146040913Y-59562790D01*
X146330261Y-59475017D01*
X146596927Y-59332481D01*
X146830661Y-59140661D01*
X147022481Y-58906927D01*
X147165017Y-58640261D01*
X147252790Y-58350913D01*
X147275000Y-58125408D01*
X147275000Y-56174593D01*
X147705000Y-56174593D01*
X147705000Y-58125408D01*
X147727211Y-58350913D01*
X147814984Y-58640261D01*
X147957520Y-58906927D01*
X148149340Y-59140661D01*
X148383074Y-59332481D01*
X148649740Y-59475017D01*
X148939088Y-59562790D01*
X149240000Y-59592427D01*
X149540913Y-59562790D01*
X149830261Y-59475017D01*
X150096927Y-59332481D01*
X150330661Y-59140661D01*
X150522481Y-58906927D01*
X150665017Y-58640261D01*
X150752790Y-58350913D01*
X150775000Y-58125408D01*
X150775000Y-56174593D01*
X151205000Y-56174593D01*
X151205000Y-58125408D01*
X151227211Y-58350913D01*
X151314984Y-58640261D01*
X151457520Y-58906927D01*
X151649340Y-59140661D01*
X151883074Y-59332481D01*
X152149740Y-59475017D01*
X152439088Y-59562790D01*
X152740000Y-59592427D01*
X153040913Y-59562790D01*
X153330261Y-59475017D01*
X153596927Y-59332481D01*
X153830661Y-59140661D01*
X154022481Y-58906927D01*
X154165017Y-58640261D01*
X154252790Y-58350913D01*
X154275000Y-58125408D01*
X154275000Y-56174592D01*
X154252790Y-55949087D01*
X154165017Y-55659739D01*
X154133086Y-55600000D01*
X159751928Y-55600000D01*
X159751928Y-58700000D01*
X159768992Y-58873254D01*
X159819528Y-59039850D01*
X159901595Y-59193386D01*
X160012038Y-59327962D01*
X160146614Y-59438405D01*
X160300150Y-59520472D01*
X160466746Y-59571008D01*
X160640000Y-59588072D01*
X161940000Y-59588072D01*
X162113254Y-59571008D01*
X162279850Y-59520472D01*
X162433386Y-59438405D01*
X162567962Y-59327962D01*
X162678405Y-59193386D01*
X162760472Y-59039850D01*
X162811008Y-58873254D01*
X162828072Y-58700000D01*
X162828072Y-55600000D01*
X162811008Y-55426746D01*
X162760472Y-55260150D01*
X162678405Y-55106614D01*
X162567962Y-54972038D01*
X162433386Y-54861595D01*
X162279850Y-54779528D01*
X162113254Y-54728992D01*
X161940000Y-54711928D01*
X160640000Y-54711928D01*
X160466746Y-54728992D01*
X160300150Y-54779528D01*
X160146614Y-54861595D01*
X160012038Y-54972038D01*
X159901595Y-55106614D01*
X159819528Y-55260150D01*
X159768992Y-55426746D01*
X159751928Y-55600000D01*
X154133086Y-55600000D01*
X154022481Y-55393073D01*
X153830661Y-55159339D01*
X153596926Y-54967519D01*
X153330260Y-54824983D01*
X153040912Y-54737210D01*
X152740000Y-54707573D01*
X152439087Y-54737210D01*
X152149739Y-54824983D01*
X151883073Y-54967519D01*
X151649339Y-55159339D01*
X151457519Y-55393074D01*
X151314983Y-55659740D01*
X151227210Y-55949088D01*
X151205000Y-56174593D01*
X150775000Y-56174593D01*
X150775000Y-56174592D01*
X150752790Y-55949087D01*
X150665017Y-55659739D01*
X150522481Y-55393073D01*
X150330661Y-55159339D01*
X150096926Y-54967519D01*
X149830260Y-54824983D01*
X149540912Y-54737210D01*
X149240000Y-54707573D01*
X148939087Y-54737210D01*
X148649739Y-54824983D01*
X148383073Y-54967519D01*
X148149339Y-55159339D01*
X147957519Y-55393074D01*
X147814983Y-55659740D01*
X147727210Y-55949088D01*
X147705000Y-56174593D01*
X147275000Y-56174593D01*
X147275000Y-56174592D01*
X147252790Y-55949087D01*
X147165017Y-55659739D01*
X147022481Y-55393073D01*
X146830661Y-55159339D01*
X146596926Y-54967519D01*
X146330260Y-54824983D01*
X146040912Y-54737210D01*
X145740000Y-54707573D01*
X145439087Y-54737210D01*
X145149739Y-54824983D01*
X144883073Y-54967519D01*
X144649339Y-55159339D01*
X144457519Y-55393074D01*
X144314983Y-55659740D01*
X144227210Y-55949088D01*
X144205000Y-56174593D01*
X143776399Y-56174593D01*
X143778072Y-55350000D01*
X143765812Y-55225518D01*
X143729502Y-55105820D01*
X143670537Y-54995506D01*
X143591185Y-54898815D01*
X143494494Y-54819463D01*
X143384180Y-54760498D01*
X143264482Y-54724188D01*
X143140000Y-54711928D01*
X142525750Y-54715000D01*
X142367000Y-54873750D01*
X142113000Y-54873750D01*
X141954250Y-54715000D01*
X141340000Y-54711928D01*
X141215518Y-54724188D01*
X141095820Y-54760498D01*
X140985506Y-54819463D01*
X140888815Y-54898815D01*
X140809463Y-54995506D01*
X140750498Y-55105820D01*
X140714188Y-55225518D01*
X140701928Y-55350000D01*
X134623461Y-55350000D01*
X134585748Y-55291604D01*
X134375606Y-55074790D01*
X134127204Y-54903138D01*
X133850087Y-54783245D01*
X133744740Y-54758964D01*
X133507000Y-54879622D01*
X133253000Y-54879622D01*
X133015260Y-54758964D01*
X132909913Y-54783245D01*
X132632796Y-54903138D01*
X132384394Y-55074790D01*
X132174252Y-55291604D01*
X132010446Y-55545249D01*
X131899271Y-55825977D01*
X131845000Y-56123000D01*
X131409919Y-56123000D01*
X131392790Y-55949087D01*
X131305017Y-55659739D01*
X131162481Y-55393073D01*
X130970661Y-55159339D01*
X130736926Y-54967519D01*
X130470260Y-54824983D01*
X130180912Y-54737210D01*
X129880000Y-54707573D01*
X129579087Y-54737210D01*
X129289739Y-54824983D01*
X129023073Y-54967519D01*
X128789339Y-55159339D01*
X128597519Y-55393074D01*
X128454983Y-55659740D01*
X128367210Y-55949088D01*
X128345000Y-56174593D01*
X127915000Y-56174593D01*
X127915000Y-56174592D01*
X127892790Y-55949087D01*
X127805017Y-55659739D01*
X127662481Y-55393073D01*
X127470661Y-55159339D01*
X127236926Y-54967519D01*
X126970260Y-54824983D01*
X126680912Y-54737210D01*
X126380000Y-54707573D01*
X126079087Y-54737210D01*
X125789739Y-54824983D01*
X125523073Y-54967519D01*
X125289339Y-55159339D01*
X125097519Y-55393074D01*
X124954983Y-55659740D01*
X124867210Y-55949088D01*
X124845000Y-56174593D01*
X124415000Y-56174593D01*
X124415000Y-56123000D01*
X124360729Y-55825977D01*
X124249554Y-55545249D01*
X124085748Y-55291604D01*
X123875606Y-55074790D01*
X123627204Y-54903138D01*
X123350087Y-54783245D01*
X123244740Y-54758964D01*
X123007000Y-54879622D01*
X122753000Y-54879622D01*
X122515260Y-54758964D01*
X122409913Y-54783245D01*
X122132796Y-54903138D01*
X121884394Y-55074790D01*
X121674252Y-55291604D01*
X121510446Y-55545249D01*
X121399271Y-55825977D01*
X121345000Y-56123000D01*
X120918072Y-56123000D01*
X120918072Y-55600000D01*
X120901008Y-55426746D01*
X120850472Y-55260150D01*
X120768405Y-55106614D01*
X120657962Y-54972038D01*
X120523386Y-54861595D01*
X120369850Y-54779528D01*
X120203254Y-54728992D01*
X120030000Y-54711928D01*
X118730000Y-54711928D01*
X118556746Y-54728992D01*
X118390150Y-54779528D01*
X118236614Y-54861595D01*
X118102038Y-54972038D01*
X117991595Y-55106614D01*
X117909528Y-55260150D01*
X117858992Y-55426746D01*
X117841928Y-55600000D01*
X112843086Y-55600000D01*
X112732481Y-55393073D01*
X112540661Y-55159339D01*
X112306926Y-54967519D01*
X112040260Y-54824983D01*
X111750912Y-54737210D01*
X111450000Y-54707573D01*
X111149087Y-54737210D01*
X110859739Y-54824983D01*
X110593073Y-54967519D01*
X110359339Y-55159339D01*
X110167519Y-55393074D01*
X110024983Y-55659740D01*
X109937210Y-55949088D01*
X109915000Y-56174593D01*
X109488072Y-56174593D01*
X109488072Y-55600000D01*
X109471008Y-55426746D01*
X109420472Y-55260150D01*
X109338405Y-55106614D01*
X109227962Y-54972038D01*
X109093386Y-54861595D01*
X108939850Y-54779528D01*
X108773254Y-54728992D01*
X108600000Y-54711928D01*
X107300000Y-54711928D01*
X107126746Y-54728992D01*
X106960150Y-54779528D01*
X106806614Y-54861595D01*
X106672038Y-54972038D01*
X106561595Y-55106614D01*
X106479528Y-55260150D01*
X106428992Y-55426746D01*
X106411928Y-55600000D01*
X104902000Y-55600000D01*
X104902000Y-53467000D01*
X179578000Y-53467000D01*
X179578000Y-94488000D01*
X179578000Y-94488000D01*
G37*
X179578000Y-94488000D02*
X104902000Y-94488000D01*
X104902000Y-89710359D01*
X107059229Y-89710359D01*
X107059229Y-90289641D01*
X107172241Y-90857791D01*
X107393923Y-91392977D01*
X107715754Y-91874632D01*
X108125368Y-92284246D01*
X108607023Y-92606077D01*
X109142209Y-92827759D01*
X109710359Y-92940771D01*
X110289641Y-92940771D01*
X110857791Y-92827759D01*
X111392977Y-92606077D01*
X111874632Y-92284246D01*
X112185817Y-91973061D01*
X149460000Y-91973061D01*
X149460000Y-92176939D01*
X149499774Y-92376898D01*
X149577795Y-92565256D01*
X149691063Y-92734774D01*
X149835226Y-92878937D01*
X150004744Y-92992205D01*
X150193102Y-93070226D01*
X150393061Y-93110000D01*
X150596939Y-93110000D01*
X150796898Y-93070226D01*
X150985256Y-92992205D01*
X151154774Y-92878937D01*
X151298937Y-92734774D01*
X151412205Y-92565256D01*
X151490226Y-92376898D01*
X151523482Y-92209709D01*
X151914981Y-91818210D01*
X152933892Y-91818210D01*
X152974290Y-91822189D01*
X153014688Y-91818210D01*
X153135528Y-91806308D01*
X153290570Y-91759277D01*
X153433457Y-91682902D01*
X153558699Y-91580119D01*
X153572689Y-91563072D01*
X154295000Y-91563072D01*
X154468254Y-91546008D01*
X154634850Y-91495472D01*
X154788386Y-91413405D01*
X154922962Y-91302962D01*
X155033405Y-91168386D01*
X155115472Y-91014850D01*
X155166008Y-90848254D01*
X155183072Y-90675000D01*
X155183072Y-89925000D01*
X155166008Y-89751746D01*
X155153454Y-89710359D01*
X170059229Y-89710359D01*
X170059229Y-90289641D01*
X170172241Y-90857791D01*
X170393923Y-91392977D01*
X170715754Y-91874632D01*
X171125368Y-92284246D01*
X171607023Y-92606077D01*
X172142209Y-92827759D01*
X172710359Y-92940771D01*
X173289641Y-92940771D01*
X173857791Y-92827759D01*
X174392977Y-92606077D01*
X174874632Y-92284246D01*
X175284246Y-91874632D01*
X175606077Y-91392977D01*
X175827759Y-90857791D01*
X175940771Y-90289641D01*
X175940771Y-89710359D01*
X175827759Y-89142209D01*
X175606077Y-88607023D01*
X175284246Y-88125368D01*
X174874632Y-87715754D01*
X174392977Y-87393923D01*
X173857791Y-87172241D01*
X173289641Y-87059229D01*
X172710359Y-87059229D01*
X172142209Y-87172241D01*
X171607023Y-87393923D01*
X171125368Y-87715754D01*
X170715754Y-88125368D01*
X170393923Y-88607023D01*
X170172241Y-89142209D01*
X170059229Y-89710359D01*
X155153454Y-89710359D01*
X155115472Y-89585150D01*
X155033405Y-89431614D01*
X154922962Y-89297038D01*
X154788386Y-89186595D01*
X154634850Y-89104528D01*
X154468254Y-89053992D01*
X154295000Y-89036928D01*
X153045000Y-89036928D01*
X152871746Y-89053992D01*
X152705150Y-89104528D01*
X152551614Y-89186595D01*
X152417038Y-89297038D01*
X152306595Y-89431614D01*
X152224528Y-89585150D01*
X152173992Y-89751746D01*
X152156928Y-89925000D01*
X152156928Y-90173210D01*
X151614688Y-90173210D01*
X151574290Y-90169231D01*
X151533892Y-90173210D01*
X151413052Y-90185112D01*
X151258010Y-90232143D01*
X151115123Y-90308518D01*
X150989881Y-90411301D01*
X150964129Y-90442680D01*
X150360291Y-91046518D01*
X150193102Y-91079774D01*
X150004744Y-91157795D01*
X149835226Y-91271063D01*
X149691063Y-91415226D01*
X149577795Y-91584744D01*
X149499774Y-91773102D01*
X149460000Y-91973061D01*
X112185817Y-91973061D01*
X112284246Y-91874632D01*
X112606077Y-91392977D01*
X112827759Y-90857791D01*
X112940771Y-90289641D01*
X112940771Y-89710359D01*
X112827759Y-89142209D01*
X112632603Y-88671061D01*
X142729000Y-88671061D01*
X142729000Y-88874939D01*
X142768774Y-89074898D01*
X142846795Y-89263256D01*
X142960063Y-89432774D01*
X143104226Y-89576937D01*
X143273744Y-89690205D01*
X143462102Y-89768226D01*
X143629291Y-89801482D01*
X144169839Y-90342030D01*
X144195591Y-90373409D01*
X144320833Y-90476192D01*
X144463720Y-90552567D01*
X144618761Y-90599598D01*
X144780000Y-90615479D01*
X144820398Y-90611500D01*
X148466008Y-90611500D01*
X148607744Y-90706205D01*
X148796102Y-90784226D01*
X148996061Y-90824000D01*
X149199939Y-90824000D01*
X149399898Y-90784226D01*
X149588256Y-90706205D01*
X149757774Y-90592937D01*
X149901937Y-90448774D01*
X150015205Y-90279256D01*
X150093226Y-90090898D01*
X150133000Y-89890939D01*
X150133000Y-89687061D01*
X150093226Y-89487102D01*
X150015205Y-89298744D01*
X149901937Y-89129226D01*
X149757774Y-88985063D01*
X149588256Y-88871795D01*
X149399898Y-88793774D01*
X149199939Y-88754000D01*
X148996061Y-88754000D01*
X148796102Y-88793774D01*
X148607744Y-88871795D01*
X148466008Y-88966500D01*
X145120691Y-88966500D01*
X144792482Y-88638291D01*
X144759226Y-88471102D01*
X144681205Y-88282744D01*
X144575805Y-88125000D01*
X152156928Y-88125000D01*
X152169188Y-88249482D01*
X152205498Y-88369180D01*
X152264463Y-88479494D01*
X152343815Y-88576185D01*
X152440506Y-88655537D01*
X152550820Y-88714502D01*
X152670518Y-88750812D01*
X152795000Y-88763072D01*
X153384250Y-88760000D01*
X153543000Y-88601250D01*
X153543000Y-87627000D01*
X153797000Y-87627000D01*
X153797000Y-88601250D01*
X153955750Y-88760000D01*
X154545000Y-88763072D01*
X154669482Y-88750812D01*
X154789180Y-88714502D01*
X154899494Y-88655537D01*
X154996185Y-88576185D01*
X155075537Y-88479494D01*
X155134502Y-88369180D01*
X155170812Y-88249482D01*
X155183072Y-88125000D01*
X155180000Y-87785750D01*
X155021250Y-87627000D01*
X153797000Y-87627000D01*
X153543000Y-87627000D01*
X152318750Y-87627000D01*
X152160000Y-87785750D01*
X152156928Y-88125000D01*
X144575805Y-88125000D01*
X144567937Y-88113226D01*
X144423774Y-87969063D01*
X144254256Y-87855795D01*
X144065898Y-87777774D01*
X143865939Y-87738000D01*
X143662061Y-87738000D01*
X143462102Y-87777774D01*
X143273744Y-87855795D01*
X143104226Y-87969063D01*
X142960063Y-88113226D01*
X142846795Y-88282744D01*
X142768774Y-88471102D01*
X142729000Y-88671061D01*
X112632603Y-88671061D01*
X112606077Y-88607023D01*
X112284246Y-88125368D01*
X111874632Y-87715754D01*
X111392977Y-87393923D01*
X110857791Y-87172241D01*
X110289641Y-87059229D01*
X109710359Y-87059229D01*
X109142209Y-87172241D01*
X108607023Y-87393923D01*
X108125368Y-87715754D01*
X107715754Y-88125368D01*
X107393923Y-88607023D01*
X107172241Y-89142209D01*
X107059229Y-89710359D01*
X104902000Y-89710359D01*
X104902000Y-84734061D01*
X111995000Y-84734061D01*
X111995000Y-84937939D01*
X112034774Y-85137898D01*
X112112795Y-85326256D01*
X112226063Y-85495774D01*
X112370226Y-85639937D01*
X112539744Y-85753205D01*
X112728102Y-85831226D01*
X112928061Y-85871000D01*
X113131939Y-85871000D01*
X113331898Y-85831226D01*
X113520256Y-85753205D01*
X113689774Y-85639937D01*
X113733711Y-85596000D01*
X113784428Y-85596000D01*
X113784428Y-86350000D01*
X113801492Y-86523254D01*
X113852028Y-86689850D01*
X113934095Y-86843386D01*
X114044538Y-86977962D01*
X114179114Y-87088405D01*
X114332650Y-87170472D01*
X114499246Y-87221008D01*
X114672500Y-87238072D01*
X115597500Y-87238072D01*
X115770754Y-87221008D01*
X115937350Y-87170472D01*
X116090886Y-87088405D01*
X116225462Y-86977962D01*
X116335905Y-86843386D01*
X116417972Y-86689850D01*
X116445227Y-86600000D01*
X116759428Y-86600000D01*
X116771688Y-86724482D01*
X116807998Y-86844180D01*
X116866963Y-86954494D01*
X116946315Y-87051185D01*
X117043006Y-87130537D01*
X117153320Y-87189502D01*
X117273018Y-87225812D01*
X117397500Y-87238072D01*
X117824250Y-87235000D01*
X117983000Y-87076250D01*
X117983000Y-85852000D01*
X118237000Y-85852000D01*
X118237000Y-87076250D01*
X118395750Y-87235000D01*
X118822500Y-87238072D01*
X118946982Y-87225812D01*
X119066680Y-87189502D01*
X119176994Y-87130537D01*
X119273685Y-87051185D01*
X119353037Y-86954494D01*
X119395528Y-86875000D01*
X152156928Y-86875000D01*
X152160000Y-87214250D01*
X152318750Y-87373000D01*
X153543000Y-87373000D01*
X153543000Y-86398750D01*
X153797000Y-86398750D01*
X153797000Y-87373000D01*
X155021250Y-87373000D01*
X155180000Y-87214250D01*
X155183072Y-86875000D01*
X155170812Y-86750518D01*
X155134502Y-86630820D01*
X155075537Y-86520506D01*
X154996185Y-86423815D01*
X154899494Y-86344463D01*
X154789180Y-86285498D01*
X154669482Y-86249188D01*
X154545000Y-86236928D01*
X153955750Y-86240000D01*
X153797000Y-86398750D01*
X153543000Y-86398750D01*
X153384250Y-86240000D01*
X152795000Y-86236928D01*
X152670518Y-86249188D01*
X152550820Y-86285498D01*
X152440506Y-86344463D01*
X152343815Y-86423815D01*
X152264463Y-86520506D01*
X152205498Y-86630820D01*
X152169188Y-86750518D01*
X152156928Y-86875000D01*
X119395528Y-86875000D01*
X119412002Y-86844180D01*
X119448312Y-86724482D01*
X119460572Y-86600000D01*
X119457500Y-86010750D01*
X119298750Y-85852000D01*
X118237000Y-85852000D01*
X117983000Y-85852000D01*
X116921250Y-85852000D01*
X116762500Y-86010750D01*
X116759428Y-86600000D01*
X116445227Y-86600000D01*
X116468508Y-86523254D01*
X116485572Y-86350000D01*
X116485572Y-85100000D01*
X116468508Y-84926746D01*
X116445228Y-84850000D01*
X116759428Y-84850000D01*
X116762500Y-85439250D01*
X116921250Y-85598000D01*
X117983000Y-85598000D01*
X117983000Y-84373750D01*
X118237000Y-84373750D01*
X118237000Y-85598000D01*
X119298750Y-85598000D01*
X119457500Y-85439250D01*
X119460572Y-84850000D01*
X119448312Y-84725518D01*
X119412002Y-84605820D01*
X119353037Y-84495506D01*
X119273685Y-84398815D01*
X119176994Y-84319463D01*
X119066680Y-84260498D01*
X118946982Y-84224188D01*
X118822500Y-84211928D01*
X118395750Y-84215000D01*
X118237000Y-84373750D01*
X117983000Y-84373750D01*
X117824250Y-84215000D01*
X117397500Y-84211928D01*
X117273018Y-84224188D01*
X117153320Y-84260498D01*
X117043006Y-84319463D01*
X116946315Y-84398815D01*
X116866963Y-84495506D01*
X116807998Y-84605820D01*
X116771688Y-84725518D01*
X116759428Y-84850000D01*
X116445228Y-84850000D01*
X116417972Y-84760150D01*
X116335905Y-84606614D01*
X116225462Y-84472038D01*
X116090886Y-84361595D01*
X115937350Y-84279528D01*
X115770754Y-84228992D01*
X115597500Y-84211928D01*
X114683560Y-84211928D01*
X114670276Y-84201026D01*
X114538247Y-84130454D01*
X114394986Y-84086997D01*
X114283333Y-84076000D01*
X114283322Y-84076000D01*
X114246000Y-84072324D01*
X114208678Y-84076000D01*
X113733711Y-84076000D01*
X113689774Y-84032063D01*
X113520256Y-83918795D01*
X113331898Y-83840774D01*
X113131939Y-83801000D01*
X112928061Y-83801000D01*
X112728102Y-83840774D01*
X112539744Y-83918795D01*
X112370226Y-84032063D01*
X112226063Y-84176226D01*
X112112795Y-84345744D01*
X112034774Y-84534102D01*
X111995000Y-84734061D01*
X104902000Y-84734061D01*
X104902000Y-80670061D01*
X112327000Y-80670061D01*
X112327000Y-80873939D01*
X112366774Y-81073898D01*
X112444795Y-81262256D01*
X112558063Y-81431774D01*
X112702226Y-81575937D01*
X112871744Y-81689205D01*
X113060102Y-81767226D01*
X113260061Y-81807000D01*
X113463939Y-81807000D01*
X113553403Y-81789205D01*
X113784428Y-82020230D01*
X113784428Y-82921000D01*
X113801492Y-83094254D01*
X113852028Y-83260850D01*
X113934095Y-83414386D01*
X114044538Y-83548962D01*
X114179114Y-83659405D01*
X114332650Y-83741472D01*
X114499246Y-83792008D01*
X114672500Y-83809072D01*
X115597500Y-83809072D01*
X115770754Y-83792008D01*
X115937350Y-83741472D01*
X116090886Y-83659405D01*
X116225462Y-83548962D01*
X116335905Y-83414386D01*
X116417972Y-83260850D01*
X116445227Y-83171000D01*
X116759428Y-83171000D01*
X116771688Y-83295482D01*
X116807998Y-83415180D01*
X116866963Y-83525494D01*
X116946315Y-83622185D01*
X117043006Y-83701537D01*
X117153320Y-83760502D01*
X117273018Y-83796812D01*
X117397500Y-83809072D01*
X117824250Y-83806000D01*
X117983000Y-83647250D01*
X117983000Y-82423000D01*
X118237000Y-82423000D01*
X118237000Y-83647250D01*
X118395750Y-83806000D01*
X118822500Y-83809072D01*
X118946982Y-83796812D01*
X119066680Y-83760502D01*
X119176994Y-83701537D01*
X119273685Y-83622185D01*
X119353037Y-83525494D01*
X119412002Y-83415180D01*
X119448312Y-83295482D01*
X119460572Y-83171000D01*
X119457500Y-82581750D01*
X119298750Y-82423000D01*
X118237000Y-82423000D01*
X117983000Y-82423000D01*
X116921250Y-82423000D01*
X116762500Y-82581750D01*
X116759428Y-83171000D01*
X116445227Y-83171000D01*
X116468508Y-83094254D01*
X116485572Y-82921000D01*
X116485572Y-81671000D01*
X116468508Y-81497746D01*
X116445228Y-81421000D01*
X116759428Y-81421000D01*
X116762500Y-82010250D01*
X116921250Y-82169000D01*
X117983000Y-82169000D01*
X117983000Y-80944750D01*
X118237000Y-80944750D01*
X118237000Y-82169000D01*
X119298750Y-82169000D01*
X119457500Y-82010250D01*
X119460572Y-81421000D01*
X119448312Y-81296518D01*
X119412002Y-81176820D01*
X119353037Y-81066506D01*
X119273685Y-80969815D01*
X119176994Y-80890463D01*
X119066680Y-80831498D01*
X118946982Y-80795188D01*
X118822500Y-80782928D01*
X118395750Y-80786000D01*
X118237000Y-80944750D01*
X117983000Y-80944750D01*
X117824250Y-80786000D01*
X117397500Y-80782928D01*
X117273018Y-80795188D01*
X117153320Y-80831498D01*
X117043006Y-80890463D01*
X116946315Y-80969815D01*
X116866963Y-81066506D01*
X116807998Y-81176820D01*
X116771688Y-81296518D01*
X116759428Y-81421000D01*
X116445228Y-81421000D01*
X116417972Y-81331150D01*
X116335905Y-81177614D01*
X116225462Y-81043038D01*
X116090886Y-80932595D01*
X115937350Y-80850528D01*
X115770754Y-80799992D01*
X115597500Y-80782928D01*
X114696730Y-80782928D01*
X114338362Y-80424561D01*
X114279205Y-80281744D01*
X114165937Y-80112226D01*
X114021774Y-79968063D01*
X113852256Y-79854795D01*
X113663898Y-79776774D01*
X113463939Y-79737000D01*
X113260061Y-79737000D01*
X113060102Y-79776774D01*
X112871744Y-79854795D01*
X112702226Y-79968063D01*
X112558063Y-80112226D01*
X112444795Y-80281744D01*
X112366774Y-80470102D01*
X112327000Y-80670061D01*
X104902000Y-80670061D01*
X104902000Y-79495000D01*
X117866928Y-79495000D01*
X117879188Y-79619482D01*
X117915498Y-79739180D01*
X117974463Y-79849494D01*
X118053815Y-79946185D01*
X118150506Y-80025537D01*
X118260820Y-80084502D01*
X118380518Y-80120812D01*
X118505000Y-80133072D01*
X119094250Y-80130000D01*
X119253000Y-79971250D01*
X119253000Y-78997000D01*
X119507000Y-78997000D01*
X119507000Y-79971250D01*
X119665750Y-80130000D01*
X120255000Y-80133072D01*
X120379482Y-80120812D01*
X120499180Y-80084502D01*
X120609494Y-80025537D01*
X120706185Y-79946185D01*
X120785537Y-79849494D01*
X120844502Y-79739180D01*
X120880812Y-79619482D01*
X120893072Y-79495000D01*
X120890000Y-79155750D01*
X120731250Y-78997000D01*
X119507000Y-78997000D01*
X119253000Y-78997000D01*
X118028750Y-78997000D01*
X117870000Y-79155750D01*
X117866928Y-79495000D01*
X104902000Y-79495000D01*
X104902000Y-78245000D01*
X117866928Y-78245000D01*
X117870000Y-78584250D01*
X118028750Y-78743000D01*
X119253000Y-78743000D01*
X119253000Y-77768750D01*
X119094250Y-77610000D01*
X118505000Y-77606928D01*
X118380518Y-77619188D01*
X118260820Y-77655498D01*
X118150506Y-77714463D01*
X118053815Y-77793815D01*
X117974463Y-77890506D01*
X117915498Y-78000820D01*
X117879188Y-78120518D01*
X117866928Y-78245000D01*
X104902000Y-78245000D01*
X104902000Y-72400000D01*
X106381928Y-72400000D01*
X106381928Y-73650000D01*
X106398992Y-73823254D01*
X106449528Y-73989850D01*
X106531595Y-74143386D01*
X106642038Y-74277962D01*
X106776614Y-74388405D01*
X106930150Y-74470472D01*
X107096746Y-74521008D01*
X107270000Y-74538072D01*
X108195000Y-74538072D01*
X108368254Y-74521008D01*
X108534850Y-74470472D01*
X108688386Y-74388405D01*
X108822962Y-74277962D01*
X108933405Y-74143386D01*
X109015472Y-73989850D01*
X109042727Y-73900000D01*
X109356928Y-73900000D01*
X109369188Y-74024482D01*
X109405498Y-74144180D01*
X109464463Y-74254494D01*
X109543815Y-74351185D01*
X109640506Y-74430537D01*
X109750820Y-74489502D01*
X109870518Y-74525812D01*
X109995000Y-74538072D01*
X110421750Y-74535000D01*
X110580500Y-74376250D01*
X110580500Y-73152000D01*
X110834500Y-73152000D01*
X110834500Y-74376250D01*
X110993250Y-74535000D01*
X111420000Y-74538072D01*
X111544482Y-74525812D01*
X111664180Y-74489502D01*
X111774494Y-74430537D01*
X111871185Y-74351185D01*
X111950537Y-74254494D01*
X112009502Y-74144180D01*
X112045812Y-74024482D01*
X112058072Y-73900000D01*
X112055000Y-73310750D01*
X111896250Y-73152000D01*
X110834500Y-73152000D01*
X110580500Y-73152000D01*
X109518750Y-73152000D01*
X109360000Y-73310750D01*
X109356928Y-73900000D01*
X109042727Y-73900000D01*
X109066008Y-73823254D01*
X109083072Y-73650000D01*
X109083072Y-72749229D01*
X109358616Y-72473686D01*
X109360000Y-72739250D01*
X109518750Y-72898000D01*
X110580500Y-72898000D01*
X110580500Y-71673750D01*
X110834500Y-71673750D01*
X110834500Y-72898000D01*
X111896250Y-72898000D01*
X112055000Y-72739250D01*
X112058072Y-72150000D01*
X112045812Y-72025518D01*
X112009502Y-71905820D01*
X111950537Y-71795506D01*
X111871185Y-71698815D01*
X111774494Y-71619463D01*
X111664180Y-71560498D01*
X111544482Y-71524188D01*
X111420000Y-71511928D01*
X110993250Y-71515000D01*
X110834500Y-71673750D01*
X110580500Y-71673750D01*
X110421750Y-71515000D01*
X110318048Y-71514253D01*
X111222302Y-70610000D01*
X114231289Y-70610000D01*
X114275226Y-70653937D01*
X114444744Y-70767205D01*
X114633102Y-70845226D01*
X114833061Y-70885000D01*
X115036939Y-70885000D01*
X115236898Y-70845226D01*
X115425256Y-70767205D01*
X115594774Y-70653937D01*
X115638711Y-70610000D01*
X119740199Y-70610000D01*
X122548151Y-73417953D01*
X122435000Y-73416928D01*
X122310518Y-73429188D01*
X122190820Y-73465498D01*
X122080506Y-73524463D01*
X121983815Y-73603815D01*
X121904463Y-73700506D01*
X121845498Y-73810820D01*
X121809188Y-73930518D01*
X121796928Y-74055000D01*
X121800000Y-74644250D01*
X121958750Y-74803000D01*
X122933000Y-74803000D01*
X122933000Y-74783000D01*
X123187000Y-74783000D01*
X123187000Y-74803000D01*
X123207000Y-74803000D01*
X123207000Y-75057000D01*
X123187000Y-75057000D01*
X123187000Y-76281250D01*
X123345750Y-76440000D01*
X123685000Y-76443072D01*
X123809482Y-76430812D01*
X123929180Y-76394502D01*
X124039494Y-76335537D01*
X124136185Y-76256185D01*
X124215537Y-76159494D01*
X124274502Y-76049180D01*
X124310812Y-75929482D01*
X124323072Y-75805000D01*
X124320000Y-75215750D01*
X124161252Y-75057002D01*
X124187200Y-75057002D01*
X124571201Y-75441003D01*
X124594999Y-75470001D01*
X124596928Y-75471584D01*
X124596928Y-75555000D01*
X124613992Y-75728254D01*
X124664528Y-75894850D01*
X124746595Y-76048386D01*
X124830201Y-76150261D01*
X124765557Y-76247008D01*
X124672460Y-76471764D01*
X124625000Y-76710363D01*
X124625000Y-76953637D01*
X124672460Y-77192236D01*
X124765557Y-77416992D01*
X124832411Y-77517046D01*
X124746595Y-77621614D01*
X124664528Y-77775150D01*
X124613992Y-77941746D01*
X124596928Y-78115000D01*
X124596928Y-79365000D01*
X124613992Y-79538254D01*
X124664528Y-79704850D01*
X124746595Y-79858386D01*
X124857038Y-79992962D01*
X124991614Y-80103405D01*
X125037501Y-80127932D01*
X125037500Y-81949309D01*
X124150202Y-82836607D01*
X124121516Y-82692392D01*
X124043495Y-82504034D01*
X123930227Y-82334516D01*
X123786064Y-82190353D01*
X123616546Y-82077085D01*
X123428188Y-81999064D01*
X123228229Y-81959290D01*
X123166092Y-81959290D01*
X122869990Y-81663189D01*
X122869990Y-80154260D01*
X122933000Y-80091250D01*
X122933000Y-78867000D01*
X123187000Y-78867000D01*
X123187000Y-80091250D01*
X123345750Y-80250000D01*
X123685000Y-80253072D01*
X123809482Y-80240812D01*
X123929180Y-80204502D01*
X124039494Y-80145537D01*
X124136185Y-80066185D01*
X124215537Y-79969494D01*
X124274502Y-79859180D01*
X124310812Y-79739482D01*
X124323072Y-79615000D01*
X124320000Y-79025750D01*
X124161250Y-78867000D01*
X123187000Y-78867000D01*
X122933000Y-78867000D01*
X122913000Y-78867000D01*
X122913000Y-78613000D01*
X122933000Y-78613000D01*
X122933000Y-77388750D01*
X123187000Y-77388750D01*
X123187000Y-78613000D01*
X124161250Y-78613000D01*
X124320000Y-78454250D01*
X124323072Y-77865000D01*
X124310812Y-77740518D01*
X124274502Y-77620820D01*
X124215537Y-77510506D01*
X124136185Y-77413815D01*
X124039494Y-77334463D01*
X123929180Y-77275498D01*
X123809482Y-77239188D01*
X123685000Y-77226928D01*
X123345750Y-77230000D01*
X123187000Y-77388750D01*
X122933000Y-77388750D01*
X122774250Y-77230000D01*
X122435000Y-77226928D01*
X122310518Y-77239188D01*
X122190820Y-77275498D01*
X122080506Y-77334463D01*
X121983815Y-77413815D01*
X121904463Y-77510506D01*
X121901274Y-77516472D01*
X120887399Y-76502598D01*
X120893072Y-76445000D01*
X120893072Y-75805000D01*
X121796928Y-75805000D01*
X121809188Y-75929482D01*
X121845498Y-76049180D01*
X121904463Y-76159494D01*
X121983815Y-76256185D01*
X122080506Y-76335537D01*
X122190820Y-76394502D01*
X122310518Y-76430812D01*
X122435000Y-76443072D01*
X122774250Y-76440000D01*
X122933000Y-76281250D01*
X122933000Y-75057000D01*
X121958750Y-75057000D01*
X121800000Y-75215750D01*
X121796928Y-75805000D01*
X120893072Y-75805000D01*
X120893072Y-75695000D01*
X120876008Y-75521746D01*
X120825472Y-75355150D01*
X120743405Y-75201614D01*
X120632962Y-75067038D01*
X120498386Y-74956595D01*
X120344850Y-74874528D01*
X120178254Y-74823992D01*
X120005000Y-74806928D01*
X119191729Y-74806928D01*
X118743000Y-74358199D01*
X118743000Y-73601711D01*
X118786937Y-73557774D01*
X118900205Y-73388256D01*
X118978226Y-73199898D01*
X119018000Y-72999939D01*
X119018000Y-72796061D01*
X118978226Y-72596102D01*
X118900205Y-72407744D01*
X118786937Y-72238226D01*
X118642774Y-72094063D01*
X118473256Y-71980795D01*
X118284898Y-71902774D01*
X118084939Y-71863000D01*
X117881061Y-71863000D01*
X117681102Y-71902774D01*
X117492744Y-71980795D01*
X117323226Y-72094063D01*
X117179063Y-72238226D01*
X117065795Y-72407744D01*
X116987774Y-72596102D01*
X116948000Y-72796061D01*
X116948000Y-72999939D01*
X116987774Y-73199898D01*
X117065795Y-73388256D01*
X117179063Y-73557774D01*
X117223000Y-73601711D01*
X117223001Y-74635668D01*
X117219324Y-74673000D01*
X117233998Y-74821985D01*
X117277454Y-74965246D01*
X117348026Y-75097276D01*
X117419201Y-75184002D01*
X117443000Y-75213001D01*
X117471998Y-75236799D01*
X117872601Y-75637402D01*
X117866928Y-75695000D01*
X117866928Y-76445000D01*
X117883992Y-76618254D01*
X117934528Y-76784850D01*
X118016595Y-76938386D01*
X118127038Y-77072962D01*
X118261614Y-77183405D01*
X118415150Y-77265472D01*
X118581746Y-77316008D01*
X118755000Y-77333072D01*
X119568271Y-77333072D01*
X119844268Y-77609069D01*
X119665750Y-77610000D01*
X119507000Y-77768750D01*
X119507000Y-78743000D01*
X120731250Y-78743000D01*
X120854724Y-78619526D01*
X121349991Y-79114793D01*
X121349990Y-81940667D01*
X121346314Y-81977990D01*
X121349990Y-82015312D01*
X121349990Y-82015322D01*
X121360987Y-82126975D01*
X121384254Y-82203676D01*
X121404444Y-82270236D01*
X121475016Y-82402266D01*
X121510075Y-82444985D01*
X121569989Y-82517991D01*
X121598992Y-82541794D01*
X122091290Y-83034092D01*
X122091290Y-83096229D01*
X122131064Y-83296188D01*
X122209085Y-83484546D01*
X122251342Y-83547788D01*
X122204267Y-83500713D01*
X122001992Y-83365557D01*
X121777236Y-83272460D01*
X121538637Y-83225000D01*
X121295363Y-83225000D01*
X121056764Y-83272460D01*
X120832008Y-83365557D01*
X120629733Y-83500713D01*
X120457713Y-83672733D01*
X120322557Y-83875008D01*
X120229460Y-84099764D01*
X120182000Y-84338363D01*
X120182000Y-84581637D01*
X120229460Y-84820236D01*
X120322557Y-85044992D01*
X120457713Y-85247267D01*
X120629733Y-85419287D01*
X120832008Y-85554443D01*
X121056764Y-85647540D01*
X121295363Y-85695000D01*
X121487681Y-85695000D01*
X121493970Y-85700161D01*
X121587833Y-85777192D01*
X121730720Y-85853567D01*
X121813035Y-85878537D01*
X121813992Y-85888254D01*
X121864528Y-86054850D01*
X121946595Y-86208386D01*
X122057038Y-86342962D01*
X122191614Y-86453405D01*
X122345150Y-86535472D01*
X122511746Y-86586008D01*
X122685000Y-86603072D01*
X123435000Y-86603072D01*
X123608254Y-86586008D01*
X123774850Y-86535472D01*
X123928386Y-86453405D01*
X124062962Y-86342962D01*
X124173405Y-86208386D01*
X124255472Y-86054850D01*
X124282727Y-85965000D01*
X124596928Y-85965000D01*
X124609188Y-86089482D01*
X124645498Y-86209180D01*
X124704463Y-86319494D01*
X124783815Y-86416185D01*
X124880506Y-86495537D01*
X124990820Y-86554502D01*
X125110518Y-86590812D01*
X125235000Y-86603072D01*
X125574250Y-86600000D01*
X125733000Y-86441250D01*
X125733000Y-85217000D01*
X125987000Y-85217000D01*
X125987000Y-86441250D01*
X126145750Y-86600000D01*
X126485000Y-86603072D01*
X126609482Y-86590812D01*
X126729180Y-86554502D01*
X126839494Y-86495537D01*
X126936185Y-86416185D01*
X127015537Y-86319494D01*
X127074502Y-86209180D01*
X127110812Y-86089482D01*
X127123072Y-85965000D01*
X127120000Y-85375750D01*
X126961250Y-85217000D01*
X125987000Y-85217000D01*
X125733000Y-85217000D01*
X124758750Y-85217000D01*
X124600000Y-85375750D01*
X124596928Y-85965000D01*
X124282727Y-85965000D01*
X124306008Y-85888254D01*
X124323072Y-85715000D01*
X124323072Y-84990118D01*
X124599528Y-84713663D01*
X124600000Y-84804250D01*
X124758750Y-84963000D01*
X125733000Y-84963000D01*
X125733000Y-83738750D01*
X125987000Y-83738750D01*
X125987000Y-84963000D01*
X126961250Y-84963000D01*
X127120000Y-84804250D01*
X127121461Y-84523863D01*
X147990000Y-84523863D01*
X147990000Y-84767137D01*
X148037460Y-85005736D01*
X148130557Y-85230492D01*
X148265713Y-85432767D01*
X148437733Y-85604787D01*
X148640008Y-85739943D01*
X148864764Y-85833040D01*
X149103363Y-85880500D01*
X149346637Y-85880500D01*
X149585236Y-85833040D01*
X149809992Y-85739943D01*
X150012267Y-85604787D01*
X150184287Y-85432767D01*
X150319443Y-85230492D01*
X150371984Y-85103647D01*
X150900631Y-84575000D01*
X152156928Y-84575000D01*
X152169188Y-84699482D01*
X152205498Y-84819180D01*
X152264463Y-84929494D01*
X152343815Y-85026185D01*
X152440506Y-85105537D01*
X152550820Y-85164502D01*
X152670518Y-85200812D01*
X152795000Y-85213072D01*
X153384250Y-85210000D01*
X153543000Y-85051250D01*
X153543000Y-84077000D01*
X153797000Y-84077000D01*
X153797000Y-85051250D01*
X153955750Y-85210000D01*
X154545000Y-85213072D01*
X154669482Y-85200812D01*
X154789180Y-85164502D01*
X154899494Y-85105537D01*
X154996185Y-85026185D01*
X155075537Y-84929494D01*
X155134502Y-84819180D01*
X155170812Y-84699482D01*
X155183072Y-84575000D01*
X155180000Y-84235750D01*
X155021250Y-84077000D01*
X153797000Y-84077000D01*
X153543000Y-84077000D01*
X152318750Y-84077000D01*
X152160000Y-84235750D01*
X152156928Y-84575000D01*
X150900631Y-84575000D01*
X152157616Y-83318016D01*
X152156928Y-83325000D01*
X152160000Y-83664250D01*
X152318750Y-83823000D01*
X153543000Y-83823000D01*
X153543000Y-82848750D01*
X153797000Y-82848750D01*
X153797000Y-83823000D01*
X155021250Y-83823000D01*
X155180000Y-83664250D01*
X155183072Y-83325000D01*
X155170812Y-83200518D01*
X155134502Y-83080820D01*
X155075537Y-82970506D01*
X154996185Y-82873815D01*
X154899494Y-82794463D01*
X154789180Y-82735498D01*
X154669482Y-82699188D01*
X154545000Y-82686928D01*
X153955750Y-82690000D01*
X153797000Y-82848750D01*
X153543000Y-82848750D01*
X153384250Y-82690000D01*
X152795000Y-82686928D01*
X152788017Y-82687616D01*
X153062561Y-82413072D01*
X154295000Y-82413072D01*
X154468254Y-82396008D01*
X154634850Y-82345472D01*
X154788386Y-82263405D01*
X154922962Y-82152962D01*
X155033405Y-82018386D01*
X155051389Y-81984740D01*
X174138964Y-81984740D01*
X174163245Y-82090087D01*
X174283138Y-82367204D01*
X174454790Y-82615606D01*
X174671604Y-82825748D01*
X174925249Y-82989554D01*
X175205977Y-83100729D01*
X175503000Y-83155000D01*
X176403000Y-83155000D01*
X176403000Y-81747000D01*
X176657000Y-81747000D01*
X176657000Y-83155000D01*
X177557000Y-83155000D01*
X177854023Y-83100729D01*
X178134751Y-82989554D01*
X178388396Y-82825748D01*
X178605210Y-82615606D01*
X178776862Y-82367204D01*
X178896755Y-82090087D01*
X178921036Y-81984740D01*
X178800378Y-81747000D01*
X176657000Y-81747000D01*
X176403000Y-81747000D01*
X174259622Y-81747000D01*
X174138964Y-81984740D01*
X155051389Y-81984740D01*
X155115472Y-81864850D01*
X155166008Y-81698254D01*
X155183072Y-81525000D01*
X155183072Y-81255260D01*
X174138964Y-81255260D01*
X174259622Y-81493000D01*
X176403000Y-81493000D01*
X176403000Y-80085000D01*
X176657000Y-80085000D01*
X176657000Y-81493000D01*
X178800378Y-81493000D01*
X178921036Y-81255260D01*
X178896755Y-81149913D01*
X178776862Y-80872796D01*
X178605210Y-80624394D01*
X178388396Y-80414252D01*
X178134751Y-80250446D01*
X177854023Y-80139271D01*
X177557000Y-80085000D01*
X176657000Y-80085000D01*
X176403000Y-80085000D01*
X175503000Y-80085000D01*
X175205977Y-80139271D01*
X174925249Y-80250446D01*
X174671604Y-80414252D01*
X174454790Y-80624394D01*
X174283138Y-80872796D01*
X174163245Y-81149913D01*
X174138964Y-81255260D01*
X155183072Y-81255260D01*
X155183072Y-81242059D01*
X161805131Y-74620000D01*
X174087573Y-74620000D01*
X174117210Y-74920913D01*
X174204983Y-75210261D01*
X174347519Y-75476927D01*
X174539339Y-75710661D01*
X174773073Y-75902481D01*
X175039739Y-76045017D01*
X175329087Y-76132790D01*
X175395000Y-76139282D01*
X175395001Y-76600718D01*
X175329087Y-76607210D01*
X175039739Y-76694983D01*
X174773073Y-76837519D01*
X174539339Y-77029339D01*
X174347519Y-77263073D01*
X174204983Y-77529739D01*
X174117210Y-77819087D01*
X174087573Y-78120000D01*
X174117210Y-78420913D01*
X174204983Y-78710261D01*
X174347519Y-78976927D01*
X174539339Y-79210661D01*
X174773073Y-79402481D01*
X175039739Y-79545017D01*
X175329087Y-79632790D01*
X175554592Y-79655000D01*
X177505408Y-79655000D01*
X177730913Y-79632790D01*
X178020261Y-79545017D01*
X178286927Y-79402481D01*
X178520661Y-79210661D01*
X178712481Y-78976927D01*
X178855017Y-78710261D01*
X178942790Y-78420913D01*
X178972427Y-78120000D01*
X178942790Y-77819087D01*
X178855017Y-77529739D01*
X178712481Y-77263073D01*
X178520661Y-77029339D01*
X178286927Y-76837519D01*
X178020261Y-76694983D01*
X177730913Y-76607210D01*
X177665000Y-76600718D01*
X177665000Y-76139282D01*
X177730913Y-76132790D01*
X178020261Y-76045017D01*
X178286927Y-75902481D01*
X178520661Y-75710661D01*
X178712481Y-75476927D01*
X178855017Y-75210261D01*
X178942790Y-74920913D01*
X178972427Y-74620000D01*
X178942790Y-74319087D01*
X178855017Y-74029739D01*
X178712481Y-73763073D01*
X178520661Y-73529339D01*
X178286927Y-73337519D01*
X178020261Y-73194983D01*
X177730913Y-73107210D01*
X177505408Y-73085000D01*
X175554592Y-73085000D01*
X175329087Y-73107210D01*
X175039739Y-73194983D01*
X174773073Y-73337519D01*
X174539339Y-73529339D01*
X174347519Y-73763073D01*
X174204983Y-74029739D01*
X174117210Y-74319087D01*
X174087573Y-74620000D01*
X161805131Y-74620000D01*
X164170132Y-72255000D01*
X174237113Y-72255000D01*
X174241595Y-72263386D01*
X174352038Y-72397962D01*
X174486614Y-72508405D01*
X174640150Y-72590472D01*
X174806746Y-72641008D01*
X174980000Y-72658072D01*
X178080000Y-72658072D01*
X178253254Y-72641008D01*
X178419850Y-72590472D01*
X178573386Y-72508405D01*
X178707962Y-72397962D01*
X178818405Y-72263386D01*
X178900472Y-72109850D01*
X178951008Y-71943254D01*
X178968072Y-71770000D01*
X178968072Y-70470000D01*
X178951008Y-70296746D01*
X178900472Y-70130150D01*
X178818405Y-69976614D01*
X178707962Y-69842038D01*
X178573386Y-69731595D01*
X178419850Y-69649528D01*
X178253254Y-69598992D01*
X178080000Y-69581928D01*
X174980000Y-69581928D01*
X174806746Y-69598992D01*
X174640150Y-69649528D01*
X174486614Y-69731595D01*
X174352038Y-69842038D01*
X174241595Y-69976614D01*
X174237113Y-69985000D01*
X163755751Y-69985000D01*
X163699999Y-69979509D01*
X163644248Y-69985000D01*
X163477501Y-70001423D01*
X163263553Y-70066324D01*
X163066377Y-70171716D01*
X162893551Y-70313551D01*
X162858009Y-70356859D01*
X153327941Y-79886928D01*
X153045000Y-79886928D01*
X152871746Y-79903992D01*
X152705150Y-79954528D01*
X152575586Y-80023782D01*
X152498001Y-80031423D01*
X152284053Y-80096324D01*
X152086877Y-80201716D01*
X151957356Y-80308011D01*
X151957354Y-80308013D01*
X151914051Y-80343551D01*
X151878513Y-80386854D01*
X148766853Y-83498516D01*
X148640008Y-83551057D01*
X148437733Y-83686213D01*
X148265713Y-83858233D01*
X148130557Y-84060508D01*
X148037460Y-84285264D01*
X147990000Y-84523863D01*
X127121461Y-84523863D01*
X127123072Y-84215000D01*
X127110812Y-84090518D01*
X127074502Y-83970820D01*
X127015537Y-83860506D01*
X126936185Y-83763815D01*
X126839494Y-83684463D01*
X126729180Y-83625498D01*
X126609482Y-83589188D01*
X126485000Y-83576928D01*
X126145750Y-83580000D01*
X125987000Y-83738750D01*
X125733000Y-83738750D01*
X125653720Y-83659470D01*
X126413031Y-82900160D01*
X126444409Y-82874409D01*
X126547192Y-82749167D01*
X126623567Y-82606280D01*
X126623567Y-82606279D01*
X126670598Y-82451239D01*
X126686479Y-82290000D01*
X126682500Y-82249602D01*
X126682500Y-80127932D01*
X126728386Y-80103405D01*
X126862962Y-79992962D01*
X126973405Y-79858386D01*
X127055472Y-79704850D01*
X127065000Y-79673440D01*
X127074528Y-79704850D01*
X127156595Y-79858386D01*
X127267038Y-79992962D01*
X127401614Y-80103405D01*
X127555150Y-80185472D01*
X127721746Y-80236008D01*
X127895000Y-80253072D01*
X128645000Y-80253072D01*
X128818254Y-80236008D01*
X128984850Y-80185472D01*
X129138386Y-80103405D01*
X129272962Y-79992962D01*
X129383405Y-79858386D01*
X129465472Y-79704850D01*
X129492727Y-79615000D01*
X129806928Y-79615000D01*
X129819188Y-79739482D01*
X129855498Y-79859180D01*
X129914463Y-79969494D01*
X129993815Y-80066185D01*
X130090506Y-80145537D01*
X130200820Y-80204502D01*
X130320518Y-80240812D01*
X130445000Y-80253072D01*
X130784250Y-80250000D01*
X130943000Y-80091250D01*
X130943000Y-78867000D01*
X131197000Y-78867000D01*
X131197000Y-80091250D01*
X131355750Y-80250000D01*
X131695000Y-80253072D01*
X131819482Y-80240812D01*
X131939180Y-80204502D01*
X132049494Y-80145537D01*
X132146185Y-80066185D01*
X132225537Y-79969494D01*
X132284502Y-79859180D01*
X132320812Y-79739482D01*
X132333072Y-79615000D01*
X132330000Y-79025750D01*
X132171250Y-78867000D01*
X131197000Y-78867000D01*
X130943000Y-78867000D01*
X129968750Y-78867000D01*
X129810000Y-79025750D01*
X129806928Y-79615000D01*
X129492727Y-79615000D01*
X129516008Y-79538254D01*
X129533072Y-79365000D01*
X129533072Y-78115000D01*
X129516008Y-77941746D01*
X129492728Y-77865000D01*
X129806928Y-77865000D01*
X129810000Y-78454250D01*
X129968750Y-78613000D01*
X130943000Y-78613000D01*
X130943000Y-77388750D01*
X131197000Y-77388750D01*
X131197000Y-78613000D01*
X132171250Y-78613000D01*
X132330000Y-78454250D01*
X132333072Y-77865000D01*
X132320812Y-77740518D01*
X132284502Y-77620820D01*
X132225537Y-77510506D01*
X132146185Y-77413815D01*
X132049494Y-77334463D01*
X131939180Y-77275498D01*
X131819482Y-77239188D01*
X131695000Y-77226928D01*
X131355750Y-77230000D01*
X131197000Y-77388750D01*
X130943000Y-77388750D01*
X130784250Y-77230000D01*
X130445000Y-77226928D01*
X130320518Y-77239188D01*
X130200820Y-77275498D01*
X130090506Y-77334463D01*
X129993815Y-77413815D01*
X129914463Y-77510506D01*
X129855498Y-77620820D01*
X129819188Y-77740518D01*
X129806928Y-77865000D01*
X129492728Y-77865000D01*
X129465472Y-77775150D01*
X129383405Y-77621614D01*
X129272962Y-77487038D01*
X129138386Y-77376595D01*
X128984850Y-77294528D01*
X128818254Y-77243992D01*
X128645000Y-77226928D01*
X127895000Y-77226928D01*
X127721746Y-77243992D01*
X127555150Y-77294528D01*
X127401614Y-77376595D01*
X127267038Y-77487038D01*
X127156595Y-77621614D01*
X127074528Y-77775150D01*
X127065000Y-77806560D01*
X127055472Y-77775150D01*
X126973405Y-77621614D01*
X126887589Y-77517046D01*
X126954443Y-77416992D01*
X127047540Y-77192236D01*
X127095000Y-76953637D01*
X127095000Y-76710363D01*
X127047540Y-76471764D01*
X126954443Y-76247008D01*
X126889799Y-76150261D01*
X126973405Y-76048386D01*
X127055472Y-75894850D01*
X127065000Y-75863440D01*
X127074528Y-75894850D01*
X127156595Y-76048386D01*
X127267038Y-76182962D01*
X127401614Y-76293405D01*
X127555150Y-76375472D01*
X127721746Y-76426008D01*
X127895000Y-76443072D01*
X128645000Y-76443072D01*
X128818254Y-76426008D01*
X128984850Y-76375472D01*
X129138386Y-76293405D01*
X129272962Y-76182962D01*
X129383405Y-76048386D01*
X129465472Y-75894850D01*
X129492727Y-75805000D01*
X129806928Y-75805000D01*
X129819188Y-75929482D01*
X129855498Y-76049180D01*
X129914463Y-76159494D01*
X129993815Y-76256185D01*
X130090506Y-76335537D01*
X130200820Y-76394502D01*
X130320518Y-76430812D01*
X130445000Y-76443072D01*
X130784250Y-76440000D01*
X130943000Y-76281250D01*
X130943000Y-75057000D01*
X131197000Y-75057000D01*
X131197000Y-76281250D01*
X131355750Y-76440000D01*
X131695000Y-76443072D01*
X131819482Y-76430812D01*
X131939180Y-76394502D01*
X132049494Y-76335537D01*
X132146185Y-76256185D01*
X132225537Y-76159494D01*
X132284502Y-76049180D01*
X132320812Y-75929482D01*
X132333072Y-75805000D01*
X132330000Y-75215750D01*
X132171250Y-75057000D01*
X131197000Y-75057000D01*
X130943000Y-75057000D01*
X129968750Y-75057000D01*
X129810000Y-75215750D01*
X129806928Y-75805000D01*
X129492727Y-75805000D01*
X129516008Y-75728254D01*
X129533072Y-75555000D01*
X129533072Y-74305000D01*
X129516008Y-74131746D01*
X129492728Y-74055000D01*
X129806928Y-74055000D01*
X129810000Y-74644250D01*
X129968750Y-74803000D01*
X130943000Y-74803000D01*
X130943000Y-73578750D01*
X131197000Y-73578750D01*
X131197000Y-74803000D01*
X132171250Y-74803000D01*
X132330000Y-74644250D01*
X132333072Y-74055000D01*
X132320812Y-73930518D01*
X132284502Y-73810820D01*
X132225537Y-73700506D01*
X132146185Y-73603815D01*
X132049494Y-73524463D01*
X131939180Y-73465498D01*
X131819482Y-73429188D01*
X131695000Y-73416928D01*
X131355750Y-73420000D01*
X131197000Y-73578750D01*
X130943000Y-73578750D01*
X130784250Y-73420000D01*
X130445000Y-73416928D01*
X130320518Y-73429188D01*
X130200820Y-73465498D01*
X130090506Y-73524463D01*
X129993815Y-73603815D01*
X129914463Y-73700506D01*
X129855498Y-73810820D01*
X129819188Y-73930518D01*
X129806928Y-74055000D01*
X129492728Y-74055000D01*
X129465472Y-73965150D01*
X129383405Y-73811614D01*
X129272962Y-73677038D01*
X129138386Y-73566595D01*
X129030000Y-73508661D01*
X129030000Y-70553711D01*
X129073937Y-70509774D01*
X129187205Y-70340256D01*
X129265226Y-70151898D01*
X129305000Y-69951939D01*
X129305000Y-69748061D01*
X129265226Y-69548102D01*
X129187205Y-69359744D01*
X129073937Y-69190226D01*
X128929774Y-69046063D01*
X128760256Y-68932795D01*
X128571898Y-68854774D01*
X128371939Y-68815000D01*
X128168061Y-68815000D01*
X127968102Y-68854774D01*
X127779744Y-68932795D01*
X127610226Y-69046063D01*
X127466063Y-69190226D01*
X127352795Y-69359744D01*
X127274774Y-69548102D01*
X127235000Y-69748061D01*
X127235000Y-69951939D01*
X127274774Y-70151898D01*
X127352795Y-70340256D01*
X127466063Y-70509774D01*
X127510001Y-70553712D01*
X127510000Y-73508661D01*
X127401614Y-73566595D01*
X127267038Y-73677038D01*
X127156595Y-73811614D01*
X127074528Y-73965150D01*
X127065000Y-73996560D01*
X127055472Y-73965150D01*
X126973405Y-73811614D01*
X126862962Y-73677038D01*
X126728386Y-73566595D01*
X126574850Y-73484528D01*
X126408254Y-73433992D01*
X126235000Y-73416928D01*
X125485000Y-73416928D01*
X125311746Y-73433992D01*
X125145150Y-73484528D01*
X124991614Y-73566595D01*
X124911854Y-73632052D01*
X120618804Y-69339003D01*
X120595001Y-69309999D01*
X120479276Y-69215026D01*
X120347247Y-69144454D01*
X120203986Y-69100997D01*
X120092333Y-69090000D01*
X120092322Y-69090000D01*
X120055000Y-69086324D01*
X120017678Y-69090000D01*
X115638711Y-69090000D01*
X115594774Y-69046063D01*
X115425256Y-68932795D01*
X115236898Y-68854774D01*
X115036939Y-68815000D01*
X114833061Y-68815000D01*
X114633102Y-68854774D01*
X114444744Y-68932795D01*
X114275226Y-69046063D01*
X114231289Y-69090000D01*
X110944822Y-69090000D01*
X110907499Y-69086324D01*
X110870176Y-69090000D01*
X110870167Y-69090000D01*
X110758514Y-69100997D01*
X110615253Y-69144454D01*
X110483223Y-69215026D01*
X110414466Y-69271454D01*
X110367499Y-69309999D01*
X110343701Y-69338997D01*
X108170771Y-71511928D01*
X107270000Y-71511928D01*
X107096746Y-71528992D01*
X106930150Y-71579528D01*
X106776614Y-71661595D01*
X106642038Y-71772038D01*
X106531595Y-71906614D01*
X106449528Y-72060150D01*
X106398992Y-72226746D01*
X106381928Y-72400000D01*
X104902000Y-72400000D01*
X104902000Y-68706661D01*
X136023400Y-68706661D01*
X136023400Y-68910539D01*
X136063174Y-69110498D01*
X136141195Y-69298856D01*
X136254463Y-69468374D01*
X136298401Y-69512312D01*
X136298400Y-70517889D01*
X136254463Y-70561826D01*
X136141195Y-70731344D01*
X136063174Y-70919702D01*
X136023400Y-71119661D01*
X136023400Y-71323539D01*
X136063174Y-71523498D01*
X136141195Y-71711856D01*
X136254463Y-71881374D01*
X136398626Y-72025537D01*
X136568144Y-72138805D01*
X136756502Y-72216826D01*
X136956461Y-72256600D01*
X137160339Y-72256600D01*
X137289001Y-72231008D01*
X137289000Y-76766677D01*
X137285324Y-76804000D01*
X137289000Y-76841322D01*
X137289000Y-76841332D01*
X137299997Y-76952985D01*
X137331839Y-77057956D01*
X137343454Y-77096246D01*
X137414026Y-77228276D01*
X137452781Y-77275498D01*
X137508999Y-77344001D01*
X137538003Y-77367804D01*
X138913201Y-78743003D01*
X138936999Y-78772001D01*
X138938928Y-78773584D01*
X138938928Y-78857000D01*
X138955992Y-79030254D01*
X139006528Y-79196850D01*
X139088595Y-79350386D01*
X139199038Y-79484962D01*
X139333614Y-79595405D01*
X139487150Y-79677472D01*
X139653746Y-79728008D01*
X139827000Y-79745072D01*
X140577000Y-79745072D01*
X140750254Y-79728008D01*
X140916850Y-79677472D01*
X141070386Y-79595405D01*
X141204962Y-79484962D01*
X141315405Y-79350386D01*
X141397472Y-79196850D01*
X141448008Y-79030254D01*
X141465072Y-78857000D01*
X141465072Y-77607000D01*
X141448008Y-77433746D01*
X141397472Y-77267150D01*
X141315405Y-77113614D01*
X141204962Y-76979038D01*
X141070386Y-76868595D01*
X140916850Y-76786528D01*
X140868809Y-76771955D01*
X140919850Y-76756472D01*
X141073386Y-76674405D01*
X141207962Y-76563962D01*
X141318405Y-76429386D01*
X141400472Y-76275850D01*
X141451008Y-76109254D01*
X141468072Y-75936000D01*
X141468072Y-74686000D01*
X141451008Y-74512746D01*
X141427728Y-74436000D01*
X141741928Y-74436000D01*
X141745000Y-75025250D01*
X141903750Y-75184000D01*
X142878000Y-75184000D01*
X142878000Y-73959750D01*
X142719250Y-73801000D01*
X142380000Y-73797928D01*
X142255518Y-73810188D01*
X142135820Y-73846498D01*
X142025506Y-73905463D01*
X141928815Y-73984815D01*
X141849463Y-74081506D01*
X141790498Y-74191820D01*
X141754188Y-74311518D01*
X141741928Y-74436000D01*
X141427728Y-74436000D01*
X141400472Y-74346150D01*
X141318405Y-74192614D01*
X141207962Y-74058038D01*
X141073386Y-73947595D01*
X140919850Y-73865528D01*
X140753254Y-73814992D01*
X140580000Y-73797928D01*
X139830000Y-73797928D01*
X139656746Y-73814992D01*
X139571000Y-73841003D01*
X139571000Y-72891000D01*
X141361928Y-72891000D01*
X141374188Y-73015482D01*
X141410498Y-73135180D01*
X141469463Y-73245494D01*
X141548815Y-73342185D01*
X141645506Y-73421537D01*
X141755820Y-73480502D01*
X141875518Y-73516812D01*
X142000000Y-73529072D01*
X142589250Y-73526000D01*
X142748000Y-73367250D01*
X142748000Y-72393000D01*
X141523750Y-72393000D01*
X141365000Y-72551750D01*
X141361928Y-72891000D01*
X139571000Y-72891000D01*
X139571000Y-72077711D01*
X139614937Y-72033774D01*
X139728205Y-71864256D01*
X139806226Y-71675898D01*
X139813167Y-71641000D01*
X141361928Y-71641000D01*
X141365000Y-71980250D01*
X141523750Y-72139000D01*
X142748000Y-72139000D01*
X142748000Y-71164750D01*
X142589250Y-71006000D01*
X142000000Y-71002928D01*
X141875518Y-71015188D01*
X141755820Y-71051498D01*
X141645506Y-71110463D01*
X141548815Y-71189815D01*
X141469463Y-71286506D01*
X141410498Y-71396820D01*
X141374188Y-71516518D01*
X141361928Y-71641000D01*
X139813167Y-71641000D01*
X139846000Y-71475939D01*
X139846000Y-71272061D01*
X139806226Y-71072102D01*
X139728205Y-70883744D01*
X139614937Y-70714226D01*
X139470774Y-70570063D01*
X139301256Y-70456795D01*
X139112898Y-70378774D01*
X139011232Y-70358552D01*
X139044226Y-70278898D01*
X139084000Y-70078939D01*
X139084000Y-69875061D01*
X139044226Y-69675102D01*
X138966205Y-69486744D01*
X138852937Y-69317226D01*
X138708774Y-69173063D01*
X138585958Y-69091000D01*
X141361928Y-69091000D01*
X141361928Y-69841000D01*
X141378992Y-70014254D01*
X141429528Y-70180850D01*
X141511595Y-70334386D01*
X141622038Y-70468962D01*
X141756614Y-70579405D01*
X141910150Y-70661472D01*
X142076746Y-70712008D01*
X142250000Y-70729072D01*
X143063271Y-70729072D01*
X143339268Y-71005069D01*
X143160750Y-71006000D01*
X143002000Y-71164750D01*
X143002000Y-72139000D01*
X143022000Y-72139000D01*
X143022000Y-72393000D01*
X143002000Y-72393000D01*
X143002000Y-73367250D01*
X143160750Y-73526000D01*
X143750000Y-73529072D01*
X143874482Y-73516812D01*
X143994180Y-73480502D01*
X144020001Y-73466700D01*
X144020001Y-73934602D01*
X143984494Y-73905463D01*
X143874180Y-73846498D01*
X143754482Y-73810188D01*
X143630000Y-73797928D01*
X143290750Y-73801000D01*
X143132000Y-73959750D01*
X143132000Y-75184000D01*
X143152000Y-75184000D01*
X143152000Y-75438000D01*
X143132000Y-75438000D01*
X143132000Y-75458000D01*
X142878000Y-75458000D01*
X142878000Y-75438000D01*
X141903750Y-75438000D01*
X141745000Y-75596750D01*
X141741928Y-76186000D01*
X141754188Y-76310482D01*
X141790498Y-76430180D01*
X141849463Y-76540494D01*
X141928815Y-76637185D01*
X142025506Y-76716537D01*
X142135820Y-76775502D01*
X142245521Y-76808779D01*
X142133614Y-76868595D01*
X141999038Y-76979038D01*
X141888595Y-77113614D01*
X141806528Y-77267150D01*
X141755992Y-77433746D01*
X141738928Y-77607000D01*
X141738928Y-78857000D01*
X141755992Y-79030254D01*
X141806528Y-79196850D01*
X141888595Y-79350386D01*
X141999038Y-79484962D01*
X142133614Y-79595405D01*
X142287150Y-79677472D01*
X142453746Y-79728008D01*
X142627000Y-79745072D01*
X143377000Y-79745072D01*
X143550254Y-79728008D01*
X143716850Y-79677472D01*
X143870386Y-79595405D01*
X144004962Y-79484962D01*
X144115405Y-79350386D01*
X144195891Y-79199809D01*
X144419764Y-79292540D01*
X144658363Y-79340000D01*
X144901637Y-79340000D01*
X145140236Y-79292540D01*
X145364992Y-79199443D01*
X145567267Y-79064287D01*
X145739287Y-78892267D01*
X145874443Y-78689992D01*
X145967540Y-78465236D01*
X146015000Y-78226637D01*
X146015000Y-77983363D01*
X145967540Y-77744764D01*
X145874443Y-77520008D01*
X145739287Y-77317733D01*
X145567267Y-77145713D01*
X145540000Y-77127494D01*
X145540000Y-72014363D01*
X151927000Y-72014363D01*
X151927000Y-72257637D01*
X151974460Y-72496236D01*
X152067557Y-72720992D01*
X152202713Y-72923267D01*
X152374733Y-73095287D01*
X152577008Y-73230443D01*
X152801764Y-73323540D01*
X153040363Y-73371000D01*
X153283637Y-73371000D01*
X153522236Y-73323540D01*
X153746992Y-73230443D01*
X153949267Y-73095287D01*
X154121287Y-72923267D01*
X154256443Y-72720992D01*
X154349540Y-72496236D01*
X154397000Y-72257637D01*
X154397000Y-72064190D01*
X167265903Y-59195287D01*
X167433074Y-59332481D01*
X167699740Y-59475017D01*
X167989088Y-59562790D01*
X168290000Y-59592427D01*
X168590913Y-59562790D01*
X168880261Y-59475017D01*
X169146927Y-59332481D01*
X169380661Y-59140661D01*
X169572481Y-58906927D01*
X169715017Y-58640261D01*
X169802790Y-58350913D01*
X169825000Y-58125408D01*
X169825000Y-56174593D01*
X170255000Y-56174593D01*
X170255000Y-58125408D01*
X170277211Y-58350913D01*
X170364984Y-58640261D01*
X170507520Y-58906927D01*
X170699340Y-59140661D01*
X170933074Y-59332481D01*
X171199740Y-59475017D01*
X171489088Y-59562790D01*
X171790000Y-59592427D01*
X172090913Y-59562790D01*
X172380261Y-59475017D01*
X172646927Y-59332481D01*
X172880661Y-59140661D01*
X173072481Y-58906927D01*
X173215017Y-58640261D01*
X173302790Y-58350913D01*
X173325000Y-58125408D01*
X173325000Y-56174592D01*
X173302790Y-55949087D01*
X173215017Y-55659739D01*
X173072481Y-55393073D01*
X172880661Y-55159339D01*
X172646926Y-54967519D01*
X172380260Y-54824983D01*
X172090912Y-54737210D01*
X171790000Y-54707573D01*
X171489087Y-54737210D01*
X171199739Y-54824983D01*
X170933073Y-54967519D01*
X170699339Y-55159339D01*
X170507519Y-55393074D01*
X170364983Y-55659740D01*
X170277210Y-55949088D01*
X170255000Y-56174593D01*
X169825000Y-56174593D01*
X169825000Y-56174592D01*
X169802790Y-55949087D01*
X169715017Y-55659739D01*
X169572481Y-55393073D01*
X169380661Y-55159339D01*
X169146926Y-54967519D01*
X168880260Y-54824983D01*
X168590912Y-54737210D01*
X168290000Y-54707573D01*
X167989087Y-54737210D01*
X167699739Y-54824983D01*
X167433073Y-54967519D01*
X167199339Y-55159339D01*
X167007519Y-55393074D01*
X166864983Y-55659740D01*
X166777210Y-55949088D01*
X166755000Y-56174593D01*
X166755000Y-57379810D01*
X166325000Y-57809810D01*
X166325000Y-56174592D01*
X166302790Y-55949087D01*
X166215017Y-55659739D01*
X166072481Y-55393073D01*
X165880661Y-55159339D01*
X165646926Y-54967519D01*
X165380260Y-54824983D01*
X165090912Y-54737210D01*
X164790000Y-54707573D01*
X164489087Y-54737210D01*
X164199739Y-54824983D01*
X163933073Y-54967519D01*
X163699339Y-55159339D01*
X163507519Y-55393074D01*
X163364983Y-55659740D01*
X163277210Y-55949088D01*
X163255000Y-56174593D01*
X163255000Y-58125408D01*
X163277211Y-58350913D01*
X163364984Y-58640261D01*
X163507520Y-58906927D01*
X163699340Y-59140661D01*
X163933074Y-59332481D01*
X164199740Y-59475017D01*
X164489088Y-59562790D01*
X164564584Y-59570226D01*
X153233810Y-70901000D01*
X153040363Y-70901000D01*
X152801764Y-70948460D01*
X152577008Y-71041557D01*
X152374733Y-71176713D01*
X152202713Y-71348733D01*
X152067557Y-71551008D01*
X151974460Y-71775764D01*
X151927000Y-72014363D01*
X145540000Y-72014363D01*
X145540000Y-71408322D01*
X145543676Y-71370999D01*
X145540000Y-71333676D01*
X145540000Y-71333667D01*
X145529003Y-71222014D01*
X145485546Y-71078753D01*
X145414974Y-70946724D01*
X145320001Y-70830999D01*
X145291003Y-70807201D01*
X144382399Y-69898598D01*
X144388072Y-69841000D01*
X144388072Y-69091000D01*
X144371008Y-68917746D01*
X144320472Y-68751150D01*
X144238405Y-68597614D01*
X144127962Y-68463038D01*
X143993386Y-68352595D01*
X143839850Y-68270528D01*
X143673254Y-68219992D01*
X143500000Y-68202928D01*
X142250000Y-68202928D01*
X142076746Y-68219992D01*
X141910150Y-68270528D01*
X141756614Y-68352595D01*
X141622038Y-68463038D01*
X141511595Y-68597614D01*
X141429528Y-68751150D01*
X141378992Y-68917746D01*
X141361928Y-69091000D01*
X138585958Y-69091000D01*
X138539256Y-69059795D01*
X138350898Y-68981774D01*
X138150939Y-68942000D01*
X138087142Y-68942000D01*
X138093400Y-68910539D01*
X138093400Y-68706661D01*
X138053626Y-68506702D01*
X137975605Y-68318344D01*
X137862337Y-68148826D01*
X137718174Y-68004663D01*
X137548656Y-67891395D01*
X137360298Y-67813374D01*
X137160339Y-67773600D01*
X136956461Y-67773600D01*
X136756502Y-67813374D01*
X136568144Y-67891395D01*
X136398626Y-68004663D01*
X136254463Y-68148826D01*
X136141195Y-68318344D01*
X136063174Y-68506702D01*
X136023400Y-68706661D01*
X104902000Y-68706661D01*
X104902000Y-55600000D01*
X106411928Y-55600000D01*
X106411928Y-58700000D01*
X106428992Y-58873254D01*
X106479528Y-59039850D01*
X106561595Y-59193386D01*
X106672038Y-59327962D01*
X106806614Y-59438405D01*
X106960150Y-59520472D01*
X107126746Y-59571008D01*
X107300000Y-59588072D01*
X108600000Y-59588072D01*
X108773254Y-59571008D01*
X108939850Y-59520472D01*
X109093386Y-59438405D01*
X109227962Y-59327962D01*
X109338405Y-59193386D01*
X109420472Y-59039850D01*
X109471008Y-58873254D01*
X109488072Y-58700000D01*
X109488072Y-56174593D01*
X109915000Y-56174593D01*
X109915000Y-58125408D01*
X109937211Y-58350913D01*
X110024984Y-58640261D01*
X110167520Y-58906927D01*
X110359340Y-59140661D01*
X110593074Y-59332481D01*
X110740001Y-59411015D01*
X110740000Y-62078661D01*
X110631614Y-62136595D01*
X110497038Y-62247038D01*
X110386595Y-62381614D01*
X110304528Y-62535150D01*
X110253992Y-62701746D01*
X110236928Y-62875000D01*
X110236928Y-64125000D01*
X110253992Y-64298254D01*
X110304528Y-64464850D01*
X110386595Y-64618386D01*
X110497038Y-64752962D01*
X110631614Y-64863405D01*
X110785150Y-64945472D01*
X110951746Y-64996008D01*
X111125000Y-65013072D01*
X111875000Y-65013072D01*
X112048254Y-64996008D01*
X112214850Y-64945472D01*
X112368386Y-64863405D01*
X112502962Y-64752962D01*
X112613405Y-64618386D01*
X112695472Y-64464850D01*
X112722727Y-64375000D01*
X113036928Y-64375000D01*
X113049188Y-64499482D01*
X113085498Y-64619180D01*
X113144463Y-64729494D01*
X113223815Y-64826185D01*
X113320506Y-64905537D01*
X113430820Y-64964502D01*
X113550518Y-65000812D01*
X113675000Y-65013072D01*
X114014250Y-65010000D01*
X114173000Y-64851250D01*
X114173000Y-63627000D01*
X114427000Y-63627000D01*
X114427000Y-64851250D01*
X114585750Y-65010000D01*
X114925000Y-65013072D01*
X115049482Y-65000812D01*
X115169180Y-64964502D01*
X115279494Y-64905537D01*
X115376185Y-64826185D01*
X115455537Y-64729494D01*
X115514502Y-64619180D01*
X115550812Y-64499482D01*
X115563072Y-64375000D01*
X115560000Y-63785750D01*
X115401250Y-63627000D01*
X114427000Y-63627000D01*
X114173000Y-63627000D01*
X113198750Y-63627000D01*
X113040000Y-63785750D01*
X113036928Y-64375000D01*
X112722727Y-64375000D01*
X112746008Y-64298254D01*
X112763072Y-64125000D01*
X112763072Y-62875000D01*
X112746008Y-62701746D01*
X112722728Y-62625000D01*
X113036928Y-62625000D01*
X113040000Y-63214250D01*
X113198750Y-63373000D01*
X114173000Y-63373000D01*
X114173000Y-62148750D01*
X114427000Y-62148750D01*
X114427000Y-63373000D01*
X115401250Y-63373000D01*
X115560000Y-63214250D01*
X115563072Y-62625000D01*
X115550812Y-62500518D01*
X115514502Y-62380820D01*
X115455537Y-62270506D01*
X115376185Y-62173815D01*
X115279494Y-62094463D01*
X115169180Y-62035498D01*
X115049482Y-61999188D01*
X114925000Y-61986928D01*
X114585750Y-61990000D01*
X114427000Y-62148750D01*
X114173000Y-62148750D01*
X114014250Y-61990000D01*
X113675000Y-61986928D01*
X113550518Y-61999188D01*
X113430820Y-62035498D01*
X113320506Y-62094463D01*
X113223815Y-62173815D01*
X113144463Y-62270506D01*
X113085498Y-62380820D01*
X113049188Y-62500518D01*
X113036928Y-62625000D01*
X112722728Y-62625000D01*
X112695472Y-62535150D01*
X112613405Y-62381614D01*
X112502962Y-62247038D01*
X112368386Y-62136595D01*
X112260000Y-62078661D01*
X112260000Y-59357564D01*
X112306927Y-59332481D01*
X112540661Y-59140661D01*
X112732481Y-58906927D01*
X112875017Y-58640261D01*
X112962790Y-58350913D01*
X112985000Y-58125408D01*
X112985000Y-56174592D01*
X112962790Y-55949087D01*
X112875017Y-55659739D01*
X112843086Y-55600000D01*
X117841928Y-55600000D01*
X117841928Y-58700000D01*
X117858992Y-58873254D01*
X117909528Y-59039850D01*
X117991595Y-59193386D01*
X118102038Y-59327962D01*
X118236614Y-59438405D01*
X118390150Y-59520472D01*
X118556746Y-59571008D01*
X118730000Y-59588072D01*
X120030000Y-59588072D01*
X120203254Y-59571008D01*
X120369850Y-59520472D01*
X120523386Y-59438405D01*
X120657962Y-59327962D01*
X120768405Y-59193386D01*
X120850472Y-59039850D01*
X120901008Y-58873254D01*
X120918072Y-58700000D01*
X120918072Y-57277000D01*
X121345000Y-57277000D01*
X121345000Y-58177000D01*
X121399271Y-58474023D01*
X121510446Y-58754751D01*
X121674252Y-59008396D01*
X121884394Y-59225210D01*
X122132796Y-59396862D01*
X122409913Y-59516755D01*
X122515260Y-59541036D01*
X122753000Y-59420378D01*
X122753000Y-57277000D01*
X123007000Y-57277000D01*
X123007000Y-59420378D01*
X123244740Y-59541036D01*
X123350087Y-59516755D01*
X123627204Y-59396862D01*
X123875606Y-59225210D01*
X124085748Y-59008396D01*
X124249554Y-58754751D01*
X124360729Y-58474023D01*
X124415000Y-58177000D01*
X124415000Y-57277000D01*
X123007000Y-57277000D01*
X122753000Y-57277000D01*
X121345000Y-57277000D01*
X120918072Y-57277000D01*
X120918072Y-56123000D01*
X121345000Y-56123000D01*
X121345000Y-57023000D01*
X122753000Y-57023000D01*
X122753000Y-54879622D01*
X123007000Y-54879622D01*
X123007000Y-57023000D01*
X124415000Y-57023000D01*
X124415000Y-56174593D01*
X124845000Y-56174593D01*
X124845000Y-58125408D01*
X124867211Y-58350913D01*
X124954984Y-58640261D01*
X125097520Y-58906927D01*
X125289340Y-59140661D01*
X125523074Y-59332481D01*
X125789740Y-59475017D01*
X126079088Y-59562790D01*
X126380000Y-59592427D01*
X126680913Y-59562790D01*
X126970261Y-59475017D01*
X127236927Y-59332481D01*
X127470661Y-59140661D01*
X127662481Y-58906927D01*
X127805017Y-58640261D01*
X127892790Y-58350913D01*
X127915000Y-58125408D01*
X127915000Y-56174593D01*
X128345000Y-56174593D01*
X128345000Y-58125408D01*
X128367211Y-58350913D01*
X128454984Y-58640261D01*
X128597520Y-58906927D01*
X128789340Y-59140661D01*
X129023074Y-59332481D01*
X129289740Y-59475017D01*
X129579088Y-59562790D01*
X129880000Y-59592427D01*
X130180913Y-59562790D01*
X130470261Y-59475017D01*
X130736927Y-59332481D01*
X130970661Y-59140661D01*
X131162481Y-58906927D01*
X131305017Y-58640261D01*
X131392790Y-58350913D01*
X131415000Y-58125408D01*
X131415000Y-57277000D01*
X131845000Y-57277000D01*
X131845000Y-58177000D01*
X131899271Y-58474023D01*
X132010446Y-58754751D01*
X132174252Y-59008396D01*
X132384394Y-59225210D01*
X132632796Y-59396862D01*
X132909913Y-59516755D01*
X133015260Y-59541036D01*
X133253000Y-59420378D01*
X133253000Y-57277000D01*
X133507000Y-57277000D01*
X133507000Y-59420378D01*
X133744740Y-59541036D01*
X133850087Y-59516755D01*
X134127204Y-59396862D01*
X134375606Y-59225210D01*
X134585748Y-59008396D01*
X134623460Y-58950000D01*
X140701928Y-58950000D01*
X140714188Y-59074482D01*
X140750498Y-59194180D01*
X140809463Y-59304494D01*
X140888815Y-59401185D01*
X140985506Y-59480537D01*
X141095820Y-59539502D01*
X141215518Y-59575812D01*
X141340000Y-59588072D01*
X141954250Y-59585000D01*
X142113000Y-59426250D01*
X142113000Y-57277000D01*
X142367000Y-57277000D01*
X142367000Y-59426250D01*
X142525750Y-59585000D01*
X143140000Y-59588072D01*
X143264482Y-59575812D01*
X143384180Y-59539502D01*
X143494494Y-59480537D01*
X143591185Y-59401185D01*
X143670537Y-59304494D01*
X143729502Y-59194180D01*
X143765812Y-59074482D01*
X143778072Y-58950000D01*
X143775000Y-57435750D01*
X143616250Y-57277000D01*
X142367000Y-57277000D01*
X142113000Y-57277000D01*
X140863750Y-57277000D01*
X140705000Y-57435750D01*
X140701928Y-58950000D01*
X134623460Y-58950000D01*
X134749554Y-58754751D01*
X134860729Y-58474023D01*
X134915000Y-58177000D01*
X134915000Y-57277000D01*
X133507000Y-57277000D01*
X133253000Y-57277000D01*
X131845000Y-57277000D01*
X131415000Y-57277000D01*
X131415000Y-56174592D01*
X131409919Y-56123000D01*
X131845000Y-56123000D01*
X131845000Y-57023000D01*
X133253000Y-57023000D01*
X133253000Y-54879622D01*
X133507000Y-54879622D01*
X133507000Y-57023000D01*
X134915000Y-57023000D01*
X134915000Y-56123000D01*
X134860729Y-55825977D01*
X134749554Y-55545249D01*
X134623461Y-55350000D01*
X140701928Y-55350000D01*
X140705000Y-56864250D01*
X140863750Y-57023000D01*
X142113000Y-57023000D01*
X142113000Y-54873750D01*
X142367000Y-54873750D01*
X142367000Y-57023000D01*
X143616250Y-57023000D01*
X143775000Y-56864250D01*
X143776399Y-56174593D01*
X144205000Y-56174593D01*
X144205000Y-58125408D01*
X144227211Y-58350913D01*
X144314984Y-58640261D01*
X144457520Y-58906927D01*
X144649340Y-59140661D01*
X144883074Y-59332481D01*
X145149740Y-59475017D01*
X145439088Y-59562790D01*
X145740000Y-59592427D01*
X146040913Y-59562790D01*
X146330261Y-59475017D01*
X146596927Y-59332481D01*
X146830661Y-59140661D01*
X147022481Y-58906927D01*
X147165017Y-58640261D01*
X147252790Y-58350913D01*
X147275000Y-58125408D01*
X147275000Y-56174593D01*
X147705000Y-56174593D01*
X147705000Y-58125408D01*
X147727211Y-58350913D01*
X147814984Y-58640261D01*
X147957520Y-58906927D01*
X148149340Y-59140661D01*
X148383074Y-59332481D01*
X148649740Y-59475017D01*
X148939088Y-59562790D01*
X149240000Y-59592427D01*
X149540913Y-59562790D01*
X149830261Y-59475017D01*
X150096927Y-59332481D01*
X150330661Y-59140661D01*
X150522481Y-58906927D01*
X150665017Y-58640261D01*
X150752790Y-58350913D01*
X150775000Y-58125408D01*
X150775000Y-56174593D01*
X151205000Y-56174593D01*
X151205000Y-58125408D01*
X151227211Y-58350913D01*
X151314984Y-58640261D01*
X151457520Y-58906927D01*
X151649340Y-59140661D01*
X151883074Y-59332481D01*
X152149740Y-59475017D01*
X152439088Y-59562790D01*
X152740000Y-59592427D01*
X153040913Y-59562790D01*
X153330261Y-59475017D01*
X153596927Y-59332481D01*
X153830661Y-59140661D01*
X154022481Y-58906927D01*
X154165017Y-58640261D01*
X154252790Y-58350913D01*
X154275000Y-58125408D01*
X154275000Y-56174592D01*
X154252790Y-55949087D01*
X154165017Y-55659739D01*
X154133086Y-55600000D01*
X159751928Y-55600000D01*
X159751928Y-58700000D01*
X159768992Y-58873254D01*
X159819528Y-59039850D01*
X159901595Y-59193386D01*
X160012038Y-59327962D01*
X160146614Y-59438405D01*
X160300150Y-59520472D01*
X160466746Y-59571008D01*
X160640000Y-59588072D01*
X161940000Y-59588072D01*
X162113254Y-59571008D01*
X162279850Y-59520472D01*
X162433386Y-59438405D01*
X162567962Y-59327962D01*
X162678405Y-59193386D01*
X162760472Y-59039850D01*
X162811008Y-58873254D01*
X162828072Y-58700000D01*
X162828072Y-55600000D01*
X162811008Y-55426746D01*
X162760472Y-55260150D01*
X162678405Y-55106614D01*
X162567962Y-54972038D01*
X162433386Y-54861595D01*
X162279850Y-54779528D01*
X162113254Y-54728992D01*
X161940000Y-54711928D01*
X160640000Y-54711928D01*
X160466746Y-54728992D01*
X160300150Y-54779528D01*
X160146614Y-54861595D01*
X160012038Y-54972038D01*
X159901595Y-55106614D01*
X159819528Y-55260150D01*
X159768992Y-55426746D01*
X159751928Y-55600000D01*
X154133086Y-55600000D01*
X154022481Y-55393073D01*
X153830661Y-55159339D01*
X153596926Y-54967519D01*
X153330260Y-54824983D01*
X153040912Y-54737210D01*
X152740000Y-54707573D01*
X152439087Y-54737210D01*
X152149739Y-54824983D01*
X151883073Y-54967519D01*
X151649339Y-55159339D01*
X151457519Y-55393074D01*
X151314983Y-55659740D01*
X151227210Y-55949088D01*
X151205000Y-56174593D01*
X150775000Y-56174593D01*
X150775000Y-56174592D01*
X150752790Y-55949087D01*
X150665017Y-55659739D01*
X150522481Y-55393073D01*
X150330661Y-55159339D01*
X150096926Y-54967519D01*
X149830260Y-54824983D01*
X149540912Y-54737210D01*
X149240000Y-54707573D01*
X148939087Y-54737210D01*
X148649739Y-54824983D01*
X148383073Y-54967519D01*
X148149339Y-55159339D01*
X147957519Y-55393074D01*
X147814983Y-55659740D01*
X147727210Y-55949088D01*
X147705000Y-56174593D01*
X147275000Y-56174593D01*
X147275000Y-56174592D01*
X147252790Y-55949087D01*
X147165017Y-55659739D01*
X147022481Y-55393073D01*
X146830661Y-55159339D01*
X146596926Y-54967519D01*
X146330260Y-54824983D01*
X146040912Y-54737210D01*
X145740000Y-54707573D01*
X145439087Y-54737210D01*
X145149739Y-54824983D01*
X144883073Y-54967519D01*
X144649339Y-55159339D01*
X144457519Y-55393074D01*
X144314983Y-55659740D01*
X144227210Y-55949088D01*
X144205000Y-56174593D01*
X143776399Y-56174593D01*
X143778072Y-55350000D01*
X143765812Y-55225518D01*
X143729502Y-55105820D01*
X143670537Y-54995506D01*
X143591185Y-54898815D01*
X143494494Y-54819463D01*
X143384180Y-54760498D01*
X143264482Y-54724188D01*
X143140000Y-54711928D01*
X142525750Y-54715000D01*
X142367000Y-54873750D01*
X142113000Y-54873750D01*
X141954250Y-54715000D01*
X141340000Y-54711928D01*
X141215518Y-54724188D01*
X141095820Y-54760498D01*
X140985506Y-54819463D01*
X140888815Y-54898815D01*
X140809463Y-54995506D01*
X140750498Y-55105820D01*
X140714188Y-55225518D01*
X140701928Y-55350000D01*
X134623461Y-55350000D01*
X134585748Y-55291604D01*
X134375606Y-55074790D01*
X134127204Y-54903138D01*
X133850087Y-54783245D01*
X133744740Y-54758964D01*
X133507000Y-54879622D01*
X133253000Y-54879622D01*
X133015260Y-54758964D01*
X132909913Y-54783245D01*
X132632796Y-54903138D01*
X132384394Y-55074790D01*
X132174252Y-55291604D01*
X132010446Y-55545249D01*
X131899271Y-55825977D01*
X131845000Y-56123000D01*
X131409919Y-56123000D01*
X131392790Y-55949087D01*
X131305017Y-55659739D01*
X131162481Y-55393073D01*
X130970661Y-55159339D01*
X130736926Y-54967519D01*
X130470260Y-54824983D01*
X130180912Y-54737210D01*
X129880000Y-54707573D01*
X129579087Y-54737210D01*
X129289739Y-54824983D01*
X129023073Y-54967519D01*
X128789339Y-55159339D01*
X128597519Y-55393074D01*
X128454983Y-55659740D01*
X128367210Y-55949088D01*
X128345000Y-56174593D01*
X127915000Y-56174593D01*
X127915000Y-56174592D01*
X127892790Y-55949087D01*
X127805017Y-55659739D01*
X127662481Y-55393073D01*
X127470661Y-55159339D01*
X127236926Y-54967519D01*
X126970260Y-54824983D01*
X126680912Y-54737210D01*
X126380000Y-54707573D01*
X126079087Y-54737210D01*
X125789739Y-54824983D01*
X125523073Y-54967519D01*
X125289339Y-55159339D01*
X125097519Y-55393074D01*
X124954983Y-55659740D01*
X124867210Y-55949088D01*
X124845000Y-56174593D01*
X124415000Y-56174593D01*
X124415000Y-56123000D01*
X124360729Y-55825977D01*
X124249554Y-55545249D01*
X124085748Y-55291604D01*
X123875606Y-55074790D01*
X123627204Y-54903138D01*
X123350087Y-54783245D01*
X123244740Y-54758964D01*
X123007000Y-54879622D01*
X122753000Y-54879622D01*
X122515260Y-54758964D01*
X122409913Y-54783245D01*
X122132796Y-54903138D01*
X121884394Y-55074790D01*
X121674252Y-55291604D01*
X121510446Y-55545249D01*
X121399271Y-55825977D01*
X121345000Y-56123000D01*
X120918072Y-56123000D01*
X120918072Y-55600000D01*
X120901008Y-55426746D01*
X120850472Y-55260150D01*
X120768405Y-55106614D01*
X120657962Y-54972038D01*
X120523386Y-54861595D01*
X120369850Y-54779528D01*
X120203254Y-54728992D01*
X120030000Y-54711928D01*
X118730000Y-54711928D01*
X118556746Y-54728992D01*
X118390150Y-54779528D01*
X118236614Y-54861595D01*
X118102038Y-54972038D01*
X117991595Y-55106614D01*
X117909528Y-55260150D01*
X117858992Y-55426746D01*
X117841928Y-55600000D01*
X112843086Y-55600000D01*
X112732481Y-55393073D01*
X112540661Y-55159339D01*
X112306926Y-54967519D01*
X112040260Y-54824983D01*
X111750912Y-54737210D01*
X111450000Y-54707573D01*
X111149087Y-54737210D01*
X110859739Y-54824983D01*
X110593073Y-54967519D01*
X110359339Y-55159339D01*
X110167519Y-55393074D01*
X110024983Y-55659740D01*
X109937210Y-55949088D01*
X109915000Y-56174593D01*
X109488072Y-56174593D01*
X109488072Y-55600000D01*
X109471008Y-55426746D01*
X109420472Y-55260150D01*
X109338405Y-55106614D01*
X109227962Y-54972038D01*
X109093386Y-54861595D01*
X108939850Y-54779528D01*
X108773254Y-54728992D01*
X108600000Y-54711928D01*
X107300000Y-54711928D01*
X107126746Y-54728992D01*
X106960150Y-54779528D01*
X106806614Y-54861595D01*
X106672038Y-54972038D01*
X106561595Y-55106614D01*
X106479528Y-55260150D01*
X106428992Y-55426746D01*
X106411928Y-55600000D01*
X104902000Y-55600000D01*
X104902000Y-53467000D01*
X179578000Y-53467000D01*
X179578000Y-94488000D01*
M02*
