G04 #@! TF.GenerationSoftware,KiCad,Pcbnew,5.1.4-e60b266~84~ubuntu18.04.1*
G04 #@! TF.CreationDate,2019-10-02T13:36:21-06:00*
G04 #@! TF.ProjectId,Star Tracker,53746172-2054-4726-9163-6b65722e6b69,rev?*
G04 #@! TF.SameCoordinates,Original*
G04 #@! TF.FileFunction,Soldermask,Top*
G04 #@! TF.FilePolarity,Negative*
%FSLAX46Y46*%
G04 Gerber Fmt 4.6, Leading zero omitted, Abs format (unit mm)*
G04 Created by KiCad (PCBNEW 5.1.4-e60b266~84~ubuntu18.04.1) date 2019-10-02 13:36:21*
%MOMM*%
%LPD*%
G04 APERTURE LIST*
%ADD10C,0.100000*%
%ADD11C,1.250000*%
%ADD12C,1.800000*%
%ADD13O,1.800000X3.600000*%
%ADD14R,2.400000X0.740000*%
%ADD15O,3.600000X1.800000*%
%ADD16R,1.500000X0.450000*%
%ADD17R,0.550000X1.600000*%
%ADD18R,1.600000X0.550000*%
%ADD19R,1.560000X0.650000*%
%ADD20C,1.425000*%
%ADD21R,4.600000X1.100000*%
%ADD22R,9.400000X10.800000*%
G04 APERTURE END LIST*
D10*
G36*
X135269504Y-83066204D02*
G01*
X135293773Y-83069804D01*
X135317571Y-83075765D01*
X135340671Y-83084030D01*
X135362849Y-83094520D01*
X135383893Y-83107133D01*
X135403598Y-83121747D01*
X135421777Y-83138223D01*
X135438253Y-83156402D01*
X135452867Y-83176107D01*
X135465480Y-83197151D01*
X135475970Y-83219329D01*
X135484235Y-83242429D01*
X135490196Y-83266227D01*
X135493796Y-83290496D01*
X135495000Y-83315000D01*
X135495000Y-84065000D01*
X135493796Y-84089504D01*
X135490196Y-84113773D01*
X135484235Y-84137571D01*
X135475970Y-84160671D01*
X135465480Y-84182849D01*
X135452867Y-84203893D01*
X135438253Y-84223598D01*
X135421777Y-84241777D01*
X135403598Y-84258253D01*
X135383893Y-84272867D01*
X135362849Y-84285480D01*
X135340671Y-84295970D01*
X135317571Y-84304235D01*
X135293773Y-84310196D01*
X135269504Y-84313796D01*
X135245000Y-84315000D01*
X133995000Y-84315000D01*
X133970496Y-84313796D01*
X133946227Y-84310196D01*
X133922429Y-84304235D01*
X133899329Y-84295970D01*
X133877151Y-84285480D01*
X133856107Y-84272867D01*
X133836402Y-84258253D01*
X133818223Y-84241777D01*
X133801747Y-84223598D01*
X133787133Y-84203893D01*
X133774520Y-84182849D01*
X133764030Y-84160671D01*
X133755765Y-84137571D01*
X133749804Y-84113773D01*
X133746204Y-84089504D01*
X133745000Y-84065000D01*
X133745000Y-83315000D01*
X133746204Y-83290496D01*
X133749804Y-83266227D01*
X133755765Y-83242429D01*
X133764030Y-83219329D01*
X133774520Y-83197151D01*
X133787133Y-83176107D01*
X133801747Y-83156402D01*
X133818223Y-83138223D01*
X133836402Y-83121747D01*
X133856107Y-83107133D01*
X133877151Y-83094520D01*
X133899329Y-83084030D01*
X133922429Y-83075765D01*
X133946227Y-83069804D01*
X133970496Y-83066204D01*
X133995000Y-83065000D01*
X135245000Y-83065000D01*
X135269504Y-83066204D01*
X135269504Y-83066204D01*
G37*
D11*
X134620000Y-83690000D03*
D10*
G36*
X135269504Y-85866204D02*
G01*
X135293773Y-85869804D01*
X135317571Y-85875765D01*
X135340671Y-85884030D01*
X135362849Y-85894520D01*
X135383893Y-85907133D01*
X135403598Y-85921747D01*
X135421777Y-85938223D01*
X135438253Y-85956402D01*
X135452867Y-85976107D01*
X135465480Y-85997151D01*
X135475970Y-86019329D01*
X135484235Y-86042429D01*
X135490196Y-86066227D01*
X135493796Y-86090496D01*
X135495000Y-86115000D01*
X135495000Y-86865000D01*
X135493796Y-86889504D01*
X135490196Y-86913773D01*
X135484235Y-86937571D01*
X135475970Y-86960671D01*
X135465480Y-86982849D01*
X135452867Y-87003893D01*
X135438253Y-87023598D01*
X135421777Y-87041777D01*
X135403598Y-87058253D01*
X135383893Y-87072867D01*
X135362849Y-87085480D01*
X135340671Y-87095970D01*
X135317571Y-87104235D01*
X135293773Y-87110196D01*
X135269504Y-87113796D01*
X135245000Y-87115000D01*
X133995000Y-87115000D01*
X133970496Y-87113796D01*
X133946227Y-87110196D01*
X133922429Y-87104235D01*
X133899329Y-87095970D01*
X133877151Y-87085480D01*
X133856107Y-87072867D01*
X133836402Y-87058253D01*
X133818223Y-87041777D01*
X133801747Y-87023598D01*
X133787133Y-87003893D01*
X133774520Y-86982849D01*
X133764030Y-86960671D01*
X133755765Y-86937571D01*
X133749804Y-86913773D01*
X133746204Y-86889504D01*
X133745000Y-86865000D01*
X133745000Y-86115000D01*
X133746204Y-86090496D01*
X133749804Y-86066227D01*
X133755765Y-86042429D01*
X133764030Y-86019329D01*
X133774520Y-85997151D01*
X133787133Y-85976107D01*
X133801747Y-85956402D01*
X133818223Y-85938223D01*
X133836402Y-85921747D01*
X133856107Y-85907133D01*
X133877151Y-85894520D01*
X133899329Y-85884030D01*
X133922429Y-85875765D01*
X133946227Y-85869804D01*
X133970496Y-85866204D01*
X133995000Y-85865000D01*
X135245000Y-85865000D01*
X135269504Y-85866204D01*
X135269504Y-85866204D01*
G37*
D11*
X134620000Y-86490000D03*
D10*
G36*
X131459504Y-83066204D02*
G01*
X131483773Y-83069804D01*
X131507571Y-83075765D01*
X131530671Y-83084030D01*
X131552849Y-83094520D01*
X131573893Y-83107133D01*
X131593598Y-83121747D01*
X131611777Y-83138223D01*
X131628253Y-83156402D01*
X131642867Y-83176107D01*
X131655480Y-83197151D01*
X131665970Y-83219329D01*
X131674235Y-83242429D01*
X131680196Y-83266227D01*
X131683796Y-83290496D01*
X131685000Y-83315000D01*
X131685000Y-84065000D01*
X131683796Y-84089504D01*
X131680196Y-84113773D01*
X131674235Y-84137571D01*
X131665970Y-84160671D01*
X131655480Y-84182849D01*
X131642867Y-84203893D01*
X131628253Y-84223598D01*
X131611777Y-84241777D01*
X131593598Y-84258253D01*
X131573893Y-84272867D01*
X131552849Y-84285480D01*
X131530671Y-84295970D01*
X131507571Y-84304235D01*
X131483773Y-84310196D01*
X131459504Y-84313796D01*
X131435000Y-84315000D01*
X130185000Y-84315000D01*
X130160496Y-84313796D01*
X130136227Y-84310196D01*
X130112429Y-84304235D01*
X130089329Y-84295970D01*
X130067151Y-84285480D01*
X130046107Y-84272867D01*
X130026402Y-84258253D01*
X130008223Y-84241777D01*
X129991747Y-84223598D01*
X129977133Y-84203893D01*
X129964520Y-84182849D01*
X129954030Y-84160671D01*
X129945765Y-84137571D01*
X129939804Y-84113773D01*
X129936204Y-84089504D01*
X129935000Y-84065000D01*
X129935000Y-83315000D01*
X129936204Y-83290496D01*
X129939804Y-83266227D01*
X129945765Y-83242429D01*
X129954030Y-83219329D01*
X129964520Y-83197151D01*
X129977133Y-83176107D01*
X129991747Y-83156402D01*
X130008223Y-83138223D01*
X130026402Y-83121747D01*
X130046107Y-83107133D01*
X130067151Y-83094520D01*
X130089329Y-83084030D01*
X130112429Y-83075765D01*
X130136227Y-83069804D01*
X130160496Y-83066204D01*
X130185000Y-83065000D01*
X131435000Y-83065000D01*
X131459504Y-83066204D01*
X131459504Y-83066204D01*
G37*
D11*
X130810000Y-83690000D03*
D10*
G36*
X131459504Y-85866204D02*
G01*
X131483773Y-85869804D01*
X131507571Y-85875765D01*
X131530671Y-85884030D01*
X131552849Y-85894520D01*
X131573893Y-85907133D01*
X131593598Y-85921747D01*
X131611777Y-85938223D01*
X131628253Y-85956402D01*
X131642867Y-85976107D01*
X131655480Y-85997151D01*
X131665970Y-86019329D01*
X131674235Y-86042429D01*
X131680196Y-86066227D01*
X131683796Y-86090496D01*
X131685000Y-86115000D01*
X131685000Y-86865000D01*
X131683796Y-86889504D01*
X131680196Y-86913773D01*
X131674235Y-86937571D01*
X131665970Y-86960671D01*
X131655480Y-86982849D01*
X131642867Y-87003893D01*
X131628253Y-87023598D01*
X131611777Y-87041777D01*
X131593598Y-87058253D01*
X131573893Y-87072867D01*
X131552849Y-87085480D01*
X131530671Y-87095970D01*
X131507571Y-87104235D01*
X131483773Y-87110196D01*
X131459504Y-87113796D01*
X131435000Y-87115000D01*
X130185000Y-87115000D01*
X130160496Y-87113796D01*
X130136227Y-87110196D01*
X130112429Y-87104235D01*
X130089329Y-87095970D01*
X130067151Y-87085480D01*
X130046107Y-87072867D01*
X130026402Y-87058253D01*
X130008223Y-87041777D01*
X129991747Y-87023598D01*
X129977133Y-87003893D01*
X129964520Y-86982849D01*
X129954030Y-86960671D01*
X129945765Y-86937571D01*
X129939804Y-86913773D01*
X129936204Y-86889504D01*
X129935000Y-86865000D01*
X129935000Y-86115000D01*
X129936204Y-86090496D01*
X129939804Y-86066227D01*
X129945765Y-86042429D01*
X129954030Y-86019329D01*
X129964520Y-85997151D01*
X129977133Y-85976107D01*
X129991747Y-85956402D01*
X130008223Y-85938223D01*
X130026402Y-85921747D01*
X130046107Y-85907133D01*
X130067151Y-85894520D01*
X130089329Y-85884030D01*
X130112429Y-85875765D01*
X130136227Y-85869804D01*
X130160496Y-85866204D01*
X130185000Y-85865000D01*
X131435000Y-85865000D01*
X131459504Y-85866204D01*
X131459504Y-85866204D01*
G37*
D11*
X130810000Y-86490000D03*
D10*
G36*
X127399504Y-88026204D02*
G01*
X127423773Y-88029804D01*
X127447571Y-88035765D01*
X127470671Y-88044030D01*
X127492849Y-88054520D01*
X127513893Y-88067133D01*
X127533598Y-88081747D01*
X127551777Y-88098223D01*
X127568253Y-88116402D01*
X127582867Y-88136107D01*
X127595480Y-88157151D01*
X127605970Y-88179329D01*
X127614235Y-88202429D01*
X127620196Y-88226227D01*
X127623796Y-88250496D01*
X127625000Y-88275000D01*
X127625000Y-89525000D01*
X127623796Y-89549504D01*
X127620196Y-89573773D01*
X127614235Y-89597571D01*
X127605970Y-89620671D01*
X127595480Y-89642849D01*
X127582867Y-89663893D01*
X127568253Y-89683598D01*
X127551777Y-89701777D01*
X127533598Y-89718253D01*
X127513893Y-89732867D01*
X127492849Y-89745480D01*
X127470671Y-89755970D01*
X127447571Y-89764235D01*
X127423773Y-89770196D01*
X127399504Y-89773796D01*
X127375000Y-89775000D01*
X126625000Y-89775000D01*
X126600496Y-89773796D01*
X126576227Y-89770196D01*
X126552429Y-89764235D01*
X126529329Y-89755970D01*
X126507151Y-89745480D01*
X126486107Y-89732867D01*
X126466402Y-89718253D01*
X126448223Y-89701777D01*
X126431747Y-89683598D01*
X126417133Y-89663893D01*
X126404520Y-89642849D01*
X126394030Y-89620671D01*
X126385765Y-89597571D01*
X126379804Y-89573773D01*
X126376204Y-89549504D01*
X126375000Y-89525000D01*
X126375000Y-88275000D01*
X126376204Y-88250496D01*
X126379804Y-88226227D01*
X126385765Y-88202429D01*
X126394030Y-88179329D01*
X126404520Y-88157151D01*
X126417133Y-88136107D01*
X126431747Y-88116402D01*
X126448223Y-88098223D01*
X126466402Y-88081747D01*
X126486107Y-88067133D01*
X126507151Y-88054520D01*
X126529329Y-88044030D01*
X126552429Y-88035765D01*
X126576227Y-88029804D01*
X126600496Y-88026204D01*
X126625000Y-88025000D01*
X127375000Y-88025000D01*
X127399504Y-88026204D01*
X127399504Y-88026204D01*
G37*
D11*
X127000000Y-88900000D03*
D10*
G36*
X124599504Y-88026204D02*
G01*
X124623773Y-88029804D01*
X124647571Y-88035765D01*
X124670671Y-88044030D01*
X124692849Y-88054520D01*
X124713893Y-88067133D01*
X124733598Y-88081747D01*
X124751777Y-88098223D01*
X124768253Y-88116402D01*
X124782867Y-88136107D01*
X124795480Y-88157151D01*
X124805970Y-88179329D01*
X124814235Y-88202429D01*
X124820196Y-88226227D01*
X124823796Y-88250496D01*
X124825000Y-88275000D01*
X124825000Y-89525000D01*
X124823796Y-89549504D01*
X124820196Y-89573773D01*
X124814235Y-89597571D01*
X124805970Y-89620671D01*
X124795480Y-89642849D01*
X124782867Y-89663893D01*
X124768253Y-89683598D01*
X124751777Y-89701777D01*
X124733598Y-89718253D01*
X124713893Y-89732867D01*
X124692849Y-89745480D01*
X124670671Y-89755970D01*
X124647571Y-89764235D01*
X124623773Y-89770196D01*
X124599504Y-89773796D01*
X124575000Y-89775000D01*
X123825000Y-89775000D01*
X123800496Y-89773796D01*
X123776227Y-89770196D01*
X123752429Y-89764235D01*
X123729329Y-89755970D01*
X123707151Y-89745480D01*
X123686107Y-89732867D01*
X123666402Y-89718253D01*
X123648223Y-89701777D01*
X123631747Y-89683598D01*
X123617133Y-89663893D01*
X123604520Y-89642849D01*
X123594030Y-89620671D01*
X123585765Y-89597571D01*
X123579804Y-89573773D01*
X123576204Y-89549504D01*
X123575000Y-89525000D01*
X123575000Y-88275000D01*
X123576204Y-88250496D01*
X123579804Y-88226227D01*
X123585765Y-88202429D01*
X123594030Y-88179329D01*
X123604520Y-88157151D01*
X123617133Y-88136107D01*
X123631747Y-88116402D01*
X123648223Y-88098223D01*
X123666402Y-88081747D01*
X123686107Y-88067133D01*
X123707151Y-88054520D01*
X123729329Y-88044030D01*
X123752429Y-88035765D01*
X123776227Y-88029804D01*
X123800496Y-88026204D01*
X123825000Y-88025000D01*
X124575000Y-88025000D01*
X124599504Y-88026204D01*
X124599504Y-88026204D01*
G37*
D11*
X124200000Y-88900000D03*
D10*
G36*
X140349504Y-90946204D02*
G01*
X140373773Y-90949804D01*
X140397571Y-90955765D01*
X140420671Y-90964030D01*
X140442849Y-90974520D01*
X140463893Y-90987133D01*
X140483598Y-91001747D01*
X140501777Y-91018223D01*
X140518253Y-91036402D01*
X140532867Y-91056107D01*
X140545480Y-91077151D01*
X140555970Y-91099329D01*
X140564235Y-91122429D01*
X140570196Y-91146227D01*
X140573796Y-91170496D01*
X140575000Y-91195000D01*
X140575000Y-91945000D01*
X140573796Y-91969504D01*
X140570196Y-91993773D01*
X140564235Y-92017571D01*
X140555970Y-92040671D01*
X140545480Y-92062849D01*
X140532867Y-92083893D01*
X140518253Y-92103598D01*
X140501777Y-92121777D01*
X140483598Y-92138253D01*
X140463893Y-92152867D01*
X140442849Y-92165480D01*
X140420671Y-92175970D01*
X140397571Y-92184235D01*
X140373773Y-92190196D01*
X140349504Y-92193796D01*
X140325000Y-92195000D01*
X139075000Y-92195000D01*
X139050496Y-92193796D01*
X139026227Y-92190196D01*
X139002429Y-92184235D01*
X138979329Y-92175970D01*
X138957151Y-92165480D01*
X138936107Y-92152867D01*
X138916402Y-92138253D01*
X138898223Y-92121777D01*
X138881747Y-92103598D01*
X138867133Y-92083893D01*
X138854520Y-92062849D01*
X138844030Y-92040671D01*
X138835765Y-92017571D01*
X138829804Y-91993773D01*
X138826204Y-91969504D01*
X138825000Y-91945000D01*
X138825000Y-91195000D01*
X138826204Y-91170496D01*
X138829804Y-91146227D01*
X138835765Y-91122429D01*
X138844030Y-91099329D01*
X138854520Y-91077151D01*
X138867133Y-91056107D01*
X138881747Y-91036402D01*
X138898223Y-91018223D01*
X138916402Y-91001747D01*
X138936107Y-90987133D01*
X138957151Y-90974520D01*
X138979329Y-90964030D01*
X139002429Y-90955765D01*
X139026227Y-90949804D01*
X139050496Y-90946204D01*
X139075000Y-90945000D01*
X140325000Y-90945000D01*
X140349504Y-90946204D01*
X140349504Y-90946204D01*
G37*
D11*
X139700000Y-91570000D03*
D10*
G36*
X140349504Y-88146204D02*
G01*
X140373773Y-88149804D01*
X140397571Y-88155765D01*
X140420671Y-88164030D01*
X140442849Y-88174520D01*
X140463893Y-88187133D01*
X140483598Y-88201747D01*
X140501777Y-88218223D01*
X140518253Y-88236402D01*
X140532867Y-88256107D01*
X140545480Y-88277151D01*
X140555970Y-88299329D01*
X140564235Y-88322429D01*
X140570196Y-88346227D01*
X140573796Y-88370496D01*
X140575000Y-88395000D01*
X140575000Y-89145000D01*
X140573796Y-89169504D01*
X140570196Y-89193773D01*
X140564235Y-89217571D01*
X140555970Y-89240671D01*
X140545480Y-89262849D01*
X140532867Y-89283893D01*
X140518253Y-89303598D01*
X140501777Y-89321777D01*
X140483598Y-89338253D01*
X140463893Y-89352867D01*
X140442849Y-89365480D01*
X140420671Y-89375970D01*
X140397571Y-89384235D01*
X140373773Y-89390196D01*
X140349504Y-89393796D01*
X140325000Y-89395000D01*
X139075000Y-89395000D01*
X139050496Y-89393796D01*
X139026227Y-89390196D01*
X139002429Y-89384235D01*
X138979329Y-89375970D01*
X138957151Y-89365480D01*
X138936107Y-89352867D01*
X138916402Y-89338253D01*
X138898223Y-89321777D01*
X138881747Y-89303598D01*
X138867133Y-89283893D01*
X138854520Y-89262849D01*
X138844030Y-89240671D01*
X138835765Y-89217571D01*
X138829804Y-89193773D01*
X138826204Y-89169504D01*
X138825000Y-89145000D01*
X138825000Y-88395000D01*
X138826204Y-88370496D01*
X138829804Y-88346227D01*
X138835765Y-88322429D01*
X138844030Y-88299329D01*
X138854520Y-88277151D01*
X138867133Y-88256107D01*
X138881747Y-88236402D01*
X138898223Y-88218223D01*
X138916402Y-88201747D01*
X138936107Y-88187133D01*
X138957151Y-88174520D01*
X138979329Y-88164030D01*
X139002429Y-88155765D01*
X139026227Y-88149804D01*
X139050496Y-88146204D01*
X139075000Y-88145000D01*
X140325000Y-88145000D01*
X140349504Y-88146204D01*
X140349504Y-88146204D01*
G37*
D11*
X139700000Y-88770000D03*
D10*
G36*
X119909504Y-68976204D02*
G01*
X119933773Y-68979804D01*
X119957571Y-68985765D01*
X119980671Y-68994030D01*
X120002849Y-69004520D01*
X120023893Y-69017133D01*
X120043598Y-69031747D01*
X120061777Y-69048223D01*
X120078253Y-69066402D01*
X120092867Y-69086107D01*
X120105480Y-69107151D01*
X120115970Y-69129329D01*
X120124235Y-69152429D01*
X120130196Y-69176227D01*
X120133796Y-69200496D01*
X120135000Y-69225000D01*
X120135000Y-70475000D01*
X120133796Y-70499504D01*
X120130196Y-70523773D01*
X120124235Y-70547571D01*
X120115970Y-70570671D01*
X120105480Y-70592849D01*
X120092867Y-70613893D01*
X120078253Y-70633598D01*
X120061777Y-70651777D01*
X120043598Y-70668253D01*
X120023893Y-70682867D01*
X120002849Y-70695480D01*
X119980671Y-70705970D01*
X119957571Y-70714235D01*
X119933773Y-70720196D01*
X119909504Y-70723796D01*
X119885000Y-70725000D01*
X119135000Y-70725000D01*
X119110496Y-70723796D01*
X119086227Y-70720196D01*
X119062429Y-70714235D01*
X119039329Y-70705970D01*
X119017151Y-70695480D01*
X118996107Y-70682867D01*
X118976402Y-70668253D01*
X118958223Y-70651777D01*
X118941747Y-70633598D01*
X118927133Y-70613893D01*
X118914520Y-70592849D01*
X118904030Y-70570671D01*
X118895765Y-70547571D01*
X118889804Y-70523773D01*
X118886204Y-70499504D01*
X118885000Y-70475000D01*
X118885000Y-69225000D01*
X118886204Y-69200496D01*
X118889804Y-69176227D01*
X118895765Y-69152429D01*
X118904030Y-69129329D01*
X118914520Y-69107151D01*
X118927133Y-69086107D01*
X118941747Y-69066402D01*
X118958223Y-69048223D01*
X118976402Y-69031747D01*
X118996107Y-69017133D01*
X119017151Y-69004520D01*
X119039329Y-68994030D01*
X119062429Y-68985765D01*
X119086227Y-68979804D01*
X119110496Y-68976204D01*
X119135000Y-68975000D01*
X119885000Y-68975000D01*
X119909504Y-68976204D01*
X119909504Y-68976204D01*
G37*
D11*
X119510000Y-69850000D03*
D10*
G36*
X117109504Y-68976204D02*
G01*
X117133773Y-68979804D01*
X117157571Y-68985765D01*
X117180671Y-68994030D01*
X117202849Y-69004520D01*
X117223893Y-69017133D01*
X117243598Y-69031747D01*
X117261777Y-69048223D01*
X117278253Y-69066402D01*
X117292867Y-69086107D01*
X117305480Y-69107151D01*
X117315970Y-69129329D01*
X117324235Y-69152429D01*
X117330196Y-69176227D01*
X117333796Y-69200496D01*
X117335000Y-69225000D01*
X117335000Y-70475000D01*
X117333796Y-70499504D01*
X117330196Y-70523773D01*
X117324235Y-70547571D01*
X117315970Y-70570671D01*
X117305480Y-70592849D01*
X117292867Y-70613893D01*
X117278253Y-70633598D01*
X117261777Y-70651777D01*
X117243598Y-70668253D01*
X117223893Y-70682867D01*
X117202849Y-70695480D01*
X117180671Y-70705970D01*
X117157571Y-70714235D01*
X117133773Y-70720196D01*
X117109504Y-70723796D01*
X117085000Y-70725000D01*
X116335000Y-70725000D01*
X116310496Y-70723796D01*
X116286227Y-70720196D01*
X116262429Y-70714235D01*
X116239329Y-70705970D01*
X116217151Y-70695480D01*
X116196107Y-70682867D01*
X116176402Y-70668253D01*
X116158223Y-70651777D01*
X116141747Y-70633598D01*
X116127133Y-70613893D01*
X116114520Y-70592849D01*
X116104030Y-70570671D01*
X116095765Y-70547571D01*
X116089804Y-70523773D01*
X116086204Y-70499504D01*
X116085000Y-70475000D01*
X116085000Y-69225000D01*
X116086204Y-69200496D01*
X116089804Y-69176227D01*
X116095765Y-69152429D01*
X116104030Y-69129329D01*
X116114520Y-69107151D01*
X116127133Y-69086107D01*
X116141747Y-69066402D01*
X116158223Y-69048223D01*
X116176402Y-69031747D01*
X116196107Y-69017133D01*
X116217151Y-69004520D01*
X116239329Y-68994030D01*
X116262429Y-68985765D01*
X116286227Y-68979804D01*
X116310496Y-68976204D01*
X116335000Y-68975000D01*
X117085000Y-68975000D01*
X117109504Y-68976204D01*
X117109504Y-68976204D01*
G37*
D11*
X116710000Y-69850000D03*
D10*
G36*
X145429504Y-81926204D02*
G01*
X145453773Y-81929804D01*
X145477571Y-81935765D01*
X145500671Y-81944030D01*
X145522849Y-81954520D01*
X145543893Y-81967133D01*
X145563598Y-81981747D01*
X145581777Y-81998223D01*
X145598253Y-82016402D01*
X145612867Y-82036107D01*
X145625480Y-82057151D01*
X145635970Y-82079329D01*
X145644235Y-82102429D01*
X145650196Y-82126227D01*
X145653796Y-82150496D01*
X145655000Y-82175000D01*
X145655000Y-82925000D01*
X145653796Y-82949504D01*
X145650196Y-82973773D01*
X145644235Y-82997571D01*
X145635970Y-83020671D01*
X145625480Y-83042849D01*
X145612867Y-83063893D01*
X145598253Y-83083598D01*
X145581777Y-83101777D01*
X145563598Y-83118253D01*
X145543893Y-83132867D01*
X145522849Y-83145480D01*
X145500671Y-83155970D01*
X145477571Y-83164235D01*
X145453773Y-83170196D01*
X145429504Y-83173796D01*
X145405000Y-83175000D01*
X144155000Y-83175000D01*
X144130496Y-83173796D01*
X144106227Y-83170196D01*
X144082429Y-83164235D01*
X144059329Y-83155970D01*
X144037151Y-83145480D01*
X144016107Y-83132867D01*
X143996402Y-83118253D01*
X143978223Y-83101777D01*
X143961747Y-83083598D01*
X143947133Y-83063893D01*
X143934520Y-83042849D01*
X143924030Y-83020671D01*
X143915765Y-82997571D01*
X143909804Y-82973773D01*
X143906204Y-82949504D01*
X143905000Y-82925000D01*
X143905000Y-82175000D01*
X143906204Y-82150496D01*
X143909804Y-82126227D01*
X143915765Y-82102429D01*
X143924030Y-82079329D01*
X143934520Y-82057151D01*
X143947133Y-82036107D01*
X143961747Y-82016402D01*
X143978223Y-81998223D01*
X143996402Y-81981747D01*
X144016107Y-81967133D01*
X144037151Y-81954520D01*
X144059329Y-81944030D01*
X144082429Y-81935765D01*
X144106227Y-81929804D01*
X144130496Y-81926204D01*
X144155000Y-81925000D01*
X145405000Y-81925000D01*
X145429504Y-81926204D01*
X145429504Y-81926204D01*
G37*
D11*
X144780000Y-82550000D03*
D10*
G36*
X145429504Y-84726204D02*
G01*
X145453773Y-84729804D01*
X145477571Y-84735765D01*
X145500671Y-84744030D01*
X145522849Y-84754520D01*
X145543893Y-84767133D01*
X145563598Y-84781747D01*
X145581777Y-84798223D01*
X145598253Y-84816402D01*
X145612867Y-84836107D01*
X145625480Y-84857151D01*
X145635970Y-84879329D01*
X145644235Y-84902429D01*
X145650196Y-84926227D01*
X145653796Y-84950496D01*
X145655000Y-84975000D01*
X145655000Y-85725000D01*
X145653796Y-85749504D01*
X145650196Y-85773773D01*
X145644235Y-85797571D01*
X145635970Y-85820671D01*
X145625480Y-85842849D01*
X145612867Y-85863893D01*
X145598253Y-85883598D01*
X145581777Y-85901777D01*
X145563598Y-85918253D01*
X145543893Y-85932867D01*
X145522849Y-85945480D01*
X145500671Y-85955970D01*
X145477571Y-85964235D01*
X145453773Y-85970196D01*
X145429504Y-85973796D01*
X145405000Y-85975000D01*
X144155000Y-85975000D01*
X144130496Y-85973796D01*
X144106227Y-85970196D01*
X144082429Y-85964235D01*
X144059329Y-85955970D01*
X144037151Y-85945480D01*
X144016107Y-85932867D01*
X143996402Y-85918253D01*
X143978223Y-85901777D01*
X143961747Y-85883598D01*
X143947133Y-85863893D01*
X143934520Y-85842849D01*
X143924030Y-85820671D01*
X143915765Y-85797571D01*
X143909804Y-85773773D01*
X143906204Y-85749504D01*
X143905000Y-85725000D01*
X143905000Y-84975000D01*
X143906204Y-84950496D01*
X143909804Y-84926227D01*
X143915765Y-84902429D01*
X143924030Y-84879329D01*
X143934520Y-84857151D01*
X143947133Y-84836107D01*
X143961747Y-84816402D01*
X143978223Y-84798223D01*
X143996402Y-84781747D01*
X144016107Y-84767133D01*
X144037151Y-84754520D01*
X144059329Y-84744030D01*
X144082429Y-84735765D01*
X144106227Y-84729804D01*
X144130496Y-84726204D01*
X144155000Y-84725000D01*
X145405000Y-84725000D01*
X145429504Y-84726204D01*
X145429504Y-84726204D01*
G37*
D11*
X144780000Y-85350000D03*
D10*
G36*
X140349504Y-81920204D02*
G01*
X140373773Y-81923804D01*
X140397571Y-81929765D01*
X140420671Y-81938030D01*
X140442849Y-81948520D01*
X140463893Y-81961133D01*
X140483598Y-81975747D01*
X140501777Y-81992223D01*
X140518253Y-82010402D01*
X140532867Y-82030107D01*
X140545480Y-82051151D01*
X140555970Y-82073329D01*
X140564235Y-82096429D01*
X140570196Y-82120227D01*
X140573796Y-82144496D01*
X140575000Y-82169000D01*
X140575000Y-82919000D01*
X140573796Y-82943504D01*
X140570196Y-82967773D01*
X140564235Y-82991571D01*
X140555970Y-83014671D01*
X140545480Y-83036849D01*
X140532867Y-83057893D01*
X140518253Y-83077598D01*
X140501777Y-83095777D01*
X140483598Y-83112253D01*
X140463893Y-83126867D01*
X140442849Y-83139480D01*
X140420671Y-83149970D01*
X140397571Y-83158235D01*
X140373773Y-83164196D01*
X140349504Y-83167796D01*
X140325000Y-83169000D01*
X139075000Y-83169000D01*
X139050496Y-83167796D01*
X139026227Y-83164196D01*
X139002429Y-83158235D01*
X138979329Y-83149970D01*
X138957151Y-83139480D01*
X138936107Y-83126867D01*
X138916402Y-83112253D01*
X138898223Y-83095777D01*
X138881747Y-83077598D01*
X138867133Y-83057893D01*
X138854520Y-83036849D01*
X138844030Y-83014671D01*
X138835765Y-82991571D01*
X138829804Y-82967773D01*
X138826204Y-82943504D01*
X138825000Y-82919000D01*
X138825000Y-82169000D01*
X138826204Y-82144496D01*
X138829804Y-82120227D01*
X138835765Y-82096429D01*
X138844030Y-82073329D01*
X138854520Y-82051151D01*
X138867133Y-82030107D01*
X138881747Y-82010402D01*
X138898223Y-81992223D01*
X138916402Y-81975747D01*
X138936107Y-81961133D01*
X138957151Y-81948520D01*
X138979329Y-81938030D01*
X139002429Y-81929765D01*
X139026227Y-81923804D01*
X139050496Y-81920204D01*
X139075000Y-81919000D01*
X140325000Y-81919000D01*
X140349504Y-81920204D01*
X140349504Y-81920204D01*
G37*
D11*
X139700000Y-82544000D03*
D10*
G36*
X140349504Y-84720204D02*
G01*
X140373773Y-84723804D01*
X140397571Y-84729765D01*
X140420671Y-84738030D01*
X140442849Y-84748520D01*
X140463893Y-84761133D01*
X140483598Y-84775747D01*
X140501777Y-84792223D01*
X140518253Y-84810402D01*
X140532867Y-84830107D01*
X140545480Y-84851151D01*
X140555970Y-84873329D01*
X140564235Y-84896429D01*
X140570196Y-84920227D01*
X140573796Y-84944496D01*
X140575000Y-84969000D01*
X140575000Y-85719000D01*
X140573796Y-85743504D01*
X140570196Y-85767773D01*
X140564235Y-85791571D01*
X140555970Y-85814671D01*
X140545480Y-85836849D01*
X140532867Y-85857893D01*
X140518253Y-85877598D01*
X140501777Y-85895777D01*
X140483598Y-85912253D01*
X140463893Y-85926867D01*
X140442849Y-85939480D01*
X140420671Y-85949970D01*
X140397571Y-85958235D01*
X140373773Y-85964196D01*
X140349504Y-85967796D01*
X140325000Y-85969000D01*
X139075000Y-85969000D01*
X139050496Y-85967796D01*
X139026227Y-85964196D01*
X139002429Y-85958235D01*
X138979329Y-85949970D01*
X138957151Y-85939480D01*
X138936107Y-85926867D01*
X138916402Y-85912253D01*
X138898223Y-85895777D01*
X138881747Y-85877598D01*
X138867133Y-85857893D01*
X138854520Y-85836849D01*
X138844030Y-85814671D01*
X138835765Y-85791571D01*
X138829804Y-85767773D01*
X138826204Y-85743504D01*
X138825000Y-85719000D01*
X138825000Y-84969000D01*
X138826204Y-84944496D01*
X138829804Y-84920227D01*
X138835765Y-84896429D01*
X138844030Y-84873329D01*
X138854520Y-84851151D01*
X138867133Y-84830107D01*
X138881747Y-84810402D01*
X138898223Y-84792223D01*
X138916402Y-84775747D01*
X138936107Y-84761133D01*
X138957151Y-84748520D01*
X138979329Y-84738030D01*
X139002429Y-84729765D01*
X139026227Y-84723804D01*
X139050496Y-84720204D01*
X139075000Y-84719000D01*
X140325000Y-84719000D01*
X140349504Y-84720204D01*
X140349504Y-84720204D01*
G37*
D11*
X139700000Y-85344000D03*
D10*
G36*
X108624504Y-55351204D02*
G01*
X108648773Y-55354804D01*
X108672571Y-55360765D01*
X108695671Y-55369030D01*
X108717849Y-55379520D01*
X108738893Y-55392133D01*
X108758598Y-55406747D01*
X108776777Y-55423223D01*
X108793253Y-55441402D01*
X108807867Y-55461107D01*
X108820480Y-55482151D01*
X108830970Y-55504329D01*
X108839235Y-55527429D01*
X108845196Y-55551227D01*
X108848796Y-55575496D01*
X108850000Y-55600000D01*
X108850000Y-58700000D01*
X108848796Y-58724504D01*
X108845196Y-58748773D01*
X108839235Y-58772571D01*
X108830970Y-58795671D01*
X108820480Y-58817849D01*
X108807867Y-58838893D01*
X108793253Y-58858598D01*
X108776777Y-58876777D01*
X108758598Y-58893253D01*
X108738893Y-58907867D01*
X108717849Y-58920480D01*
X108695671Y-58930970D01*
X108672571Y-58939235D01*
X108648773Y-58945196D01*
X108624504Y-58948796D01*
X108600000Y-58950000D01*
X107300000Y-58950000D01*
X107275496Y-58948796D01*
X107251227Y-58945196D01*
X107227429Y-58939235D01*
X107204329Y-58930970D01*
X107182151Y-58920480D01*
X107161107Y-58907867D01*
X107141402Y-58893253D01*
X107123223Y-58876777D01*
X107106747Y-58858598D01*
X107092133Y-58838893D01*
X107079520Y-58817849D01*
X107069030Y-58795671D01*
X107060765Y-58772571D01*
X107054804Y-58748773D01*
X107051204Y-58724504D01*
X107050000Y-58700000D01*
X107050000Y-55600000D01*
X107051204Y-55575496D01*
X107054804Y-55551227D01*
X107060765Y-55527429D01*
X107069030Y-55504329D01*
X107079520Y-55482151D01*
X107092133Y-55461107D01*
X107106747Y-55441402D01*
X107123223Y-55423223D01*
X107141402Y-55406747D01*
X107161107Y-55392133D01*
X107182151Y-55379520D01*
X107204329Y-55369030D01*
X107227429Y-55360765D01*
X107251227Y-55354804D01*
X107275496Y-55351204D01*
X107300000Y-55350000D01*
X108600000Y-55350000D01*
X108624504Y-55351204D01*
X108624504Y-55351204D01*
G37*
D12*
X107950000Y-57150000D03*
D13*
X111450000Y-57150000D03*
D14*
X107270000Y-72390000D03*
X111170000Y-72390000D03*
X107270000Y-73660000D03*
X111170000Y-73660000D03*
X107270000Y-74930000D03*
X111170000Y-74930000D03*
X107270000Y-76200000D03*
X111170000Y-76200000D03*
X107270000Y-77470000D03*
X111170000Y-77470000D03*
D10*
G36*
X178104504Y-70221204D02*
G01*
X178128773Y-70224804D01*
X178152571Y-70230765D01*
X178175671Y-70239030D01*
X178197849Y-70249520D01*
X178218893Y-70262133D01*
X178238598Y-70276747D01*
X178256777Y-70293223D01*
X178273253Y-70311402D01*
X178287867Y-70331107D01*
X178300480Y-70352151D01*
X178310970Y-70374329D01*
X178319235Y-70397429D01*
X178325196Y-70421227D01*
X178328796Y-70445496D01*
X178330000Y-70470000D01*
X178330000Y-71770000D01*
X178328796Y-71794504D01*
X178325196Y-71818773D01*
X178319235Y-71842571D01*
X178310970Y-71865671D01*
X178300480Y-71887849D01*
X178287867Y-71908893D01*
X178273253Y-71928598D01*
X178256777Y-71946777D01*
X178238598Y-71963253D01*
X178218893Y-71977867D01*
X178197849Y-71990480D01*
X178175671Y-72000970D01*
X178152571Y-72009235D01*
X178128773Y-72015196D01*
X178104504Y-72018796D01*
X178080000Y-72020000D01*
X174980000Y-72020000D01*
X174955496Y-72018796D01*
X174931227Y-72015196D01*
X174907429Y-72009235D01*
X174884329Y-72000970D01*
X174862151Y-71990480D01*
X174841107Y-71977867D01*
X174821402Y-71963253D01*
X174803223Y-71946777D01*
X174786747Y-71928598D01*
X174772133Y-71908893D01*
X174759520Y-71887849D01*
X174749030Y-71865671D01*
X174740765Y-71842571D01*
X174734804Y-71818773D01*
X174731204Y-71794504D01*
X174730000Y-71770000D01*
X174730000Y-70470000D01*
X174731204Y-70445496D01*
X174734804Y-70421227D01*
X174740765Y-70397429D01*
X174749030Y-70374329D01*
X174759520Y-70352151D01*
X174772133Y-70331107D01*
X174786747Y-70311402D01*
X174803223Y-70293223D01*
X174821402Y-70276747D01*
X174841107Y-70262133D01*
X174862151Y-70249520D01*
X174884329Y-70239030D01*
X174907429Y-70230765D01*
X174931227Y-70224804D01*
X174955496Y-70221204D01*
X174980000Y-70220000D01*
X178080000Y-70220000D01*
X178104504Y-70221204D01*
X178104504Y-70221204D01*
G37*
D12*
X176530000Y-71120000D03*
D15*
X176530000Y-74620000D03*
X176530000Y-78120000D03*
X176530000Y-81620000D03*
D10*
G36*
X120054504Y-55351204D02*
G01*
X120078773Y-55354804D01*
X120102571Y-55360765D01*
X120125671Y-55369030D01*
X120147849Y-55379520D01*
X120168893Y-55392133D01*
X120188598Y-55406747D01*
X120206777Y-55423223D01*
X120223253Y-55441402D01*
X120237867Y-55461107D01*
X120250480Y-55482151D01*
X120260970Y-55504329D01*
X120269235Y-55527429D01*
X120275196Y-55551227D01*
X120278796Y-55575496D01*
X120280000Y-55600000D01*
X120280000Y-58700000D01*
X120278796Y-58724504D01*
X120275196Y-58748773D01*
X120269235Y-58772571D01*
X120260970Y-58795671D01*
X120250480Y-58817849D01*
X120237867Y-58838893D01*
X120223253Y-58858598D01*
X120206777Y-58876777D01*
X120188598Y-58893253D01*
X120168893Y-58907867D01*
X120147849Y-58920480D01*
X120125671Y-58930970D01*
X120102571Y-58939235D01*
X120078773Y-58945196D01*
X120054504Y-58948796D01*
X120030000Y-58950000D01*
X118730000Y-58950000D01*
X118705496Y-58948796D01*
X118681227Y-58945196D01*
X118657429Y-58939235D01*
X118634329Y-58930970D01*
X118612151Y-58920480D01*
X118591107Y-58907867D01*
X118571402Y-58893253D01*
X118553223Y-58876777D01*
X118536747Y-58858598D01*
X118522133Y-58838893D01*
X118509520Y-58817849D01*
X118499030Y-58795671D01*
X118490765Y-58772571D01*
X118484804Y-58748773D01*
X118481204Y-58724504D01*
X118480000Y-58700000D01*
X118480000Y-55600000D01*
X118481204Y-55575496D01*
X118484804Y-55551227D01*
X118490765Y-55527429D01*
X118499030Y-55504329D01*
X118509520Y-55482151D01*
X118522133Y-55461107D01*
X118536747Y-55441402D01*
X118553223Y-55423223D01*
X118571402Y-55406747D01*
X118591107Y-55392133D01*
X118612151Y-55379520D01*
X118634329Y-55369030D01*
X118657429Y-55360765D01*
X118681227Y-55354804D01*
X118705496Y-55351204D01*
X118730000Y-55350000D01*
X120030000Y-55350000D01*
X120054504Y-55351204D01*
X120054504Y-55351204D01*
G37*
D12*
X119380000Y-57150000D03*
D13*
X122880000Y-57150000D03*
X126380000Y-57150000D03*
X129880000Y-57150000D03*
X133380000Y-57150000D03*
X152740000Y-57150000D03*
X149240000Y-57150000D03*
X145740000Y-57150000D03*
D10*
G36*
X142914504Y-55351204D02*
G01*
X142938773Y-55354804D01*
X142962571Y-55360765D01*
X142985671Y-55369030D01*
X143007849Y-55379520D01*
X143028893Y-55392133D01*
X143048598Y-55406747D01*
X143066777Y-55423223D01*
X143083253Y-55441402D01*
X143097867Y-55461107D01*
X143110480Y-55482151D01*
X143120970Y-55504329D01*
X143129235Y-55527429D01*
X143135196Y-55551227D01*
X143138796Y-55575496D01*
X143140000Y-55600000D01*
X143140000Y-58700000D01*
X143138796Y-58724504D01*
X143135196Y-58748773D01*
X143129235Y-58772571D01*
X143120970Y-58795671D01*
X143110480Y-58817849D01*
X143097867Y-58838893D01*
X143083253Y-58858598D01*
X143066777Y-58876777D01*
X143048598Y-58893253D01*
X143028893Y-58907867D01*
X143007849Y-58920480D01*
X142985671Y-58930970D01*
X142962571Y-58939235D01*
X142938773Y-58945196D01*
X142914504Y-58948796D01*
X142890000Y-58950000D01*
X141590000Y-58950000D01*
X141565496Y-58948796D01*
X141541227Y-58945196D01*
X141517429Y-58939235D01*
X141494329Y-58930970D01*
X141472151Y-58920480D01*
X141451107Y-58907867D01*
X141431402Y-58893253D01*
X141413223Y-58876777D01*
X141396747Y-58858598D01*
X141382133Y-58838893D01*
X141369520Y-58817849D01*
X141359030Y-58795671D01*
X141350765Y-58772571D01*
X141344804Y-58748773D01*
X141341204Y-58724504D01*
X141340000Y-58700000D01*
X141340000Y-55600000D01*
X141341204Y-55575496D01*
X141344804Y-55551227D01*
X141350765Y-55527429D01*
X141359030Y-55504329D01*
X141369520Y-55482151D01*
X141382133Y-55461107D01*
X141396747Y-55441402D01*
X141413223Y-55423223D01*
X141431402Y-55406747D01*
X141451107Y-55392133D01*
X141472151Y-55379520D01*
X141494329Y-55369030D01*
X141517429Y-55360765D01*
X141541227Y-55354804D01*
X141565496Y-55351204D01*
X141590000Y-55350000D01*
X142890000Y-55350000D01*
X142914504Y-55351204D01*
X142914504Y-55351204D01*
G37*
D12*
X142240000Y-57150000D03*
D10*
G36*
X161964504Y-55351204D02*
G01*
X161988773Y-55354804D01*
X162012571Y-55360765D01*
X162035671Y-55369030D01*
X162057849Y-55379520D01*
X162078893Y-55392133D01*
X162098598Y-55406747D01*
X162116777Y-55423223D01*
X162133253Y-55441402D01*
X162147867Y-55461107D01*
X162160480Y-55482151D01*
X162170970Y-55504329D01*
X162179235Y-55527429D01*
X162185196Y-55551227D01*
X162188796Y-55575496D01*
X162190000Y-55600000D01*
X162190000Y-58700000D01*
X162188796Y-58724504D01*
X162185196Y-58748773D01*
X162179235Y-58772571D01*
X162170970Y-58795671D01*
X162160480Y-58817849D01*
X162147867Y-58838893D01*
X162133253Y-58858598D01*
X162116777Y-58876777D01*
X162098598Y-58893253D01*
X162078893Y-58907867D01*
X162057849Y-58920480D01*
X162035671Y-58930970D01*
X162012571Y-58939235D01*
X161988773Y-58945196D01*
X161964504Y-58948796D01*
X161940000Y-58950000D01*
X160640000Y-58950000D01*
X160615496Y-58948796D01*
X160591227Y-58945196D01*
X160567429Y-58939235D01*
X160544329Y-58930970D01*
X160522151Y-58920480D01*
X160501107Y-58907867D01*
X160481402Y-58893253D01*
X160463223Y-58876777D01*
X160446747Y-58858598D01*
X160432133Y-58838893D01*
X160419520Y-58817849D01*
X160409030Y-58795671D01*
X160400765Y-58772571D01*
X160394804Y-58748773D01*
X160391204Y-58724504D01*
X160390000Y-58700000D01*
X160390000Y-55600000D01*
X160391204Y-55575496D01*
X160394804Y-55551227D01*
X160400765Y-55527429D01*
X160409030Y-55504329D01*
X160419520Y-55482151D01*
X160432133Y-55461107D01*
X160446747Y-55441402D01*
X160463223Y-55423223D01*
X160481402Y-55406747D01*
X160501107Y-55392133D01*
X160522151Y-55379520D01*
X160544329Y-55369030D01*
X160567429Y-55360765D01*
X160591227Y-55354804D01*
X160615496Y-55351204D01*
X160640000Y-55350000D01*
X161940000Y-55350000D01*
X161964504Y-55351204D01*
X161964504Y-55351204D01*
G37*
D12*
X161290000Y-57150000D03*
D13*
X164790000Y-57150000D03*
X168290000Y-57150000D03*
X171790000Y-57150000D03*
D16*
X146235000Y-72786000D03*
X146235000Y-72136000D03*
X146235000Y-71486000D03*
X146235000Y-70836000D03*
X146235000Y-70186000D03*
X146235000Y-69536000D03*
X146235000Y-68886000D03*
X146235000Y-68236000D03*
X140335000Y-68236000D03*
X140335000Y-68886000D03*
X140335000Y-69536000D03*
X140335000Y-70186000D03*
X140335000Y-70836000D03*
X140335000Y-71486000D03*
X140335000Y-72136000D03*
X140335000Y-72786000D03*
D17*
X124200000Y-80890000D03*
X125000000Y-80890000D03*
X125800000Y-80890000D03*
X126600000Y-80890000D03*
X127400000Y-80890000D03*
X128200000Y-80890000D03*
X129000000Y-80890000D03*
X129800000Y-80890000D03*
D18*
X131250000Y-79440000D03*
X131250000Y-78640000D03*
X131250000Y-77840000D03*
X131250000Y-77040000D03*
X131250000Y-76240000D03*
X131250000Y-75440000D03*
X131250000Y-74640000D03*
X131250000Y-73840000D03*
D17*
X129800000Y-72390000D03*
X129000000Y-72390000D03*
X128200000Y-72390000D03*
X127400000Y-72390000D03*
X126600000Y-72390000D03*
X125800000Y-72390000D03*
X125000000Y-72390000D03*
X124200000Y-72390000D03*
D18*
X122750000Y-73840000D03*
X122750000Y-74640000D03*
X122750000Y-75440000D03*
X122750000Y-76240000D03*
X122750000Y-77040000D03*
X122750000Y-77840000D03*
X122750000Y-78640000D03*
X122750000Y-79440000D03*
D19*
X124300000Y-84460000D03*
X124300000Y-85410000D03*
X124300000Y-86360000D03*
X127000000Y-86360000D03*
X127000000Y-84460000D03*
X127000000Y-85410000D03*
D10*
G36*
X119339505Y-81601205D02*
G01*
X119363774Y-81604805D01*
X119387572Y-81610766D01*
X119410672Y-81619031D01*
X119432850Y-81629521D01*
X119453894Y-81642134D01*
X119473599Y-81656748D01*
X119491778Y-81673224D01*
X119508254Y-81691403D01*
X119522868Y-81711108D01*
X119535481Y-81732152D01*
X119545971Y-81754330D01*
X119554236Y-81777430D01*
X119560197Y-81801228D01*
X119563797Y-81825497D01*
X119565001Y-81850001D01*
X119565001Y-83100001D01*
X119563797Y-83124505D01*
X119560197Y-83148774D01*
X119554236Y-83172572D01*
X119545971Y-83195672D01*
X119535481Y-83217850D01*
X119522868Y-83238894D01*
X119508254Y-83258599D01*
X119491778Y-83276778D01*
X119473599Y-83293254D01*
X119453894Y-83307868D01*
X119432850Y-83320481D01*
X119410672Y-83330971D01*
X119387572Y-83339236D01*
X119363774Y-83345197D01*
X119339505Y-83348797D01*
X119315001Y-83350001D01*
X118390001Y-83350001D01*
X118365497Y-83348797D01*
X118341228Y-83345197D01*
X118317430Y-83339236D01*
X118294330Y-83330971D01*
X118272152Y-83320481D01*
X118251108Y-83307868D01*
X118231403Y-83293254D01*
X118213224Y-83276778D01*
X118196748Y-83258599D01*
X118182134Y-83238894D01*
X118169521Y-83217850D01*
X118159031Y-83195672D01*
X118150766Y-83172572D01*
X118144805Y-83148774D01*
X118141205Y-83124505D01*
X118140001Y-83100001D01*
X118140001Y-81850001D01*
X118141205Y-81825497D01*
X118144805Y-81801228D01*
X118150766Y-81777430D01*
X118159031Y-81754330D01*
X118169521Y-81732152D01*
X118182134Y-81711108D01*
X118196748Y-81691403D01*
X118213224Y-81673224D01*
X118231403Y-81656748D01*
X118251108Y-81642134D01*
X118272152Y-81629521D01*
X118294330Y-81619031D01*
X118317430Y-81610766D01*
X118341228Y-81604805D01*
X118365497Y-81601205D01*
X118390001Y-81600001D01*
X119315001Y-81600001D01*
X119339505Y-81601205D01*
X119339505Y-81601205D01*
G37*
D20*
X118852501Y-82475001D03*
D10*
G36*
X116364505Y-81601205D02*
G01*
X116388774Y-81604805D01*
X116412572Y-81610766D01*
X116435672Y-81619031D01*
X116457850Y-81629521D01*
X116478894Y-81642134D01*
X116498599Y-81656748D01*
X116516778Y-81673224D01*
X116533254Y-81691403D01*
X116547868Y-81711108D01*
X116560481Y-81732152D01*
X116570971Y-81754330D01*
X116579236Y-81777430D01*
X116585197Y-81801228D01*
X116588797Y-81825497D01*
X116590001Y-81850001D01*
X116590001Y-83100001D01*
X116588797Y-83124505D01*
X116585197Y-83148774D01*
X116579236Y-83172572D01*
X116570971Y-83195672D01*
X116560481Y-83217850D01*
X116547868Y-83238894D01*
X116533254Y-83258599D01*
X116516778Y-83276778D01*
X116498599Y-83293254D01*
X116478894Y-83307868D01*
X116457850Y-83320481D01*
X116435672Y-83330971D01*
X116412572Y-83339236D01*
X116388774Y-83345197D01*
X116364505Y-83348797D01*
X116340001Y-83350001D01*
X115415001Y-83350001D01*
X115390497Y-83348797D01*
X115366228Y-83345197D01*
X115342430Y-83339236D01*
X115319330Y-83330971D01*
X115297152Y-83320481D01*
X115276108Y-83307868D01*
X115256403Y-83293254D01*
X115238224Y-83276778D01*
X115221748Y-83258599D01*
X115207134Y-83238894D01*
X115194521Y-83217850D01*
X115184031Y-83195672D01*
X115175766Y-83172572D01*
X115169805Y-83148774D01*
X115166205Y-83124505D01*
X115165001Y-83100001D01*
X115165001Y-81850001D01*
X115166205Y-81825497D01*
X115169805Y-81801228D01*
X115175766Y-81777430D01*
X115184031Y-81754330D01*
X115194521Y-81732152D01*
X115207134Y-81711108D01*
X115221748Y-81691403D01*
X115238224Y-81673224D01*
X115256403Y-81656748D01*
X115276108Y-81642134D01*
X115297152Y-81629521D01*
X115319330Y-81619031D01*
X115342430Y-81610766D01*
X115366228Y-81604805D01*
X115390497Y-81601205D01*
X115415001Y-81600001D01*
X116340001Y-81600001D01*
X116364505Y-81601205D01*
X116364505Y-81601205D01*
G37*
D20*
X115877501Y-82475001D03*
D10*
G36*
X116364505Y-84991205D02*
G01*
X116388774Y-84994805D01*
X116412572Y-85000766D01*
X116435672Y-85009031D01*
X116457850Y-85019521D01*
X116478894Y-85032134D01*
X116498599Y-85046748D01*
X116516778Y-85063224D01*
X116533254Y-85081403D01*
X116547868Y-85101108D01*
X116560481Y-85122152D01*
X116570971Y-85144330D01*
X116579236Y-85167430D01*
X116585197Y-85191228D01*
X116588797Y-85215497D01*
X116590001Y-85240001D01*
X116590001Y-86490001D01*
X116588797Y-86514505D01*
X116585197Y-86538774D01*
X116579236Y-86562572D01*
X116570971Y-86585672D01*
X116560481Y-86607850D01*
X116547868Y-86628894D01*
X116533254Y-86648599D01*
X116516778Y-86666778D01*
X116498599Y-86683254D01*
X116478894Y-86697868D01*
X116457850Y-86710481D01*
X116435672Y-86720971D01*
X116412572Y-86729236D01*
X116388774Y-86735197D01*
X116364505Y-86738797D01*
X116340001Y-86740001D01*
X115415001Y-86740001D01*
X115390497Y-86738797D01*
X115366228Y-86735197D01*
X115342430Y-86729236D01*
X115319330Y-86720971D01*
X115297152Y-86710481D01*
X115276108Y-86697868D01*
X115256403Y-86683254D01*
X115238224Y-86666778D01*
X115221748Y-86648599D01*
X115207134Y-86628894D01*
X115194521Y-86607850D01*
X115184031Y-86585672D01*
X115175766Y-86562572D01*
X115169805Y-86538774D01*
X115166205Y-86514505D01*
X115165001Y-86490001D01*
X115165001Y-85240001D01*
X115166205Y-85215497D01*
X115169805Y-85191228D01*
X115175766Y-85167430D01*
X115184031Y-85144330D01*
X115194521Y-85122152D01*
X115207134Y-85101108D01*
X115221748Y-85081403D01*
X115238224Y-85063224D01*
X115256403Y-85046748D01*
X115276108Y-85032134D01*
X115297152Y-85019521D01*
X115319330Y-85009031D01*
X115342430Y-85000766D01*
X115366228Y-84994805D01*
X115390497Y-84991205D01*
X115415001Y-84990001D01*
X116340001Y-84990001D01*
X116364505Y-84991205D01*
X116364505Y-84991205D01*
G37*
D20*
X115877501Y-85865001D03*
D10*
G36*
X119339505Y-84991205D02*
G01*
X119363774Y-84994805D01*
X119387572Y-85000766D01*
X119410672Y-85009031D01*
X119432850Y-85019521D01*
X119453894Y-85032134D01*
X119473599Y-85046748D01*
X119491778Y-85063224D01*
X119508254Y-85081403D01*
X119522868Y-85101108D01*
X119535481Y-85122152D01*
X119545971Y-85144330D01*
X119554236Y-85167430D01*
X119560197Y-85191228D01*
X119563797Y-85215497D01*
X119565001Y-85240001D01*
X119565001Y-86490001D01*
X119563797Y-86514505D01*
X119560197Y-86538774D01*
X119554236Y-86562572D01*
X119545971Y-86585672D01*
X119535481Y-86607850D01*
X119522868Y-86628894D01*
X119508254Y-86648599D01*
X119491778Y-86666778D01*
X119473599Y-86683254D01*
X119453894Y-86697868D01*
X119432850Y-86710481D01*
X119410672Y-86720971D01*
X119387572Y-86729236D01*
X119363774Y-86735197D01*
X119339505Y-86738797D01*
X119315001Y-86740001D01*
X118390001Y-86740001D01*
X118365497Y-86738797D01*
X118341228Y-86735197D01*
X118317430Y-86729236D01*
X118294330Y-86720971D01*
X118272152Y-86710481D01*
X118251108Y-86697868D01*
X118231403Y-86683254D01*
X118213224Y-86666778D01*
X118196748Y-86648599D01*
X118182134Y-86628894D01*
X118169521Y-86607850D01*
X118159031Y-86585672D01*
X118150766Y-86562572D01*
X118144805Y-86538774D01*
X118141205Y-86514505D01*
X118140001Y-86490001D01*
X118140001Y-85240001D01*
X118141205Y-85215497D01*
X118144805Y-85191228D01*
X118150766Y-85167430D01*
X118159031Y-85144330D01*
X118169521Y-85122152D01*
X118182134Y-85101108D01*
X118196748Y-85081403D01*
X118213224Y-85063224D01*
X118231403Y-85046748D01*
X118251108Y-85032134D01*
X118272152Y-85019521D01*
X118294330Y-85009031D01*
X118317430Y-85000766D01*
X118341228Y-84994805D01*
X118365497Y-84991205D01*
X118390001Y-84990001D01*
X119315001Y-84990001D01*
X119339505Y-84991205D01*
X119339505Y-84991205D01*
G37*
D20*
X118852501Y-85865001D03*
D21*
X150235000Y-82960000D03*
X150235000Y-84660000D03*
X150235000Y-86360000D03*
X150235000Y-88060000D03*
X150235000Y-89760000D03*
D22*
X159385000Y-86360000D03*
M02*
