G04 #@! TF.GenerationSoftware,KiCad,Pcbnew,5.1.4-e60b266~84~ubuntu18.04.1*
G04 #@! TF.CreationDate,2019-10-02T13:36:21-06:00*
G04 #@! TF.ProjectId,Star Tracker,53746172-2054-4726-9163-6b65722e6b69,rev?*
G04 #@! TF.SameCoordinates,Original*
G04 #@! TF.FileFunction,Paste,Bot*
G04 #@! TF.FilePolarity,Positive*
%FSLAX46Y46*%
G04 Gerber Fmt 4.6, Leading zero omitted, Abs format (unit mm)*
G04 Created by KiCad (PCBNEW 5.1.4-e60b266~84~ubuntu18.04.1) date 2019-10-02 13:36:21*
%MOMM*%
%LPD*%
G04 APERTURE LIST*
%ADD10C,0.100000*%
%ADD11C,1.250000*%
%ADD12C,1.425000*%
G04 APERTURE END LIST*
D10*
G36*
X143401504Y-77358204D02*
G01*
X143425773Y-77361804D01*
X143449571Y-77367765D01*
X143472671Y-77376030D01*
X143494849Y-77386520D01*
X143515893Y-77399133D01*
X143535598Y-77413747D01*
X143553777Y-77430223D01*
X143570253Y-77448402D01*
X143584867Y-77468107D01*
X143597480Y-77489151D01*
X143607970Y-77511329D01*
X143616235Y-77534429D01*
X143622196Y-77558227D01*
X143625796Y-77582496D01*
X143627000Y-77607000D01*
X143627000Y-78857000D01*
X143625796Y-78881504D01*
X143622196Y-78905773D01*
X143616235Y-78929571D01*
X143607970Y-78952671D01*
X143597480Y-78974849D01*
X143584867Y-78995893D01*
X143570253Y-79015598D01*
X143553777Y-79033777D01*
X143535598Y-79050253D01*
X143515893Y-79064867D01*
X143494849Y-79077480D01*
X143472671Y-79087970D01*
X143449571Y-79096235D01*
X143425773Y-79102196D01*
X143401504Y-79105796D01*
X143377000Y-79107000D01*
X142627000Y-79107000D01*
X142602496Y-79105796D01*
X142578227Y-79102196D01*
X142554429Y-79096235D01*
X142531329Y-79087970D01*
X142509151Y-79077480D01*
X142488107Y-79064867D01*
X142468402Y-79050253D01*
X142450223Y-79033777D01*
X142433747Y-79015598D01*
X142419133Y-78995893D01*
X142406520Y-78974849D01*
X142396030Y-78952671D01*
X142387765Y-78929571D01*
X142381804Y-78905773D01*
X142378204Y-78881504D01*
X142377000Y-78857000D01*
X142377000Y-77607000D01*
X142378204Y-77582496D01*
X142381804Y-77558227D01*
X142387765Y-77534429D01*
X142396030Y-77511329D01*
X142406520Y-77489151D01*
X142419133Y-77468107D01*
X142433747Y-77448402D01*
X142450223Y-77430223D01*
X142468402Y-77413747D01*
X142488107Y-77399133D01*
X142509151Y-77386520D01*
X142531329Y-77376030D01*
X142554429Y-77367765D01*
X142578227Y-77361804D01*
X142602496Y-77358204D01*
X142627000Y-77357000D01*
X143377000Y-77357000D01*
X143401504Y-77358204D01*
X143401504Y-77358204D01*
G37*
D11*
X143002000Y-78232000D03*
D10*
G36*
X140601504Y-77358204D02*
G01*
X140625773Y-77361804D01*
X140649571Y-77367765D01*
X140672671Y-77376030D01*
X140694849Y-77386520D01*
X140715893Y-77399133D01*
X140735598Y-77413747D01*
X140753777Y-77430223D01*
X140770253Y-77448402D01*
X140784867Y-77468107D01*
X140797480Y-77489151D01*
X140807970Y-77511329D01*
X140816235Y-77534429D01*
X140822196Y-77558227D01*
X140825796Y-77582496D01*
X140827000Y-77607000D01*
X140827000Y-78857000D01*
X140825796Y-78881504D01*
X140822196Y-78905773D01*
X140816235Y-78929571D01*
X140807970Y-78952671D01*
X140797480Y-78974849D01*
X140784867Y-78995893D01*
X140770253Y-79015598D01*
X140753777Y-79033777D01*
X140735598Y-79050253D01*
X140715893Y-79064867D01*
X140694849Y-79077480D01*
X140672671Y-79087970D01*
X140649571Y-79096235D01*
X140625773Y-79102196D01*
X140601504Y-79105796D01*
X140577000Y-79107000D01*
X139827000Y-79107000D01*
X139802496Y-79105796D01*
X139778227Y-79102196D01*
X139754429Y-79096235D01*
X139731329Y-79087970D01*
X139709151Y-79077480D01*
X139688107Y-79064867D01*
X139668402Y-79050253D01*
X139650223Y-79033777D01*
X139633747Y-79015598D01*
X139619133Y-78995893D01*
X139606520Y-78974849D01*
X139596030Y-78952671D01*
X139587765Y-78929571D01*
X139581804Y-78905773D01*
X139578204Y-78881504D01*
X139577000Y-78857000D01*
X139577000Y-77607000D01*
X139578204Y-77582496D01*
X139581804Y-77558227D01*
X139587765Y-77534429D01*
X139596030Y-77511329D01*
X139606520Y-77489151D01*
X139619133Y-77468107D01*
X139633747Y-77448402D01*
X139650223Y-77430223D01*
X139668402Y-77413747D01*
X139688107Y-77399133D01*
X139709151Y-77386520D01*
X139731329Y-77376030D01*
X139754429Y-77367765D01*
X139778227Y-77361804D01*
X139802496Y-77358204D01*
X139827000Y-77357000D01*
X140577000Y-77357000D01*
X140601504Y-77358204D01*
X140601504Y-77358204D01*
G37*
D11*
X140202000Y-78232000D03*
D10*
G36*
X128669504Y-77866204D02*
G01*
X128693773Y-77869804D01*
X128717571Y-77875765D01*
X128740671Y-77884030D01*
X128762849Y-77894520D01*
X128783893Y-77907133D01*
X128803598Y-77921747D01*
X128821777Y-77938223D01*
X128838253Y-77956402D01*
X128852867Y-77976107D01*
X128865480Y-77997151D01*
X128875970Y-78019329D01*
X128884235Y-78042429D01*
X128890196Y-78066227D01*
X128893796Y-78090496D01*
X128895000Y-78115000D01*
X128895000Y-79365000D01*
X128893796Y-79389504D01*
X128890196Y-79413773D01*
X128884235Y-79437571D01*
X128875970Y-79460671D01*
X128865480Y-79482849D01*
X128852867Y-79503893D01*
X128838253Y-79523598D01*
X128821777Y-79541777D01*
X128803598Y-79558253D01*
X128783893Y-79572867D01*
X128762849Y-79585480D01*
X128740671Y-79595970D01*
X128717571Y-79604235D01*
X128693773Y-79610196D01*
X128669504Y-79613796D01*
X128645000Y-79615000D01*
X127895000Y-79615000D01*
X127870496Y-79613796D01*
X127846227Y-79610196D01*
X127822429Y-79604235D01*
X127799329Y-79595970D01*
X127777151Y-79585480D01*
X127756107Y-79572867D01*
X127736402Y-79558253D01*
X127718223Y-79541777D01*
X127701747Y-79523598D01*
X127687133Y-79503893D01*
X127674520Y-79482849D01*
X127664030Y-79460671D01*
X127655765Y-79437571D01*
X127649804Y-79413773D01*
X127646204Y-79389504D01*
X127645000Y-79365000D01*
X127645000Y-78115000D01*
X127646204Y-78090496D01*
X127649804Y-78066227D01*
X127655765Y-78042429D01*
X127664030Y-78019329D01*
X127674520Y-77997151D01*
X127687133Y-77976107D01*
X127701747Y-77956402D01*
X127718223Y-77938223D01*
X127736402Y-77921747D01*
X127756107Y-77907133D01*
X127777151Y-77894520D01*
X127799329Y-77884030D01*
X127822429Y-77875765D01*
X127846227Y-77869804D01*
X127870496Y-77866204D01*
X127895000Y-77865000D01*
X128645000Y-77865000D01*
X128669504Y-77866204D01*
X128669504Y-77866204D01*
G37*
D11*
X128270000Y-78740000D03*
D10*
G36*
X131469504Y-77866204D02*
G01*
X131493773Y-77869804D01*
X131517571Y-77875765D01*
X131540671Y-77884030D01*
X131562849Y-77894520D01*
X131583893Y-77907133D01*
X131603598Y-77921747D01*
X131621777Y-77938223D01*
X131638253Y-77956402D01*
X131652867Y-77976107D01*
X131665480Y-77997151D01*
X131675970Y-78019329D01*
X131684235Y-78042429D01*
X131690196Y-78066227D01*
X131693796Y-78090496D01*
X131695000Y-78115000D01*
X131695000Y-79365000D01*
X131693796Y-79389504D01*
X131690196Y-79413773D01*
X131684235Y-79437571D01*
X131675970Y-79460671D01*
X131665480Y-79482849D01*
X131652867Y-79503893D01*
X131638253Y-79523598D01*
X131621777Y-79541777D01*
X131603598Y-79558253D01*
X131583893Y-79572867D01*
X131562849Y-79585480D01*
X131540671Y-79595970D01*
X131517571Y-79604235D01*
X131493773Y-79610196D01*
X131469504Y-79613796D01*
X131445000Y-79615000D01*
X130695000Y-79615000D01*
X130670496Y-79613796D01*
X130646227Y-79610196D01*
X130622429Y-79604235D01*
X130599329Y-79595970D01*
X130577151Y-79585480D01*
X130556107Y-79572867D01*
X130536402Y-79558253D01*
X130518223Y-79541777D01*
X130501747Y-79523598D01*
X130487133Y-79503893D01*
X130474520Y-79482849D01*
X130464030Y-79460671D01*
X130455765Y-79437571D01*
X130449804Y-79413773D01*
X130446204Y-79389504D01*
X130445000Y-79365000D01*
X130445000Y-78115000D01*
X130446204Y-78090496D01*
X130449804Y-78066227D01*
X130455765Y-78042429D01*
X130464030Y-78019329D01*
X130474520Y-77997151D01*
X130487133Y-77976107D01*
X130501747Y-77956402D01*
X130518223Y-77938223D01*
X130536402Y-77921747D01*
X130556107Y-77907133D01*
X130577151Y-77894520D01*
X130599329Y-77884030D01*
X130622429Y-77875765D01*
X130646227Y-77869804D01*
X130670496Y-77866204D01*
X130695000Y-77865000D01*
X131445000Y-77865000D01*
X131469504Y-77866204D01*
X131469504Y-77866204D01*
G37*
D11*
X131070000Y-78740000D03*
D10*
G36*
X123459504Y-77866204D02*
G01*
X123483773Y-77869804D01*
X123507571Y-77875765D01*
X123530671Y-77884030D01*
X123552849Y-77894520D01*
X123573893Y-77907133D01*
X123593598Y-77921747D01*
X123611777Y-77938223D01*
X123628253Y-77956402D01*
X123642867Y-77976107D01*
X123655480Y-77997151D01*
X123665970Y-78019329D01*
X123674235Y-78042429D01*
X123680196Y-78066227D01*
X123683796Y-78090496D01*
X123685000Y-78115000D01*
X123685000Y-79365000D01*
X123683796Y-79389504D01*
X123680196Y-79413773D01*
X123674235Y-79437571D01*
X123665970Y-79460671D01*
X123655480Y-79482849D01*
X123642867Y-79503893D01*
X123628253Y-79523598D01*
X123611777Y-79541777D01*
X123593598Y-79558253D01*
X123573893Y-79572867D01*
X123552849Y-79585480D01*
X123530671Y-79595970D01*
X123507571Y-79604235D01*
X123483773Y-79610196D01*
X123459504Y-79613796D01*
X123435000Y-79615000D01*
X122685000Y-79615000D01*
X122660496Y-79613796D01*
X122636227Y-79610196D01*
X122612429Y-79604235D01*
X122589329Y-79595970D01*
X122567151Y-79585480D01*
X122546107Y-79572867D01*
X122526402Y-79558253D01*
X122508223Y-79541777D01*
X122491747Y-79523598D01*
X122477133Y-79503893D01*
X122464520Y-79482849D01*
X122454030Y-79460671D01*
X122445765Y-79437571D01*
X122439804Y-79413773D01*
X122436204Y-79389504D01*
X122435000Y-79365000D01*
X122435000Y-78115000D01*
X122436204Y-78090496D01*
X122439804Y-78066227D01*
X122445765Y-78042429D01*
X122454030Y-78019329D01*
X122464520Y-77997151D01*
X122477133Y-77976107D01*
X122491747Y-77956402D01*
X122508223Y-77938223D01*
X122526402Y-77921747D01*
X122546107Y-77907133D01*
X122567151Y-77894520D01*
X122589329Y-77884030D01*
X122612429Y-77875765D01*
X122636227Y-77869804D01*
X122660496Y-77866204D01*
X122685000Y-77865000D01*
X123435000Y-77865000D01*
X123459504Y-77866204D01*
X123459504Y-77866204D01*
G37*
D11*
X123060000Y-78740000D03*
D10*
G36*
X126259504Y-77866204D02*
G01*
X126283773Y-77869804D01*
X126307571Y-77875765D01*
X126330671Y-77884030D01*
X126352849Y-77894520D01*
X126373893Y-77907133D01*
X126393598Y-77921747D01*
X126411777Y-77938223D01*
X126428253Y-77956402D01*
X126442867Y-77976107D01*
X126455480Y-77997151D01*
X126465970Y-78019329D01*
X126474235Y-78042429D01*
X126480196Y-78066227D01*
X126483796Y-78090496D01*
X126485000Y-78115000D01*
X126485000Y-79365000D01*
X126483796Y-79389504D01*
X126480196Y-79413773D01*
X126474235Y-79437571D01*
X126465970Y-79460671D01*
X126455480Y-79482849D01*
X126442867Y-79503893D01*
X126428253Y-79523598D01*
X126411777Y-79541777D01*
X126393598Y-79558253D01*
X126373893Y-79572867D01*
X126352849Y-79585480D01*
X126330671Y-79595970D01*
X126307571Y-79604235D01*
X126283773Y-79610196D01*
X126259504Y-79613796D01*
X126235000Y-79615000D01*
X125485000Y-79615000D01*
X125460496Y-79613796D01*
X125436227Y-79610196D01*
X125412429Y-79604235D01*
X125389329Y-79595970D01*
X125367151Y-79585480D01*
X125346107Y-79572867D01*
X125326402Y-79558253D01*
X125308223Y-79541777D01*
X125291747Y-79523598D01*
X125277133Y-79503893D01*
X125264520Y-79482849D01*
X125254030Y-79460671D01*
X125245765Y-79437571D01*
X125239804Y-79413773D01*
X125236204Y-79389504D01*
X125235000Y-79365000D01*
X125235000Y-78115000D01*
X125236204Y-78090496D01*
X125239804Y-78066227D01*
X125245765Y-78042429D01*
X125254030Y-78019329D01*
X125264520Y-77997151D01*
X125277133Y-77976107D01*
X125291747Y-77956402D01*
X125308223Y-77938223D01*
X125326402Y-77921747D01*
X125346107Y-77907133D01*
X125367151Y-77894520D01*
X125389329Y-77884030D01*
X125412429Y-77875765D01*
X125436227Y-77869804D01*
X125460496Y-77866204D01*
X125485000Y-77865000D01*
X126235000Y-77865000D01*
X126259504Y-77866204D01*
X126259504Y-77866204D01*
G37*
D11*
X125860000Y-78740000D03*
D10*
G36*
X123459504Y-84216204D02*
G01*
X123483773Y-84219804D01*
X123507571Y-84225765D01*
X123530671Y-84234030D01*
X123552849Y-84244520D01*
X123573893Y-84257133D01*
X123593598Y-84271747D01*
X123611777Y-84288223D01*
X123628253Y-84306402D01*
X123642867Y-84326107D01*
X123655480Y-84347151D01*
X123665970Y-84369329D01*
X123674235Y-84392429D01*
X123680196Y-84416227D01*
X123683796Y-84440496D01*
X123685000Y-84465000D01*
X123685000Y-85715000D01*
X123683796Y-85739504D01*
X123680196Y-85763773D01*
X123674235Y-85787571D01*
X123665970Y-85810671D01*
X123655480Y-85832849D01*
X123642867Y-85853893D01*
X123628253Y-85873598D01*
X123611777Y-85891777D01*
X123593598Y-85908253D01*
X123573893Y-85922867D01*
X123552849Y-85935480D01*
X123530671Y-85945970D01*
X123507571Y-85954235D01*
X123483773Y-85960196D01*
X123459504Y-85963796D01*
X123435000Y-85965000D01*
X122685000Y-85965000D01*
X122660496Y-85963796D01*
X122636227Y-85960196D01*
X122612429Y-85954235D01*
X122589329Y-85945970D01*
X122567151Y-85935480D01*
X122546107Y-85922867D01*
X122526402Y-85908253D01*
X122508223Y-85891777D01*
X122491747Y-85873598D01*
X122477133Y-85853893D01*
X122464520Y-85832849D01*
X122454030Y-85810671D01*
X122445765Y-85787571D01*
X122439804Y-85763773D01*
X122436204Y-85739504D01*
X122435000Y-85715000D01*
X122435000Y-84465000D01*
X122436204Y-84440496D01*
X122439804Y-84416227D01*
X122445765Y-84392429D01*
X122454030Y-84369329D01*
X122464520Y-84347151D01*
X122477133Y-84326107D01*
X122491747Y-84306402D01*
X122508223Y-84288223D01*
X122526402Y-84271747D01*
X122546107Y-84257133D01*
X122567151Y-84244520D01*
X122589329Y-84234030D01*
X122612429Y-84225765D01*
X122636227Y-84219804D01*
X122660496Y-84216204D01*
X122685000Y-84215000D01*
X123435000Y-84215000D01*
X123459504Y-84216204D01*
X123459504Y-84216204D01*
G37*
D11*
X123060000Y-85090000D03*
D10*
G36*
X126259504Y-84216204D02*
G01*
X126283773Y-84219804D01*
X126307571Y-84225765D01*
X126330671Y-84234030D01*
X126352849Y-84244520D01*
X126373893Y-84257133D01*
X126393598Y-84271747D01*
X126411777Y-84288223D01*
X126428253Y-84306402D01*
X126442867Y-84326107D01*
X126455480Y-84347151D01*
X126465970Y-84369329D01*
X126474235Y-84392429D01*
X126480196Y-84416227D01*
X126483796Y-84440496D01*
X126485000Y-84465000D01*
X126485000Y-85715000D01*
X126483796Y-85739504D01*
X126480196Y-85763773D01*
X126474235Y-85787571D01*
X126465970Y-85810671D01*
X126455480Y-85832849D01*
X126442867Y-85853893D01*
X126428253Y-85873598D01*
X126411777Y-85891777D01*
X126393598Y-85908253D01*
X126373893Y-85922867D01*
X126352849Y-85935480D01*
X126330671Y-85945970D01*
X126307571Y-85954235D01*
X126283773Y-85960196D01*
X126259504Y-85963796D01*
X126235000Y-85965000D01*
X125485000Y-85965000D01*
X125460496Y-85963796D01*
X125436227Y-85960196D01*
X125412429Y-85954235D01*
X125389329Y-85945970D01*
X125367151Y-85935480D01*
X125346107Y-85922867D01*
X125326402Y-85908253D01*
X125308223Y-85891777D01*
X125291747Y-85873598D01*
X125277133Y-85853893D01*
X125264520Y-85832849D01*
X125254030Y-85810671D01*
X125245765Y-85787571D01*
X125239804Y-85763773D01*
X125236204Y-85739504D01*
X125235000Y-85715000D01*
X125235000Y-84465000D01*
X125236204Y-84440496D01*
X125239804Y-84416227D01*
X125245765Y-84392429D01*
X125254030Y-84369329D01*
X125264520Y-84347151D01*
X125277133Y-84326107D01*
X125291747Y-84306402D01*
X125308223Y-84288223D01*
X125326402Y-84271747D01*
X125346107Y-84257133D01*
X125367151Y-84244520D01*
X125389329Y-84234030D01*
X125412429Y-84225765D01*
X125436227Y-84219804D01*
X125460496Y-84216204D01*
X125485000Y-84215000D01*
X126235000Y-84215000D01*
X126259504Y-84216204D01*
X126259504Y-84216204D01*
G37*
D11*
X125860000Y-85090000D03*
D10*
G36*
X123459504Y-74056204D02*
G01*
X123483773Y-74059804D01*
X123507571Y-74065765D01*
X123530671Y-74074030D01*
X123552849Y-74084520D01*
X123573893Y-74097133D01*
X123593598Y-74111747D01*
X123611777Y-74128223D01*
X123628253Y-74146402D01*
X123642867Y-74166107D01*
X123655480Y-74187151D01*
X123665970Y-74209329D01*
X123674235Y-74232429D01*
X123680196Y-74256227D01*
X123683796Y-74280496D01*
X123685000Y-74305000D01*
X123685000Y-75555000D01*
X123683796Y-75579504D01*
X123680196Y-75603773D01*
X123674235Y-75627571D01*
X123665970Y-75650671D01*
X123655480Y-75672849D01*
X123642867Y-75693893D01*
X123628253Y-75713598D01*
X123611777Y-75731777D01*
X123593598Y-75748253D01*
X123573893Y-75762867D01*
X123552849Y-75775480D01*
X123530671Y-75785970D01*
X123507571Y-75794235D01*
X123483773Y-75800196D01*
X123459504Y-75803796D01*
X123435000Y-75805000D01*
X122685000Y-75805000D01*
X122660496Y-75803796D01*
X122636227Y-75800196D01*
X122612429Y-75794235D01*
X122589329Y-75785970D01*
X122567151Y-75775480D01*
X122546107Y-75762867D01*
X122526402Y-75748253D01*
X122508223Y-75731777D01*
X122491747Y-75713598D01*
X122477133Y-75693893D01*
X122464520Y-75672849D01*
X122454030Y-75650671D01*
X122445765Y-75627571D01*
X122439804Y-75603773D01*
X122436204Y-75579504D01*
X122435000Y-75555000D01*
X122435000Y-74305000D01*
X122436204Y-74280496D01*
X122439804Y-74256227D01*
X122445765Y-74232429D01*
X122454030Y-74209329D01*
X122464520Y-74187151D01*
X122477133Y-74166107D01*
X122491747Y-74146402D01*
X122508223Y-74128223D01*
X122526402Y-74111747D01*
X122546107Y-74097133D01*
X122567151Y-74084520D01*
X122589329Y-74074030D01*
X122612429Y-74065765D01*
X122636227Y-74059804D01*
X122660496Y-74056204D01*
X122685000Y-74055000D01*
X123435000Y-74055000D01*
X123459504Y-74056204D01*
X123459504Y-74056204D01*
G37*
D11*
X123060000Y-74930000D03*
D10*
G36*
X126259504Y-74056204D02*
G01*
X126283773Y-74059804D01*
X126307571Y-74065765D01*
X126330671Y-74074030D01*
X126352849Y-74084520D01*
X126373893Y-74097133D01*
X126393598Y-74111747D01*
X126411777Y-74128223D01*
X126428253Y-74146402D01*
X126442867Y-74166107D01*
X126455480Y-74187151D01*
X126465970Y-74209329D01*
X126474235Y-74232429D01*
X126480196Y-74256227D01*
X126483796Y-74280496D01*
X126485000Y-74305000D01*
X126485000Y-75555000D01*
X126483796Y-75579504D01*
X126480196Y-75603773D01*
X126474235Y-75627571D01*
X126465970Y-75650671D01*
X126455480Y-75672849D01*
X126442867Y-75693893D01*
X126428253Y-75713598D01*
X126411777Y-75731777D01*
X126393598Y-75748253D01*
X126373893Y-75762867D01*
X126352849Y-75775480D01*
X126330671Y-75785970D01*
X126307571Y-75794235D01*
X126283773Y-75800196D01*
X126259504Y-75803796D01*
X126235000Y-75805000D01*
X125485000Y-75805000D01*
X125460496Y-75803796D01*
X125436227Y-75800196D01*
X125412429Y-75794235D01*
X125389329Y-75785970D01*
X125367151Y-75775480D01*
X125346107Y-75762867D01*
X125326402Y-75748253D01*
X125308223Y-75731777D01*
X125291747Y-75713598D01*
X125277133Y-75693893D01*
X125264520Y-75672849D01*
X125254030Y-75650671D01*
X125245765Y-75627571D01*
X125239804Y-75603773D01*
X125236204Y-75579504D01*
X125235000Y-75555000D01*
X125235000Y-74305000D01*
X125236204Y-74280496D01*
X125239804Y-74256227D01*
X125245765Y-74232429D01*
X125254030Y-74209329D01*
X125264520Y-74187151D01*
X125277133Y-74166107D01*
X125291747Y-74146402D01*
X125308223Y-74128223D01*
X125326402Y-74111747D01*
X125346107Y-74097133D01*
X125367151Y-74084520D01*
X125389329Y-74074030D01*
X125412429Y-74065765D01*
X125436227Y-74059804D01*
X125460496Y-74056204D01*
X125485000Y-74055000D01*
X126235000Y-74055000D01*
X126259504Y-74056204D01*
X126259504Y-74056204D01*
G37*
D11*
X125860000Y-74930000D03*
D10*
G36*
X128669504Y-74056204D02*
G01*
X128693773Y-74059804D01*
X128717571Y-74065765D01*
X128740671Y-74074030D01*
X128762849Y-74084520D01*
X128783893Y-74097133D01*
X128803598Y-74111747D01*
X128821777Y-74128223D01*
X128838253Y-74146402D01*
X128852867Y-74166107D01*
X128865480Y-74187151D01*
X128875970Y-74209329D01*
X128884235Y-74232429D01*
X128890196Y-74256227D01*
X128893796Y-74280496D01*
X128895000Y-74305000D01*
X128895000Y-75555000D01*
X128893796Y-75579504D01*
X128890196Y-75603773D01*
X128884235Y-75627571D01*
X128875970Y-75650671D01*
X128865480Y-75672849D01*
X128852867Y-75693893D01*
X128838253Y-75713598D01*
X128821777Y-75731777D01*
X128803598Y-75748253D01*
X128783893Y-75762867D01*
X128762849Y-75775480D01*
X128740671Y-75785970D01*
X128717571Y-75794235D01*
X128693773Y-75800196D01*
X128669504Y-75803796D01*
X128645000Y-75805000D01*
X127895000Y-75805000D01*
X127870496Y-75803796D01*
X127846227Y-75800196D01*
X127822429Y-75794235D01*
X127799329Y-75785970D01*
X127777151Y-75775480D01*
X127756107Y-75762867D01*
X127736402Y-75748253D01*
X127718223Y-75731777D01*
X127701747Y-75713598D01*
X127687133Y-75693893D01*
X127674520Y-75672849D01*
X127664030Y-75650671D01*
X127655765Y-75627571D01*
X127649804Y-75603773D01*
X127646204Y-75579504D01*
X127645000Y-75555000D01*
X127645000Y-74305000D01*
X127646204Y-74280496D01*
X127649804Y-74256227D01*
X127655765Y-74232429D01*
X127664030Y-74209329D01*
X127674520Y-74187151D01*
X127687133Y-74166107D01*
X127701747Y-74146402D01*
X127718223Y-74128223D01*
X127736402Y-74111747D01*
X127756107Y-74097133D01*
X127777151Y-74084520D01*
X127799329Y-74074030D01*
X127822429Y-74065765D01*
X127846227Y-74059804D01*
X127870496Y-74056204D01*
X127895000Y-74055000D01*
X128645000Y-74055000D01*
X128669504Y-74056204D01*
X128669504Y-74056204D01*
G37*
D11*
X128270000Y-74930000D03*
D10*
G36*
X131469504Y-74056204D02*
G01*
X131493773Y-74059804D01*
X131517571Y-74065765D01*
X131540671Y-74074030D01*
X131562849Y-74084520D01*
X131583893Y-74097133D01*
X131603598Y-74111747D01*
X131621777Y-74128223D01*
X131638253Y-74146402D01*
X131652867Y-74166107D01*
X131665480Y-74187151D01*
X131675970Y-74209329D01*
X131684235Y-74232429D01*
X131690196Y-74256227D01*
X131693796Y-74280496D01*
X131695000Y-74305000D01*
X131695000Y-75555000D01*
X131693796Y-75579504D01*
X131690196Y-75603773D01*
X131684235Y-75627571D01*
X131675970Y-75650671D01*
X131665480Y-75672849D01*
X131652867Y-75693893D01*
X131638253Y-75713598D01*
X131621777Y-75731777D01*
X131603598Y-75748253D01*
X131583893Y-75762867D01*
X131562849Y-75775480D01*
X131540671Y-75785970D01*
X131517571Y-75794235D01*
X131493773Y-75800196D01*
X131469504Y-75803796D01*
X131445000Y-75805000D01*
X130695000Y-75805000D01*
X130670496Y-75803796D01*
X130646227Y-75800196D01*
X130622429Y-75794235D01*
X130599329Y-75785970D01*
X130577151Y-75775480D01*
X130556107Y-75762867D01*
X130536402Y-75748253D01*
X130518223Y-75731777D01*
X130501747Y-75713598D01*
X130487133Y-75693893D01*
X130474520Y-75672849D01*
X130464030Y-75650671D01*
X130455765Y-75627571D01*
X130449804Y-75603773D01*
X130446204Y-75579504D01*
X130445000Y-75555000D01*
X130445000Y-74305000D01*
X130446204Y-74280496D01*
X130449804Y-74256227D01*
X130455765Y-74232429D01*
X130464030Y-74209329D01*
X130474520Y-74187151D01*
X130487133Y-74166107D01*
X130501747Y-74146402D01*
X130518223Y-74128223D01*
X130536402Y-74111747D01*
X130556107Y-74097133D01*
X130577151Y-74084520D01*
X130599329Y-74074030D01*
X130622429Y-74065765D01*
X130646227Y-74059804D01*
X130670496Y-74056204D01*
X130695000Y-74055000D01*
X131445000Y-74055000D01*
X131469504Y-74056204D01*
X131469504Y-74056204D01*
G37*
D11*
X131070000Y-74930000D03*
D10*
G36*
X143524504Y-68842204D02*
G01*
X143548773Y-68845804D01*
X143572571Y-68851765D01*
X143595671Y-68860030D01*
X143617849Y-68870520D01*
X143638893Y-68883133D01*
X143658598Y-68897747D01*
X143676777Y-68914223D01*
X143693253Y-68932402D01*
X143707867Y-68952107D01*
X143720480Y-68973151D01*
X143730970Y-68995329D01*
X143739235Y-69018429D01*
X143745196Y-69042227D01*
X143748796Y-69066496D01*
X143750000Y-69091000D01*
X143750000Y-69841000D01*
X143748796Y-69865504D01*
X143745196Y-69889773D01*
X143739235Y-69913571D01*
X143730970Y-69936671D01*
X143720480Y-69958849D01*
X143707867Y-69979893D01*
X143693253Y-69999598D01*
X143676777Y-70017777D01*
X143658598Y-70034253D01*
X143638893Y-70048867D01*
X143617849Y-70061480D01*
X143595671Y-70071970D01*
X143572571Y-70080235D01*
X143548773Y-70086196D01*
X143524504Y-70089796D01*
X143500000Y-70091000D01*
X142250000Y-70091000D01*
X142225496Y-70089796D01*
X142201227Y-70086196D01*
X142177429Y-70080235D01*
X142154329Y-70071970D01*
X142132151Y-70061480D01*
X142111107Y-70048867D01*
X142091402Y-70034253D01*
X142073223Y-70017777D01*
X142056747Y-69999598D01*
X142042133Y-69979893D01*
X142029520Y-69958849D01*
X142019030Y-69936671D01*
X142010765Y-69913571D01*
X142004804Y-69889773D01*
X142001204Y-69865504D01*
X142000000Y-69841000D01*
X142000000Y-69091000D01*
X142001204Y-69066496D01*
X142004804Y-69042227D01*
X142010765Y-69018429D01*
X142019030Y-68995329D01*
X142029520Y-68973151D01*
X142042133Y-68952107D01*
X142056747Y-68932402D01*
X142073223Y-68914223D01*
X142091402Y-68897747D01*
X142111107Y-68883133D01*
X142132151Y-68870520D01*
X142154329Y-68860030D01*
X142177429Y-68851765D01*
X142201227Y-68845804D01*
X142225496Y-68842204D01*
X142250000Y-68841000D01*
X143500000Y-68841000D01*
X143524504Y-68842204D01*
X143524504Y-68842204D01*
G37*
D11*
X142875000Y-69466000D03*
D10*
G36*
X143524504Y-71642204D02*
G01*
X143548773Y-71645804D01*
X143572571Y-71651765D01*
X143595671Y-71660030D01*
X143617849Y-71670520D01*
X143638893Y-71683133D01*
X143658598Y-71697747D01*
X143676777Y-71714223D01*
X143693253Y-71732402D01*
X143707867Y-71752107D01*
X143720480Y-71773151D01*
X143730970Y-71795329D01*
X143739235Y-71818429D01*
X143745196Y-71842227D01*
X143748796Y-71866496D01*
X143750000Y-71891000D01*
X143750000Y-72641000D01*
X143748796Y-72665504D01*
X143745196Y-72689773D01*
X143739235Y-72713571D01*
X143730970Y-72736671D01*
X143720480Y-72758849D01*
X143707867Y-72779893D01*
X143693253Y-72799598D01*
X143676777Y-72817777D01*
X143658598Y-72834253D01*
X143638893Y-72848867D01*
X143617849Y-72861480D01*
X143595671Y-72871970D01*
X143572571Y-72880235D01*
X143548773Y-72886196D01*
X143524504Y-72889796D01*
X143500000Y-72891000D01*
X142250000Y-72891000D01*
X142225496Y-72889796D01*
X142201227Y-72886196D01*
X142177429Y-72880235D01*
X142154329Y-72871970D01*
X142132151Y-72861480D01*
X142111107Y-72848867D01*
X142091402Y-72834253D01*
X142073223Y-72817777D01*
X142056747Y-72799598D01*
X142042133Y-72779893D01*
X142029520Y-72758849D01*
X142019030Y-72736671D01*
X142010765Y-72713571D01*
X142004804Y-72689773D01*
X142001204Y-72665504D01*
X142000000Y-72641000D01*
X142000000Y-71891000D01*
X142001204Y-71866496D01*
X142004804Y-71842227D01*
X142010765Y-71818429D01*
X142019030Y-71795329D01*
X142029520Y-71773151D01*
X142042133Y-71752107D01*
X142056747Y-71732402D01*
X142073223Y-71714223D01*
X142091402Y-71697747D01*
X142111107Y-71683133D01*
X142132151Y-71670520D01*
X142154329Y-71660030D01*
X142177429Y-71651765D01*
X142201227Y-71645804D01*
X142225496Y-71642204D01*
X142250000Y-71641000D01*
X143500000Y-71641000D01*
X143524504Y-71642204D01*
X143524504Y-71642204D01*
G37*
D11*
X142875000Y-72266000D03*
D10*
G36*
X154319504Y-83326204D02*
G01*
X154343773Y-83329804D01*
X154367571Y-83335765D01*
X154390671Y-83344030D01*
X154412849Y-83354520D01*
X154433893Y-83367133D01*
X154453598Y-83381747D01*
X154471777Y-83398223D01*
X154488253Y-83416402D01*
X154502867Y-83436107D01*
X154515480Y-83457151D01*
X154525970Y-83479329D01*
X154534235Y-83502429D01*
X154540196Y-83526227D01*
X154543796Y-83550496D01*
X154545000Y-83575000D01*
X154545000Y-84325000D01*
X154543796Y-84349504D01*
X154540196Y-84373773D01*
X154534235Y-84397571D01*
X154525970Y-84420671D01*
X154515480Y-84442849D01*
X154502867Y-84463893D01*
X154488253Y-84483598D01*
X154471777Y-84501777D01*
X154453598Y-84518253D01*
X154433893Y-84532867D01*
X154412849Y-84545480D01*
X154390671Y-84555970D01*
X154367571Y-84564235D01*
X154343773Y-84570196D01*
X154319504Y-84573796D01*
X154295000Y-84575000D01*
X153045000Y-84575000D01*
X153020496Y-84573796D01*
X152996227Y-84570196D01*
X152972429Y-84564235D01*
X152949329Y-84555970D01*
X152927151Y-84545480D01*
X152906107Y-84532867D01*
X152886402Y-84518253D01*
X152868223Y-84501777D01*
X152851747Y-84483598D01*
X152837133Y-84463893D01*
X152824520Y-84442849D01*
X152814030Y-84420671D01*
X152805765Y-84397571D01*
X152799804Y-84373773D01*
X152796204Y-84349504D01*
X152795000Y-84325000D01*
X152795000Y-83575000D01*
X152796204Y-83550496D01*
X152799804Y-83526227D01*
X152805765Y-83502429D01*
X152814030Y-83479329D01*
X152824520Y-83457151D01*
X152837133Y-83436107D01*
X152851747Y-83416402D01*
X152868223Y-83398223D01*
X152886402Y-83381747D01*
X152906107Y-83367133D01*
X152927151Y-83354520D01*
X152949329Y-83344030D01*
X152972429Y-83335765D01*
X152996227Y-83329804D01*
X153020496Y-83326204D01*
X153045000Y-83325000D01*
X154295000Y-83325000D01*
X154319504Y-83326204D01*
X154319504Y-83326204D01*
G37*
D11*
X153670000Y-83950000D03*
D10*
G36*
X154319504Y-80526204D02*
G01*
X154343773Y-80529804D01*
X154367571Y-80535765D01*
X154390671Y-80544030D01*
X154412849Y-80554520D01*
X154433893Y-80567133D01*
X154453598Y-80581747D01*
X154471777Y-80598223D01*
X154488253Y-80616402D01*
X154502867Y-80636107D01*
X154515480Y-80657151D01*
X154525970Y-80679329D01*
X154534235Y-80702429D01*
X154540196Y-80726227D01*
X154543796Y-80750496D01*
X154545000Y-80775000D01*
X154545000Y-81525000D01*
X154543796Y-81549504D01*
X154540196Y-81573773D01*
X154534235Y-81597571D01*
X154525970Y-81620671D01*
X154515480Y-81642849D01*
X154502867Y-81663893D01*
X154488253Y-81683598D01*
X154471777Y-81701777D01*
X154453598Y-81718253D01*
X154433893Y-81732867D01*
X154412849Y-81745480D01*
X154390671Y-81755970D01*
X154367571Y-81764235D01*
X154343773Y-81770196D01*
X154319504Y-81773796D01*
X154295000Y-81775000D01*
X153045000Y-81775000D01*
X153020496Y-81773796D01*
X152996227Y-81770196D01*
X152972429Y-81764235D01*
X152949329Y-81755970D01*
X152927151Y-81745480D01*
X152906107Y-81732867D01*
X152886402Y-81718253D01*
X152868223Y-81701777D01*
X152851747Y-81683598D01*
X152837133Y-81663893D01*
X152824520Y-81642849D01*
X152814030Y-81620671D01*
X152805765Y-81597571D01*
X152799804Y-81573773D01*
X152796204Y-81549504D01*
X152795000Y-81525000D01*
X152795000Y-80775000D01*
X152796204Y-80750496D01*
X152799804Y-80726227D01*
X152805765Y-80702429D01*
X152814030Y-80679329D01*
X152824520Y-80657151D01*
X152837133Y-80636107D01*
X152851747Y-80616402D01*
X152868223Y-80598223D01*
X152886402Y-80581747D01*
X152906107Y-80567133D01*
X152927151Y-80554520D01*
X152949329Y-80544030D01*
X152972429Y-80535765D01*
X152996227Y-80529804D01*
X153020496Y-80526204D01*
X153045000Y-80525000D01*
X154295000Y-80525000D01*
X154319504Y-80526204D01*
X154319504Y-80526204D01*
G37*
D11*
X153670000Y-81150000D03*
D10*
G36*
X154319504Y-89676204D02*
G01*
X154343773Y-89679804D01*
X154367571Y-89685765D01*
X154390671Y-89694030D01*
X154412849Y-89704520D01*
X154433893Y-89717133D01*
X154453598Y-89731747D01*
X154471777Y-89748223D01*
X154488253Y-89766402D01*
X154502867Y-89786107D01*
X154515480Y-89807151D01*
X154525970Y-89829329D01*
X154534235Y-89852429D01*
X154540196Y-89876227D01*
X154543796Y-89900496D01*
X154545000Y-89925000D01*
X154545000Y-90675000D01*
X154543796Y-90699504D01*
X154540196Y-90723773D01*
X154534235Y-90747571D01*
X154525970Y-90770671D01*
X154515480Y-90792849D01*
X154502867Y-90813893D01*
X154488253Y-90833598D01*
X154471777Y-90851777D01*
X154453598Y-90868253D01*
X154433893Y-90882867D01*
X154412849Y-90895480D01*
X154390671Y-90905970D01*
X154367571Y-90914235D01*
X154343773Y-90920196D01*
X154319504Y-90923796D01*
X154295000Y-90925000D01*
X153045000Y-90925000D01*
X153020496Y-90923796D01*
X152996227Y-90920196D01*
X152972429Y-90914235D01*
X152949329Y-90905970D01*
X152927151Y-90895480D01*
X152906107Y-90882867D01*
X152886402Y-90868253D01*
X152868223Y-90851777D01*
X152851747Y-90833598D01*
X152837133Y-90813893D01*
X152824520Y-90792849D01*
X152814030Y-90770671D01*
X152805765Y-90747571D01*
X152799804Y-90723773D01*
X152796204Y-90699504D01*
X152795000Y-90675000D01*
X152795000Y-89925000D01*
X152796204Y-89900496D01*
X152799804Y-89876227D01*
X152805765Y-89852429D01*
X152814030Y-89829329D01*
X152824520Y-89807151D01*
X152837133Y-89786107D01*
X152851747Y-89766402D01*
X152868223Y-89748223D01*
X152886402Y-89731747D01*
X152906107Y-89717133D01*
X152927151Y-89704520D01*
X152949329Y-89694030D01*
X152972429Y-89685765D01*
X152996227Y-89679804D01*
X153020496Y-89676204D01*
X153045000Y-89675000D01*
X154295000Y-89675000D01*
X154319504Y-89676204D01*
X154319504Y-89676204D01*
G37*
D11*
X153670000Y-90300000D03*
D10*
G36*
X154319504Y-86876204D02*
G01*
X154343773Y-86879804D01*
X154367571Y-86885765D01*
X154390671Y-86894030D01*
X154412849Y-86904520D01*
X154433893Y-86917133D01*
X154453598Y-86931747D01*
X154471777Y-86948223D01*
X154488253Y-86966402D01*
X154502867Y-86986107D01*
X154515480Y-87007151D01*
X154525970Y-87029329D01*
X154534235Y-87052429D01*
X154540196Y-87076227D01*
X154543796Y-87100496D01*
X154545000Y-87125000D01*
X154545000Y-87875000D01*
X154543796Y-87899504D01*
X154540196Y-87923773D01*
X154534235Y-87947571D01*
X154525970Y-87970671D01*
X154515480Y-87992849D01*
X154502867Y-88013893D01*
X154488253Y-88033598D01*
X154471777Y-88051777D01*
X154453598Y-88068253D01*
X154433893Y-88082867D01*
X154412849Y-88095480D01*
X154390671Y-88105970D01*
X154367571Y-88114235D01*
X154343773Y-88120196D01*
X154319504Y-88123796D01*
X154295000Y-88125000D01*
X153045000Y-88125000D01*
X153020496Y-88123796D01*
X152996227Y-88120196D01*
X152972429Y-88114235D01*
X152949329Y-88105970D01*
X152927151Y-88095480D01*
X152906107Y-88082867D01*
X152886402Y-88068253D01*
X152868223Y-88051777D01*
X152851747Y-88033598D01*
X152837133Y-88013893D01*
X152824520Y-87992849D01*
X152814030Y-87970671D01*
X152805765Y-87947571D01*
X152799804Y-87923773D01*
X152796204Y-87899504D01*
X152795000Y-87875000D01*
X152795000Y-87125000D01*
X152796204Y-87100496D01*
X152799804Y-87076227D01*
X152805765Y-87052429D01*
X152814030Y-87029329D01*
X152824520Y-87007151D01*
X152837133Y-86986107D01*
X152851747Y-86966402D01*
X152868223Y-86948223D01*
X152886402Y-86931747D01*
X152906107Y-86917133D01*
X152927151Y-86904520D01*
X152949329Y-86894030D01*
X152972429Y-86885765D01*
X152996227Y-86879804D01*
X153020496Y-86876204D01*
X153045000Y-86875000D01*
X154295000Y-86875000D01*
X154319504Y-86876204D01*
X154319504Y-86876204D01*
G37*
D11*
X153670000Y-87500000D03*
D10*
G36*
X120029504Y-78246204D02*
G01*
X120053773Y-78249804D01*
X120077571Y-78255765D01*
X120100671Y-78264030D01*
X120122849Y-78274520D01*
X120143893Y-78287133D01*
X120163598Y-78301747D01*
X120181777Y-78318223D01*
X120198253Y-78336402D01*
X120212867Y-78356107D01*
X120225480Y-78377151D01*
X120235970Y-78399329D01*
X120244235Y-78422429D01*
X120250196Y-78446227D01*
X120253796Y-78470496D01*
X120255000Y-78495000D01*
X120255000Y-79245000D01*
X120253796Y-79269504D01*
X120250196Y-79293773D01*
X120244235Y-79317571D01*
X120235970Y-79340671D01*
X120225480Y-79362849D01*
X120212867Y-79383893D01*
X120198253Y-79403598D01*
X120181777Y-79421777D01*
X120163598Y-79438253D01*
X120143893Y-79452867D01*
X120122849Y-79465480D01*
X120100671Y-79475970D01*
X120077571Y-79484235D01*
X120053773Y-79490196D01*
X120029504Y-79493796D01*
X120005000Y-79495000D01*
X118755000Y-79495000D01*
X118730496Y-79493796D01*
X118706227Y-79490196D01*
X118682429Y-79484235D01*
X118659329Y-79475970D01*
X118637151Y-79465480D01*
X118616107Y-79452867D01*
X118596402Y-79438253D01*
X118578223Y-79421777D01*
X118561747Y-79403598D01*
X118547133Y-79383893D01*
X118534520Y-79362849D01*
X118524030Y-79340671D01*
X118515765Y-79317571D01*
X118509804Y-79293773D01*
X118506204Y-79269504D01*
X118505000Y-79245000D01*
X118505000Y-78495000D01*
X118506204Y-78470496D01*
X118509804Y-78446227D01*
X118515765Y-78422429D01*
X118524030Y-78399329D01*
X118534520Y-78377151D01*
X118547133Y-78356107D01*
X118561747Y-78336402D01*
X118578223Y-78318223D01*
X118596402Y-78301747D01*
X118616107Y-78287133D01*
X118637151Y-78274520D01*
X118659329Y-78264030D01*
X118682429Y-78255765D01*
X118706227Y-78249804D01*
X118730496Y-78246204D01*
X118755000Y-78245000D01*
X120005000Y-78245000D01*
X120029504Y-78246204D01*
X120029504Y-78246204D01*
G37*
D11*
X119380000Y-78870000D03*
D10*
G36*
X120029504Y-75446204D02*
G01*
X120053773Y-75449804D01*
X120077571Y-75455765D01*
X120100671Y-75464030D01*
X120122849Y-75474520D01*
X120143893Y-75487133D01*
X120163598Y-75501747D01*
X120181777Y-75518223D01*
X120198253Y-75536402D01*
X120212867Y-75556107D01*
X120225480Y-75577151D01*
X120235970Y-75599329D01*
X120244235Y-75622429D01*
X120250196Y-75646227D01*
X120253796Y-75670496D01*
X120255000Y-75695000D01*
X120255000Y-76445000D01*
X120253796Y-76469504D01*
X120250196Y-76493773D01*
X120244235Y-76517571D01*
X120235970Y-76540671D01*
X120225480Y-76562849D01*
X120212867Y-76583893D01*
X120198253Y-76603598D01*
X120181777Y-76621777D01*
X120163598Y-76638253D01*
X120143893Y-76652867D01*
X120122849Y-76665480D01*
X120100671Y-76675970D01*
X120077571Y-76684235D01*
X120053773Y-76690196D01*
X120029504Y-76693796D01*
X120005000Y-76695000D01*
X118755000Y-76695000D01*
X118730496Y-76693796D01*
X118706227Y-76690196D01*
X118682429Y-76684235D01*
X118659329Y-76675970D01*
X118637151Y-76665480D01*
X118616107Y-76652867D01*
X118596402Y-76638253D01*
X118578223Y-76621777D01*
X118561747Y-76603598D01*
X118547133Y-76583893D01*
X118534520Y-76562849D01*
X118524030Y-76540671D01*
X118515765Y-76517571D01*
X118509804Y-76493773D01*
X118506204Y-76469504D01*
X118505000Y-76445000D01*
X118505000Y-75695000D01*
X118506204Y-75670496D01*
X118509804Y-75646227D01*
X118515765Y-75622429D01*
X118524030Y-75599329D01*
X118534520Y-75577151D01*
X118547133Y-75556107D01*
X118561747Y-75536402D01*
X118578223Y-75518223D01*
X118596402Y-75501747D01*
X118616107Y-75487133D01*
X118637151Y-75474520D01*
X118659329Y-75464030D01*
X118682429Y-75455765D01*
X118706227Y-75449804D01*
X118730496Y-75446204D01*
X118755000Y-75445000D01*
X120005000Y-75445000D01*
X120029504Y-75446204D01*
X120029504Y-75446204D01*
G37*
D11*
X119380000Y-76070000D03*
D10*
G36*
X140604504Y-74437204D02*
G01*
X140628773Y-74440804D01*
X140652571Y-74446765D01*
X140675671Y-74455030D01*
X140697849Y-74465520D01*
X140718893Y-74478133D01*
X140738598Y-74492747D01*
X140756777Y-74509223D01*
X140773253Y-74527402D01*
X140787867Y-74547107D01*
X140800480Y-74568151D01*
X140810970Y-74590329D01*
X140819235Y-74613429D01*
X140825196Y-74637227D01*
X140828796Y-74661496D01*
X140830000Y-74686000D01*
X140830000Y-75936000D01*
X140828796Y-75960504D01*
X140825196Y-75984773D01*
X140819235Y-76008571D01*
X140810970Y-76031671D01*
X140800480Y-76053849D01*
X140787867Y-76074893D01*
X140773253Y-76094598D01*
X140756777Y-76112777D01*
X140738598Y-76129253D01*
X140718893Y-76143867D01*
X140697849Y-76156480D01*
X140675671Y-76166970D01*
X140652571Y-76175235D01*
X140628773Y-76181196D01*
X140604504Y-76184796D01*
X140580000Y-76186000D01*
X139830000Y-76186000D01*
X139805496Y-76184796D01*
X139781227Y-76181196D01*
X139757429Y-76175235D01*
X139734329Y-76166970D01*
X139712151Y-76156480D01*
X139691107Y-76143867D01*
X139671402Y-76129253D01*
X139653223Y-76112777D01*
X139636747Y-76094598D01*
X139622133Y-76074893D01*
X139609520Y-76053849D01*
X139599030Y-76031671D01*
X139590765Y-76008571D01*
X139584804Y-75984773D01*
X139581204Y-75960504D01*
X139580000Y-75936000D01*
X139580000Y-74686000D01*
X139581204Y-74661496D01*
X139584804Y-74637227D01*
X139590765Y-74613429D01*
X139599030Y-74590329D01*
X139609520Y-74568151D01*
X139622133Y-74547107D01*
X139636747Y-74527402D01*
X139653223Y-74509223D01*
X139671402Y-74492747D01*
X139691107Y-74478133D01*
X139712151Y-74465520D01*
X139734329Y-74455030D01*
X139757429Y-74446765D01*
X139781227Y-74440804D01*
X139805496Y-74437204D01*
X139830000Y-74436000D01*
X140580000Y-74436000D01*
X140604504Y-74437204D01*
X140604504Y-74437204D01*
G37*
D11*
X140205000Y-75311000D03*
D10*
G36*
X143404504Y-74437204D02*
G01*
X143428773Y-74440804D01*
X143452571Y-74446765D01*
X143475671Y-74455030D01*
X143497849Y-74465520D01*
X143518893Y-74478133D01*
X143538598Y-74492747D01*
X143556777Y-74509223D01*
X143573253Y-74527402D01*
X143587867Y-74547107D01*
X143600480Y-74568151D01*
X143610970Y-74590329D01*
X143619235Y-74613429D01*
X143625196Y-74637227D01*
X143628796Y-74661496D01*
X143630000Y-74686000D01*
X143630000Y-75936000D01*
X143628796Y-75960504D01*
X143625196Y-75984773D01*
X143619235Y-76008571D01*
X143610970Y-76031671D01*
X143600480Y-76053849D01*
X143587867Y-76074893D01*
X143573253Y-76094598D01*
X143556777Y-76112777D01*
X143538598Y-76129253D01*
X143518893Y-76143867D01*
X143497849Y-76156480D01*
X143475671Y-76166970D01*
X143452571Y-76175235D01*
X143428773Y-76181196D01*
X143404504Y-76184796D01*
X143380000Y-76186000D01*
X142630000Y-76186000D01*
X142605496Y-76184796D01*
X142581227Y-76181196D01*
X142557429Y-76175235D01*
X142534329Y-76166970D01*
X142512151Y-76156480D01*
X142491107Y-76143867D01*
X142471402Y-76129253D01*
X142453223Y-76112777D01*
X142436747Y-76094598D01*
X142422133Y-76074893D01*
X142409520Y-76053849D01*
X142399030Y-76031671D01*
X142390765Y-76008571D01*
X142384804Y-75984773D01*
X142381204Y-75960504D01*
X142380000Y-75936000D01*
X142380000Y-74686000D01*
X142381204Y-74661496D01*
X142384804Y-74637227D01*
X142390765Y-74613429D01*
X142399030Y-74590329D01*
X142409520Y-74568151D01*
X142422133Y-74547107D01*
X142436747Y-74527402D01*
X142453223Y-74509223D01*
X142471402Y-74492747D01*
X142491107Y-74478133D01*
X142512151Y-74465520D01*
X142534329Y-74455030D01*
X142557429Y-74446765D01*
X142581227Y-74440804D01*
X142605496Y-74437204D01*
X142630000Y-74436000D01*
X143380000Y-74436000D01*
X143404504Y-74437204D01*
X143404504Y-74437204D01*
G37*
D11*
X143005000Y-75311000D03*
D10*
G36*
X111899504Y-62626204D02*
G01*
X111923773Y-62629804D01*
X111947571Y-62635765D01*
X111970671Y-62644030D01*
X111992849Y-62654520D01*
X112013893Y-62667133D01*
X112033598Y-62681747D01*
X112051777Y-62698223D01*
X112068253Y-62716402D01*
X112082867Y-62736107D01*
X112095480Y-62757151D01*
X112105970Y-62779329D01*
X112114235Y-62802429D01*
X112120196Y-62826227D01*
X112123796Y-62850496D01*
X112125000Y-62875000D01*
X112125000Y-64125000D01*
X112123796Y-64149504D01*
X112120196Y-64173773D01*
X112114235Y-64197571D01*
X112105970Y-64220671D01*
X112095480Y-64242849D01*
X112082867Y-64263893D01*
X112068253Y-64283598D01*
X112051777Y-64301777D01*
X112033598Y-64318253D01*
X112013893Y-64332867D01*
X111992849Y-64345480D01*
X111970671Y-64355970D01*
X111947571Y-64364235D01*
X111923773Y-64370196D01*
X111899504Y-64373796D01*
X111875000Y-64375000D01*
X111125000Y-64375000D01*
X111100496Y-64373796D01*
X111076227Y-64370196D01*
X111052429Y-64364235D01*
X111029329Y-64355970D01*
X111007151Y-64345480D01*
X110986107Y-64332867D01*
X110966402Y-64318253D01*
X110948223Y-64301777D01*
X110931747Y-64283598D01*
X110917133Y-64263893D01*
X110904520Y-64242849D01*
X110894030Y-64220671D01*
X110885765Y-64197571D01*
X110879804Y-64173773D01*
X110876204Y-64149504D01*
X110875000Y-64125000D01*
X110875000Y-62875000D01*
X110876204Y-62850496D01*
X110879804Y-62826227D01*
X110885765Y-62802429D01*
X110894030Y-62779329D01*
X110904520Y-62757151D01*
X110917133Y-62736107D01*
X110931747Y-62716402D01*
X110948223Y-62698223D01*
X110966402Y-62681747D01*
X110986107Y-62667133D01*
X111007151Y-62654520D01*
X111029329Y-62644030D01*
X111052429Y-62635765D01*
X111076227Y-62629804D01*
X111100496Y-62626204D01*
X111125000Y-62625000D01*
X111875000Y-62625000D01*
X111899504Y-62626204D01*
X111899504Y-62626204D01*
G37*
D11*
X111500000Y-63500000D03*
D10*
G36*
X114699504Y-62626204D02*
G01*
X114723773Y-62629804D01*
X114747571Y-62635765D01*
X114770671Y-62644030D01*
X114792849Y-62654520D01*
X114813893Y-62667133D01*
X114833598Y-62681747D01*
X114851777Y-62698223D01*
X114868253Y-62716402D01*
X114882867Y-62736107D01*
X114895480Y-62757151D01*
X114905970Y-62779329D01*
X114914235Y-62802429D01*
X114920196Y-62826227D01*
X114923796Y-62850496D01*
X114925000Y-62875000D01*
X114925000Y-64125000D01*
X114923796Y-64149504D01*
X114920196Y-64173773D01*
X114914235Y-64197571D01*
X114905970Y-64220671D01*
X114895480Y-64242849D01*
X114882867Y-64263893D01*
X114868253Y-64283598D01*
X114851777Y-64301777D01*
X114833598Y-64318253D01*
X114813893Y-64332867D01*
X114792849Y-64345480D01*
X114770671Y-64355970D01*
X114747571Y-64364235D01*
X114723773Y-64370196D01*
X114699504Y-64373796D01*
X114675000Y-64375000D01*
X113925000Y-64375000D01*
X113900496Y-64373796D01*
X113876227Y-64370196D01*
X113852429Y-64364235D01*
X113829329Y-64355970D01*
X113807151Y-64345480D01*
X113786107Y-64332867D01*
X113766402Y-64318253D01*
X113748223Y-64301777D01*
X113731747Y-64283598D01*
X113717133Y-64263893D01*
X113704520Y-64242849D01*
X113694030Y-64220671D01*
X113685765Y-64197571D01*
X113679804Y-64173773D01*
X113676204Y-64149504D01*
X113675000Y-64125000D01*
X113675000Y-62875000D01*
X113676204Y-62850496D01*
X113679804Y-62826227D01*
X113685765Y-62802429D01*
X113694030Y-62779329D01*
X113704520Y-62757151D01*
X113717133Y-62736107D01*
X113731747Y-62716402D01*
X113748223Y-62698223D01*
X113766402Y-62681747D01*
X113786107Y-62667133D01*
X113807151Y-62654520D01*
X113829329Y-62644030D01*
X113852429Y-62635765D01*
X113876227Y-62629804D01*
X113900496Y-62626204D01*
X113925000Y-62625000D01*
X114675000Y-62625000D01*
X114699504Y-62626204D01*
X114699504Y-62626204D01*
G37*
D11*
X114300000Y-63500000D03*
D10*
G36*
X118597004Y-84851204D02*
G01*
X118621273Y-84854804D01*
X118645071Y-84860765D01*
X118668171Y-84869030D01*
X118690349Y-84879520D01*
X118711393Y-84892133D01*
X118731098Y-84906747D01*
X118749277Y-84923223D01*
X118765753Y-84941402D01*
X118780367Y-84961107D01*
X118792980Y-84982151D01*
X118803470Y-85004329D01*
X118811735Y-85027429D01*
X118817696Y-85051227D01*
X118821296Y-85075496D01*
X118822500Y-85100000D01*
X118822500Y-86350000D01*
X118821296Y-86374504D01*
X118817696Y-86398773D01*
X118811735Y-86422571D01*
X118803470Y-86445671D01*
X118792980Y-86467849D01*
X118780367Y-86488893D01*
X118765753Y-86508598D01*
X118749277Y-86526777D01*
X118731098Y-86543253D01*
X118711393Y-86557867D01*
X118690349Y-86570480D01*
X118668171Y-86580970D01*
X118645071Y-86589235D01*
X118621273Y-86595196D01*
X118597004Y-86598796D01*
X118572500Y-86600000D01*
X117647500Y-86600000D01*
X117622996Y-86598796D01*
X117598727Y-86595196D01*
X117574929Y-86589235D01*
X117551829Y-86580970D01*
X117529651Y-86570480D01*
X117508607Y-86557867D01*
X117488902Y-86543253D01*
X117470723Y-86526777D01*
X117454247Y-86508598D01*
X117439633Y-86488893D01*
X117427020Y-86467849D01*
X117416530Y-86445671D01*
X117408265Y-86422571D01*
X117402304Y-86398773D01*
X117398704Y-86374504D01*
X117397500Y-86350000D01*
X117397500Y-85100000D01*
X117398704Y-85075496D01*
X117402304Y-85051227D01*
X117408265Y-85027429D01*
X117416530Y-85004329D01*
X117427020Y-84982151D01*
X117439633Y-84961107D01*
X117454247Y-84941402D01*
X117470723Y-84923223D01*
X117488902Y-84906747D01*
X117508607Y-84892133D01*
X117529651Y-84879520D01*
X117551829Y-84869030D01*
X117574929Y-84860765D01*
X117598727Y-84854804D01*
X117622996Y-84851204D01*
X117647500Y-84850000D01*
X118572500Y-84850000D01*
X118597004Y-84851204D01*
X118597004Y-84851204D01*
G37*
D12*
X118110000Y-85725000D03*
D10*
G36*
X115622004Y-84851204D02*
G01*
X115646273Y-84854804D01*
X115670071Y-84860765D01*
X115693171Y-84869030D01*
X115715349Y-84879520D01*
X115736393Y-84892133D01*
X115756098Y-84906747D01*
X115774277Y-84923223D01*
X115790753Y-84941402D01*
X115805367Y-84961107D01*
X115817980Y-84982151D01*
X115828470Y-85004329D01*
X115836735Y-85027429D01*
X115842696Y-85051227D01*
X115846296Y-85075496D01*
X115847500Y-85100000D01*
X115847500Y-86350000D01*
X115846296Y-86374504D01*
X115842696Y-86398773D01*
X115836735Y-86422571D01*
X115828470Y-86445671D01*
X115817980Y-86467849D01*
X115805367Y-86488893D01*
X115790753Y-86508598D01*
X115774277Y-86526777D01*
X115756098Y-86543253D01*
X115736393Y-86557867D01*
X115715349Y-86570480D01*
X115693171Y-86580970D01*
X115670071Y-86589235D01*
X115646273Y-86595196D01*
X115622004Y-86598796D01*
X115597500Y-86600000D01*
X114672500Y-86600000D01*
X114647996Y-86598796D01*
X114623727Y-86595196D01*
X114599929Y-86589235D01*
X114576829Y-86580970D01*
X114554651Y-86570480D01*
X114533607Y-86557867D01*
X114513902Y-86543253D01*
X114495723Y-86526777D01*
X114479247Y-86508598D01*
X114464633Y-86488893D01*
X114452020Y-86467849D01*
X114441530Y-86445671D01*
X114433265Y-86422571D01*
X114427304Y-86398773D01*
X114423704Y-86374504D01*
X114422500Y-86350000D01*
X114422500Y-85100000D01*
X114423704Y-85075496D01*
X114427304Y-85051227D01*
X114433265Y-85027429D01*
X114441530Y-85004329D01*
X114452020Y-84982151D01*
X114464633Y-84961107D01*
X114479247Y-84941402D01*
X114495723Y-84923223D01*
X114513902Y-84906747D01*
X114533607Y-84892133D01*
X114554651Y-84879520D01*
X114576829Y-84869030D01*
X114599929Y-84860765D01*
X114623727Y-84854804D01*
X114647996Y-84851204D01*
X114672500Y-84850000D01*
X115597500Y-84850000D01*
X115622004Y-84851204D01*
X115622004Y-84851204D01*
G37*
D12*
X115135000Y-85725000D03*
D10*
G36*
X115622004Y-81422204D02*
G01*
X115646273Y-81425804D01*
X115670071Y-81431765D01*
X115693171Y-81440030D01*
X115715349Y-81450520D01*
X115736393Y-81463133D01*
X115756098Y-81477747D01*
X115774277Y-81494223D01*
X115790753Y-81512402D01*
X115805367Y-81532107D01*
X115817980Y-81553151D01*
X115828470Y-81575329D01*
X115836735Y-81598429D01*
X115842696Y-81622227D01*
X115846296Y-81646496D01*
X115847500Y-81671000D01*
X115847500Y-82921000D01*
X115846296Y-82945504D01*
X115842696Y-82969773D01*
X115836735Y-82993571D01*
X115828470Y-83016671D01*
X115817980Y-83038849D01*
X115805367Y-83059893D01*
X115790753Y-83079598D01*
X115774277Y-83097777D01*
X115756098Y-83114253D01*
X115736393Y-83128867D01*
X115715349Y-83141480D01*
X115693171Y-83151970D01*
X115670071Y-83160235D01*
X115646273Y-83166196D01*
X115622004Y-83169796D01*
X115597500Y-83171000D01*
X114672500Y-83171000D01*
X114647996Y-83169796D01*
X114623727Y-83166196D01*
X114599929Y-83160235D01*
X114576829Y-83151970D01*
X114554651Y-83141480D01*
X114533607Y-83128867D01*
X114513902Y-83114253D01*
X114495723Y-83097777D01*
X114479247Y-83079598D01*
X114464633Y-83059893D01*
X114452020Y-83038849D01*
X114441530Y-83016671D01*
X114433265Y-82993571D01*
X114427304Y-82969773D01*
X114423704Y-82945504D01*
X114422500Y-82921000D01*
X114422500Y-81671000D01*
X114423704Y-81646496D01*
X114427304Y-81622227D01*
X114433265Y-81598429D01*
X114441530Y-81575329D01*
X114452020Y-81553151D01*
X114464633Y-81532107D01*
X114479247Y-81512402D01*
X114495723Y-81494223D01*
X114513902Y-81477747D01*
X114533607Y-81463133D01*
X114554651Y-81450520D01*
X114576829Y-81440030D01*
X114599929Y-81431765D01*
X114623727Y-81425804D01*
X114647996Y-81422204D01*
X114672500Y-81421000D01*
X115597500Y-81421000D01*
X115622004Y-81422204D01*
X115622004Y-81422204D01*
G37*
D12*
X115135000Y-82296000D03*
D10*
G36*
X118597004Y-81422204D02*
G01*
X118621273Y-81425804D01*
X118645071Y-81431765D01*
X118668171Y-81440030D01*
X118690349Y-81450520D01*
X118711393Y-81463133D01*
X118731098Y-81477747D01*
X118749277Y-81494223D01*
X118765753Y-81512402D01*
X118780367Y-81532107D01*
X118792980Y-81553151D01*
X118803470Y-81575329D01*
X118811735Y-81598429D01*
X118817696Y-81622227D01*
X118821296Y-81646496D01*
X118822500Y-81671000D01*
X118822500Y-82921000D01*
X118821296Y-82945504D01*
X118817696Y-82969773D01*
X118811735Y-82993571D01*
X118803470Y-83016671D01*
X118792980Y-83038849D01*
X118780367Y-83059893D01*
X118765753Y-83079598D01*
X118749277Y-83097777D01*
X118731098Y-83114253D01*
X118711393Y-83128867D01*
X118690349Y-83141480D01*
X118668171Y-83151970D01*
X118645071Y-83160235D01*
X118621273Y-83166196D01*
X118597004Y-83169796D01*
X118572500Y-83171000D01*
X117647500Y-83171000D01*
X117622996Y-83169796D01*
X117598727Y-83166196D01*
X117574929Y-83160235D01*
X117551829Y-83151970D01*
X117529651Y-83141480D01*
X117508607Y-83128867D01*
X117488902Y-83114253D01*
X117470723Y-83097777D01*
X117454247Y-83079598D01*
X117439633Y-83059893D01*
X117427020Y-83038849D01*
X117416530Y-83016671D01*
X117408265Y-82993571D01*
X117402304Y-82969773D01*
X117398704Y-82945504D01*
X117397500Y-82921000D01*
X117397500Y-81671000D01*
X117398704Y-81646496D01*
X117402304Y-81622227D01*
X117408265Y-81598429D01*
X117416530Y-81575329D01*
X117427020Y-81553151D01*
X117439633Y-81532107D01*
X117454247Y-81512402D01*
X117470723Y-81494223D01*
X117488902Y-81477747D01*
X117508607Y-81463133D01*
X117529651Y-81450520D01*
X117551829Y-81440030D01*
X117574929Y-81431765D01*
X117598727Y-81425804D01*
X117622996Y-81422204D01*
X117647500Y-81421000D01*
X118572500Y-81421000D01*
X118597004Y-81422204D01*
X118597004Y-81422204D01*
G37*
D12*
X118110000Y-82296000D03*
D10*
G36*
X108219504Y-72151204D02*
G01*
X108243773Y-72154804D01*
X108267571Y-72160765D01*
X108290671Y-72169030D01*
X108312849Y-72179520D01*
X108333893Y-72192133D01*
X108353598Y-72206747D01*
X108371777Y-72223223D01*
X108388253Y-72241402D01*
X108402867Y-72261107D01*
X108415480Y-72282151D01*
X108425970Y-72304329D01*
X108434235Y-72327429D01*
X108440196Y-72351227D01*
X108443796Y-72375496D01*
X108445000Y-72400000D01*
X108445000Y-73650000D01*
X108443796Y-73674504D01*
X108440196Y-73698773D01*
X108434235Y-73722571D01*
X108425970Y-73745671D01*
X108415480Y-73767849D01*
X108402867Y-73788893D01*
X108388253Y-73808598D01*
X108371777Y-73826777D01*
X108353598Y-73843253D01*
X108333893Y-73857867D01*
X108312849Y-73870480D01*
X108290671Y-73880970D01*
X108267571Y-73889235D01*
X108243773Y-73895196D01*
X108219504Y-73898796D01*
X108195000Y-73900000D01*
X107270000Y-73900000D01*
X107245496Y-73898796D01*
X107221227Y-73895196D01*
X107197429Y-73889235D01*
X107174329Y-73880970D01*
X107152151Y-73870480D01*
X107131107Y-73857867D01*
X107111402Y-73843253D01*
X107093223Y-73826777D01*
X107076747Y-73808598D01*
X107062133Y-73788893D01*
X107049520Y-73767849D01*
X107039030Y-73745671D01*
X107030765Y-73722571D01*
X107024804Y-73698773D01*
X107021204Y-73674504D01*
X107020000Y-73650000D01*
X107020000Y-72400000D01*
X107021204Y-72375496D01*
X107024804Y-72351227D01*
X107030765Y-72327429D01*
X107039030Y-72304329D01*
X107049520Y-72282151D01*
X107062133Y-72261107D01*
X107076747Y-72241402D01*
X107093223Y-72223223D01*
X107111402Y-72206747D01*
X107131107Y-72192133D01*
X107152151Y-72179520D01*
X107174329Y-72169030D01*
X107197429Y-72160765D01*
X107221227Y-72154804D01*
X107245496Y-72151204D01*
X107270000Y-72150000D01*
X108195000Y-72150000D01*
X108219504Y-72151204D01*
X108219504Y-72151204D01*
G37*
D12*
X107732500Y-73025000D03*
D10*
G36*
X111194504Y-72151204D02*
G01*
X111218773Y-72154804D01*
X111242571Y-72160765D01*
X111265671Y-72169030D01*
X111287849Y-72179520D01*
X111308893Y-72192133D01*
X111328598Y-72206747D01*
X111346777Y-72223223D01*
X111363253Y-72241402D01*
X111377867Y-72261107D01*
X111390480Y-72282151D01*
X111400970Y-72304329D01*
X111409235Y-72327429D01*
X111415196Y-72351227D01*
X111418796Y-72375496D01*
X111420000Y-72400000D01*
X111420000Y-73650000D01*
X111418796Y-73674504D01*
X111415196Y-73698773D01*
X111409235Y-73722571D01*
X111400970Y-73745671D01*
X111390480Y-73767849D01*
X111377867Y-73788893D01*
X111363253Y-73808598D01*
X111346777Y-73826777D01*
X111328598Y-73843253D01*
X111308893Y-73857867D01*
X111287849Y-73870480D01*
X111265671Y-73880970D01*
X111242571Y-73889235D01*
X111218773Y-73895196D01*
X111194504Y-73898796D01*
X111170000Y-73900000D01*
X110245000Y-73900000D01*
X110220496Y-73898796D01*
X110196227Y-73895196D01*
X110172429Y-73889235D01*
X110149329Y-73880970D01*
X110127151Y-73870480D01*
X110106107Y-73857867D01*
X110086402Y-73843253D01*
X110068223Y-73826777D01*
X110051747Y-73808598D01*
X110037133Y-73788893D01*
X110024520Y-73767849D01*
X110014030Y-73745671D01*
X110005765Y-73722571D01*
X109999804Y-73698773D01*
X109996204Y-73674504D01*
X109995000Y-73650000D01*
X109995000Y-72400000D01*
X109996204Y-72375496D01*
X109999804Y-72351227D01*
X110005765Y-72327429D01*
X110014030Y-72304329D01*
X110024520Y-72282151D01*
X110037133Y-72261107D01*
X110051747Y-72241402D01*
X110068223Y-72223223D01*
X110086402Y-72206747D01*
X110106107Y-72192133D01*
X110127151Y-72179520D01*
X110149329Y-72169030D01*
X110172429Y-72160765D01*
X110196227Y-72154804D01*
X110220496Y-72151204D01*
X110245000Y-72150000D01*
X111170000Y-72150000D01*
X111194504Y-72151204D01*
X111194504Y-72151204D01*
G37*
D12*
X110707500Y-73025000D03*
M02*
